<svg width="1024" height="1024" viewBox="0 0 1024 1024" fill="none" xmlns="http://www.w3.org/2000/svg">
<ellipse cx="547.692" cy="869.104" rx="402.017" ry="45.8924" fill="black" fill-opacity="0.05"/>
<path d="M854.832 694.979C864.445 751.588 820.892 832.357 775.618 818.209L779.463 819.749L748.7 878.283C748.7 878.283 797.151 873.526 810.995 867.115C824.839 860.705 883.287 827.066 893.67 768.917C904.052 710.768 857.006 526.747 883.287 456.222C909.568 385.696 957.118 363.799 926.355 358.793C895.592 353.787 857.915 367.863 845.987 416.557C834.06 465.251 845.218 638.37 854.832 694.979Z" fill="url(#paint0_linear_442_341)"/>
<path d="M347.272 839.605C353.715 826.769 340.071 691.986 347.272 686.943C354.473 681.9 383.278 695.653 383.278 695.653L387.068 866.195C387.068 866.195 368.117 881.782 357.126 883.157C346.135 884.533 308.234 887.283 313.161 866.195C318.089 845.107 340.829 852.442 347.272 839.605Z" fill="#CE8229"/>
<path d="M758.796 593.128C641.77 494.46 531.629 517.406 476.099 406.346L271.419 415.066C247.926 516.956 260.094 591.707 351.73 730.347C351.73 730.347 382.937 801.021 365.957 856.092C355.861 861.14 337.504 862.058 340.716 881.333C343.929 900.608 375.592 894.914 416.439 895.56C434.195 904.491 438.453 656.719 444.433 739.066C450.413 821.413 552.739 842.783 548.609 846.455C544.478 850.126 497.668 846.455 494.456 846.455C491.243 846.455 466.92 858.387 466.461 881.333C466.002 904.279 493.538 901.526 505.47 902.443C509.141 902.726 750.076 885.463 758.796 872.613C758.796 872.613 875.821 691.797 758.796 593.128Z" fill="#E9A95E"/>
<path d="M490.5 815.5C490.5 815.5 354.5 743.5 351.5 727C348.5 710.5 423 690 446.5 696C470 702 490.5 815.5 490.5 815.5Z" fill="#E9A95E"/>
<mask id="mask0_442_341" style="mask-type:alpha" maskUnits="userSpaceOnUse" x="261" y="406" width="550" height="497">
<path d="M758.796 593.129C641.77 494.46 531.629 517.406 476.099 406.347L271.419 415.066C247.926 516.956 260.094 591.707 351.73 730.347C351.73 730.347 382.937 801.021 365.957 856.092C355.861 861.14 337.504 862.058 340.716 881.333C343.929 900.608 375.592 894.914 416.439 895.56C434.195 904.491 438.453 656.719 444.433 739.066C450.413 821.414 552.739 842.783 548.609 846.455C544.478 850.126 497.668 846.455 494.456 846.455C491.243 846.455 466.92 858.387 466.461 881.333C466.002 904.279 493.538 901.526 505.47 902.444C509.141 902.726 750.076 885.463 758.796 872.613C758.796 872.613 875.821 691.797 758.796 593.129Z" fill="#E9A95E"/>
</mask>
<g mask="url(#mask0_442_341)">
<ellipse cx="295.93" cy="634.54" rx="39.0427" ry="134.377" transform="rotate(-17.0991 295.93 634.54)" fill="#F9D9C8"/>
</g>
<path d="M94.4233 163.809C88.397 184.712 177.59 341.199 177.59 341.199L253.253 225.446C253.253 225.446 100.449 142.905 94.4233 163.809Z" fill="#E9A95E"/>
<path d="M452.262 61.9661C468.835 76.059 480.962 255.771 480.962 255.771L353.939 201.101C353.939 201.101 435.689 47.8733 452.262 61.9661Z" fill="#E9A95E"/>
<path d="M391.747 481.251C395.567 480.386 524.997 451.089 481.1 257.156C437.203 63.222 414.776 192.761 305.25 219.337C195.724 245.913 118.232 161.742 175.389 343.306C232.547 524.87 387.928 482.115 391.747 481.251Z" fill="#EB8858"/>
<path d="M391.747 481.251C395.567 480.386 524.997 451.089 481.1 257.156C437.203 63.222 414.776 192.761 305.25 219.337C195.724 245.913 118.232 161.742 175.389 343.306C232.547 524.87 387.928 482.115 391.747 481.251Z" fill="#E9A95E"/>
<circle cx="447.647" cy="355.11" r="16.5213" fill="#EA717D" fill-opacity="0.75"/>
<circle cx="267.749" cy="414.77" r="16.5213" fill="#EA717D" fill-opacity="0.75"/>
<path d="M446.567 222.069C446.567 222.069 446.98 147.03 442.001 128.974C437.022 110.919 387.495 201.536 387.495 201.536" stroke="black" stroke-width="2" stroke-linecap="round"/>
<path d="M136.436 213.051C143.233 230.504 188.406 290.424 188.406 290.424C198.568 267.111 204.963 254.65 223.501 238.66C223.501 238.66 129.638 195.599 136.436 213.051Z" fill="#E9A95E"/>
<path d="M187.882 290.351C187.882 290.351 143.039 230.183 136.338 212.693C129.637 195.204 223.261 238.781 223.261 238.781" stroke="black" stroke-width="2" stroke-linecap="round"/>
<path d="M386.057 383.139C444.264 345.182 478.562 325.844 543.002 295.167" stroke="black" stroke-width="2" stroke-linecap="round"/>
<path d="M148.481 432.748C215.832 415.643 254.539 408.43 325.436 400.229" stroke="black" stroke-width="2" stroke-linecap="round"/>
<path d="M153.41 457.941C218.854 434.58 256.712 423.759 326.524 408.93" stroke="black" stroke-width="2" stroke-linecap="round"/>
<path d="M389.527 391.579C452.038 361.228 488.492 346.349 556.273 324.003" stroke="black" stroke-width="2" stroke-linecap="round"/>
<path d="M407.164 428.351C408.253 427.465 402.346 412.691 401.555 412.124C400.764 411.558 393.216 422.427 393.216 422.427C398.986 424.975 406.075 429.236 407.164 428.351Z" fill="white"/>
<path d="M402.168 413.285C402.168 413.285 408.866 428.627 407.777 429.512C406.687 430.397 399.599 426.137 393.829 423.588" stroke="black" stroke-width="2" stroke-linecap="round"/>
<path d="M334.635 446.121C333.252 445.885 331.151 430.112 331.563 429.23C331.974 428.348 343.883 434.117 343.883 434.117C340.106 439.168 336.019 446.358 334.635 446.121Z" fill="white"/>
<path d="M331.598 430.543C331.598 430.543 333.287 447.197 334.671 447.434C336.055 447.671 340.142 440.481 343.919 435.429" stroke="black" stroke-width="2" stroke-linecap="round"/>
<path d="M329.226 427.777C370.582 447.04 383.141 442.032 402.82 409.733" stroke="black" stroke-width="2" stroke-linecap="round"/>
<path fill-rule="evenodd" clip-rule="evenodd" d="M427.651 304.702C427.651 304.702 427.651 304.703 426.647 304.894L427.651 304.703C427.757 305.257 427.393 305.793 426.838 305.898C426.283 306.003 425.748 305.639 425.643 305.085L425.642 305.079L425.638 305.058L425.62 304.969C425.604 304.89 425.58 304.771 425.547 304.616C425.481 304.304 425.381 303.846 425.244 303.263C424.969 302.097 424.546 300.435 423.957 298.46C422.778 294.505 420.938 289.318 418.293 284.351C415.643 279.374 412.224 274.69 407.919 271.659C403.653 268.655 398.491 267.25 392.208 268.837C385.937 270.421 381.935 274.248 379.425 279.157C376.896 284.102 375.882 290.153 375.683 296.09C375.483 302.016 376.097 307.75 376.764 312.012C377.097 314.141 377.442 315.896 377.704 317.118C377.835 317.728 377.944 318.205 378.021 318.527C378.059 318.688 378.089 318.811 378.11 318.893L378.133 318.984L378.138 319.006L378.139 319.011C378.139 319.011 378.139 319.011 378.139 319.011C378.281 319.558 377.952 320.116 377.406 320.258C376.859 320.399 376.302 320.07 376.16 319.524L377.15 319.268C376.16 319.524 376.16 319.523 376.16 319.523L376.159 319.521L376.158 319.513L376.151 319.487L376.126 319.386C376.104 319.298 376.072 319.168 376.032 319C375.952 318.664 375.839 318.172 375.705 317.546C375.436 316.293 375.084 314.5 374.744 312.328C374.065 307.99 373.434 302.119 373.639 296.021C373.844 289.936 374.884 283.548 377.605 278.226C380.344 272.869 384.788 268.603 391.708 266.855C398.616 265.11 404.385 266.67 409.096 269.988C413.769 273.278 417.373 278.273 420.098 283.391C422.828 288.518 424.714 293.843 425.916 297.876C426.518 299.894 426.951 301.595 427.234 302.794C427.375 303.393 427.479 303.867 427.548 304.193C427.582 304.356 427.608 304.482 427.625 304.568L427.644 304.666L427.649 304.692L427.651 304.7L427.651 304.702Z" fill="black"/>
<path fill-rule="evenodd" clip-rule="evenodd" d="M253.683 358.49C253.683 358.49 253.684 358.491 254.629 358.102L253.684 358.491C253.898 359.013 254.495 359.263 255.017 359.048C255.54 358.834 255.789 358.236 255.575 357.714L255.573 357.709L255.565 357.689L255.531 357.605C255.501 357.53 255.456 357.418 255.399 357.269C255.284 356.972 255.118 356.533 254.915 355.97C254.509 354.843 253.956 353.22 253.371 351.244C252.2 347.286 250.911 341.936 250.415 336.331C249.918 330.713 250.227 324.923 252.179 320.033C254.113 315.188 257.671 311.192 263.801 309.093C269.92 306.996 275.363 308.018 280.146 310.761C284.964 313.524 289.116 318.04 292.525 322.906C295.926 327.762 298.542 332.901 300.31 336.836C301.193 338.802 301.862 340.461 302.31 341.627C302.533 342.21 302.702 342.669 302.813 342.981C302.869 343.137 302.911 343.256 302.939 343.336L302.969 343.425L302.977 343.446L302.978 343.451C302.978 343.451 302.978 343.451 302.978 343.451C303.158 343.986 303.738 344.275 304.273 344.095C304.809 343.915 305.096 343.336 304.916 342.8L303.948 343.126C304.916 342.8 304.916 342.8 304.916 342.799L304.915 342.797L304.913 342.79L304.904 342.764L304.87 342.666C304.841 342.58 304.796 342.454 304.738 342.292C304.622 341.966 304.448 341.493 304.218 340.894C303.76 339.699 303.076 338.003 302.175 335.999C300.376 331.993 297.699 326.729 294.199 321.733C290.706 316.746 286.347 311.961 281.163 308.988C275.943 305.994 269.891 304.846 263.139 307.158C256.398 309.467 252.416 313.924 250.28 319.275C248.161 324.583 247.868 330.736 248.378 336.511C248.89 342.297 250.217 347.789 251.411 351.824C252.008 353.844 252.574 355.505 252.992 356.663C253.2 357.243 253.372 357.697 253.492 358.007C253.552 358.162 253.6 358.282 253.632 358.363L253.67 358.456L253.68 358.481L253.682 358.488L253.683 358.49Z" fill="black"/>
<path d="M364.782 400.383C363.872 403.819 359.773 405.147 357.009 402.912C346.74 394.607 326.516 377.809 327.118 374.785C327.923 370.737 370.86 349.539 372.166 359.899C373.111 367.399 367.792 389.017 364.782 400.383Z" fill="black" fill-opacity="0.9"/>
<path d="M362.065 405.026L366.885 422.399M362.065 405.026C369.28 389.14 374.759 363.081 372.22 360.331C369.681 357.581 328.409 371.114 327.981 374.676C327.553 378.239 341.436 393.789 362.065 405.026Z" stroke="black" stroke-width="2" stroke-linecap="round"/>
<path fill-rule="evenodd" clip-rule="evenodd" d="M476.802 441.824C477.063 441.391 477.626 441.255 478.059 441.521C485.17 445.879 488.419 448.98 493.389 455.051C493.711 455.445 493.656 456.025 493.267 456.346C492.877 456.667 492.299 456.608 491.977 456.214C487.118 450.278 484.021 447.324 477.112 443.089C476.679 442.824 476.54 442.258 476.802 441.824Z" fill="black"/>
<path fill-rule="evenodd" clip-rule="evenodd" d="M478.637 455.233C478.899 454.799 479.462 454.663 479.894 454.929C487.005 459.287 490.254 462.388 495.224 468.46C495.546 468.853 495.491 469.433 495.102 469.754C494.712 470.075 494.134 470.016 493.812 469.623C488.953 463.686 485.856 460.732 478.947 456.497C478.515 456.232 478.376 455.666 478.637 455.233Z" fill="black"/>
<path fill-rule="evenodd" clip-rule="evenodd" d="M497.9 459.462C498.161 459.029 498.724 458.893 499.157 459.158C506.268 463.517 509.517 466.617 514.487 472.689C514.809 473.083 514.754 473.662 514.364 473.983C513.974 474.305 513.397 474.246 513.075 473.852C508.215 467.915 505.118 464.962 498.21 460.727C497.777 460.462 497.638 459.895 497.9 459.462Z" fill="black"/>
<path fill-rule="evenodd" clip-rule="evenodd" d="M272.705 244.584C272.454 244.145 272.609 243.587 273.051 243.338C280.318 239.245 284.608 237.915 292.33 236.525C292.831 236.435 293.31 236.765 293.401 237.262C293.492 237.759 293.16 238.235 292.659 238.325C285.109 239.683 281.021 240.952 273.961 244.928C273.519 245.178 272.956 245.024 272.705 244.584Z" fill="black"/>
<path fill-rule="evenodd" clip-rule="evenodd" d="M285.313 249.503C285.062 249.064 285.217 248.506 285.659 248.257C292.926 244.164 297.215 242.833 304.938 241.444C305.438 241.354 305.918 241.684 306.009 242.181C306.1 242.677 305.768 243.153 305.267 243.243C297.716 244.602 293.629 245.871 286.569 249.847C286.127 250.096 285.564 249.942 285.313 249.503Z" fill="black"/>
<path fill-rule="evenodd" clip-rule="evenodd" d="M298.378 234.73C298.127 234.291 298.282 233.733 298.724 233.484C305.991 229.391 310.28 228.06 318.003 226.671C318.503 226.581 318.983 226.911 319.074 227.408C319.165 227.904 318.833 228.38 318.332 228.47C310.781 229.829 306.694 231.098 299.634 235.074C299.192 235.323 298.629 235.169 298.378 234.73Z" fill="black"/>
<path fill-rule="evenodd" clip-rule="evenodd" d="M549.22 493.185C549.414 492.718 549.95 492.499 550.418 492.697C558.101 495.941 561.778 498.52 567.601 503.779C567.979 504.12 568.011 504.701 567.674 505.077C567.336 505.453 566.757 505.481 566.379 505.14C560.685 499.998 557.181 497.542 549.716 494.39C549.248 494.192 549.026 493.653 549.22 493.185Z" fill="black"/>
<path fill-rule="evenodd" clip-rule="evenodd" d="M553.043 506.167C553.236 505.7 553.772 505.481 554.24 505.679C561.923 508.923 565.6 511.502 571.424 516.761C571.801 517.102 571.834 517.683 571.496 518.059C571.159 518.435 570.579 518.463 570.202 518.122C564.508 512.98 561.004 510.524 553.539 507.372C553.071 507.174 552.849 506.635 553.043 506.167Z" fill="black"/>
<path fill-rule="evenodd" clip-rule="evenodd" d="M572.721 507.464C572.915 506.997 573.451 506.778 573.919 506.975C581.602 510.22 585.279 512.799 591.103 518.057C591.48 518.398 591.513 518.979 591.175 519.355C590.838 519.731 590.258 519.76 589.881 519.419C584.187 514.277 580.682 511.82 573.218 508.668C572.75 508.471 572.528 507.932 572.721 507.464Z" fill="black"/>
<path fill-rule="evenodd" clip-rule="evenodd" d="M301.41 628.501C300.99 628.783 300.422 628.669 300.142 628.245C295.542 621.288 293.91 617.104 291.974 609.5C291.849 609.007 292.144 608.505 292.633 608.379C293.122 608.253 293.62 608.55 293.746 609.043C295.638 616.478 297.195 620.465 301.663 627.224C301.944 627.648 301.83 628.22 301.41 628.501Z" fill="black"/>
<path fill-rule="evenodd" clip-rule="evenodd" d="M305.418 615.576C304.998 615.858 304.431 615.743 304.15 615.319C299.551 608.362 297.918 604.178 295.983 596.574C295.858 596.081 296.152 595.579 296.642 595.453C297.131 595.327 297.629 595.625 297.754 596.118C299.647 603.553 301.203 607.539 305.672 614.298C305.952 614.722 305.839 615.294 305.418 615.576Z" fill="black"/>
<path fill-rule="evenodd" clip-rule="evenodd" d="M289.753 603.595C289.333 603.877 288.765 603.762 288.485 603.339C283.886 596.382 282.253 592.198 280.318 584.594C280.192 584.101 280.487 583.599 280.976 583.473C281.465 583.347 281.963 583.644 282.089 584.137C283.981 591.572 285.538 595.559 290.007 602.318C290.287 602.741 290.173 603.313 289.753 603.595Z" fill="black"/>
<path fill-rule="evenodd" clip-rule="evenodd" d="M333.411 664.846C333.03 665.18 332.453 665.138 332.121 664.753C326.674 658.438 324.522 654.496 321.635 647.2C321.448 646.727 321.676 646.191 322.146 646.004C322.615 645.817 323.147 646.048 323.334 646.521C326.157 653.655 328.208 657.411 333.5 663.547C333.832 663.932 333.792 664.513 333.411 664.846Z" fill="black"/>
<path fill-rule="evenodd" clip-rule="evenodd" d="M335.743 651.516C335.362 651.849 334.784 651.807 334.453 651.423C329.005 645.107 326.854 641.165 323.967 633.869C323.78 633.396 324.008 632.861 324.477 632.673C324.946 632.486 325.479 632.718 325.666 633.191C328.488 640.325 330.54 644.081 335.832 650.216C336.164 650.601 336.124 651.183 335.743 651.516Z" fill="black"/>
<path fill-rule="evenodd" clip-rule="evenodd" d="M318.681 641.626C318.3 641.959 317.722 641.917 317.39 641.532C311.943 635.217 309.791 631.275 306.904 623.979C306.717 623.506 306.946 622.971 307.415 622.783C307.884 622.596 308.416 622.828 308.603 623.301C311.426 630.434 313.477 634.19 318.77 640.326C319.101 640.711 319.061 641.292 318.681 641.626Z" fill="black"/>
<path fill-rule="evenodd" clip-rule="evenodd" d="M292.463 587.857C292.008 588.078 291.461 587.885 291.243 587.426C287.657 579.897 286.622 575.527 285.764 567.727C285.709 567.221 286.07 566.766 286.572 566.709C287.074 566.652 287.526 567.016 287.582 567.522C288.421 575.148 289.408 579.312 292.892 586.627C293.11 587.086 292.918 587.636 292.463 587.857Z" fill="black"/>
<path fill-rule="evenodd" clip-rule="evenodd" d="M298.232 575.615C297.776 575.836 297.23 575.643 297.012 575.185C293.426 567.655 292.391 563.285 291.533 555.485C291.477 554.98 291.839 554.524 292.341 554.467C292.843 554.41 293.295 554.774 293.351 555.28C294.19 562.906 295.177 567.07 298.661 574.385C298.879 574.844 298.687 575.394 298.232 575.615Z" fill="black"/>
<path fill-rule="evenodd" clip-rule="evenodd" d="M284.386 561.571C283.931 561.791 283.385 561.599 283.167 561.14C279.58 553.611 278.546 549.24 277.688 541.441C277.632 540.935 277.994 540.479 278.496 540.423C278.998 540.366 279.45 540.73 279.505 541.235C280.344 548.861 281.331 553.026 284.816 560.341C285.034 560.799 284.842 561.35 284.386 561.571Z" fill="black"/>
<path d="M468.945 888.361C469.498 872.468 474.264 866.473 493.978 863.114" stroke="black" stroke-width="2" stroke-linecap="round"/>
<path d="M486.687 897.693C487.24 881.8 492.007 875.804 511.721 872.446" stroke="black" stroke-width="2" stroke-linecap="round"/>
<path fill-rule="evenodd" clip-rule="evenodd" d="M359.984 865.875C360.041 866.21 359.815 866.528 359.48 866.585C352.896 867.707 348.969 869.249 346.619 871.713C344.285 874.16 343.4 877.63 343.215 882.919C343.204 883.259 342.919 883.524 342.579 883.513C342.24 883.501 341.974 883.216 341.986 882.877C342.173 877.515 343.07 873.651 345.729 870.864C348.371 868.093 352.647 866.501 359.274 865.372C359.609 865.315 359.926 865.54 359.984 865.875Z" fill="black"/>
<path fill-rule="evenodd" clip-rule="evenodd" d="M367.588 874.237C367.649 874.574 367.422 874.89 367.081 874.945C360.374 876.02 356.381 877.537 354.004 879.99C351.642 882.426 350.766 885.9 350.619 891.203C350.609 891.544 350.321 891.808 349.975 891.794C349.628 891.779 349.355 891.492 349.365 891.151C349.514 885.775 350.399 881.907 353.089 879.131C355.763 876.373 360.112 874.809 366.861 873.727C367.202 873.673 367.528 873.901 367.588 874.237Z" fill="black"/>
<path fill-rule="evenodd" clip-rule="evenodd" d="M504.341 480.299C504.552 479.839 505.096 479.641 505.556 479.856C513.111 483.387 516.689 486.103 522.31 491.577C522.674 491.932 522.685 492.514 522.334 492.877C521.982 493.24 521.402 493.246 521.038 492.891C515.541 487.539 512.132 484.952 504.791 481.521C504.331 481.306 504.129 480.759 504.341 480.299Z" fill="black"/>
<path fill-rule="evenodd" clip-rule="evenodd" d="M507.672 493.416C507.883 492.956 508.427 492.758 508.887 492.973C516.443 496.504 520.02 499.219 525.641 504.694C526.005 505.049 526.016 505.631 525.665 505.994C525.313 506.356 524.733 506.363 524.369 506.008C518.873 500.655 515.463 498.069 508.122 494.638C507.662 494.423 507.461 493.876 507.672 493.416Z" fill="black"/>
<path fill-rule="evenodd" clip-rule="evenodd" d="M527.288 495.453C527.499 494.993 528.043 494.794 528.503 495.009C536.059 498.541 539.636 501.256 545.257 506.73C545.622 507.085 545.632 507.667 545.281 508.03C544.93 508.393 544.349 508.4 543.985 508.045C538.489 502.692 535.079 500.105 527.739 496.675C527.278 496.46 527.077 495.912 527.288 495.453Z" fill="black"/>
<path fill-rule="evenodd" clip-rule="evenodd" d="M791.146 762.342C791.644 762.428 791.975 762.903 791.885 763.403C790.405 771.611 788.695 775.764 784.841 782.599C784.592 783.042 784.032 783.201 783.591 782.954C783.15 782.707 782.995 782.148 783.245 781.705C787.013 775.022 788.641 771.064 790.08 763.09C790.17 762.59 790.647 762.255 791.146 762.342Z" fill="black"/>
<path fill-rule="evenodd" clip-rule="evenodd" d="M779.318 768.918C779.816 769.005 780.148 769.48 780.057 769.98C778.577 778.187 776.867 782.34 773.014 789.175C772.764 789.618 772.204 789.777 771.763 789.531C771.323 789.284 771.168 788.725 771.418 788.282C775.186 781.599 776.814 777.641 778.252 769.667C778.342 769.167 778.819 768.832 779.318 768.918Z" fill="black"/>
<path fill-rule="evenodd" clip-rule="evenodd" d="M782.369 788.402C782.867 788.489 783.198 788.964 783.108 789.464C781.628 797.672 779.918 801.824 776.064 808.659C775.815 809.102 775.255 809.262 774.814 809.015C774.373 808.768 774.218 808.209 774.468 807.766C778.236 801.083 779.864 797.125 781.303 789.151C781.393 788.651 781.87 788.316 782.369 788.402Z" fill="black"/>
<path fill-rule="evenodd" clip-rule="evenodd" d="M789.966 710.698C790.472 710.685 790.889 711.086 790.898 711.594C791.05 719.933 790.184 724.34 787.74 731.796C787.581 732.279 787.064 732.544 786.583 732.389C786.103 732.233 785.842 731.715 786 731.231C788.39 723.941 789.214 719.741 789.067 711.64C789.057 711.132 789.46 710.71 789.966 710.698Z" fill="black"/>
<path fill-rule="evenodd" clip-rule="evenodd" d="M779.651 719.458C780.156 719.445 780.574 719.847 780.583 720.354C780.735 728.693 779.869 733.1 777.425 740.556C777.266 741.039 776.748 741.305 776.268 741.149C775.787 740.993 775.526 740.475 775.685 739.991C778.075 732.701 778.898 728.502 778.751 720.4C778.742 719.892 779.145 719.47 779.651 719.458Z" fill="black"/>
<path fill-rule="evenodd" clip-rule="evenodd" d="M786.448 737.971C786.954 737.958 787.372 738.359 787.381 738.867C787.532 747.206 786.667 751.613 784.223 759.069C784.064 759.552 783.546 759.818 783.066 759.662C782.585 759.506 782.324 758.988 782.483 758.504C784.873 751.214 785.696 747.014 785.549 738.913C785.54 738.405 785.943 737.983 786.448 737.971Z" fill="black"/>
<path d="M550.446 846.158C550.446 846.158 444.434 820.458 442.139 719.954C439.845 619.45 512.814 668.096 512.814 668.096" stroke="black" stroke-width="2" stroke-linecap="round"/>
<path d="M469.133 414.862C469.438 414.401 469.311 413.781 468.85 413.476C468.389 413.172 467.769 413.299 467.464 413.76L469.133 414.862ZM286.947 470.752C286.436 470.541 285.851 470.784 285.641 471.294C285.43 471.805 285.673 472.39 286.183 472.6L286.947 470.752ZM467.464 413.76C434.857 463.13 412.671 486.652 387.331 493.311C374.675 496.637 361.135 495.781 344.957 491.688C328.766 487.592 310.013 480.277 286.947 470.752L286.183 472.6C309.239 482.121 328.117 489.491 344.467 493.627C360.83 497.766 374.739 498.688 387.84 495.245C414.014 488.367 436.573 464.16 469.133 414.862L467.464 413.76Z" fill="black"/>
<defs>
<linearGradient id="paint0_linear_442_341" x1="896.362" y1="386.52" x2="824.637" y2="817.156" gradientUnits="userSpaceOnUse">
<stop offset="0.0146638" stop-color="#CE8229"/>
<stop offset="1" stop-color="#E9A95E"/>
</linearGradient>
</defs>
</svg>
