<svg width="1024" height="1024" viewBox="0 0 1024 1024" fill="none" xmlns="http://www.w3.org/2000/svg">
<path d="M997.923 863.573C997.923 888.19 823.108 908.147 607.462 908.147C391.816 908.147 217 888.19 217 863.573C217 838.956 391.816 819 607.462 819C823.108 819 997.923 838.956 997.923 863.573Z" fill="black" fill-opacity="0.05"/>
<path d="M421.679 769.471C425.937 739.173 428.066 678.742 428.066 678.742L339.302 656.96C339.302 656.96 338.484 703.635 334.717 714.116C330.95 724.598 333.571 752.93 339.302 767.506C345.034 782.081 311.789 846.279 319.486 854.468C327.183 862.656 410.379 862.493 420.533 854.468C430.686 846.443 417.421 799.768 421.679 769.471Z" fill="#BFBFBF"/>
<path d="M319.486 854.468C327.183 862.656 410.379 862.493 420.533 854.468C424.856 851.051 424.933 840.627 423.926 827.444H323.803C319.435 840.586 316.618 851.416 319.486 854.468Z" fill="#999999"/>
<path d="M858.786 663.778C851.744 636.428 838.479 542.588 838.479 542.588L661.442 622.999C664.242 623.551 749.665 650.068 759.05 660.83C768.434 671.592 793.114 696.041 785.581 740.75C778.047 785.46 785.581 792.01 778.866 805.112C772.151 818.214 747.75 850.313 754.464 857.846C761.179 865.38 848.469 867.836 855.183 857.846C861.898 847.856 857.64 808.879 846.667 776.78C835.695 744.681 865.828 691.128 858.786 663.778Z" fill="#BFBFBF"/>
<path d="M754.464 857.846C761.179 865.38 848.469 867.836 855.183 857.846C858.232 853.31 859.019 842.795 857.941 829.661H763.928C756.725 841.66 750.697 853.619 754.464 857.846Z" fill="#282828" fill-opacity="0.2"/>
<path d="M891.813 553.434C513.897 770.915 292.401 711.144 202 502.5L269.513 268.891C332.35 293.905 363.285 310.801 505.179 282.975C505.179 282.975 727.908 233.352 823.877 282.975C919.847 332.597 924.289 437.119 891.813 553.434Z" fill="white"/>
<mask id="mask0_517_1453" style="mask-type:alpha" maskUnits="userSpaceOnUse" x="217" y="260" width="694" height="435">
<path d="M891.813 553.434C513.897 770.915 307.672 720.243 217.271 511.599L269.513 268.89C332.35 293.904 363.285 310.801 505.179 282.975C505.179 282.975 727.908 233.352 823.877 282.975C919.847 332.597 924.289 437.119 891.813 553.434Z" fill="white"/>
</mask>
<g mask="url(#mask0_517_1453)">
<path d="M522.288 312.888C522.288 351.841 494.978 383.418 461.29 383.418C427.601 383.418 400.291 351.841 400.291 312.888C400.291 273.935 427.601 242.358 461.29 242.358C494.978 242.358 522.288 273.935 522.288 312.888Z" fill="#282828"/>
<path d="M530.894 535.955C572.91 513.992 546.233 461.894 579.464 456.354C612.694 450.814 644.825 477.471 651.231 515.893C657.636 554.315 635.891 589.954 602.661 595.494C569.43 601.034 488.877 557.918 530.894 535.955Z" fill="#282828"/>
<path d="M378.162 567.705C350.303 553.143 367.991 518.6 345.958 514.926C323.925 511.253 302.621 528.927 298.373 554.403C294.126 579.879 308.544 603.509 330.578 607.182C352.611 610.856 406.021 582.268 378.162 567.705Z" fill="#282828"/>
<path d="M642.857 372.934C610.451 358.637 656.2 258.084 656.2 258.084L716.246 203.28L817.752 275.717C817.752 275.717 764.378 363.879 755.324 324.802C746.269 285.724 695.754 301.451 694.325 324.802C692.895 348.153 756.277 342.911 741.98 363.879C727.683 384.848 675.262 387.23 642.857 372.934Z" fill="#282828"/>
<path d="M823.519 441.099C818.541 406.032 868.435 413.158 868.435 413.158L946.687 435.196L938.797 559.647L864.143 532.566C864.143 532.566 851.642 530.99 840.594 525.223C836.291 535.056 830.564 542.156 823.913 541.877C798.557 540.814 828.497 476.167 823.519 441.099Z" fill="#282828"/>
</g>
<path d="M474.718 781.984C478.976 751.687 481.105 691.255 481.105 691.255L392.342 669.474C392.342 669.474 391.523 716.149 387.756 726.63C383.989 737.111 386.61 765.444 392.342 780.019C398.074 794.595 364.828 858.793 372.525 866.981C380.223 875.17 463.418 875.006 473.572 866.981C483.725 858.957 470.46 812.282 474.718 781.984Z" fill="white"/>
<path d="M372.525 866.981C380.223 875.17 463.418 875.006 473.572 866.981C477.895 863.565 477.973 853.141 476.965 839.957H376.842C372.474 853.099 369.657 863.93 372.525 866.981Z" fill="#282828"/>
<path d="M912.149 674.551C905.107 647.201 891.842 553.361 891.842 553.361L714.806 633.772C717.605 634.324 803.029 660.841 812.413 671.603C821.798 682.365 846.477 706.814 838.944 751.523C831.41 796.233 838.944 802.784 832.229 815.885C825.515 828.987 801.113 861.086 807.827 868.619C814.542 876.153 901.832 878.609 908.547 868.619C915.261 858.629 911.003 819.652 900.03 787.553C889.058 755.454 919.192 701.901 912.149 674.551Z" fill="white"/>
<path d="M807.827 868.619C814.542 876.153 901.832 878.609 908.546 868.619C911.596 864.083 912.382 853.568 911.304 840.434H817.291C810.088 852.433 804.06 864.393 807.827 868.619Z" fill="#282828"/>
<path fill-rule="evenodd" clip-rule="evenodd" d="M393.202 653.103C393.753 653.136 394.173 653.61 394.14 654.161C394.023 656.102 393.857 659.191 393.644 663.164C392.916 676.745 391.635 700.647 389.85 724.23L389.845 724.291L389.833 724.352C388.082 733.07 386.932 740.063 387.317 749.103C387.703 758.16 389.633 769.317 394.109 786.329C394.249 786.863 393.93 787.41 393.396 787.55C392.862 787.691 392.315 787.372 392.175 786.838C387.684 769.771 385.714 758.454 385.319 749.188C384.924 739.925 386.107 732.754 387.86 724.018C389.64 700.482 390.918 676.659 391.646 663.082C391.859 659.097 392.026 655.994 392.144 654.041C392.177 653.49 392.651 653.07 393.202 653.103Z" fill="black"/>
<path fill-rule="evenodd" clip-rule="evenodd" d="M486.726 647.399C487.269 647.498 487.63 648.018 487.531 648.562C481.494 681.683 480.903 696.22 480.001 718.421C479.975 719.068 479.948 719.722 479.921 720.383C479.899 720.935 479.433 721.364 478.881 721.341C478.329 721.319 477.9 720.853 477.923 720.301C477.949 719.645 477.976 718.997 478.002 718.354C478.906 696.1 479.501 681.461 485.563 648.203C485.662 647.66 486.183 647.3 486.726 647.399Z" fill="black"/>
<path fill-rule="evenodd" clip-rule="evenodd" d="M893.96 356.682C893.987 356.13 894.456 355.705 895.008 355.732C912.095 356.579 923.738 360.569 931.684 368.778C939.604 376.961 943.682 389.17 946.057 406.04C948.317 422.086 949.056 442.538 949.979 468.073C950.027 469.399 950.076 470.74 950.125 472.094C951.122 499.536 952.422 532.714 956 572.521C956.05 573.071 955.644 573.557 955.094 573.606C954.544 573.656 954.058 573.25 954.008 572.7C950.425 532.837 949.124 499.615 948.126 472.167C948.078 470.836 948.03 469.518 947.983 468.214C947.057 442.612 946.321 422.259 944.077 406.319C941.717 389.557 937.711 377.882 930.247 370.169C922.808 362.483 911.764 358.565 894.909 357.73C894.357 357.702 893.932 357.233 893.96 356.682Z" fill="black"/>
<path d="M975.373 601.561C977.426 594.426 954.839 572 954.839 572C954.839 572 943.546 593.406 942.519 601.561C941.492 609.716 961.601 622.113 963.052 621.948C964.504 621.784 973.319 608.697 975.373 601.561Z" fill="#282828"/>
<path fill-rule="evenodd" clip-rule="evenodd" d="M955.544 571.29L954.839 572L953.955 571.533L954.585 570.339L955.544 571.29ZM955.093 573.68C954.797 574.255 954.408 575.017 953.952 575.922C952.88 578.05 951.441 580.97 949.971 584.143C948.501 587.318 947.003 590.735 945.812 593.858C944.611 597.004 943.752 599.775 943.511 601.686C943.306 603.316 944.158 605.345 945.885 607.603C947.58 609.82 949.975 612.072 952.484 614.096C954.988 616.116 957.569 617.88 959.609 619.126C960.629 619.749 961.503 620.236 962.154 620.557C962.474 620.715 962.725 620.826 962.905 620.893C962.984 620.827 963.083 620.736 963.204 620.614C963.549 620.266 963.993 619.748 964.513 619.081C965.55 617.753 966.833 615.908 968.142 613.835C970.775 609.664 973.426 604.709 974.412 601.285C974.587 600.675 974.526 599.773 974.129 598.551C973.739 597.351 973.064 595.96 972.169 594.439C970.38 591.402 967.789 587.977 965.106 584.743C962.429 581.516 959.685 578.506 957.608 576.301C956.572 575.201 955.703 574.303 955.093 573.68ZM962.751 621.008C962.751 621.007 962.754 621.005 962.761 621.002C962.754 621.006 962.751 621.008 962.751 621.008ZM976.031 597.933C976.476 599.304 976.672 600.664 976.334 601.838C975.266 605.549 972.483 610.705 969.833 614.903C968.5 617.014 967.178 618.917 966.09 620.312C965.547 621.007 965.049 621.594 964.625 622.021C964.415 622.234 964.204 622.426 964.001 622.576C963.834 622.698 963.534 622.9 963.165 622.942C962.947 622.967 962.749 622.928 962.635 622.901C962.5 622.87 962.361 622.824 962.225 622.774C961.952 622.673 961.628 622.528 961.269 622.351C960.546 621.994 959.619 621.475 958.566 620.832C956.459 619.545 953.805 617.732 951.229 615.653C948.658 613.579 946.127 611.213 944.296 608.818C942.495 606.463 941.219 603.884 941.527 601.436C941.8 599.27 942.737 596.307 943.943 593.146C945.158 589.962 946.676 586.498 948.157 583.302C949.639 580.104 951.087 577.163 952.165 575.022C952.705 573.952 953.151 573.081 953.464 572.477C953.62 572.175 953.742 571.939 953.826 571.779L953.921 571.597L953.955 571.533C953.955 571.533 953.955 571.533 954.839 572C955.544 571.29 955.544 571.29 955.544 571.29L955.561 571.308L955.611 571.357C955.654 571.401 955.718 571.465 955.802 571.549C955.968 571.717 956.212 571.963 956.521 572.278C957.138 572.909 958.017 573.818 959.064 574.93C961.158 577.153 963.933 580.196 966.646 583.466C969.353 586.731 972.024 590.251 973.892 593.425C974.826 595.01 975.579 596.541 976.031 597.933Z" fill="black"/>
<path fill-rule="evenodd" clip-rule="evenodd" d="M822.28 292.334C822.538 291.878 823.117 291.72 823.573 291.982C831.069 296.285 834.527 299.4 839.856 305.542C840.202 305.94 840.162 306.542 839.768 306.886C839.373 307.231 838.774 307.187 838.428 306.789C833.217 300.784 829.921 297.816 822.639 293.635C822.183 293.373 822.022 292.791 822.28 292.334Z" fill="black"/>
<path fill-rule="evenodd" clip-rule="evenodd" d="M824.58 306.169C824.838 305.712 825.417 305.555 825.874 305.817C833.369 310.12 836.827 313.235 842.156 319.377C842.502 319.775 842.462 320.377 842.068 320.721C841.674 321.065 841.074 321.022 840.729 320.623C835.518 314.618 832.222 311.651 824.939 307.47C824.483 307.208 824.322 306.626 824.58 306.169Z" fill="black"/>
<path fill-rule="evenodd" clip-rule="evenodd" d="M844.66 309.977C844.918 309.52 845.497 309.362 845.953 309.625C853.449 313.928 856.907 317.043 862.236 323.184C862.582 323.582 862.542 324.184 862.148 324.529C861.753 324.873 861.154 324.829 860.808 324.431C855.597 318.426 852.301 315.459 845.019 311.278C844.562 311.016 844.402 310.433 844.66 309.977Z" fill="black"/>
<path fill-rule="evenodd" clip-rule="evenodd" d="M866.246 332.882C866.633 332.528 867.233 332.558 867.585 332.948C873.378 339.363 875.701 343.396 878.864 350.887C879.069 351.373 878.845 351.932 878.364 352.138C877.882 352.343 877.325 352.115 877.12 351.63C874.027 344.305 871.813 340.463 866.185 334.231C865.832 333.84 865.86 333.236 866.246 332.882Z" fill="black"/>
<path fill-rule="evenodd" clip-rule="evenodd" d="M864.146 346.749C864.533 346.395 865.132 346.424 865.485 346.815C871.278 353.229 873.6 357.262 876.764 364.753C876.969 365.239 876.745 365.799 876.263 366.004C875.781 366.209 875.225 365.982 875.02 365.496C871.926 358.172 869.712 354.329 864.084 348.097C863.731 347.707 863.759 347.103 864.146 346.749Z" fill="black"/>
<path fill-rule="evenodd" clip-rule="evenodd" d="M882.057 356.592C882.444 356.238 883.043 356.268 883.396 356.658C889.189 363.072 891.511 367.106 894.675 374.597C894.88 375.082 894.656 375.642 894.174 375.847C893.693 376.052 893.136 375.825 892.931 375.339C889.838 368.015 887.623 364.172 881.995 357.94C881.643 357.55 881.67 356.946 882.057 356.592Z" fill="black"/>
<path fill-rule="evenodd" clip-rule="evenodd" d="M825.655 327.378C825.995 326.979 826.594 326.935 826.992 327.279C833.531 332.931 836.332 336.648 840.394 343.692C840.657 344.149 840.504 344.732 840.051 344.995C839.598 345.258 839.018 345.101 838.755 344.644C834.783 337.756 832.113 334.215 825.76 328.724C825.362 328.38 825.315 327.778 825.655 327.378Z" fill="black"/>
<path fill-rule="evenodd" clip-rule="evenodd" d="M825.278 341.398C825.618 340.999 826.217 340.955 826.615 341.299C833.154 346.951 835.955 350.667 840.017 357.712C840.28 358.168 840.127 358.752 839.674 359.015C839.222 359.277 838.641 359.12 838.378 358.664C834.406 351.776 831.736 348.235 825.383 342.744C824.985 342.4 824.938 341.797 825.278 341.398Z" fill="black"/>
<path fill-rule="evenodd" clip-rule="evenodd" d="M844.265 348.961C844.606 348.562 845.204 348.517 845.602 348.861C852.141 354.513 854.942 358.23 859.004 365.274C859.268 365.731 859.114 366.314 858.662 366.577C858.209 366.84 857.628 366.683 857.365 366.226C853.393 359.339 850.723 355.798 844.37 350.306C843.972 349.962 843.925 349.36 844.265 348.961Z" fill="black"/>
<path fill-rule="evenodd" clip-rule="evenodd" d="M219.049 503.144C219.464 502.824 220.059 502.904 220.377 503.323C225.608 510.203 227.582 514.418 230.102 522.149C230.265 522.65 229.995 523.189 229.498 523.353C229 523.517 228.465 523.243 228.302 522.742C225.838 515.183 223.956 511.167 218.873 504.482C218.555 504.063 218.633 503.464 219.049 503.144Z" fill="black"/>
<path fill-rule="evenodd" clip-rule="evenodd" d="M215.785 516.784C216.2 516.464 216.795 516.544 217.114 516.963C222.345 523.843 224.318 528.058 226.838 535.789C227.002 536.29 226.731 536.829 226.234 536.993C225.737 537.157 225.201 536.883 225.038 536.382C222.574 528.823 220.692 524.807 215.61 518.122C215.291 517.703 215.37 517.104 215.785 516.784Z" fill="black"/>
<path fill-rule="evenodd" clip-rule="evenodd" d="M232.802 528.103C233.217 527.783 233.812 527.863 234.131 528.282C239.362 535.163 241.335 539.377 243.856 547.109C244.019 547.61 243.748 548.149 243.251 548.313C242.754 548.476 242.218 548.203 242.055 547.702C239.591 540.142 237.709 536.126 232.627 529.442C232.308 529.023 232.387 528.424 232.802 528.103Z" fill="black"/>
<path fill-rule="evenodd" clip-rule="evenodd" d="M705.563 623.4C705.581 622.876 706.021 622.468 706.547 622.489C715.183 622.834 719.69 623.994 727.257 626.971C727.747 627.164 727.991 627.716 727.801 628.204C727.611 628.691 727.059 628.93 726.568 628.737C719.17 625.826 714.874 624.722 706.484 624.387C705.958 624.366 705.546 623.924 705.563 623.4Z" fill="black"/>
<path fill-rule="evenodd" clip-rule="evenodd" d="M714.007 634.598C714.024 634.074 714.464 633.666 714.99 633.687C723.626 634.032 728.133 635.192 735.7 638.17C736.191 638.363 736.434 638.914 736.244 639.402C736.054 639.89 735.502 640.129 735.012 639.936C727.613 637.025 723.318 635.92 714.927 635.585C714.401 635.564 713.989 635.122 714.007 634.598Z" fill="black"/>
<path fill-rule="evenodd" clip-rule="evenodd" d="M733.568 628.679C733.585 628.154 734.026 627.747 734.552 627.768C743.188 628.112 747.695 629.273 755.262 632.25C755.752 632.443 755.996 632.995 755.806 633.483C755.616 633.97 755.064 634.209 754.573 634.016C747.175 631.105 742.879 630 734.489 629.665C733.963 629.644 733.551 629.203 733.568 628.679Z" fill="black"/>
<path d="M189.553 183.702C110.04 188.452 115.766 243.806 115.766 243.806C109.186 259.638 107.03 285.338 90.6211 327C83.7753 344.382 71.4996 363 61.2851 387.925C9.49993 519.5 217 533 264.485 468.663C326.186 390.947 303.439 303.243 299.825 270.992C279.395 189.368 247.742 185.468 189.553 183.702Z" fill="white"/>
<path fill-rule="evenodd" clip-rule="evenodd" d="M239.876 332.369C239.876 332.369 239.876 332.37 239.019 332.243L239.876 332.37C239.806 332.843 239.365 333.17 238.892 333.1C238.419 333.03 238.092 332.589 238.162 332.115L238.163 332.111L238.165 332.093L238.176 332.017C238.185 331.949 238.199 331.847 238.216 331.713C238.25 331.446 238.298 331.05 238.35 330.545C238.455 329.534 238.579 328.085 238.658 326.339C238.815 322.841 238.787 318.173 238.054 313.457C237.319 308.73 235.887 304.025 233.286 300.397C230.708 296.801 226.968 294.236 221.498 293.756C216.038 293.277 211.769 295.227 208.393 298.46C204.992 301.716 202.496 306.281 200.683 310.982C198.873 315.673 197.767 320.438 197.114 324.038C196.788 325.836 196.575 327.339 196.444 328.39C196.379 328.916 196.334 329.328 196.306 329.608C196.292 329.748 196.281 329.854 196.275 329.925L196.268 330.005L196.266 330.024L196.266 330.029C196.266 330.029 196.266 330.029 196.266 330.029C196.227 330.506 195.808 330.862 195.332 330.823C194.855 330.783 194.5 330.365 194.539 329.887L195.402 329.958C194.539 329.887 194.539 329.887 194.539 329.887L194.539 329.885L194.54 329.878L194.542 329.855L194.55 329.767C194.557 329.691 194.567 329.578 194.582 329.432C194.612 329.14 194.658 328.715 194.725 328.176C194.859 327.098 195.077 325.563 195.409 323.728C196.074 320.064 197.205 315.184 199.067 310.357C200.925 305.539 203.536 300.711 207.196 297.207C210.88 293.679 215.625 291.5 221.649 292.029C227.664 292.557 231.847 295.415 234.693 299.386C237.517 303.325 239.01 308.331 239.766 313.19C240.523 318.059 240.549 322.851 240.389 326.417C240.308 328.202 240.181 329.685 240.073 330.724C240.019 331.243 239.97 331.652 239.935 331.932C239.917 332.072 239.902 332.18 239.892 332.254L239.88 332.338L239.877 332.361L239.876 332.367L239.876 332.369Z" fill="black"/>
<path fill-rule="evenodd" clip-rule="evenodd" d="M168.444 324.293C168.444 324.293 168.444 324.294 167.593 324.131L168.444 324.294C168.354 324.764 167.9 325.072 167.43 324.982C166.96 324.892 166.652 324.438 166.742 323.968L166.743 323.963L166.746 323.945L166.76 323.87C166.772 323.802 166.79 323.701 166.813 323.568C166.858 323.302 166.922 322.909 166.996 322.406C167.143 321.401 167.328 319.958 167.48 318.217C167.785 314.729 167.953 310.064 167.418 305.321C166.883 300.568 165.649 295.806 163.203 292.072C160.779 288.37 157.15 285.65 151.705 284.94C146.27 284.231 141.923 286 138.414 289.088C134.879 292.198 132.193 296.654 130.184 301.274C128.179 305.885 126.874 310.599 126.07 314.169C125.668 315.951 125.393 317.444 125.218 318.488C125.131 319.011 125.068 319.421 125.028 319.699C125.008 319.838 124.993 319.944 124.984 320.015L124.974 320.094L124.971 320.113L124.971 320.118C124.971 320.118 124.971 320.118 124.971 320.118C124.911 320.593 124.479 320.931 124.004 320.872C123.529 320.813 123.192 320.379 123.251 319.904L124.111 320.011C123.251 319.904 123.251 319.904 123.251 319.903L123.252 319.901L123.252 319.895L123.255 319.872L123.267 319.784C123.277 319.708 123.293 319.596 123.314 319.451C123.355 319.161 123.42 318.738 123.509 318.202C123.689 317.13 123.97 315.606 124.38 313.787C125.198 310.154 126.532 305.326 128.596 300.581C130.655 295.846 133.467 291.132 137.27 287.785C141.1 284.416 145.932 282.438 151.929 283.221C157.916 284.002 161.975 287.033 164.652 291.121C167.308 295.175 168.589 300.24 169.14 305.127C169.691 310.023 169.516 314.812 169.206 318.368C169.051 320.148 168.861 321.624 168.71 322.658C168.634 323.175 168.568 323.581 168.521 323.859C168.497 323.998 168.478 324.106 168.465 324.179L168.45 324.263L168.445 324.285L168.444 324.291L168.444 324.293Z" fill="black"/>
<path d="M321.868 241.965C314.547 244.948 277.064 229.669 277.064 229.669L267.299 213.117C267.299 213.117 296.34 186.562 302.529 185.609C308.718 184.656 335.654 191.835 339.1 200.821C342.547 209.806 329.189 238.983 321.868 241.965Z" fill="white"/>
<path fill-rule="evenodd" clip-rule="evenodd" d="M333.328 193.669C336.476 195.616 339.049 197.896 340.034 200.463C341.009 203.004 340.755 206.767 339.868 210.834C338.969 214.959 337.369 219.605 335.439 224.043C333.508 228.481 331.232 232.745 328.962 236.102C327.828 237.78 326.683 239.248 325.572 240.403C324.474 241.544 323.35 242.441 322.245 242.891C321.103 243.357 319.52 243.425 317.764 243.29C315.972 243.153 313.856 242.79 311.561 242.278C306.968 241.254 301.558 239.611 296.403 237.884C291.242 236.155 286.314 234.333 282.678 232.944C280.859 232.25 279.363 231.663 278.32 231.25C277.799 231.043 277.391 230.88 277.113 230.768C276.974 230.712 276.868 230.669 276.796 230.64L276.687 230.595C276.687 230.595 276.686 230.595 277.064 229.669C277.441 228.743 277.441 228.743 277.442 228.743L277.547 228.786C277.617 228.815 277.722 228.857 277.86 228.912C278.135 229.023 278.539 229.185 279.057 229.39C280.093 229.801 281.582 230.385 283.392 231.076C287.012 232.458 291.913 234.27 297.038 235.988C302.169 237.707 307.502 239.324 311.996 240.326C314.245 240.827 316.258 241.169 317.917 241.296C319.613 241.426 320.802 241.32 321.491 241.039C322.216 240.744 323.111 240.077 324.131 239.016C325.139 237.969 326.212 236.599 327.305 234.982C329.492 231.748 331.712 227.597 333.605 223.245C335.498 218.893 337.05 214.374 337.914 210.408C338.791 206.384 338.915 203.13 338.167 201.179C337.428 199.253 335.342 197.266 332.276 195.37C329.251 193.498 325.44 191.816 321.51 190.431C317.586 189.047 313.577 187.971 310.176 187.301C306.728 186.622 304.038 186.388 302.681 186.597C302.116 186.684 301.131 187.109 299.746 187.926C298.399 188.72 296.787 189.814 295.003 191.117C291.437 193.72 287.247 197.112 283.237 200.485C279.229 203.857 275.412 207.2 272.597 209.7C271.19 210.951 270.033 211.99 269.229 212.716C268.827 213.079 268.513 213.364 268.299 213.558L268.056 213.78L267.974 213.855C267.974 213.855 267.974 213.855 267.38 213.206L267.974 213.855C267.566 214.227 266.934 214.199 266.561 213.792C266.188 213.384 266.216 212.752 266.624 212.379L267.236 213.049C266.624 212.379 266.624 212.379 266.624 212.379L266.709 212.302L266.954 212.078C267.169 211.883 267.485 211.597 267.889 211.232C268.696 210.502 269.857 209.459 271.269 208.205C274.092 205.697 277.923 202.342 281.949 198.955C285.972 195.571 290.203 192.145 293.823 189.501C295.632 188.18 297.304 187.044 298.73 186.203C300.117 185.385 301.395 184.772 302.377 184.62C304.114 184.353 307.112 184.659 310.563 185.339C314.06 186.028 318.162 187.129 322.175 188.545C326.184 189.958 330.14 191.696 333.328 193.669ZM276.138 229.292C276.346 228.78 276.93 228.535 277.442 228.743L277.064 229.669L276.687 230.595C276.175 230.387 275.929 229.803 276.138 229.292Z" fill="black"/>
<path fill-rule="evenodd" clip-rule="evenodd" d="M329.563 202.1C330.021 202.409 330.143 203.03 329.835 203.489L329.005 202.93C329.835 203.489 329.835 203.488 329.835 203.489L329.834 203.49L329.82 203.51L329.78 203.569C329.745 203.62 329.694 203.694 329.627 203.79C329.494 203.983 329.298 204.261 329.045 204.611C328.54 205.31 327.809 206.295 326.9 207.441C325.086 209.729 322.549 212.68 319.678 215.293C316.826 217.889 313.558 220.232 310.28 221.191C308.626 221.674 306.936 221.815 305.286 221.428C303.627 221.039 302.077 220.131 300.693 218.628C300.035 217.914 299.472 217.222 298.999 216.552C298.253 216.815 297.496 217.072 296.739 217.322C293.079 218.53 289.349 219.596 286.538 220.359C285.132 220.741 283.953 221.048 283.126 221.259C282.712 221.365 282.386 221.447 282.163 221.502C282.051 221.53 281.966 221.551 281.908 221.566L281.819 221.587C281.819 221.587 281.818 221.587 281.582 220.616C281.345 219.644 281.345 219.644 281.345 219.644L281.366 219.639L281.429 219.623C281.486 219.609 281.57 219.588 281.679 219.561C281.899 219.506 282.221 219.426 282.63 219.321C283.45 219.112 284.618 218.808 286.014 218.429C288.806 217.671 292.498 216.615 296.111 215.422C296.728 215.218 297.34 215.011 297.944 214.802C297.303 213.508 297.029 212.308 297.091 211.206C297.212 209.016 298.626 207.525 300.328 206.678C302.015 205.839 304.096 205.561 305.922 205.788C307.697 206.009 309.541 206.757 310.365 208.305C310.974 209.449 310.389 210.526 309.691 211.258C308.976 212.008 307.872 212.723 306.594 213.396C305.025 214.223 303.069 215.05 300.957 215.843C301.301 216.295 301.701 216.772 302.162 217.273C303.304 218.512 304.51 219.191 305.741 219.48C306.981 219.771 308.313 219.681 309.718 219.27C312.558 218.44 315.553 216.342 318.332 213.813C321.093 211.3 323.556 208.439 325.334 206.197C326.221 205.078 326.934 204.118 327.424 203.439C327.669 203.1 327.858 202.831 327.986 202.648C328.049 202.556 328.097 202.486 328.129 202.439L328.165 202.387L328.173 202.375L328.175 202.372C328.483 201.914 329.105 201.792 329.563 202.1ZM299.842 214.123C302.061 213.303 304.086 212.456 305.661 211.626C306.888 210.98 307.758 210.386 308.244 209.877C308.485 209.624 308.576 209.448 308.605 209.354C308.624 209.292 308.617 209.277 308.601 209.245C308.235 208.558 307.213 207.965 305.676 207.773C304.19 207.588 302.511 207.827 301.219 208.47C299.942 209.105 299.157 210.06 299.087 211.318C299.046 212.053 299.242 212.985 299.842 214.123ZM281.582 220.616L281.345 219.644C280.809 219.774 280.48 220.315 280.61 220.852C280.741 221.389 281.282 221.718 281.819 221.587L281.582 220.616Z" fill="black"/>
<path d="M119.133 175.931C122.495 180.579 157.68 195.679 157.68 195.679L136.94 210.127C136.94 210.127 104.744 190.319 103.29 183.653C101.835 176.987 105.607 137.801 108.498 137.953C111.39 138.104 115.77 171.283 119.133 175.931Z" fill="#FFF4D8"/>
<path fill-rule="evenodd" clip-rule="evenodd" d="M116.879 173.284C117.328 174.64 117.803 175.799 118.322 176.517C118.86 177.26 119.919 178.091 121.199 178.945C122.517 179.826 124.196 180.813 126.093 181.854C129.891 183.938 134.625 186.271 139.24 188.452C143.858 190.634 148.368 192.671 151.724 194.161C153.402 194.906 154.792 195.515 155.762 195.938C156.247 196.149 156.628 196.314 156.887 196.426L157.285 196.598C157.285 196.598 157.285 196.598 157.679 195.679C158.073 194.76 158.073 194.76 158.073 194.76L158.072 194.759L157.974 194.717L157.68 194.59C157.422 194.479 157.043 194.315 156.56 194.104C155.593 193.683 154.208 193.076 152.535 192.333C149.188 190.847 144.693 188.817 140.094 186.644C135.492 184.469 130.8 182.155 127.054 180.101C125.181 179.072 123.559 178.117 122.309 177.282C121.021 176.422 120.246 175.764 119.942 175.345C119.621 174.901 119.224 174.006 118.778 172.657C118.343 171.34 117.891 169.691 117.43 167.818C116.59 164.413 115.73 160.328 114.874 156.266C114.788 155.86 114.703 155.454 114.617 155.049C113.68 150.609 112.751 146.273 111.872 143.035C111.434 141.422 110.998 140.039 110.565 139.04C110.351 138.546 110.116 138.094 109.853 137.748C109.625 137.448 109.198 136.988 108.55 136.954C108.158 136.933 107.84 137.088 107.619 137.255C107.406 137.418 107.241 137.623 107.114 137.814C106.86 138.197 106.639 138.704 106.441 139.267C106.04 140.406 105.65 142.007 105.279 143.899C104.533 147.697 103.832 152.822 103.269 158.141C102.706 163.463 102.279 169.003 102.084 173.636C101.986 175.952 101.946 178.051 101.977 179.786C102.008 181.502 102.108 182.928 102.312 183.866C102.551 184.961 103.362 186.162 104.396 187.358C105.46 188.589 106.877 189.945 108.506 191.357C111.767 194.184 115.959 197.308 120.085 200.208C124.215 203.111 128.296 205.803 131.344 207.768C132.869 208.751 134.135 209.553 135.022 210.11C135.465 210.388 135.813 210.605 136.05 210.752C136.122 210.797 136.184 210.836 136.236 210.867C136.269 210.888 136.297 210.905 136.321 210.92L136.415 210.978C136.415 210.978 136.416 210.979 136.939 210.127C137.463 209.275 137.463 209.275 137.463 209.275L137.462 209.274L137.372 209.219C137.35 209.206 137.324 209.189 137.295 209.171C137.243 209.139 137.179 209.1 137.105 209.053C136.87 208.907 136.525 208.692 136.085 208.416C135.204 207.863 133.944 207.065 132.428 206.087C129.393 204.13 125.335 201.454 121.234 198.571C117.129 195.686 113 192.608 109.815 189.846C108.222 188.464 106.884 187.179 105.909 186.05C104.904 184.888 104.391 184.011 104.266 183.44C104.107 182.711 104.007 181.455 103.977 179.752C103.947 178.069 103.985 176.014 104.082 173.721C104.275 169.137 104.699 163.64 105.258 158.352C105.818 153.06 106.512 148 107.241 144.285C107.607 142.421 107.975 140.933 108.328 139.932C108.399 139.729 108.467 139.554 108.53 139.407C108.592 139.529 108.659 139.671 108.73 139.834C109.104 140.697 109.51 141.967 109.942 143.559C110.803 146.73 111.721 151.007 112.66 155.462C112.746 155.868 112.832 156.275 112.918 156.683C113.772 160.737 114.64 164.856 115.488 168.296C115.955 170.19 116.42 171.896 116.879 173.284ZM108.176 138.862C108.176 138.862 108.18 138.866 108.189 138.873C108.18 138.864 108.176 138.861 108.176 138.862ZM158.598 196.073C158.816 195.566 158.581 194.978 158.073 194.76L157.679 195.679L157.285 196.598C157.793 196.816 158.381 196.581 158.598 196.073ZM137.791 210.651C138.08 210.18 137.933 209.564 137.463 209.275L136.939 210.127L136.415 210.978C136.886 211.268 137.502 211.121 137.791 210.651Z" fill="black"/>
<path d="M69.6027 237.829C76.1584 242.25 115.973 234.981 115.973 234.981L128.918 220.781C128.918 220.781 105.927 188.835 100.064 186.633C94.2014 184.431 66.3673 185.936 61.1552 194.024C55.9431 202.112 63.0471 233.409 69.6027 237.829Z" fill="white"/>
<path fill-rule="evenodd" clip-rule="evenodd" d="M68.2681 188.207C64.7889 189.467 61.8035 191.171 60.3144 193.482C58.8403 195.77 58.3186 199.505 58.3543 203.668C58.3904 207.89 59.0053 212.765 59.9867 217.505C60.9682 222.245 62.3239 226.885 63.8586 230.636C64.6256 232.511 65.4453 234.183 66.2964 235.541C67.1376 236.883 68.0547 237.992 69.0438 238.659C70.0662 239.348 71.6024 239.74 73.348 239.968C75.13 240.201 77.2754 240.279 79.6268 240.249C84.3323 240.189 89.9633 239.69 95.363 239.056C100.768 238.421 105.964 237.649 109.807 237.035C111.73 236.728 113.315 236.461 114.42 236.27C114.972 236.175 115.405 236.098 115.7 236.046C115.847 236.02 115.96 235.999 116.036 235.986L116.152 235.965C116.152 235.965 116.153 235.965 115.973 234.981C115.793 233.997 115.793 233.997 115.793 233.997L115.681 234.017C115.606 234.031 115.494 234.051 115.349 234.077C115.057 234.129 114.628 234.204 114.079 234.299C112.981 234.488 111.404 234.754 109.491 235.06C105.665 235.671 100.497 236.439 95.1291 237.069C89.7557 237.7 84.2039 238.19 79.6003 238.249C77.2972 238.279 75.2566 238.2 73.6064 237.985C71.9198 237.764 70.7778 237.416 70.1613 237C69.5114 236.562 68.7725 235.726 67.9907 234.479C67.219 233.248 66.4488 231.686 65.7094 229.879C64.2311 226.266 62.9074 221.748 61.945 217.1C60.9824 212.451 60.3888 207.71 60.354 203.651C60.3187 199.533 60.8635 196.323 61.9955 194.566C63.1125 192.833 65.5609 191.315 68.9497 190.088C72.2933 188.876 76.3683 188.011 80.4979 187.461C84.6227 186.911 88.7663 186.68 92.2324 186.722C95.7466 186.764 98.4272 187.086 99.7127 187.569C100.248 187.77 101.125 188.388 102.314 189.472C103.469 190.525 104.824 191.927 106.303 193.567C109.261 196.847 112.668 201.026 115.903 205.15C119.136 209.272 122.187 213.326 124.431 216.351C125.553 217.863 126.472 219.118 127.111 219.994C127.43 220.432 127.679 220.775 127.848 221.009L128.041 221.275L128.106 221.365C128.106 221.365 128.106 221.366 128.82 220.852L128.106 221.365C128.429 221.814 129.054 221.916 129.502 221.593C129.95 221.271 130.052 220.646 129.729 220.197L128.993 220.727C129.729 220.197 129.73 220.198 129.729 220.197L129.662 220.105L129.468 219.836C129.298 219.6 129.047 219.255 128.726 218.815C128.085 217.936 127.162 216.677 126.037 215.16C123.787 212.126 120.724 208.056 117.476 203.916C114.231 199.778 110.791 195.558 107.788 192.228C106.288 190.564 104.884 189.109 103.66 187.993C102.47 186.908 101.345 186.046 100.415 185.697C98.7693 185.079 95.7721 184.764 92.2557 184.722C88.6911 184.679 84.4511 184.916 80.233 185.478C76.0198 186.04 71.7925 186.93 68.2681 188.207ZM116.956 234.801C116.857 234.258 116.336 233.898 115.793 233.997L115.973 234.981L116.152 235.965C116.695 235.865 117.056 235.344 116.956 234.801Z" fill="black"/>
<path fill-rule="evenodd" clip-rule="evenodd" d="M70.2282 197.232C69.7167 197.44 69.4704 198.023 69.6782 198.535L70.6045 198.158C69.6782 198.535 69.6781 198.535 69.6782 198.535L69.6791 198.537L69.6811 198.542L69.6882 198.559L69.7153 198.625C69.7389 198.682 69.7738 198.765 69.8195 198.873C69.9109 199.089 70.0458 199.402 70.2214 199.796C70.5725 200.584 71.0867 201.697 71.7417 203.005C73.0493 205.617 74.9291 209.026 77.204 212.172C79.4647 215.298 82.1835 218.261 85.1964 219.871C86.7161 220.683 88.3419 221.168 90.0362 221.128C91.7394 221.087 93.4418 220.516 95.1046 219.329C95.8945 218.765 96.5873 218.203 97.1866 217.644C97.8637 218.054 98.5518 218.461 99.242 218.861C102.577 220.794 106.009 222.602 108.605 223.926C109.903 224.588 110.994 225.13 111.76 225.506C112.144 225.694 112.446 225.841 112.653 225.942C112.757 225.992 112.836 226.03 112.89 226.056L112.952 226.085L112.973 226.095C112.973 226.095 112.973 226.095 113.404 225.193C113.834 224.29 113.834 224.29 113.834 224.29L113.815 224.281L113.756 224.252C113.704 224.227 113.626 224.19 113.524 224.141C113.32 224.042 113.021 223.897 112.642 223.711C111.883 223.338 110.801 222.801 109.513 222.144C106.935 220.829 103.537 219.039 100.245 217.13C99.6833 216.805 99.1261 216.476 98.5776 216.147C99.4703 215.012 99.9832 213.894 100.149 212.803C100.478 210.634 99.3996 208.885 97.9066 207.707C96.4273 206.54 94.4472 205.841 92.6135 205.689C90.8306 205.541 88.8732 205.895 87.7496 207.242C86.919 208.237 87.2716 209.41 87.8052 210.27C88.3514 211.15 89.286 212.077 90.3991 212.998C91.7657 214.129 93.5107 215.34 95.4157 216.548C94.9865 216.92 94.4979 217.305 93.9432 217.701C92.5726 218.68 91.2525 219.097 89.9887 219.128C88.716 219.158 87.4303 218.797 86.1389 218.107C83.5293 216.712 81.0266 214.045 78.8243 210.999C76.6361 207.973 74.811 204.668 73.5296 202.109C72.8902 200.832 72.3888 199.746 72.0479 198.981C71.8775 198.599 71.7474 198.297 71.6602 198.091C71.6167 197.989 71.5839 197.91 71.5622 197.858L71.5381 197.799L71.5323 197.785L71.5311 197.782C71.3232 197.271 70.7398 197.024 70.2282 197.232ZM96.8588 215.093C94.8549 213.836 93.0458 212.592 91.674 211.457C90.606 210.573 89.8753 209.813 89.5041 209.215C89.3202 208.918 89.2664 208.727 89.2576 208.629C89.2519 208.565 89.2615 208.551 89.2843 208.524C89.7832 207.926 90.9046 207.555 92.4481 207.682C93.9408 207.806 95.5347 208.384 96.6682 209.278C97.788 210.161 98.361 211.258 98.172 212.503C98.0615 213.23 97.6792 214.102 96.8588 215.093ZM113.404 225.193L113.834 224.29C114.332 224.528 114.544 225.125 114.306 225.623C114.068 226.122 113.471 226.333 112.973 226.095L113.404 225.193Z" fill="black"/>
<path d="M269.856 177.506C266.008 181.759 229.389 192.933 229.389 192.933L248.434 209.556C248.434 209.556 282.593 193.377 284.764 186.909C286.936 180.442 287.451 141.078 284.56 140.913C281.669 140.748 273.704 173.252 269.856 177.506Z" fill="#FFF4D8"/>
<path fill-rule="evenodd" clip-rule="evenodd" d="M272.384 175.121C271.791 176.42 271.192 177.52 270.598 178.177C269.983 178.857 268.839 179.567 267.474 180.277C266.068 181.009 264.292 181.807 262.292 182.635C258.291 184.292 253.331 186.095 248.506 187.76C243.678 189.426 238.973 190.958 235.475 192.073C233.726 192.631 232.278 193.085 231.267 193.399C230.762 193.557 230.366 193.679 230.096 193.762L229.682 193.889C229.681 193.889 229.681 193.89 229.389 192.933C229.098 191.977 229.098 191.977 229.098 191.976L229.099 191.976L229.202 191.945L229.508 191.851C229.776 191.768 230.17 191.646 230.674 191.49C231.68 191.176 233.124 190.724 234.868 190.168C238.356 189.055 243.046 187.528 247.854 185.869C252.665 184.209 257.581 182.421 261.527 180.787C263.502 179.969 265.218 179.196 266.551 178.503C267.925 177.788 268.768 177.219 269.115 176.835C269.483 176.429 269.974 175.583 270.565 174.29C271.141 173.029 271.769 171.438 272.432 169.627C273.637 166.333 274.937 162.367 276.23 158.422C276.359 158.028 276.488 157.634 276.617 157.241C278.032 152.929 279.428 148.72 280.653 145.598C281.264 144.042 281.849 142.715 282.387 141.769C282.654 141.301 282.936 140.878 283.235 140.562C283.495 140.289 283.97 139.878 284.617 139.915C285.009 139.937 285.309 140.125 285.51 140.316C285.704 140.501 285.846 140.722 285.951 140.927C286.162 141.335 286.326 141.863 286.462 142.444C286.737 143.62 286.95 145.254 287.114 147.175C287.441 151.032 287.58 156.203 287.561 161.551C287.541 166.903 287.363 172.457 287.053 177.084C286.898 179.397 286.709 181.487 286.49 183.209C286.273 184.911 286.018 186.318 285.713 187.228C285.356 188.29 284.419 189.395 283.261 190.472C282.07 191.579 280.514 192.773 278.741 193.999C275.192 196.454 270.684 199.102 266.267 201.534C261.846 203.97 257.496 206.2 254.252 207.822C252.63 208.633 251.283 209.292 250.342 209.748C249.871 209.977 249.502 210.154 249.25 210.275C249.124 210.335 249.027 210.382 248.962 210.413L248.863 210.459L248.862 210.46C248.862 210.46 248.862 210.46 248.459 209.611L248.862 210.46C248.363 210.696 247.766 210.484 247.53 209.985C247.294 209.485 247.507 208.889 248.006 208.653L248.394 209.473C248.006 208.653 248.006 208.653 248.006 208.653L248.007 208.652L248.012 208.65L248.102 208.607C248.166 208.576 248.262 208.531 248.386 208.471C248.636 208.352 249.002 208.176 249.47 207.949C250.405 207.495 251.744 206.84 253.358 206.033C256.587 204.419 260.913 202.201 265.303 199.783C269.698 197.362 274.137 194.752 277.603 192.354C279.338 191.154 280.807 190.023 281.9 189.007C283.025 187.961 283.631 187.146 283.817 186.591C284.054 185.884 284.29 184.646 284.506 182.957C284.719 181.287 284.904 179.24 285.058 176.95C285.364 172.373 285.541 166.862 285.561 161.544C285.58 156.223 285.442 151.118 285.121 147.345C284.96 145.452 284.756 143.933 284.514 142.9C284.465 142.689 284.417 142.509 284.37 142.356C284.295 142.47 284.213 142.604 284.125 142.759C283.66 143.575 283.117 144.794 282.515 146.328C281.314 149.387 279.936 153.539 278.517 157.864C278.388 158.258 278.258 158.654 278.128 159.05C276.838 162.987 275.527 166.986 274.31 170.314C273.64 172.146 272.991 173.791 272.384 175.121ZM284.782 141.852C284.782 141.852 284.777 141.856 284.768 141.861C284.777 141.854 284.782 141.851 284.782 141.852ZM228.433 193.225C228.272 192.697 228.57 192.138 229.098 191.976L229.389 192.933L229.682 193.889C229.153 194.051 228.594 193.753 228.433 193.225Z" fill="black"/>
<path d="M249.497 449.557C235.035 510.833 179.946 509.664 128.7 503.645C77.4539 497.625 36.3701 449.443 50.2065 407.077C64.0429 364.711 66.035 384.15 140.919 399.422C215.804 414.694 263.959 388.281 249.497 449.557Z" fill="#F5B2AF"/>
<path d="M155.76 190.958C156.641 186.19 162.193 175.394 168.01 175.394C171.546 175.394 175.96 179.579 178.97 183.911C182.816 179.25 189.769 174.827 192.042 175.394C193.493 175.756 196.386 178.409 199.013 181.552C201.977 174.587 208.848 167.686 214.573 171.398C217.518 173.308 220.289 176.427 222.531 179.739C224.339 175.684 227.7 172.987 230.595 175.394C234.619 178.74 236.397 187.24 235.929 191.288C240.871 191.619 250.607 194.652 251.624 198.372C252.204 200.494 250.095 203.212 247.288 205.491C252.706 205.452 257.903 206.576 256.63 208.861C254.127 213.357 239.607 220.35 236.603 219.351C233.599 218.352 233.599 226.843 226.59 230.839C222.906 232.94 220.328 228.28 219.874 223.675C214.928 226.416 208.431 228.841 205.06 228.841C202.691 228.841 201.237 226.731 200.582 224.051C196.69 227.29 191.65 229.743 188.037 228.841C184.607 227.986 181.36 224.657 179.437 221.287C175.034 225.113 168.402 228.841 165.506 228.841C162.768 228.841 160.03 222.299 158.707 216.516C154.993 218.919 148.9 220.203 144.978 219.351C139.438 218.147 135.465 216.354 134.965 208.861C134.744 205.562 136.757 203.037 139.122 201.671C139.294 200.734 139.717 199.637 140.472 198.372C144.003 192.455 151.993 190.648 155.76 190.958Z" fill="#282828"/>
<path fill-rule="evenodd" clip-rule="evenodd" d="M198.758 179.725C197.739 178.583 196.708 177.537 195.753 176.684C195.115 176.115 194.499 175.62 193.934 175.238C193.386 174.868 192.818 174.557 192.285 174.424C191.809 174.305 191.294 174.334 190.806 174.423C190.308 174.514 189.77 174.681 189.214 174.9C188.103 175.34 186.841 176.02 185.553 176.852C183.326 178.291 180.942 180.236 179.043 182.305C177.648 180.445 176.019 178.658 174.324 177.257C172.351 175.627 170.135 174.394 168.01 174.394C166.243 174.394 164.589 175.211 163.14 176.376C161.684 177.546 160.352 179.131 159.206 180.829C157.163 183.854 155.607 187.389 154.965 189.925C152.96 189.915 150.287 190.359 147.659 191.4C144.619 192.605 141.527 194.653 139.614 197.859C138.924 199.015 138.474 200.074 138.236 201.04C135.81 202.585 133.727 205.327 133.967 208.928C134.23 212.854 135.419 215.457 137.422 217.216C139.377 218.933 141.979 219.723 144.766 220.328C146.909 220.793 149.563 220.665 152.124 220.133C154.202 219.702 156.284 218.99 158.054 218.055C158.717 220.602 159.628 223.209 160.684 225.298C161.302 226.52 161.993 227.613 162.747 228.414C163.484 229.197 164.415 229.841 165.507 229.841C166.41 229.841 167.5 229.559 168.635 229.136C169.79 228.705 171.073 228.097 172.388 227.376C174.675 226.121 177.107 224.497 179.189 222.801C181.225 225.936 184.354 228.953 187.795 229.812C189.898 230.336 192.296 229.867 194.586 228.924C196.462 228.151 198.344 227.028 200.06 225.739C200.399 226.622 200.846 227.435 201.42 228.103C202.319 229.148 203.538 229.841 205.06 229.841C206.925 229.841 209.526 229.185 212.212 228.228C214.482 227.419 216.888 226.368 219.089 225.229C219.458 227.166 220.18 229.047 221.235 230.389C221.9 231.236 222.747 231.929 223.782 232.217C224.843 232.512 225.968 232.345 227.085 231.708C230.864 229.554 232.727 226.194 233.993 223.67C234.117 223.422 234.233 223.187 234.343 222.964C234.82 222 235.184 221.267 235.561 220.758C235.782 220.458 235.939 220.339 236.03 220.295C236.081 220.271 236.14 220.251 236.288 220.3C236.896 220.502 237.647 220.47 238.373 220.36C239.134 220.245 240.013 220.02 240.954 219.718C242.839 219.112 245.063 218.169 247.256 217.059C249.45 215.948 251.641 214.658 253.453 213.348C255.232 212.062 256.765 210.675 257.504 209.348C257.744 208.918 257.871 208.438 257.809 207.936C257.747 207.435 257.509 207.018 257.205 206.687C256.628 206.062 255.719 205.644 254.764 205.349C253.41 204.931 251.667 204.671 249.808 204.557C250.487 203.864 251.087 203.146 251.563 202.42C252.428 201.1 252.991 199.58 252.588 198.108C252.243 196.843 251.214 195.786 250.02 194.93C248.798 194.053 247.25 193.279 245.618 192.63C242.756 191.491 239.5 190.682 236.995 190.384C237.062 188.261 236.688 185.478 235.907 182.798C234.998 179.681 233.475 176.488 231.234 174.625C230.359 173.898 229.396 173.518 228.398 173.488C227.41 173.459 226.471 173.774 225.631 174.292C224.379 175.063 223.274 176.324 222.398 177.814C220.296 174.951 217.797 172.297 215.117 170.559L214.573 171.398L215.117 170.559C211.754 168.378 208.127 169.413 205.152 171.675C202.575 173.634 200.313 176.618 198.758 179.725ZM200.177 181.391C202.359 184.069 204.372 187.115 205.119 189.467C205.495 190.65 205.679 192.06 204.853 193.061C204 194.095 202.505 194.186 200.859 193.858C199.581 193.603 198.566 193.003 197.84 192.112C197.124 191.234 196.743 190.14 196.601 188.971C196.34 186.819 196.864 184.246 197.858 181.735C196.689 180.372 195.491 179.132 194.421 178.176C193.825 177.644 193.282 177.212 192.814 176.896C192.33 176.569 191.993 176.413 191.801 176.365C191.708 176.342 191.508 176.328 191.165 176.39C190.833 176.451 190.425 176.572 189.949 176.76C188.997 177.137 187.855 177.746 186.639 178.532C184.41 179.972 182.029 181.942 180.226 183.981C181.019 185.18 181.706 186.383 182.237 187.512C182.857 188.828 183.294 190.102 183.412 191.177C183.524 192.192 183.379 193.438 182.288 194.058C181.78 194.346 181.193 194.412 180.603 194.352C180.013 194.292 179.356 194.101 178.638 193.799C177.48 193.313 176.599 192.65 176.036 191.799C175.466 190.939 175.277 189.972 175.36 188.993C175.503 187.306 176.453 185.53 177.719 183.877C176.338 181.983 174.71 180.171 173.05 178.799C171.18 177.254 169.421 176.394 168.01 176.394C166.869 176.394 165.647 176.927 164.392 177.935C163.144 178.939 161.942 180.351 160.863 181.948C158.995 184.714 157.592 187.892 156.977 190.137C157.091 190.166 157.202 190.197 157.307 190.232C157.705 190.362 158.17 190.581 158.48 190.982C158.649 191.199 158.772 191.472 158.795 191.788C158.818 192.1 158.739 192.384 158.619 192.621C158.394 193.064 157.986 193.419 157.549 193.71C157.18 193.955 156.725 194.179 156.23 194.177C155.627 194.174 155.166 193.842 154.913 193.381C154.699 192.99 154.644 192.536 154.639 192.144C154.639 192.073 154.64 192.001 154.642 191.928C152.952 191.964 150.674 192.357 148.396 193.26C145.617 194.36 142.949 196.174 141.331 198.884C141.126 199.229 140.949 199.556 140.797 199.866C141.794 199.573 142.794 199.463 143.699 199.578C144.497 199.68 145.272 199.965 145.881 200.513C146.505 201.074 146.882 201.844 146.975 202.767C147.12 204.212 146.508 205.361 145.548 206.092C144.622 206.796 143.406 207.096 142.256 207.023C141.101 206.95 139.899 206.493 139.059 205.535C138.599 205.01 138.28 204.37 138.129 203.633C136.749 204.91 135.822 206.683 135.963 208.795C136.201 212.361 137.248 214.401 138.742 215.713C140.283 217.067 142.438 217.776 145.191 218.374C146.97 218.76 149.324 218.672 151.717 218.175C153.844 217.733 155.925 216.984 157.577 216.034C157.008 213.341 156.734 210.767 156.98 209.123C157.048 208.667 157.165 208.213 157.373 207.829C157.585 207.438 157.943 207.036 158.505 206.889C159.055 206.747 159.575 206.908 159.99 207.141C160.406 207.374 160.82 207.735 161.234 208.182C162.775 209.848 163.259 211.627 162.724 213.343C162.281 214.765 161.189 215.973 159.839 216.953C160.486 219.59 161.412 222.305 162.469 224.396C163.043 225.533 163.633 226.437 164.203 227.043C164.791 227.668 165.229 227.841 165.507 227.841C166.051 227.841 166.875 227.658 167.936 227.262C168.977 226.874 170.17 226.311 171.426 225.622C173.706 224.371 176.139 222.734 178.17 221.05C177.09 218.955 176.449 216.761 176.706 215.057C176.857 214.055 177.339 213.128 178.311 212.602C179.24 212.099 180.423 212.07 181.757 212.383C182.892 212.65 183.825 213.149 184.326 214.005C184.838 214.88 184.746 215.86 184.423 216.731C183.864 218.239 182.442 219.906 180.72 221.483C182.603 224.479 185.448 227.165 188.279 227.871C189.79 228.248 191.718 227.942 193.824 227.074C195.739 226.286 197.706 225.072 199.474 223.664C198.95 221.004 199.115 217.946 199.904 215.665C200.326 214.444 200.973 213.309 201.925 212.636C202.959 211.905 204.213 211.817 205.507 212.462C206.613 213.014 207.258 213.917 207.409 215.033C207.551 216.077 207.248 217.2 206.738 218.272C205.783 220.28 203.928 222.475 201.715 224.401C202.015 225.387 202.43 226.21 202.937 226.799C203.521 227.479 204.214 227.841 205.06 227.841C206.566 227.841 208.899 227.285 211.541 226.344C213.954 225.484 216.536 224.336 218.828 223.107C218.716 221.137 218.975 219.135 219.767 217.633C220.217 216.782 220.863 216.047 221.752 215.614C222.651 215.177 223.693 215.1 224.829 215.384C225.945 215.662 226.961 216.185 227.303 217.199C227.643 218.205 227.145 219.181 226.583 219.906C225.503 221.301 223.383 222.822 220.948 224.218C221.229 226.17 221.901 228 222.807 229.154C223.303 229.785 223.819 230.151 224.318 230.29C224.791 230.422 225.369 230.384 226.094 229.971C229.324 228.129 230.966 225.245 232.205 222.774C232.309 222.566 232.411 222.358 232.514 222.15C232.993 221.179 233.459 220.234 233.954 219.567C234.264 219.149 234.655 218.737 235.166 218.492C235.718 218.227 236.316 218.201 236.919 218.402C237.061 218.449 237.421 218.481 238.074 218.383C238.692 218.289 239.46 218.097 240.342 217.813C242.103 217.248 244.228 216.35 246.353 215.274C248.478 214.199 250.574 212.961 252.282 211.727C254.024 210.468 255.244 209.295 255.757 208.375C255.797 208.302 255.813 208.252 255.82 208.224C255.826 208.197 255.825 208.185 255.824 208.182C255.824 208.178 255.823 208.169 255.813 208.149C255.802 208.128 255.779 208.092 255.734 208.043C255.525 207.816 255.035 207.526 254.173 207.26C252.567 206.764 250.175 206.495 247.64 206.49C245.396 208.262 242.755 209.764 240.601 210.513C239.505 210.894 238.399 211.129 237.5 210.997C237.032 210.928 236.535 210.747 236.154 210.346C235.761 209.931 235.603 209.401 235.603 208.861C235.603 207.845 236.24 207.097 236.961 206.589C237.687 206.079 238.655 205.692 239.713 205.398C241.747 204.831 244.363 204.536 246.924 204.495C248.165 203.457 249.209 202.364 249.89 201.325C250.636 200.186 250.837 199.285 250.659 198.635C250.496 198.04 249.926 197.323 248.855 196.555C247.811 195.806 246.425 195.103 244.879 194.488C242.151 193.403 239.059 192.643 236.754 192.369C236.708 192.557 236.655 192.737 236.593 192.906C236.437 193.334 236.196 193.786 235.801 194.104C235.357 194.462 234.801 194.582 234.235 194.433C233.729 194.301 233.283 193.974 232.893 193.585C232.531 193.224 232.161 192.75 232.093 192.18C232.055 191.861 232.116 191.537 232.29 191.249C232.455 190.975 232.686 190.792 232.9 190.67C233.31 190.437 233.817 190.337 234.294 190.292C234.515 190.271 234.75 190.26 234.998 190.258C235.047 188.414 234.72 185.874 233.987 183.358C233.118 180.376 231.739 177.646 229.956 176.163C229.384 175.688 228.841 175.502 228.338 175.487C227.825 175.472 227.268 175.633 226.68 175.995C225.588 176.668 224.508 177.971 223.676 179.653C226.246 183.555 228.118 187.711 228.679 190.551C228.826 191.295 228.894 192.001 228.836 192.614C228.781 193.208 228.592 193.875 228.065 194.333C227.497 194.827 226.777 194.879 226.118 194.727C225.476 194.578 224.774 194.218 224.021 193.702C221.646 192.072 220.538 189.575 220.278 186.975C220.039 184.582 220.508 182.049 221.397 179.853C219.254 176.772 216.69 173.963 214.029 172.237C211.667 170.706 208.996 171.265 206.363 173.267C203.872 175.161 201.624 178.223 200.177 181.391ZM222.776 181.966C222.314 183.542 222.112 185.214 222.269 186.776C222.485 188.944 223.378 190.835 225.153 192.052C225.814 192.506 226.276 192.711 226.568 192.778C226.665 192.8 226.726 192.805 226.76 192.804C226.783 192.758 226.824 192.649 226.845 192.428C226.878 192.079 226.844 191.582 226.717 190.938C226.277 188.709 224.849 185.35 222.776 181.966ZM226.799 192.798C226.8 192.798 226.796 192.8 226.786 192.801C226.794 192.798 226.799 192.797 226.799 192.798ZM234.697 192.267C234.622 192.272 234.551 192.277 234.483 192.283C234.466 192.285 234.449 192.287 234.432 192.288C234.509 192.356 234.572 192.403 234.621 192.435C234.643 192.394 234.669 192.339 234.697 192.267ZM243.891 206.675C242.549 206.815 241.297 207.032 240.249 207.324C239.291 207.591 238.57 207.902 238.111 208.225C237.648 208.552 237.603 208.772 237.603 208.861C237.603 208.917 237.609 208.952 237.613 208.971C237.637 208.983 237.69 209.003 237.791 209.018C238.198 209.078 238.927 208.978 239.944 208.624C241.123 208.214 242.508 207.53 243.891 206.675ZM237.62 208.991C237.62 208.991 237.619 208.989 237.617 208.984C237.619 208.988 237.62 208.99 237.62 208.991ZM220.806 221.98C222.774 220.785 224.273 219.623 225.002 218.682C225.471 218.076 225.409 217.841 225.408 217.839C225.407 217.835 225.402 217.821 225.381 217.796C225.359 217.769 225.317 217.727 225.239 217.674C225.077 217.565 224.797 217.437 224.345 217.324C223.58 217.133 223.032 217.216 222.627 217.412C222.213 217.614 221.841 217.989 221.536 218.567C221.083 219.426 220.834 220.629 220.806 221.98ZM201.26 222.113C202.939 220.519 204.248 218.852 204.932 217.413C205.361 216.51 205.495 215.801 205.427 215.302C205.369 214.874 205.157 214.522 204.614 214.252C203.919 213.905 203.459 214.001 203.08 214.269C202.619 214.595 202.155 215.274 201.794 216.318C201.238 217.927 201.039 220.081 201.26 222.113ZM179.722 219.679C181.184 218.29 182.185 217.015 182.548 216.035C182.756 215.473 182.695 215.177 182.6 215.015C182.494 214.835 182.183 214.538 181.3 214.33C180.201 214.072 179.584 214.187 179.264 214.36C178.986 214.511 178.768 214.794 178.684 215.355C178.531 216.367 178.885 217.927 179.722 219.679ZM159.365 214.774C160.117 214.106 160.606 213.418 160.814 212.749C161.089 211.866 160.939 210.808 159.766 209.54C159.464 209.214 159.233 209.024 159.072 208.921C159.032 209.034 158.991 209.196 158.958 209.418C158.787 210.564 158.937 212.506 159.365 214.774ZM158.897 208.834C158.897 208.833 158.899 208.834 158.901 208.834C158.899 208.834 158.897 208.834 158.897 208.834ZM140.044 202.309C139.967 203.23 140.224 203.83 140.563 204.217C140.979 204.691 141.637 204.98 142.382 205.027C143.131 205.074 143.853 204.868 144.337 204.5C144.785 204.159 145.055 203.669 144.985 202.967C144.937 202.492 144.763 202.198 144.544 202.001C144.311 201.791 143.952 201.627 143.446 201.562C142.521 201.444 141.279 201.687 140.044 202.309ZM178.911 185.631C177.984 186.948 177.438 188.161 177.353 189.162C177.302 189.764 177.419 190.266 177.703 190.694C177.993 191.132 178.513 191.577 179.412 191.955C180.022 192.211 180.479 192.329 180.806 192.363C181.133 192.396 181.266 192.339 181.3 192.319L181.301 192.319C181.316 192.31 181.355 192.288 181.393 192.167C181.438 192.023 181.466 191.775 181.424 191.396C181.341 190.636 181.006 189.592 180.428 188.364C180.021 187.5 179.508 186.574 178.911 185.631ZM199.328 183.537C201.154 185.894 202.652 188.308 203.213 190.073C203.567 191.188 203.424 191.65 203.311 191.788C203.225 191.892 202.799 192.205 201.251 191.896C200.385 191.724 199.796 191.346 199.39 190.848C198.974 190.338 198.696 189.632 198.587 188.729C198.412 187.289 198.681 185.476 199.328 183.537Z" fill="black"/>
<path fill-rule="evenodd" clip-rule="evenodd" d="M183.786 385.954C183.784 386.478 183.357 386.899 182.831 386.894C174.197 386.811 169.661 385.787 162.016 383.041C161.52 382.863 161.26 382.318 161.435 381.825C161.61 381.332 162.154 381.076 162.65 381.254C170.126 383.94 174.448 384.914 182.836 384.995C183.362 385 183.787 385.43 183.786 385.954Z" fill="black"/>
<path fill-rule="evenodd" clip-rule="evenodd" d="M175.017 375.016C175.015 375.54 174.588 375.961 174.062 375.956C165.428 375.873 160.893 374.85 153.247 372.103C152.751 371.925 152.491 371.38 152.667 370.887C152.842 370.394 153.386 370.138 153.881 370.317C161.357 373.002 165.679 373.976 174.068 374.057C174.594 374.062 175.018 374.492 175.017 375.016Z" fill="black"/>
<path fill-rule="evenodd" clip-rule="evenodd" d="M155.662 381.525C155.661 382.049 155.234 382.47 154.708 382.465C146.074 382.382 141.538 381.359 133.892 378.612C133.397 378.434 133.137 377.889 133.312 377.396C133.487 376.903 134.031 376.647 134.527 376.826C142.003 379.511 146.325 380.485 154.713 380.566C155.239 380.571 155.664 381.001 155.662 381.525Z" fill="black"/>
<path fill-rule="evenodd" clip-rule="evenodd" d="M305.279 294.993C305.791 294.882 306.294 295.21 306.402 295.725C308.172 304.185 308.144 308.839 307.1 316.903C307.033 317.426 306.557 317.796 306.037 317.731C305.518 317.665 305.152 317.188 305.219 316.665C306.24 308.781 306.265 304.345 304.546 296.126C304.438 295.611 304.766 295.104 305.279 294.993Z" fill="black"/>
<path fill-rule="evenodd" clip-rule="evenodd" d="M296.475 305.91C296.987 305.799 297.49 306.127 297.598 306.642C299.367 315.102 299.34 319.756 298.296 327.82C298.228 328.343 297.752 328.713 297.233 328.648C296.714 328.582 296.348 328.105 296.415 327.582C297.436 319.697 297.461 315.262 295.742 307.043C295.634 306.528 295.962 306.02 296.475 305.91Z" fill="black"/>
<path fill-rule="evenodd" clip-rule="evenodd" d="M306.982 323.44C307.494 323.329 307.997 323.657 308.105 324.172C309.875 332.632 309.847 337.286 308.803 345.35C308.736 345.873 308.26 346.243 307.74 346.178C307.221 346.112 306.855 345.635 306.923 345.112C307.943 337.227 307.968 332.792 306.249 324.573C306.141 324.058 306.469 323.551 306.982 323.44Z" fill="black"/>
<path d="M298.555 333.017C303.009 409.948 272.283 454.222 249 468.946" stroke="black" stroke-width="2" stroke-linecap="round"/>
<path d="M92.2355 461.393C89.6706 474.982 170.546 485.392 174.707 474.753" stroke="black" stroke-width="2" stroke-linecap="round"/>
<path d="M129.773 422.361C130.917 426.666 124.705 432.054 115.899 434.396C107.092 436.738 99.0255 435.147 97.8813 430.842C96.7371 426.537 102.949 421.149 111.755 418.807C120.562 416.465 128.629 418.056 129.773 422.361Z" fill="#A5505B"/>
<path d="M180.322 447.713C177.559 451.207 169.524 449.458 162.375 443.807C155.227 438.156 151.671 430.742 154.433 427.248C157.196 423.754 165.231 425.503 172.38 431.154C179.528 436.805 183.084 444.219 180.322 447.713Z" fill="#A5505B"/>
<path d="M210.5 406C162.564 406.314 137.618 402.091 96 388" stroke="black" stroke-width="2" stroke-linecap="round"/>
</svg>
