<svg width="1024" height="1024" viewBox="0 0 1024 1024" fill="none" xmlns="http://www.w3.org/2000/svg">
<path d="M997.923 863.573C997.923 888.19 823.108 908.147 607.462 908.147C391.816 908.147 217 888.19 217 863.573C217 838.956 391.816 819 607.462 819C823.108 819 997.923 838.956 997.923 863.573Z" fill="black" fill-opacity="0.05"/>
<path d="M421.678 769.471C425.937 739.173 428.066 678.742 428.066 678.742L339.302 656.96C339.302 656.96 338.483 703.635 334.716 714.116C330.95 724.598 333.57 752.93 339.302 767.506C345.034 782.081 311.789 846.279 319.486 854.468C327.183 862.656 410.379 862.493 420.532 854.468C430.686 846.443 417.42 799.768 421.678 769.471Z" fill="#BFBFBF"/>
<path d="M319.486 854.468C327.183 862.656 410.379 862.493 420.532 854.468C424.856 851.051 424.933 840.627 423.925 827.444H323.802C319.435 840.586 316.617 851.416 319.486 854.468Z" fill="#999999"/>
<path d="M858.786 663.778C851.744 636.428 838.478 542.588 838.478 542.588L661.442 622.999C664.241 623.551 749.665 650.068 759.049 660.83C768.434 671.592 793.114 696.041 785.58 740.75C778.047 785.46 785.58 792.01 778.866 805.112C772.151 818.214 747.749 850.313 754.464 857.846C761.178 865.38 848.468 867.836 855.183 857.846C861.897 847.856 857.639 808.879 846.667 776.78C835.694 744.681 865.828 691.128 858.786 663.778Z" fill="#BFBFBF"/>
<path d="M754.464 857.846C761.178 865.38 848.468 867.836 855.183 857.846C858.232 853.31 859.018 842.795 857.941 829.661H763.928C756.724 841.66 750.696 853.619 754.464 857.846Z" fill="#282828" fill-opacity="0.2"/>
<path d="M680.373 656.156C680.286 651.823 649.939 643.579 652.917 633.571C655.895 623.562 688.441 590.566 719.725 595.172C751.008 599.778 784.918 625.318 786.643 640.416C788.368 655.514 754.812 655.064 751.788 659.026C748.763 662.989 751.994 706.49 735.228 707.776C718.462 709.063 726.694 664.634 725.814 661.821C724.935 659.009 707.498 656.674 702.969 660.25C698.441 663.825 691.163 699.879 676.958 692.774C662.753 685.669 680.46 660.488 680.373 656.156Z" fill="#A5505B"/>
<path d="M681.947 676.094C681.36 671.477 645.816 665.109 648.085 654.189C650.354 643.27 683.763 605.447 719.966 607.857C756.169 610.267 797.727 634.808 801.395 650.783C805.063 666.758 766.736 668.966 763.732 673.437C760.729 677.908 769.314 724.075 750.334 726.791C731.354 729.507 735.74 681.431 734.42 678.5C733.1 675.569 712.946 674.474 708.184 678.653C703.421 682.831 699.18 721.893 682.176 715.448C665.173 709.002 682.535 680.711 681.947 676.094Z" fill="#F5B2AF"/>
<path d="M891.812 553.434C513.897 770.915 292.401 711.144 202 502.5L269.513 268.891C332.35 293.905 363.284 310.801 505.179 282.975C505.179 282.975 727.907 233.352 823.877 282.975C919.847 332.597 924.289 437.119 891.812 553.434Z" fill="white"/>
<mask id="mask0_563_1846" style="mask-type:alpha" maskUnits="userSpaceOnUse" x="217" y="260" width="694" height="435">
<path d="M891.812 553.434C513.897 770.915 307.671 720.243 217.27 511.599L269.513 268.89C332.35 293.904 363.284 310.801 505.179 282.975C505.179 282.975 727.907 233.352 823.877 282.975C919.847 332.597 924.289 437.119 891.812 553.434Z" fill="white"/>
</mask>
<g mask="url(#mask0_563_1846)">
<path d="M522.288 312.888C522.288 351.841 494.978 383.418 461.289 383.418C427.6 383.418 400.29 351.841 400.29 312.888C400.29 273.935 427.6 242.358 461.289 242.358C494.978 242.358 522.288 273.935 522.288 312.888Z" fill="#282828"/>
<path d="M530.893 535.955C572.91 513.992 546.233 461.894 579.463 456.354C612.693 450.814 644.824 477.471 651.23 515.893C657.636 554.315 635.89 589.954 602.66 595.494C569.43 601.034 488.877 557.918 530.893 535.955Z" fill="#282828"/>
<path d="M378.162 567.705C350.303 553.143 367.991 518.6 345.958 514.926C323.925 511.253 302.62 528.927 298.373 554.403C294.126 579.879 308.544 603.509 330.577 607.182C352.61 610.856 406.021 582.268 378.162 567.705Z" fill="#282828"/>
<path d="M642.856 372.934C610.45 358.637 656.2 258.084 656.2 258.084L716.246 203.28L817.752 275.717C817.752 275.717 764.378 363.879 755.323 324.802C746.268 285.724 695.754 301.451 694.324 324.802C692.894 348.153 756.276 342.911 741.979 363.879C727.683 384.848 675.262 387.23 642.856 372.934Z" fill="#282828"/>
<path d="M823.519 441.099C818.541 406.032 868.435 413.158 868.435 413.158L946.686 435.196L938.797 559.647L864.142 532.566C864.142 532.566 851.641 530.99 840.594 525.223C836.291 535.056 830.563 542.156 823.913 541.877C798.557 540.814 828.496 476.167 823.519 441.099Z" fill="#282828"/>
</g>
<path d="M474.717 781.984C478.976 751.687 481.105 691.255 481.105 691.255L392.341 669.474C392.341 669.474 391.522 716.149 387.755 726.63C383.989 737.111 386.609 765.444 392.341 780.019C398.073 794.595 364.828 858.793 372.525 866.981C380.222 875.17 463.418 875.006 473.571 866.981C483.725 858.957 470.459 812.282 474.717 781.984Z" fill="white"/>
<path d="M372.525 866.981C380.222 875.17 463.418 875.006 473.571 866.981C477.895 863.565 477.972 853.141 476.964 839.957H376.842C372.474 853.099 369.656 863.93 372.525 866.981Z" fill="#282828"/>
<path d="M912.149 674.551C905.107 647.201 891.841 553.361 891.841 553.361L714.805 633.772C717.605 634.324 803.028 660.841 812.413 671.603C821.797 682.365 846.477 706.814 838.943 751.523C831.41 796.233 838.943 802.784 832.229 815.885C825.514 828.987 801.112 861.086 807.827 868.619C814.542 876.153 901.831 878.609 908.546 868.619C915.261 858.629 911.003 819.652 900.03 787.553C889.057 755.454 919.191 701.901 912.149 674.551Z" fill="white"/>
<path d="M807.827 868.619C814.541 876.153 901.831 878.609 908.546 868.619C911.595 864.083 912.382 853.568 911.304 840.434H817.291C810.087 852.433 804.06 864.393 807.827 868.619Z" fill="#282828"/>
<path fill-rule="evenodd" clip-rule="evenodd" d="M393.201 653.103C393.753 653.136 394.173 653.61 394.139 654.161C394.022 656.102 393.857 659.191 393.644 663.164C392.916 676.745 391.634 700.647 389.849 724.23L389.845 724.291L389.833 724.352C388.081 733.07 386.931 740.063 387.317 749.103C387.702 758.16 389.632 769.317 394.108 786.329C394.249 786.863 393.93 787.41 393.396 787.55C392.862 787.691 392.315 787.372 392.174 786.838C387.684 769.771 385.713 758.454 385.318 749.188C384.924 739.925 386.106 732.754 387.86 724.018C389.64 700.482 390.917 676.659 391.645 663.082C391.859 659.097 392.025 655.994 392.143 654.041C392.176 653.49 392.65 653.07 393.201 653.103Z" fill="black"/>
<path fill-rule="evenodd" clip-rule="evenodd" d="M486.726 647.399C487.269 647.498 487.629 648.018 487.53 648.562C481.493 681.683 480.903 696.22 480 718.421C479.974 719.068 479.948 719.722 479.921 720.383C479.898 720.935 479.432 721.364 478.881 721.341C478.329 721.319 477.9 720.853 477.922 720.301C477.949 719.645 477.975 718.997 478.001 718.354C478.906 696.1 479.501 681.461 485.562 648.203C485.661 647.66 486.182 647.3 486.726 647.399Z" fill="black"/>
<path fill-rule="evenodd" clip-rule="evenodd" d="M893.959 356.682C893.987 356.13 894.456 355.705 895.008 355.732C912.095 356.579 923.738 360.569 931.683 368.778C939.604 376.961 943.681 389.17 946.057 406.04C948.316 422.086 949.056 442.538 949.979 468.073C950.027 469.399 950.075 470.74 950.125 472.094C951.122 499.536 952.422 532.714 956 572.521C956.049 573.071 955.644 573.557 955.093 573.606C954.543 573.656 954.057 573.25 954.008 572.7C950.425 532.837 949.123 499.615 948.126 472.167C948.078 470.836 948.03 469.518 947.983 468.214C947.057 442.612 946.321 422.259 944.076 406.319C941.716 389.557 937.711 377.882 930.246 370.169C922.807 362.483 911.764 358.565 894.909 357.73C894.357 357.702 893.932 357.233 893.959 356.682Z" fill="black"/>
<path d="M975.372 601.561C977.425 594.426 954.839 572 954.839 572C954.839 572 943.545 593.406 942.518 601.561C941.492 609.716 961.6 622.113 963.052 621.948C964.504 621.784 973.319 608.697 975.372 601.561Z" fill="#282828"/>
<path fill-rule="evenodd" clip-rule="evenodd" d="M955.543 571.29L954.839 572L953.954 571.533L954.585 570.339L955.543 571.29ZM955.093 573.68C954.796 574.255 954.407 575.017 953.951 575.922C952.88 578.05 951.441 580.97 949.971 584.143C948.5 587.318 947.003 590.735 945.811 593.858C944.611 597.004 943.751 599.775 943.511 601.686C943.306 603.316 944.158 605.345 945.884 607.603C947.579 609.82 949.974 612.072 952.484 614.096C954.987 616.116 957.569 617.88 959.608 619.126C960.629 619.749 961.502 620.236 962.154 620.557C962.474 620.715 962.725 620.826 962.905 620.893C962.983 620.827 963.083 620.736 963.204 620.614C963.548 620.266 963.992 619.748 964.513 619.081C965.549 617.753 966.832 615.908 968.141 613.835C970.774 609.664 973.426 604.709 974.411 601.285C974.587 600.675 974.525 599.773 974.128 598.551C973.738 597.351 973.063 595.96 972.168 594.439C970.38 591.402 967.788 587.977 965.106 584.743C962.429 581.516 959.685 578.506 957.608 576.301C956.572 575.201 955.703 574.303 955.093 573.68ZM962.75 621.008C962.75 621.007 962.754 621.005 962.761 621.002C962.754 621.006 962.75 621.008 962.75 621.008ZM976.031 597.933C976.476 599.304 976.671 600.664 976.333 601.838C975.265 605.549 972.483 610.705 969.832 614.903C968.499 617.014 967.178 618.917 966.089 620.312C965.547 621.007 965.048 621.594 964.625 622.021C964.414 622.234 964.203 622.426 964 622.576C963.834 622.698 963.533 622.9 963.165 622.942C962.947 622.967 962.749 622.928 962.635 622.901C962.5 622.87 962.36 622.824 962.225 622.774C961.952 622.673 961.627 622.528 961.268 622.351C960.546 621.994 959.618 621.475 958.566 620.832C956.459 619.545 953.805 617.732 951.228 615.653C948.657 613.579 946.127 611.213 944.295 608.818C942.495 606.463 941.218 603.884 941.526 601.436C941.799 599.27 942.736 596.307 943.942 593.146C945.157 589.962 946.675 586.498 948.156 583.302C949.638 580.104 951.087 577.163 952.165 575.022C952.704 573.952 953.151 573.081 953.463 572.477C953.619 572.175 953.742 571.939 953.825 571.779L953.921 571.597L953.954 571.533C953.954 571.533 953.954 571.533 954.839 572C955.543 571.29 955.543 571.29 955.543 571.29L955.561 571.308L955.61 571.357C955.654 571.401 955.718 571.465 955.801 571.549C955.968 571.717 956.211 571.963 956.52 572.278C957.137 572.909 958.016 573.818 959.064 574.93C961.158 577.153 963.932 580.196 966.645 583.466C969.353 586.731 972.023 590.251 973.892 593.425C974.826 595.01 975.578 596.541 976.031 597.933Z" fill="black"/>
<path fill-rule="evenodd" clip-rule="evenodd" d="M822.279 292.334C822.537 291.878 823.116 291.72 823.573 291.982C831.068 296.285 834.526 299.4 839.856 305.542C840.201 305.94 840.162 306.542 839.767 306.886C839.373 307.231 838.773 307.187 838.428 306.789C833.217 300.784 829.921 297.816 822.638 293.635C822.182 293.373 822.021 292.791 822.279 292.334Z" fill="black"/>
<path fill-rule="evenodd" clip-rule="evenodd" d="M824.58 306.169C824.837 305.712 825.417 305.555 825.873 305.817C833.369 310.12 836.827 313.235 842.156 319.377C842.501 319.775 842.462 320.377 842.068 320.721C841.673 321.065 841.074 321.022 840.728 320.623C835.517 314.618 832.221 311.651 824.939 307.47C824.482 307.208 824.322 306.626 824.58 306.169Z" fill="black"/>
<path fill-rule="evenodd" clip-rule="evenodd" d="M844.659 309.977C844.917 309.52 845.496 309.362 845.953 309.625C853.448 313.928 856.906 317.043 862.236 323.184C862.581 323.582 862.541 324.184 862.147 324.529C861.753 324.873 861.153 324.829 860.808 324.431C855.597 318.426 852.301 315.459 845.018 311.278C844.562 311.016 844.401 310.433 844.659 309.977Z" fill="black"/>
<path fill-rule="evenodd" clip-rule="evenodd" d="M866.246 332.882C866.633 332.528 867.232 332.558 867.585 332.948C873.378 339.363 875.7 343.396 878.864 350.887C879.069 351.373 878.845 351.932 878.363 352.138C877.881 352.343 877.325 352.115 877.12 351.63C874.027 344.305 871.812 340.463 866.184 334.231C865.832 333.84 865.859 333.236 866.246 332.882Z" fill="black"/>
<path fill-rule="evenodd" clip-rule="evenodd" d="M864.145 346.749C864.532 346.395 865.132 346.424 865.484 346.815C871.277 353.229 873.6 357.262 876.763 364.753C876.968 365.239 876.744 365.799 876.263 366.004C875.781 366.209 875.224 365.982 875.019 365.496C871.926 358.172 869.712 354.329 864.084 348.097C863.731 347.707 863.759 347.103 864.145 346.749Z" fill="black"/>
<path fill-rule="evenodd" clip-rule="evenodd" d="M882.056 356.592C882.443 356.238 883.043 356.268 883.395 356.658C889.188 363.072 891.511 367.106 894.674 374.597C894.879 375.082 894.655 375.642 894.174 375.847C893.692 376.052 893.135 375.825 892.93 375.339C889.837 368.015 887.623 364.172 881.995 357.94C881.642 357.55 881.67 356.946 882.056 356.592Z" fill="black"/>
<path fill-rule="evenodd" clip-rule="evenodd" d="M825.654 327.378C825.995 326.979 826.593 326.935 826.991 327.279C833.53 332.931 836.332 336.648 840.394 343.692C840.657 344.149 840.503 344.732 840.051 344.995C839.598 345.258 839.018 345.101 838.754 344.644C834.783 337.756 832.112 334.215 825.759 328.724C825.361 328.38 825.314 327.778 825.654 327.378Z" fill="black"/>
<path fill-rule="evenodd" clip-rule="evenodd" d="M825.278 341.398C825.618 340.999 826.216 340.955 826.614 341.299C833.153 346.951 835.955 350.667 840.017 357.712C840.28 358.168 840.126 358.752 839.674 359.015C839.221 359.277 838.641 359.12 838.377 358.664C834.406 351.776 831.735 348.235 825.382 342.744C824.984 342.4 824.937 341.797 825.278 341.398Z" fill="black"/>
<path fill-rule="evenodd" clip-rule="evenodd" d="M844.265 348.961C844.605 348.562 845.204 348.517 845.602 348.861C852.141 354.513 854.942 358.23 859.004 365.274C859.267 365.731 859.114 366.314 858.661 366.577C858.208 366.84 857.628 366.683 857.365 366.226C853.393 359.339 850.722 355.798 844.37 350.306C843.972 349.962 843.925 349.36 844.265 348.961Z" fill="black"/>
<path fill-rule="evenodd" clip-rule="evenodd" d="M219.048 503.144C219.463 502.824 220.058 502.904 220.377 503.323C225.608 510.203 227.582 514.418 230.102 522.149C230.265 522.65 229.994 523.189 229.497 523.353C229 523.517 228.464 523.243 228.301 522.742C225.837 515.183 223.955 511.167 218.873 504.482C218.554 504.063 218.633 503.464 219.048 503.144Z" fill="black"/>
<path fill-rule="evenodd" clip-rule="evenodd" d="M215.784 516.784C216.2 516.464 216.795 516.544 217.113 516.963C222.344 523.843 224.318 528.058 226.838 535.789C227.001 536.29 226.731 536.829 226.234 536.993C225.736 537.157 225.201 536.883 225.037 536.382C222.573 528.823 220.691 524.807 215.609 518.122C215.291 517.703 215.369 517.104 215.784 516.784Z" fill="black"/>
<path fill-rule="evenodd" clip-rule="evenodd" d="M232.802 528.103C233.217 527.783 233.812 527.863 234.13 528.282C239.361 535.163 241.335 539.377 243.855 547.109C244.018 547.61 243.748 548.149 243.251 548.313C242.753 548.476 242.218 548.203 242.055 547.702C239.59 540.142 237.708 536.126 232.626 529.442C232.308 529.023 232.386 528.424 232.802 528.103Z" fill="black"/>
<path fill-rule="evenodd" clip-rule="evenodd" d="M705.563 623.4C705.58 622.876 706.02 622.468 706.546 622.489C715.182 622.834 719.69 623.994 727.256 626.971C727.747 627.164 727.991 627.716 727.8 628.204C727.61 628.691 727.058 628.93 726.568 628.737C719.169 625.826 714.874 624.722 706.483 624.387C705.958 624.366 705.545 623.924 705.563 623.4Z" fill="black"/>
<path fill-rule="evenodd" clip-rule="evenodd" d="M714.006 634.598C714.023 634.074 714.464 633.666 714.99 633.687C723.626 634.032 728.133 635.192 735.7 638.17C736.19 638.363 736.434 638.914 736.244 639.402C736.054 639.89 735.502 640.129 735.011 639.936C727.613 637.025 723.317 635.92 714.927 635.585C714.401 635.564 713.989 635.122 714.006 634.598Z" fill="black"/>
<path fill-rule="evenodd" clip-rule="evenodd" d="M733.568 628.679C733.585 628.154 734.025 627.747 734.551 627.768C743.187 628.112 747.694 629.273 755.261 632.25C755.752 632.443 755.995 632.995 755.805 633.483C755.615 633.97 755.063 634.209 754.573 634.016C747.174 631.105 742.879 630 734.488 629.665C733.962 629.644 733.55 629.203 733.568 628.679Z" fill="black"/>
<path d="M179.414 146.117C84.6384 151.778 91.4639 217.757 91.4639 217.757C83.6206 236.628 81.05 267.261 61.492 316.92C53.3322 337.639 38.7002 359.83 26.525 389.539C-35.2002 546.37 212.129 562.462 268.729 485.776C342.274 393.141 315.16 288.603 310.852 250.162C286.501 152.87 248.772 148.221 179.414 146.117Z" fill="white"/>
<path fill-rule="evenodd" clip-rule="evenodd" d="M239.397 323.319C239.397 323.32 239.397 323.32 238.375 323.169L239.397 323.32C239.313 323.885 238.788 324.275 238.224 324.191C237.66 324.108 237.27 323.582 237.354 323.017L237.355 323.012L237.358 322.99L237.37 322.9C237.382 322.819 237.398 322.698 237.418 322.538C237.459 322.219 237.515 321.748 237.578 321.145C237.702 319.941 237.851 318.213 237.945 316.132C238.132 311.963 238.099 306.399 237.225 300.777C236.349 295.144 234.642 289.535 231.542 285.211C228.469 280.924 224.011 277.867 217.491 277.295C210.983 276.724 205.895 279.048 201.871 282.902C197.817 286.783 194.842 292.224 192.68 297.827C190.523 303.419 189.205 309.098 188.426 313.39C188.038 315.533 187.784 317.324 187.629 318.577C187.551 319.203 187.497 319.695 187.463 320.028C187.446 320.195 187.434 320.322 187.426 320.407L187.418 320.502L187.416 320.525L187.416 320.53C187.416 320.53 187.416 320.53 187.416 320.53C187.369 321.099 186.87 321.523 186.302 321.476C185.734 321.43 185.311 320.931 185.357 320.362L186.386 320.446C185.357 320.362 185.357 320.361 185.357 320.361L185.358 320.359L185.358 320.351L185.361 320.323L185.37 320.218C185.378 320.127 185.391 319.993 185.409 319.819C185.444 319.471 185.499 318.964 185.579 318.322C185.739 317.036 185.998 315.207 186.395 313.02C187.187 308.652 188.534 302.836 190.754 297.082C192.969 291.339 196.081 285.585 200.443 281.408C204.835 277.203 210.49 274.605 217.671 275.236C224.841 275.865 229.826 279.272 233.219 284.006C236.585 288.701 238.365 294.668 239.265 300.46C240.167 306.263 240.199 311.975 240.008 316.225C239.912 318.353 239.76 320.121 239.632 321.359C239.567 321.978 239.509 322.465 239.467 322.799C239.445 322.966 239.428 323.095 239.416 323.183L239.402 323.283L239.398 323.31L239.397 323.317L239.397 323.319Z" fill="black"/>
<path fill-rule="evenodd" clip-rule="evenodd" d="M154.253 313.693C154.253 313.694 154.253 313.694 153.239 313.5L154.253 313.694C154.146 314.255 153.605 314.622 153.045 314.515C152.485 314.408 152.118 313.866 152.225 313.306L152.226 313.3L152.23 313.278L152.247 313.189C152.261 313.108 152.283 312.988 152.31 312.829C152.364 312.512 152.44 312.044 152.527 311.445C152.703 310.246 152.924 308.527 153.105 306.451C153.468 302.293 153.668 296.733 153.031 291.08C152.393 285.414 150.923 279.739 148.007 275.287C145.118 270.876 140.792 267.634 134.302 266.787C127.824 265.942 122.642 268.05 118.46 271.731C114.246 275.438 111.045 280.749 108.65 286.256C106.26 291.752 104.704 297.371 103.746 301.626C103.267 303.751 102.939 305.529 102.73 306.775C102.626 307.397 102.552 307.886 102.504 308.218C102.48 308.384 102.463 308.51 102.451 308.595L102.439 308.689L102.436 308.712L102.435 308.717C102.435 308.717 102.435 308.717 102.435 308.717C102.365 309.283 101.849 309.686 101.283 309.616C100.717 309.545 100.316 309.029 100.386 308.462L101.411 308.59C100.386 308.462 100.386 308.462 100.386 308.461L100.387 308.459L100.388 308.451L100.391 308.424L100.405 308.319C100.417 308.229 100.435 308.095 100.46 307.922C100.51 307.576 100.587 307.072 100.694 306.433C100.907 305.156 101.243 303.339 101.731 301.171C102.707 296.84 104.297 291.086 106.757 285.431C109.211 279.786 112.562 274.168 117.096 270.178C121.661 266.162 127.42 263.805 134.569 264.737C141.705 265.668 146.543 269.282 149.734 274.154C152.899 278.987 154.427 285.024 155.083 290.848C155.74 296.685 155.532 302.393 155.162 306.631C154.977 308.753 154.751 310.512 154.571 311.744C154.48 312.36 154.402 312.845 154.345 313.176C154.317 313.342 154.294 313.47 154.279 313.557L154.26 313.657L154.255 313.684L154.254 313.691L154.253 313.693Z" fill="black"/>
<path d="M337.128 215.563C328.401 219.118 283.723 200.907 283.723 200.907L272.084 181.177C272.084 181.177 306.699 149.525 314.076 148.389C321.453 147.253 353.56 155.811 357.668 166.521C361.776 177.231 345.854 212.008 337.128 215.563Z" fill="white"/>
<path fill-rule="evenodd" clip-rule="evenodd" d="M350.787 157.996C354.539 160.317 357.607 163.034 358.78 166.094C359.942 169.123 359.64 173.608 358.583 178.456C357.511 183.373 355.604 188.911 353.303 194.201C351.002 199.491 348.288 204.573 345.583 208.574C344.231 210.574 342.867 212.325 341.543 213.701C340.234 215.061 338.893 216.131 337.577 216.667C336.216 217.221 334.328 217.303 332.236 217.142C330.1 216.979 327.578 216.546 324.842 215.936C319.367 214.716 312.919 212.757 306.774 210.698C300.623 208.637 294.749 206.466 290.415 204.81C288.247 203.982 286.463 203.283 285.22 202.79C284.599 202.544 284.113 202.349 283.782 202.216C283.616 202.15 283.49 202.098 283.404 202.064L283.274 202.011C283.273 202.011 283.273 202.011 283.723 200.907C284.173 199.803 284.173 199.803 284.173 199.803L284.299 199.854C284.383 199.888 284.508 199.939 284.672 200.005C284.999 200.136 285.482 200.33 286.099 200.574C287.334 201.064 289.108 201.759 291.265 202.583C295.581 204.231 301.422 206.391 307.531 208.438C313.647 210.487 320.004 212.415 325.361 213.609C328.04 214.207 330.44 214.614 332.418 214.766C334.44 214.921 335.857 214.794 336.677 214.459C337.542 214.107 338.608 213.312 339.825 212.048C341.025 210.8 342.305 209.167 343.608 207.239C346.214 203.385 348.861 198.437 351.117 193.25C353.374 188.062 355.223 182.675 356.253 177.948C357.299 173.152 357.447 169.274 356.554 166.948C355.674 164.652 353.188 162.284 349.533 160.023C345.928 157.793 341.385 155.788 336.701 154.137C332.023 152.487 327.245 151.205 323.191 150.406C319.081 149.596 315.875 149.318 314.257 149.567C313.583 149.671 312.41 150.177 310.759 151.151C309.154 152.097 307.232 153.401 305.105 154.954C300.855 158.057 295.861 162.1 291.081 166.121C286.303 170.14 281.755 174.124 278.399 177.105C276.722 178.595 275.343 179.834 274.384 180.7C273.905 181.133 273.53 181.472 273.276 181.703L272.986 181.967L272.888 182.057C272.888 182.057 272.888 182.057 272.181 181.284L272.888 182.057C272.402 182.501 271.648 182.467 271.204 181.982C270.76 181.496 270.793 180.742 271.279 180.298L272.009 181.096C271.279 180.298 271.279 180.298 271.279 180.298L271.38 180.206L271.672 179.939C271.929 179.707 272.305 179.365 272.786 178.93C273.749 178.061 275.133 176.818 276.816 175.323C280.181 172.333 284.747 168.334 289.546 164.297C294.342 160.263 299.384 156.18 303.699 153.029C305.856 151.454 307.848 150.099 309.548 149.097C311.202 148.122 312.724 147.391 313.894 147.211C315.965 146.892 319.539 147.257 323.652 148.067C327.821 148.888 332.71 150.202 337.494 151.888C342.272 153.573 346.987 155.645 350.787 157.996ZM282.619 200.457C282.868 199.847 283.564 199.555 284.173 199.803L283.723 200.907L283.274 202.011C282.664 201.762 282.371 201.066 282.619 200.457Z" fill="black"/>
<path fill-rule="evenodd" clip-rule="evenodd" d="M346.3 168.046C346.846 168.414 346.991 169.155 346.624 169.701L345.635 169.035C346.624 169.701 346.624 169.7 346.624 169.701L346.622 169.703L346.606 169.727L346.559 169.797C346.517 169.857 346.456 169.946 346.376 170.061C346.217 170.29 345.983 170.622 345.682 171.039C345.081 171.872 344.209 173.046 343.126 174.412C340.963 177.139 337.939 180.657 334.517 183.771C331.117 186.866 327.223 189.658 323.315 190.801C321.344 191.377 319.329 191.545 317.362 191.083C315.385 190.62 313.538 189.538 311.887 187.747C311.103 186.896 310.432 186.071 309.869 185.272C308.979 185.585 308.078 185.891 307.175 186.189C302.812 187.629 298.367 188.9 295.016 189.81C293.34 190.265 291.935 190.631 290.949 190.883C290.456 191.009 290.067 191.106 289.801 191.172C289.668 191.205 289.566 191.231 289.497 191.248L289.391 191.274C289.391 191.274 289.39 191.274 289.108 190.115C288.826 188.957 288.826 188.957 288.826 188.957L288.851 188.951L288.926 188.932C288.994 188.916 289.094 188.891 289.225 188.858C289.486 188.793 289.87 188.697 290.358 188.572C291.335 188.323 292.728 187.96 294.391 187.509C297.719 186.605 302.12 185.347 306.427 183.925C307.161 183.682 307.891 183.435 308.612 183.185C307.847 181.643 307.521 180.213 307.594 178.899C307.739 176.289 309.424 174.512 311.453 173.503C313.464 172.503 315.944 172.171 318.121 172.442C320.237 172.705 322.434 173.597 323.417 175.442C324.143 176.806 323.445 178.089 322.613 178.962C321.761 179.855 320.445 180.708 318.921 181.51C317.051 182.496 314.72 183.482 312.203 184.426C312.613 184.965 313.089 185.534 313.64 186.131C315 187.608 316.438 188.418 317.905 188.762C319.382 189.109 320.97 189.001 322.646 188.512C326.03 187.523 329.601 185.022 332.913 182.007C336.204 179.011 339.139 175.602 341.258 172.929C342.316 171.596 343.166 170.451 343.75 169.642C344.042 169.237 344.268 168.917 344.419 168.699C344.495 168.589 344.553 168.506 344.591 168.45L344.633 168.388L344.643 168.373L344.646 168.37C345.013 167.823 345.754 167.678 346.3 168.046ZM310.874 182.376C313.519 181.399 315.933 180.39 317.81 179.4C319.271 178.63 320.309 177.922 320.888 177.315C321.175 177.014 321.285 176.805 321.319 176.692C321.341 176.618 321.333 176.6 321.313 176.562C320.877 175.743 319.659 175.036 317.827 174.808C316.056 174.587 314.055 174.872 312.515 175.638C310.993 176.395 310.057 177.534 309.974 179.033C309.925 179.909 310.159 181.02 310.874 182.376ZM289.108 190.115L288.826 188.957C288.187 189.112 287.794 189.757 287.95 190.397C288.106 191.037 288.752 191.429 289.391 191.274L289.108 190.115Z" fill="black"/>
<path d="M95.4764 136.853C99.4842 142.393 141.423 160.392 141.423 160.392L116.701 177.613C116.701 177.613 78.3257 154.003 76.5922 146.058C74.8587 138.112 79.354 91.4048 82.801 91.5853C86.2481 91.7657 91.4686 131.314 95.4764 136.853Z" fill="#FFF4D8"/>
<path fill-rule="evenodd" clip-rule="evenodd" d="M92.7903 133.699C93.3246 135.315 93.8913 136.696 94.5102 137.552C95.1508 138.437 96.4138 139.428 97.9389 140.447C99.5102 141.496 101.511 142.673 103.773 143.914C108.299 146.397 113.942 149.178 119.443 151.778C124.947 154.379 130.324 156.806 134.323 158.583C136.323 159.471 137.98 160.197 139.137 160.701C139.715 160.953 140.168 161.149 140.478 161.283L140.952 161.487C140.952 161.487 140.952 161.487 141.422 160.392C141.892 159.297 141.891 159.297 141.891 159.297L141.89 159.296L141.773 159.245L141.422 159.094C141.115 158.962 140.664 158.766 140.088 158.515C138.935 158.013 137.284 157.289 135.29 156.404C131.301 154.632 125.942 152.213 120.461 149.623C114.976 147.03 109.383 144.273 104.919 141.823C102.685 140.598 100.752 139.459 99.2624 138.464C97.727 137.439 96.8027 136.654 96.4413 136.155C96.0583 135.626 95.5852 134.559 95.0534 132.951C94.5344 131.382 93.9968 129.416 93.4464 127.184C92.4456 123.124 91.4198 118.256 90.3996 113.414C90.2977 112.93 90.1958 112.446 90.094 111.964C88.9773 106.671 87.8692 101.502 86.8218 97.6436C86.2998 95.7206 85.7796 94.0722 85.264 92.8816C85.0087 92.292 84.7292 91.7543 84.4158 91.3417C84.1439 90.9837 83.6342 90.4352 82.8623 90.3948C82.3949 90.3704 82.0153 90.5544 81.7527 90.7542C81.4983 90.9476 81.3022 91.1921 81.1507 91.4203C80.8478 91.8764 80.5849 92.4814 80.3488 93.1515C79.8702 94.5095 79.4056 96.4177 78.9628 98.6729C78.0741 103.2 77.2388 109.308 76.5681 115.648C75.8969 121.992 75.3876 128.596 75.1549 134.118C75.0385 136.879 74.9908 139.38 75.0277 141.449C75.064 143.493 75.1834 145.194 75.4272 146.311C75.712 147.617 76.6785 149.048 77.9112 150.474C79.1791 151.941 80.8677 153.557 82.8095 155.241C86.6962 158.611 91.6938 162.334 96.6112 165.79C101.534 169.25 106.399 172.459 110.032 174.802C111.849 175.973 113.359 176.929 114.415 177.593C114.943 177.924 115.358 178.183 115.641 178.359C115.727 178.412 115.801 178.458 115.862 178.496C115.902 178.52 115.936 178.541 115.964 178.559L116.076 178.628C116.076 178.628 116.077 178.628 116.701 177.613C117.325 176.598 117.325 176.598 117.325 176.598L117.323 176.597L117.217 176.531C117.191 176.515 117.16 176.496 117.124 176.474C117.063 176.436 116.987 176.389 116.898 176.334C116.618 176.16 116.207 175.903 115.682 175.574C114.633 174.915 113.131 173.964 111.323 172.798C107.706 170.466 102.869 167.276 97.9813 163.84C93.0881 160.401 88.1669 156.731 84.3705 153.44C82.4708 151.793 80.8769 150.261 79.7143 148.915C78.5166 147.53 77.9046 146.485 77.7561 145.804C77.5665 144.935 77.4471 143.438 77.411 141.408C77.3753 139.402 77.4213 136.952 77.5365 134.22C77.7668 128.756 78.2718 122.203 78.9386 115.9C79.6059 109.592 80.4324 103.562 81.3019 99.1332C81.7382 96.9109 82.1767 95.1376 82.597 93.9448C82.6825 93.7022 82.7635 93.4946 82.8389 93.3193C82.9129 93.4644 82.9923 93.6334 83.0767 93.8283C83.5221 94.8567 84.0065 96.3708 84.5214 98.2674C85.5475 102.048 86.6414 107.146 87.7616 112.455C87.8637 112.939 87.966 113.425 88.0685 113.911C89.0865 118.743 90.1208 123.652 91.132 127.753C91.6885 130.011 92.2432 132.045 92.7903 133.699ZM82.4163 92.6688C82.4162 92.6694 82.4214 92.6744 82.4317 92.6819C82.4214 92.6719 82.4163 92.6681 82.4163 92.6688ZM142.517 160.862C142.777 160.257 142.496 159.556 141.891 159.297L141.422 160.392L140.952 161.487C141.557 161.747 142.258 161.467 142.517 160.862ZM117.716 178.238C118.061 177.677 117.885 176.943 117.325 176.598L116.701 177.613L116.076 178.628C116.637 178.973 117.371 178.799 117.716 178.238Z" fill="black"/>
<path d="M36.4396 210.633C44.2536 215.902 91.7105 207.238 91.7105 207.238L107.14 190.313C107.14 190.313 79.7361 152.234 72.748 149.61C65.7599 146.985 32.5831 148.779 26.3705 158.42C20.1579 168.061 28.6255 205.364 36.4396 210.633Z" fill="white"/>
<path fill-rule="evenodd" clip-rule="evenodd" d="M34.8486 151.486C30.7017 152.988 27.1432 155.019 25.3683 157.774C23.6113 160.5 22.9894 164.952 23.0319 169.914C23.075 174.947 23.8079 180.758 24.9777 186.407C26.1476 192.057 27.7636 197.588 29.5928 202.059C30.5071 204.294 31.484 206.287 32.4986 207.905C33.5012 209.505 34.5944 210.827 35.7733 211.622C36.9919 212.443 38.8231 212.91 40.9037 213.182C43.0277 213.46 45.585 213.554 48.3877 213.518C53.9964 213.445 60.7083 212.851 67.1444 212.095C73.5866 211.339 79.7802 210.418 84.3613 209.686C86.6525 209.321 88.5418 209.002 89.8589 208.774C90.5175 208.661 91.0331 208.57 91.3845 208.507C91.5602 208.476 91.6948 208.452 91.7857 208.436L91.924 208.411C91.9244 208.411 91.9247 208.41 91.7102 207.238C91.4958 206.065 91.4957 206.065 91.4954 206.065L91.362 206.089C91.2728 206.105 91.14 206.129 90.9662 206.16C90.6186 206.222 90.107 206.312 89.4527 206.425C88.144 206.651 86.2647 206.968 83.9847 207.332C79.4235 208.061 73.2645 208.976 66.8657 209.728C60.4608 210.479 53.8433 211.063 48.3561 211.134C45.6109 211.169 43.1786 211.075 41.2117 210.818C39.2013 210.555 37.8401 210.141 37.1053 209.645C36.3307 209.123 35.4499 208.126 34.5181 206.64C33.5982 205.172 32.6802 203.311 31.7989 201.157C30.0368 196.85 28.459 191.465 27.3119 185.925C26.1646 180.384 25.457 174.733 25.4155 169.895C25.3735 164.986 26.0228 161.159 27.3721 159.066C28.7035 156.999 31.6219 155.191 35.6612 153.728C39.6465 152.284 44.5037 151.253 49.426 150.597C54.3425 149.942 59.2815 149.666 63.4129 149.715C67.6017 149.766 70.7968 150.15 72.3291 150.726C72.9674 150.966 74.0121 151.702 75.4293 152.993C76.8067 154.249 78.4212 155.919 80.1847 157.875C83.7096 161.784 87.7707 166.765 91.6268 171.681C95.4804 176.594 99.1174 181.427 101.792 185.032C103.129 186.835 104.225 188.33 104.986 189.374C105.367 189.896 105.664 190.305 105.865 190.584L106.095 190.901L106.173 191.009C106.173 191.009 106.173 191.009 107.024 190.397L106.173 191.009C106.557 191.543 107.302 191.665 107.836 191.281C108.371 190.896 108.492 190.151 108.107 189.617L107.23 190.249C108.107 189.617 108.108 189.617 108.107 189.617L108.028 189.506L107.796 189.186C107.593 188.905 107.294 188.494 106.912 187.97C106.147 186.921 105.047 185.421 103.706 183.612C101.024 179.996 97.3731 175.145 93.5021 170.21C89.6336 165.278 85.5335 160.248 81.9546 156.279C80.1663 154.296 78.4933 152.561 77.0345 151.231C75.6154 149.938 74.2751 148.91 73.1664 148.494C71.2046 147.757 67.632 147.382 63.4406 147.331C59.1918 147.28 54.138 147.564 49.1103 148.234C44.0883 148.903 39.0496 149.964 34.8486 151.486ZM92.8826 207.024C92.7642 206.376 92.1429 205.947 91.4954 206.065L91.7102 207.238L91.924 208.411C92.5715 208.292 93.0011 207.671 92.8826 207.024Z" fill="black"/>
<path fill-rule="evenodd" clip-rule="evenodd" d="M37.1849 162.243C36.5751 162.491 36.2816 163.186 36.5293 163.796L37.6334 163.347C36.5293 163.796 36.5291 163.796 36.5293 163.796L36.5304 163.799L36.5327 163.805L36.5412 163.826L36.5734 163.904C36.6016 163.972 36.6432 164.071 36.6977 164.199C36.8067 164.456 36.9675 164.829 37.1767 165.299C37.5952 166.238 38.2081 167.566 38.9888 169.125C40.5475 172.238 42.788 176.301 45.4996 180.051C48.1943 183.777 51.435 187.309 55.0261 189.228C56.8376 190.196 58.7754 190.774 60.7949 190.726C62.825 190.677 64.8542 189.997 66.8362 188.582C67.7778 187.91 68.6035 187.24 69.3178 186.574C70.1249 187.062 70.9451 187.547 71.7678 188.024C75.7428 190.328 79.8339 192.483 82.9275 194.061C84.4752 194.85 85.7754 195.496 86.6892 195.945C87.1461 196.169 87.5066 196.344 87.7533 196.464C87.8766 196.523 87.9715 196.569 88.0357 196.6L88.1089 196.635L88.134 196.647C88.1343 196.647 88.1345 196.647 88.6478 195.571C89.161 194.495 89.161 194.495 89.1608 194.495L89.1381 194.484L89.0677 194.45C89.0053 194.42 88.9124 194.376 88.791 194.317C88.5484 194.2 88.1922 194.026 87.7399 193.804C86.835 193.36 85.5458 192.72 84.0104 191.937C80.9376 190.37 76.8876 188.236 72.9632 185.961C72.2938 185.573 71.6296 185.181 70.9759 184.789C72.04 183.436 72.6513 182.104 72.8489 180.803C73.2413 178.218 71.9557 176.133 70.1761 174.729C68.4128 173.338 66.0526 172.505 63.867 172.324C61.7418 172.147 59.4087 172.57 58.0694 174.174C57.0794 175.36 57.4997 176.759 58.1357 177.784C58.7867 178.833 59.9008 179.938 61.2275 181.036C62.8564 182.384 64.9364 183.827 67.2071 185.267C66.6955 185.711 66.113 186.169 65.4519 186.641C63.8182 187.808 62.2447 188.306 60.7383 188.342C59.2214 188.378 57.6889 187.948 56.1496 187.125C53.0391 185.463 50.056 182.283 47.4309 178.653C44.8227 175.046 42.6473 171.107 41.12 168.057C40.3578 166.535 39.7602 165.24 39.3539 164.328C39.1508 163.872 38.9956 163.512 38.8918 163.267C38.8398 163.145 38.8007 163.052 38.7749 162.989L38.7461 162.92L38.7393 162.903L38.7378 162.899C38.4901 162.289 37.7947 161.995 37.1849 162.243ZM68.9271 183.533C66.5385 182.035 64.3822 180.552 62.7471 179.198C61.4741 178.145 60.6031 177.239 60.1607 176.526C59.9415 176.173 59.8774 175.945 59.8669 175.827C59.8601 175.751 59.8716 175.735 59.8988 175.702C60.4934 174.99 61.8301 174.547 63.6698 174.7C65.449 174.847 67.3489 175.536 68.6999 176.601C70.0347 177.654 70.7177 178.961 70.4924 180.445C70.3607 181.312 69.905 182.352 68.9271 183.533ZM88.6478 195.571L89.1608 194.495C89.7548 194.778 90.0068 195.49 89.7233 196.084C89.4399 196.679 88.728 196.93 88.134 196.647L88.6478 195.571Z" fill="black"/>
<path d="M275.131 138.731C270.544 143.801 226.897 157.119 226.897 157.119L249.597 176.933C249.597 176.933 290.313 157.649 292.901 149.939C295.489 142.23 296.103 95.3106 292.657 95.1141C289.211 94.9176 279.718 133.661 275.131 138.731Z" fill="#FFF4D8"/>
<path fill-rule="evenodd" clip-rule="evenodd" d="M278.144 135.888C277.437 137.436 276.724 138.747 276.015 139.53C275.282 140.341 273.919 141.187 272.292 142.034C270.616 142.906 268.499 143.857 266.116 144.844C261.346 146.819 255.434 148.968 249.683 150.953C243.928 152.939 238.32 154.765 234.151 156.095C232.066 156.759 230.34 157.3 229.135 157.675C228.533 157.863 228.061 158.008 227.739 158.107L227.245 158.259C227.245 158.259 227.245 158.259 226.897 157.119C226.549 155.979 226.549 155.979 226.55 155.979L226.551 155.978L226.673 155.941L227.038 155.829C227.358 155.731 227.828 155.585 228.428 155.399C229.628 155.025 231.348 154.486 233.427 153.823C237.585 152.497 243.175 150.677 248.906 148.699C254.64 146.721 260.5 144.59 265.204 142.642C267.557 141.667 269.603 140.746 271.192 139.919C272.83 139.067 273.834 138.388 274.248 137.931C274.686 137.447 275.272 136.438 275.976 134.898C276.663 133.394 277.411 131.499 278.201 129.34C279.638 125.414 281.187 120.686 282.728 115.984C282.882 115.514 283.036 115.045 283.19 114.576C284.876 109.437 286.54 104.42 288.001 100.698C288.729 98.8433 289.426 97.2614 290.068 96.1341C290.386 95.5759 290.722 95.0719 291.078 94.6959C291.388 94.3697 291.954 93.8801 292.726 93.9241C293.193 93.9507 293.55 94.175 293.79 94.4023C294.021 94.6223 294.19 94.8867 294.316 95.13C294.567 95.6165 294.763 96.2465 294.924 96.9384C295.252 98.3406 295.507 100.288 295.701 102.578C296.092 107.175 296.258 113.338 296.234 119.714C296.211 126.093 295.999 132.712 295.629 138.228C295.444 140.985 295.22 143.476 294.958 145.529C294.699 147.557 294.395 149.235 294.031 150.319C293.606 151.585 292.49 152.902 291.109 154.186C289.689 155.506 287.835 156.928 285.721 158.39C281.491 161.316 276.118 164.472 270.854 167.371C265.584 170.274 260.398 172.933 256.532 174.866C254.598 175.833 252.993 176.618 251.871 177.162C251.31 177.434 250.87 177.646 250.569 177.79C250.419 177.862 250.304 177.917 250.226 177.954L250.109 178.01L250.108 178.01C250.107 178.011 250.107 178.011 249.628 176.998L250.108 178.01C249.513 178.292 248.801 178.039 248.52 177.444C248.238 176.849 248.492 176.138 249.087 175.856L249.55 176.833C249.087 175.856 249.087 175.856 249.087 175.856L249.089 175.855L249.094 175.853L249.202 175.802C249.278 175.765 249.392 175.711 249.54 175.64C249.837 175.498 250.274 175.288 250.832 175.017C251.946 174.477 253.543 173.695 255.467 172.734C259.316 170.809 264.471 168.166 269.704 165.283C274.942 162.398 280.234 159.287 284.366 156.429C286.433 154.999 288.184 153.65 289.486 152.44C290.828 151.193 291.55 150.221 291.772 149.56C292.055 148.717 292.336 147.242 292.593 145.228C292.847 143.238 293.068 140.798 293.251 138.069C293.616 132.612 293.827 126.044 293.85 119.705C293.874 113.363 293.708 107.278 293.326 102.781C293.134 100.524 292.891 98.7133 292.603 97.4818C292.545 97.2314 292.487 97.0162 292.431 96.8337C292.341 96.9699 292.244 97.1292 292.139 97.3137C291.584 98.2874 290.938 99.7396 290.22 101.569C288.788 105.215 287.146 110.163 285.455 115.319C285.301 115.789 285.146 116.26 284.991 116.732C283.454 121.424 281.891 126.192 280.44 130.159C279.641 132.342 278.868 134.303 278.144 135.888ZM292.922 96.2331C292.922 96.2337 292.916 96.2381 292.905 96.2444C292.916 96.2356 292.922 96.2324 292.922 96.2331ZM225.757 157.467C225.565 156.837 225.92 156.171 226.55 155.979L226.897 157.119L227.245 158.259C226.616 158.451 225.949 158.097 225.757 157.467Z" fill="black"/>
<path d="M250.864 463.002C233.625 536.04 167.962 534.647 106.88 527.471C45.7975 520.296 -3.17234 462.866 13.3199 412.367C29.8121 361.869 32.1867 385.04 121.445 403.244C210.703 421.447 268.102 389.964 250.864 463.002Z" fill="#F5B2AF"/>
<path d="M139.134 154.765C140.184 149.082 146.803 136.214 153.735 136.214C157.95 136.214 163.211 141.202 166.799 146.365C171.384 140.809 179.671 135.538 182.381 136.214C184.109 136.645 187.559 139.807 190.69 143.554C194.222 135.252 202.412 127.025 209.236 131.451C212.746 133.727 216.05 137.445 218.722 141.393C220.877 136.559 224.883 133.345 228.334 136.214C233.13 140.202 235.25 150.333 234.692 155.158C240.582 155.553 252.187 159.168 253.399 163.602C254.09 166.131 251.577 169.371 248.231 172.087C254.689 172.041 260.884 173.381 259.367 176.105C256.383 181.463 239.076 189.799 235.495 188.608C231.914 187.417 231.914 197.539 223.559 202.302C219.168 204.805 216.096 199.25 215.555 193.762C209.66 197.029 201.915 199.92 197.898 199.92C195.074 199.92 193.341 197.404 192.56 194.21C187.92 198.071 181.914 200.994 177.607 199.92C173.518 198.9 169.648 194.933 167.356 190.916C162.108 195.477 154.203 199.92 150.751 199.92C147.488 199.92 144.224 192.121 142.647 185.229C138.22 188.094 130.958 189.623 126.283 188.608C119.679 187.173 114.944 185.035 114.347 176.105C114.085 172.172 116.484 169.162 119.302 167.535C119.507 166.417 120.012 165.11 120.912 163.602C125.12 156.55 134.644 154.396 139.134 154.765Z" fill="#282828"/>
<path fill-rule="evenodd" clip-rule="evenodd" d="M190.386 141.376C189.171 140.015 187.942 138.768 186.804 137.752C186.044 137.073 185.31 136.483 184.636 136.028C183.983 135.587 183.306 135.216 182.67 135.057C182.103 134.916 181.49 134.95 180.908 135.056C180.314 135.164 179.673 135.363 179.01 135.625C177.686 136.149 176.181 136.96 174.647 137.952C171.993 139.667 169.15 141.984 166.887 144.451C165.224 142.234 163.282 140.104 161.262 138.435C158.91 136.491 156.269 135.022 153.736 135.022C151.63 135.022 149.659 135.996 147.931 137.384C146.196 138.779 144.609 140.667 143.242 142.691C140.807 146.297 138.953 150.51 138.187 153.534C135.798 153.522 132.612 154.051 129.479 155.292C125.855 156.728 122.17 159.169 119.889 162.991C119.067 164.368 118.53 165.631 118.247 166.782C115.355 168.624 112.872 171.892 113.159 176.184C113.472 180.863 114.89 183.966 117.277 186.063C119.607 188.11 122.708 189.051 126.031 189.773C128.585 190.327 131.748 190.175 134.801 189.54C137.278 189.026 139.76 188.178 141.87 187.063C142.66 190.099 143.745 193.206 145.004 195.697C145.74 197.153 146.564 198.455 147.463 199.411C148.341 200.344 149.451 201.112 150.752 201.112C151.829 201.112 153.129 200.776 154.481 200.271C155.858 199.758 157.387 199.033 158.954 198.173C161.681 196.677 164.58 194.741 167.061 192.721C169.487 196.457 173.217 200.054 177.319 201.077C179.825 201.702 182.684 201.142 185.413 200.018C187.65 199.097 189.893 197.759 191.939 196.222C192.342 197.274 192.875 198.243 193.56 199.04C194.631 200.286 196.083 201.112 197.898 201.112C200.121 201.112 203.222 200.329 206.423 199.189C209.129 198.225 211.997 196.972 214.62 195.615C215.06 197.923 215.92 200.166 217.177 201.765C217.97 202.774 218.98 203.6 220.213 203.943C221.478 204.296 222.82 204.096 224.15 203.337C228.655 200.769 230.876 196.765 232.384 193.756C232.532 193.461 232.671 193.18 232.802 192.915C233.371 191.766 233.804 190.891 234.253 190.285C234.517 189.928 234.704 189.786 234.813 189.734C234.873 189.705 234.943 189.68 235.12 189.739C235.845 189.98 236.74 189.942 237.606 189.811C238.512 189.673 239.56 189.405 240.681 189.045C242.928 188.323 245.579 187.199 248.194 185.876C250.809 184.552 253.42 183.014 255.58 181.452C257.7 179.92 259.528 178.267 260.409 176.685C260.694 176.172 260.846 175.6 260.772 175.002C260.698 174.405 260.415 173.907 260.052 173.513C259.364 172.768 258.281 172.27 257.142 171.918C255.528 171.42 253.451 171.11 251.235 170.974C252.045 170.149 252.76 169.292 253.327 168.428C254.358 166.854 255.029 165.042 254.549 163.287C254.137 161.78 252.911 160.52 251.488 159.499C250.031 158.454 248.187 157.532 246.241 156.758C242.83 155.401 238.949 154.436 235.962 154.081C236.042 151.551 235.597 148.233 234.666 145.038C233.582 141.323 231.768 137.518 229.096 135.297C228.053 134.43 226.906 133.977 225.715 133.942C224.538 133.907 223.419 134.283 222.417 134.9C220.926 135.82 219.608 137.322 218.563 139.098C216.059 135.685 213.079 132.522 209.886 130.451L209.237 131.451L209.886 130.451C205.877 127.851 201.553 129.085 198.008 131.781C194.936 134.116 192.24 137.672 190.386 141.376ZM192.078 143.362C194.678 146.554 197.077 150.185 197.968 152.988C198.416 154.398 198.636 156.078 197.652 157.271C196.634 158.505 194.853 158.613 192.891 158.221C191.367 157.917 190.157 157.202 189.291 156.14C188.439 155.094 187.985 153.79 187.815 152.396C187.504 149.832 188.129 146.765 189.313 143.771C187.92 142.147 186.492 140.669 185.216 139.53C184.507 138.896 183.859 138.38 183.302 138.004C182.724 137.613 182.322 137.428 182.093 137.37C181.983 137.343 181.745 137.326 181.336 137.401C180.94 137.473 180.454 137.618 179.887 137.842C178.752 138.291 177.39 139.017 175.941 139.954C173.284 141.67 170.446 144.018 168.296 146.449C169.243 147.878 170.061 149.312 170.694 150.658C171.433 152.226 171.954 153.744 172.095 155.026C172.228 156.236 172.055 157.721 170.755 158.46C170.15 158.804 169.45 158.882 168.747 158.811C168.043 158.739 167.26 158.511 166.404 158.151C165.024 157.572 163.974 156.781 163.302 155.767C162.623 154.742 162.398 153.59 162.497 152.423C162.667 150.412 163.8 148.295 165.308 146.325C163.663 144.067 161.723 141.907 159.744 140.272C157.515 138.431 155.418 137.406 153.736 137.406C152.376 137.406 150.92 138.041 149.424 139.243C147.936 140.438 146.503 142.122 145.217 144.026C142.991 147.322 141.318 151.11 140.585 153.787C140.722 153.821 140.853 153.858 140.979 153.899C141.453 154.054 142.008 154.315 142.377 154.793C142.578 155.052 142.724 155.378 142.752 155.755C142.78 156.126 142.686 156.464 142.542 156.747C142.274 157.275 141.788 157.698 141.267 158.045C140.828 158.337 140.285 158.604 139.695 158.601C138.977 158.598 138.427 158.203 138.125 157.653C137.87 157.188 137.804 156.646 137.799 156.178C137.798 156.094 137.799 156.008 137.802 155.921C135.787 155.964 133.072 156.433 130.357 157.509C127.045 158.82 123.864 160.982 121.936 164.212C121.691 164.623 121.48 165.013 121.3 165.383C122.488 165.033 123.68 164.902 124.759 165.04C125.71 165.161 126.633 165.501 127.36 166.154C128.103 166.822 128.553 167.741 128.663 168.841C128.836 170.563 128.107 171.932 126.962 172.804C125.859 173.643 124.409 174 123.038 173.914C121.662 173.827 120.229 173.282 119.229 172.14C118.68 171.514 118.299 170.752 118.12 169.873C116.475 171.395 115.369 173.509 115.537 176.025C115.822 180.277 117.069 182.708 118.85 184.272C120.687 185.885 123.255 186.73 126.537 187.443C128.658 187.904 131.463 187.799 134.316 187.206C136.852 186.68 139.332 185.787 141.301 184.655C140.622 181.444 140.296 178.377 140.589 176.417C140.67 175.874 140.809 175.332 141.057 174.875C141.31 174.408 141.736 173.929 142.407 173.754C143.062 173.584 143.682 173.776 144.176 174.054C144.673 174.332 145.166 174.762 145.659 175.295C147.496 177.281 148.073 179.402 147.435 181.447C146.908 183.142 145.605 184.581 143.996 185.75C144.768 188.893 145.872 192.129 147.131 194.621C147.816 195.976 148.519 197.055 149.199 197.777C149.899 198.521 150.421 198.728 150.752 198.728C151.401 198.728 152.384 198.509 153.648 198.038C154.888 197.575 156.311 196.904 157.807 196.083C160.525 194.592 163.425 192.64 165.847 190.633C164.559 188.136 163.795 185.521 164.101 183.49C164.281 182.296 164.856 181.191 166.014 180.563C167.122 179.964 168.532 179.93 170.122 180.303C171.475 180.62 172.587 181.216 173.184 182.236C173.794 183.279 173.684 184.447 173.3 185.485C172.633 187.282 170.938 189.27 168.886 191.149C171.131 194.72 174.522 197.922 177.896 198.764C179.697 199.213 181.995 198.848 184.505 197.814C186.788 196.874 189.132 195.427 191.239 193.749C190.615 190.579 190.812 186.934 191.752 184.215C192.255 182.759 193.026 181.407 194.161 180.604C195.393 179.733 196.888 179.627 198.43 180.397C199.749 181.054 200.517 182.131 200.698 183.461C200.867 184.706 200.506 186.044 199.898 187.322C198.76 189.715 196.549 192.332 193.91 194.627C194.269 195.802 194.763 196.783 195.367 197.486C196.064 198.296 196.89 198.728 197.898 198.728C199.693 198.728 202.474 198.065 205.623 196.943C208.499 195.919 211.577 194.55 214.308 193.085C214.176 190.736 214.484 188.351 215.428 186.56C215.964 185.546 216.734 184.669 217.794 184.154C218.866 183.632 220.108 183.541 221.461 183.879C222.791 184.211 224.002 184.834 224.411 186.043C224.816 187.243 224.221 188.405 223.552 189.27C222.265 190.932 219.738 192.745 216.835 194.409C217.17 196.736 217.971 198.918 219.051 200.292C219.643 201.045 220.258 201.481 220.853 201.647C221.416 201.804 222.105 201.759 222.97 201.266C226.82 199.071 228.777 195.633 230.253 192.688C230.377 192.441 230.499 192.192 230.621 191.945C231.193 190.787 231.748 189.661 232.337 188.866C232.707 188.367 233.173 187.876 233.782 187.584C234.44 187.269 235.153 187.238 235.872 187.477C236.042 187.533 236.471 187.571 237.249 187.454C237.986 187.342 238.901 187.113 239.952 186.775C242.051 186.101 244.584 185.031 247.117 183.749C249.649 182.467 252.148 180.992 254.184 179.52C256.26 178.02 257.715 176.622 258.326 175.525C258.374 175.439 258.393 175.379 258.401 175.345C258.408 175.313 258.407 175.298 258.406 175.295C258.406 175.291 258.404 175.279 258.392 175.256C258.38 175.23 258.353 175.188 258.299 175.129C258.05 174.859 257.466 174.514 256.438 174.196C254.524 173.604 251.672 173.285 248.651 173.278C245.976 175.39 242.829 177.18 240.261 178.073C238.955 178.528 237.636 178.808 236.564 178.651C236.007 178.568 235.415 178.352 234.961 177.874C234.492 177.38 234.304 176.748 234.304 176.105C234.304 174.893 235.063 174.001 235.922 173.397C236.787 172.788 237.941 172.328 239.202 171.976C241.627 171.301 244.745 170.95 247.798 170.9C249.277 169.663 250.521 168.36 251.332 167.121C252.222 165.764 252.462 164.691 252.25 163.916C252.056 163.206 251.376 162.352 250.099 161.436C248.855 160.544 247.203 159.706 245.36 158.973C242.108 157.679 238.423 156.774 235.676 156.447C235.621 156.671 235.558 156.885 235.484 157.086C235.298 157.597 235.01 158.136 234.54 158.515C234.011 158.941 233.348 159.084 232.673 158.907C232.07 158.749 231.538 158.36 231.073 157.896C230.642 157.466 230.2 156.901 230.12 156.222C230.074 155.842 230.147 155.455 230.354 155.112C230.551 154.786 230.826 154.567 231.082 154.421C231.57 154.144 232.174 154.025 232.744 153.971C233.006 153.946 233.287 153.933 233.582 153.931C233.641 151.733 233.252 148.705 232.377 145.706C231.341 142.152 229.698 138.898 227.572 137.131C226.89 136.563 226.243 136.342 225.644 136.324C225.033 136.306 224.369 136.498 223.668 136.929C222.366 137.732 221.078 139.285 220.087 141.29C223.15 145.941 225.382 150.895 226.05 154.279C226.226 155.166 226.306 156.008 226.238 156.739C226.172 157.447 225.946 158.242 225.318 158.788C224.641 159.377 223.784 159.438 222.998 159.257C222.233 159.08 221.396 158.651 220.499 158.035C217.667 156.093 216.347 153.116 216.037 150.017C215.752 147.165 216.311 144.146 217.37 141.528C214.816 137.856 211.76 134.507 208.589 132.451C205.774 130.625 202.589 131.292 199.451 133.678C196.481 135.936 193.802 139.586 192.078 143.362ZM219.015 144.047C218.464 145.925 218.223 147.919 218.409 149.78C218.668 152.364 219.732 154.618 221.847 156.069C222.635 156.61 223.186 156.854 223.534 156.934C223.65 156.961 223.722 156.966 223.763 156.965C223.79 156.91 223.84 156.78 223.865 156.517C223.903 156.101 223.863 155.509 223.712 154.741C223.187 152.084 221.485 148.08 219.015 144.047ZM223.81 156.958C223.81 156.958 223.806 156.96 223.794 156.962C223.804 156.958 223.809 156.957 223.81 156.958ZM233.223 156.326C233.134 156.331 233.049 156.337 232.968 156.345C232.948 156.347 232.927 156.349 232.908 156.351C233 156.432 233.075 156.488 233.133 156.525C233.159 156.476 233.19 156.411 233.223 156.326ZM244.182 173.499C242.583 173.665 241.091 173.925 239.842 174.273C238.699 174.591 237.84 174.962 237.293 175.347C236.74 175.736 236.688 175.999 236.688 176.105C236.688 176.172 236.694 176.213 236.699 176.235C236.728 176.25 236.791 176.274 236.912 176.292C237.397 176.364 238.265 176.243 239.478 175.822C240.883 175.333 242.534 174.518 244.182 173.499ZM236.708 176.259C236.708 176.259 236.706 176.257 236.704 176.251C236.707 176.256 236.708 176.259 236.708 176.259ZM216.666 191.741C219.012 190.317 220.798 188.932 221.667 187.81C222.226 187.088 222.153 186.808 222.152 186.806C222.15 186.801 222.144 186.784 222.12 186.755C222.094 186.723 222.043 186.672 221.95 186.609C221.756 186.479 221.423 186.326 220.885 186.192C219.973 185.965 219.319 186.063 218.837 186.297C218.343 186.538 217.9 186.984 217.537 187.673C216.996 188.697 216.7 190.132 216.666 191.741ZM193.368 191.9C195.37 190.001 196.929 188.013 197.745 186.298C198.257 185.222 198.417 184.377 198.336 183.782C198.266 183.272 198.014 182.853 197.366 182.53C196.538 182.117 195.989 182.231 195.537 182.551C194.988 182.939 194.435 183.749 194.005 184.993C193.343 186.91 193.105 189.478 193.368 191.9ZM167.696 188.999C169.439 187.344 170.632 185.824 171.065 184.656C171.313 183.986 171.239 183.633 171.127 183.44C171 183.225 170.63 182.871 169.577 182.624C168.267 182.316 167.532 182.453 167.15 182.66C166.819 182.839 166.559 183.177 166.458 183.845C166.277 185.051 166.698 186.91 167.696 188.999ZM143.431 183.152C144.328 182.356 144.911 181.536 145.159 180.738C145.487 179.686 145.307 178.425 143.909 176.914C143.55 176.526 143.275 176.299 143.082 176.176C143.035 176.311 142.986 176.504 142.946 176.769C142.742 178.134 142.921 180.449 143.431 183.152ZM142.874 176.072C142.874 176.072 142.876 176.072 142.879 176.073C142.876 176.072 142.874 176.072 142.874 176.072ZM120.402 168.295C120.311 169.392 120.617 170.108 121.021 170.569C121.516 171.134 122.301 171.478 123.189 171.534C124.082 171.591 124.942 171.346 125.519 170.906C126.054 170.499 126.375 169.916 126.291 169.079C126.234 168.513 126.027 168.162 125.766 167.927C125.488 167.677 125.06 167.482 124.457 167.405C123.355 167.264 121.874 167.553 120.402 168.295ZM166.73 148.416C165.625 149.985 164.973 151.431 164.872 152.624C164.811 153.342 164.951 153.94 165.289 154.45C165.635 154.972 166.255 155.503 167.327 155.953C168.054 156.259 168.598 156.4 168.988 156.439C169.377 156.479 169.536 156.411 169.577 156.387L169.578 156.387C169.596 156.376 169.643 156.35 169.688 156.206C169.742 156.034 169.775 155.739 169.725 155.287C169.626 154.381 169.227 153.137 168.538 151.673C168.053 150.644 167.441 149.539 166.73 148.416ZM191.066 145.92C193.242 148.728 195.028 151.606 195.696 153.71C196.118 155.039 195.948 155.59 195.813 155.754C195.711 155.878 195.203 156.252 193.357 155.884C192.325 155.678 191.623 155.228 191.139 154.634C190.643 154.026 190.313 153.185 190.182 152.109C189.973 150.392 190.294 148.231 191.066 145.92Z" fill="black"/>
<path fill-rule="evenodd" clip-rule="evenodd" d="M172.54 387.19C172.538 387.815 172.029 388.317 171.402 388.311C161.111 388.212 155.704 386.992 146.591 383.718C146 383.505 145.691 382.857 145.899 382.269C146.108 381.681 146.756 381.376 147.347 381.589C156.258 384.79 161.41 385.951 171.409 386.047C172.035 386.053 172.542 386.565 172.54 387.19Z" fill="black"/>
<path fill-rule="evenodd" clip-rule="evenodd" d="M162.088 374.153C162.086 374.778 161.577 375.28 160.95 375.273C150.659 375.174 145.253 373.954 136.139 370.68C135.549 370.468 135.239 369.819 135.448 369.231C135.657 368.643 136.305 368.339 136.896 368.551C145.806 371.752 150.958 372.914 160.957 373.01C161.583 373.016 162.09 373.528 162.088 374.153Z" fill="black"/>
<path fill-rule="evenodd" clip-rule="evenodd" d="M139.018 381.911C139.017 382.536 138.507 383.038 137.88 383.032C127.589 382.933 122.183 381.713 113.07 378.439C112.479 378.226 112.169 377.578 112.378 376.99C112.587 376.402 113.235 376.097 113.826 376.31C122.736 379.511 127.889 380.672 137.887 380.768C138.514 380.774 139.02 381.286 139.018 381.911Z" fill="black"/>
<path fill-rule="evenodd" clip-rule="evenodd" d="M317.354 278.769C317.965 278.637 318.564 279.028 318.692 279.642C320.802 289.726 320.769 295.273 319.525 304.885C319.444 305.508 318.877 305.95 318.258 305.872C317.639 305.794 317.202 305.225 317.283 304.602C318.5 295.203 318.529 289.917 316.48 280.12C316.352 279.506 316.743 278.901 317.354 278.769Z" fill="black"/>
<path fill-rule="evenodd" clip-rule="evenodd" d="M306.86 291.781C307.471 291.649 308.07 292.04 308.198 292.654C310.308 302.738 310.275 308.285 309.031 317.897C308.95 318.52 308.383 318.962 307.764 318.884C307.145 318.806 306.708 318.237 306.789 317.614C308.006 308.216 308.035 302.929 305.986 293.132C305.858 292.518 306.249 291.914 306.86 291.781Z" fill="black"/>
<path fill-rule="evenodd" clip-rule="evenodd" d="M319.384 312.676C319.994 312.544 320.594 312.935 320.722 313.549C322.832 323.633 322.799 329.18 321.555 338.792C321.474 339.415 320.907 339.857 320.288 339.779C319.669 339.701 319.232 339.132 319.313 338.509C320.529 329.111 320.559 323.824 318.51 314.027C318.382 313.413 318.773 312.809 319.384 312.676Z" fill="black"/>
<path d="M309.339 324.092C314.647 415.79 278.024 468.563 250.272 486.113" stroke="black" stroke-width="2" stroke-linecap="round"/>
<path d="M63.4163 477.109C60.359 493.307 156.758 505.715 161.718 493.034" stroke="black" stroke-width="2" stroke-linecap="round"/>
<path d="M108.159 430.585C109.523 435.716 102.119 442.139 91.6221 444.93C81.1251 447.722 71.51 445.825 70.1462 440.694C68.7823 435.563 76.1863 429.141 86.6833 426.35C97.1804 423.558 106.795 425.455 108.159 430.585Z" fill="#A5505B"/>
<path d="M168.411 460.804C165.118 464.968 155.541 462.884 147.02 456.148C138.499 449.412 134.261 440.575 137.553 436.411C140.846 432.246 150.423 434.331 158.944 441.067C167.465 447.803 171.704 456.639 168.411 460.804Z" fill="#A5505B"/>
<path d="M197.499 407.4C149.563 407.547 124.631 403.236 83.063 389" stroke="black" stroke-width="2" stroke-linecap="round"/>
</svg>
