<svg width="1024" height="1024" viewBox="0 0 1024 1024" fill="none" xmlns="http://www.w3.org/2000/svg">
<path d="M902.923 921.573C902.923 946.19 728.108 966.147 512.462 966.147C296.816 966.147 122 946.19 122 921.573C122 896.956 296.816 877 512.462 877C728.108 877 902.923 896.956 902.923 921.573Z" fill="black" fill-opacity="0.05"/>
<path d="M549.633 919.408C311.283 929.677 451.803 465.944 451.803 465.944L629.622 451.891C629.622 451.891 787.983 909.139 549.633 919.408Z" fill="#C7CAD9"/>
<path d="M766.905 741.049C750.15 649.708 666.376 765.371 666.376 765.371L629.083 878.332C629.083 878.332 655.566 920.489 682.05 919.949C708.533 919.408 783.66 832.391 766.905 741.049Z" fill="#C7CAD9"/>
<path d="M690.295 899.604C681.471 897.552 671.653 895.509 662.807 901.654L658.333 936.133C677.018 934.739 717.023 932.405 727.564 934.221C738.106 936.036 727.903 897.43 722.586 884.277C705.311 880.14 699.12 901.655 690.295 899.604Z" fill="#C7CAD9"/>
<path fill-rule="evenodd" clip-rule="evenodd" d="M696.98 901.92C689.928 902.082 682.714 904.693 673.253 909.387C672.818 909.603 672.289 909.425 672.073 908.99C671.857 908.554 672.035 908.026 672.471 907.81C681.979 903.092 689.483 900.331 696.939 900.16C704.42 899.989 711.734 902.425 720.873 907.841C721.291 908.089 721.429 908.629 721.182 909.048C720.934 909.466 720.394 909.604 719.975 909.356C710.989 904.029 704.006 901.759 696.98 901.92Z" fill="black"/>
<path fill-rule="evenodd" clip-rule="evenodd" d="M673.734 914.968C673.734 914.968 673.734 914.968 673.734 914.968L673.735 914.976L673.739 915.004L673.755 915.115C673.768 915.213 673.789 915.357 673.817 915.541C673.871 915.909 673.953 916.435 674.06 917.064C674.274 918.324 674.588 919.989 674.989 921.626C675.393 923.276 675.873 924.842 676.405 925.933C676.674 926.485 676.924 926.846 677.133 927.041C677.232 927.134 677.296 927.164 677.321 927.172C677.332 927.176 677.333 927.176 677.335 927.175C677.335 927.175 677.336 927.175 677.337 927.175C677.406 927.157 677.564 927.077 677.777 926.762C677.987 926.453 678.191 926.003 678.38 925.418C678.757 924.253 679.018 922.727 679.195 921.176C679.371 919.634 679.46 918.109 679.504 916.967C679.526 916.397 679.537 915.925 679.543 915.595C679.546 915.43 679.547 915.302 679.548 915.215L679.548 915.116L679.548 915.092L679.548 915.084M673.734 914.968C673.67 914.486 673.227 914.148 672.745 914.212C672.264 914.276 671.925 914.719 671.989 915.201L672.862 915.084C671.989 915.201 671.989 915.201 671.989 915.201L671.991 915.212L671.995 915.243L672.011 915.36C672.026 915.463 672.047 915.612 672.075 915.801C672.132 916.179 672.215 916.716 672.324 917.359C672.542 918.642 672.864 920.352 673.279 922.045C673.69 923.724 674.205 925.44 674.823 926.705C675.128 927.332 675.492 927.917 675.932 928.328C676.387 928.753 677.028 929.074 677.78 928.878C678.429 928.71 678.899 928.245 679.234 927.75C679.574 927.249 679.841 926.624 680.055 925.96C680.486 924.629 680.763 922.966 680.944 921.375C681.127 919.775 681.218 918.204 681.263 917.036C681.286 916.451 681.297 915.965 681.303 915.625C681.306 915.454 681.307 915.32 681.308 915.228L681.309 915.123L681.309 915.095L681.309 915.085C681.309 915.085 681.309 915.084 680.429 915.084" fill="black"/>
<path fill-rule="evenodd" clip-rule="evenodd" d="M695.353 914.968C695.353 914.968 695.353 914.968 695.353 914.968L695.355 914.976L695.358 915.004L695.374 915.115C695.388 915.213 695.408 915.357 695.436 915.541C695.49 915.909 695.572 916.435 695.679 917.064C695.893 918.324 696.207 919.989 696.608 921.626C697.012 923.276 697.492 924.842 698.024 925.933C698.293 926.485 698.543 926.846 698.752 927.041C698.852 927.134 698.915 927.164 698.94 927.172C698.951 927.176 698.952 927.176 698.954 927.175C698.955 927.175 698.955 927.175 698.956 927.175C699.025 927.157 699.183 927.077 699.396 926.762C699.606 926.453 699.81 926.003 699.999 925.418C700.376 924.253 700.637 922.727 700.814 921.176C700.99 919.634 701.079 918.109 701.123 916.967C701.145 916.397 701.156 915.925 701.162 915.595C701.165 915.43 701.166 915.302 701.167 915.215L701.167 915.116L701.167 915.092L701.167 915.084M695.353 914.968C695.289 914.486 694.846 914.148 694.365 914.212C693.883 914.276 693.544 914.719 693.608 915.201L694.481 915.084C693.608 915.201 693.608 915.201 693.608 915.201L693.61 915.212L693.614 915.243L693.63 915.36C693.645 915.463 693.666 915.612 693.694 915.801C693.751 916.179 693.834 916.716 693.943 917.359C694.161 918.642 694.483 920.352 694.898 922.045C695.309 923.724 695.824 925.44 696.442 926.705C696.747 927.332 697.111 927.917 697.551 928.328C698.006 928.753 698.647 929.074 699.399 928.878C700.048 928.71 700.518 928.245 700.853 927.75C701.193 927.249 701.46 926.624 701.674 925.96C702.105 924.629 702.382 922.966 702.563 921.375C702.746 919.775 702.837 918.204 702.882 917.036C702.905 916.451 702.917 915.965 702.922 915.625C702.925 915.454 702.926 915.32 702.927 915.228L702.928 915.123L702.928 915.095L702.928 915.085C702.928 915.085 702.928 915.084 702.048 915.084" fill="black"/>
<path fill-rule="evenodd" clip-rule="evenodd" d="M716.972 914.968C716.972 914.968 716.972 914.968 716.972 914.968L716.973 914.976L716.977 915.004L716.992 915.115C717.006 915.213 717.027 915.357 717.054 915.541C717.109 915.909 717.191 916.435 717.298 917.064C717.512 918.324 717.826 919.989 718.227 921.626C718.631 923.276 719.11 924.842 719.643 925.933C719.912 926.485 720.162 926.846 720.371 927.041C720.47 927.134 720.534 927.164 720.559 927.172C720.57 927.176 720.571 927.176 720.573 927.175C720.573 927.175 720.574 927.175 720.575 927.175C720.644 927.157 720.801 927.077 721.015 926.762C721.224 926.453 721.429 926.003 721.618 925.418C721.995 924.253 722.256 922.727 722.433 921.176C722.609 919.634 722.698 918.109 722.742 916.967C722.764 916.397 722.775 915.925 722.781 915.595C722.783 915.43 722.785 915.302 722.785 915.215L722.786 915.116L722.786 915.092L722.786 915.084M716.972 914.968C716.908 914.486 716.465 914.148 715.983 914.212C715.501 914.276 715.163 914.719 715.227 915.201L716.1 915.084C715.227 915.201 715.227 915.201 715.227 915.201L715.229 915.212L715.233 915.243L715.249 915.36C715.264 915.463 715.285 915.612 715.313 915.801C715.369 916.179 715.453 916.716 715.562 917.359C715.78 918.642 716.102 920.352 716.517 922.045C716.928 923.724 717.443 925.44 718.06 926.705C718.366 927.332 718.729 927.917 719.17 928.328C719.625 928.753 720.266 929.074 721.018 928.878C721.666 928.71 722.136 928.245 722.472 927.75C722.812 927.249 723.078 926.624 723.293 925.96C723.724 924.629 724.001 922.966 724.182 921.375C724.365 919.775 724.456 918.204 724.501 917.036C724.524 916.451 724.535 915.965 724.541 915.625C724.544 915.454 724.545 915.32 724.546 915.228L724.546 915.123L724.547 915.095L724.547 915.085C724.547 915.085 724.547 915.084 723.666 915.084" fill="black"/>
<path d="M328.267 741.584C345.022 650.243 428.797 765.906 428.797 765.906L466.09 878.867C466.09 878.867 439.606 921.024 413.123 920.484C386.639 919.943 311.512 832.926 328.267 741.584Z" fill="#C7CAD9"/>
<path d="M402.715 900.139C411.54 898.087 421.357 896.044 430.203 902.189L434.677 936.668C415.992 935.274 375.987 932.94 365.446 934.756C354.904 936.571 365.108 897.965 370.425 884.812C387.699 880.675 393.89 902.191 402.715 900.139Z" fill="#C7CAD9"/>
<path fill-rule="evenodd" clip-rule="evenodd" d="M398.193 902.455C405.244 902.617 412.459 905.228 421.919 909.922C422.355 910.138 422.883 909.96 423.099 909.525C423.315 909.089 423.137 908.561 422.702 908.345C413.193 903.627 405.689 900.866 398.233 900.695C390.752 900.524 383.438 902.96 374.3 908.376C373.881 908.624 373.743 909.164 373.991 909.582C374.239 910.001 374.779 910.139 375.197 909.891C384.184 904.564 391.167 902.294 398.193 902.455Z" fill="black"/>
<path fill-rule="evenodd" clip-rule="evenodd" d="M421.438 915.503C421.438 915.503 421.438 915.503 421.438 915.503L421.437 915.511L421.433 915.539L421.418 915.65C421.404 915.748 421.383 915.892 421.356 916.076C421.301 916.444 421.22 916.97 421.113 917.599C420.899 918.859 420.585 920.524 420.184 922.161C419.78 923.811 419.3 925.377 418.768 926.468C418.498 927.02 418.248 927.381 418.04 927.576C417.94 927.669 417.876 927.699 417.852 927.707C417.84 927.711 417.84 927.711 417.838 927.71C417.837 927.71 417.837 927.71 417.836 927.71C417.767 927.692 417.609 927.612 417.395 927.297C417.186 926.988 416.981 926.538 416.792 925.953C416.416 924.788 416.155 923.262 415.977 921.711C415.801 920.169 415.713 918.644 415.668 917.502C415.646 916.932 415.635 916.46 415.63 916.13C415.627 915.965 415.626 915.837 415.625 915.75L415.624 915.651L415.624 915.627L415.624 915.62M421.438 915.503C421.503 915.021 421.945 914.683 422.427 914.747C422.909 914.811 423.248 915.254 423.183 915.736L422.311 915.619C423.183 915.736 423.183 915.736 423.183 915.736L423.182 915.747L423.178 915.778L423.161 915.896C423.147 915.998 423.126 916.147 423.097 916.336C423.041 916.714 422.958 917.251 422.848 917.894C422.63 919.177 422.308 920.887 421.894 922.58C421.483 924.259 420.967 925.975 420.35 927.24C420.044 927.867 419.681 928.452 419.241 928.863C418.786 929.288 418.145 929.609 417.393 929.413C416.744 929.245 416.274 928.78 415.938 928.285C415.598 927.784 415.332 927.159 415.117 926.495C414.687 925.164 414.41 923.501 414.228 921.91C414.046 920.31 413.955 918.739 413.909 917.571C413.887 916.986 413.875 916.5 413.87 916.16C413.867 915.989 413.865 915.855 413.865 915.763L413.864 915.658L413.864 915.63L413.864 915.62C413.864 915.62 413.864 915.619 414.744 915.619" fill="black"/>
<path fill-rule="evenodd" clip-rule="evenodd" d="M399.82 915.503C399.82 915.503 399.82 915.503 399.82 915.503L399.819 915.511L399.815 915.539L399.8 915.65C399.786 915.748 399.765 915.892 399.738 916.076C399.683 916.444 399.601 916.97 399.495 917.599C399.28 918.859 398.967 920.524 398.566 922.161C398.162 923.811 397.682 925.377 397.15 926.468C396.88 927.02 396.63 927.381 396.421 927.576C396.322 927.669 396.258 927.699 396.234 927.707C396.222 927.711 396.221 927.711 396.219 927.71C396.219 927.71 396.218 927.71 396.218 927.71C396.149 927.692 395.991 927.612 395.777 927.297C395.568 926.988 395.363 926.538 395.174 925.953C394.798 924.788 394.536 923.262 394.359 921.711C394.183 920.169 394.095 918.644 394.05 917.502C394.028 916.932 394.017 916.46 394.012 916.13C394.009 915.965 394.008 915.837 394.007 915.75L394.006 915.651L394.006 915.627L394.006 915.62M399.82 915.503C399.884 915.021 400.327 914.683 400.809 914.747C401.291 914.811 401.629 915.254 401.565 915.736L400.693 915.619C401.565 915.736 401.565 915.736 401.565 915.736L401.564 915.747L401.559 915.778L401.543 915.896C401.529 915.998 401.507 916.147 401.479 916.336C401.423 916.714 401.339 917.251 401.23 917.894C401.012 919.177 400.69 920.887 400.276 922.58C399.864 924.259 399.349 925.975 398.732 927.24C398.426 927.867 398.063 928.452 397.622 928.863C397.167 929.288 396.527 929.609 395.774 929.413C395.126 929.245 394.656 928.78 394.32 928.285C393.98 927.784 393.714 927.159 393.499 926.495C393.069 925.164 392.792 923.501 392.61 921.91C392.427 920.31 392.337 918.739 392.291 917.571C392.268 916.986 392.257 916.5 392.251 916.16C392.249 915.989 392.247 915.855 392.246 915.763L392.246 915.658L392.246 915.63L392.246 915.62C392.246 915.62 392.246 915.619 393.126 915.619" fill="black"/>
<path fill-rule="evenodd" clip-rule="evenodd" d="M378.201 915.503C378.201 915.503 378.201 915.503 378.201 915.503L378.2 915.511L378.196 915.539L378.181 915.65C378.167 915.748 378.146 915.892 378.119 916.076C378.064 916.444 377.982 916.97 377.875 917.599C377.661 918.859 377.347 920.524 376.947 922.161C376.542 923.811 376.063 925.377 375.53 926.468C375.261 927.02 375.011 927.381 374.802 927.576C374.703 927.669 374.639 927.699 374.615 927.707C374.603 927.711 374.602 927.711 374.6 927.71C374.6 927.71 374.599 927.71 374.599 927.71C374.53 927.692 374.372 927.612 374.158 927.297C373.949 926.988 373.744 926.538 373.555 925.953C373.178 924.788 372.917 923.262 372.74 921.711C372.564 920.169 372.476 918.644 372.431 917.502C372.409 916.932 372.398 916.46 372.392 916.13C372.39 915.965 372.388 915.837 372.388 915.75L372.387 915.651L372.387 915.627L372.387 915.62M378.201 915.503C378.265 915.021 378.708 914.683 379.19 914.747C379.672 914.811 380.01 915.254 379.946 915.736L379.074 915.619C379.946 915.736 379.946 915.736 379.946 915.736L379.944 915.747L379.94 915.778L379.924 915.896C379.91 915.998 379.888 916.147 379.86 916.336C379.804 916.714 379.72 917.251 379.611 917.894C379.393 919.177 379.071 920.887 378.656 922.58C378.245 924.259 377.73 925.975 377.113 927.24C376.807 927.867 376.444 928.452 376.003 928.863C375.548 929.288 374.908 929.609 374.155 929.413C373.507 929.245 373.037 928.78 372.701 928.285C372.361 927.784 372.095 927.159 371.88 926.495C371.45 925.164 371.173 923.501 370.991 921.91C370.808 920.31 370.717 918.739 370.672 917.571C370.649 916.986 370.638 916.5 370.632 916.16C370.629 915.989 370.628 915.855 370.627 915.763L370.627 915.658L370.627 915.63L370.627 915.62C370.627 915.62 370.627 915.619 371.507 915.619" fill="black"/>
<path d="M663.066 934.542C667.931 930.218 632.508 786.752 660.971 656.194L544.767 596.2L436.064 656.194C436.064 656.194 445.686 680.638 441.494 715.106C431.568 796.731 423.917 932.895 436.064 934.542C453.339 936.884 517.203 942.108 519.838 934.542C522.474 926.975 519.905 672.949 519.905 672.949C519.905 672.949 522.608 641.85 544.767 642.682C566.927 643.513 568.008 672.949 568.008 672.949C568.008 672.949 556.591 929.677 568.482 934.542C580.372 939.406 658.202 938.866 663.066 934.542Z" fill="#C7CAD9"/>
<path fill-rule="evenodd" clip-rule="evenodd" d="M566.483 697.122C567.739 701.583 568.534 705.283 568.67 707.029C568.707 707.5 568.69 708.795 568.638 710.727C568.586 712.688 568.495 715.368 568.375 718.662C568.22 722.917 568.015 728.201 567.78 734.29C567.65 737.629 567.512 741.21 567.367 744.996C566.548 766.378 565.527 794.309 564.843 822.165C564.159 850.025 563.814 877.795 564.346 898.861C564.613 909.398 565.098 918.233 565.867 924.556C566.252 927.722 566.703 930.223 567.222 931.981C567.482 932.862 567.748 933.519 568.009 933.97C568.282 934.441 568.483 934.571 568.553 934.597C569.863 935.088 572.168 935.536 575.287 935.921C578.382 936.304 582.205 936.618 586.503 936.864C595.099 937.357 605.557 937.578 615.812 937.548C626.068 937.519 636.106 937.239 643.863 936.732C647.744 936.478 651.038 936.169 653.498 935.808C654.729 935.627 655.733 935.436 656.49 935.238C657.207 935.05 657.596 934.881 657.76 934.773C657.774 934.74 657.8 934.668 657.827 934.537C657.884 934.265 657.921 933.864 657.927 933.312C657.941 932.214 657.834 930.662 657.621 928.665C657.197 924.68 656.369 919.055 655.323 912.023L655.181 911.065C653.102 897.088 650.244 877.866 648.058 855.35C643.586 809.289 641.919 749.384 655.512 692.269C655.624 691.796 656.099 691.504 656.572 691.617C657.045 691.729 657.337 692.204 657.224 692.677C643.697 749.517 645.346 809.199 649.81 855.18C651.992 877.651 654.845 896.836 656.923 910.812L657.064 911.764C658.108 918.782 658.943 924.449 659.372 928.479C659.586 930.491 659.702 932.127 659.688 933.333C659.68 933.934 659.641 934.464 659.551 934.895C659.471 935.28 659.315 935.782 658.92 936.104C658.468 936.472 657.737 936.731 656.936 936.941C656.091 937.163 655.016 937.365 653.754 937.55C651.226 937.921 647.879 938.234 643.978 938.489C636.173 938.999 626.096 939.279 615.817 939.309C605.538 939.338 595.043 939.117 586.403 938.622C582.083 938.374 578.218 938.058 575.071 937.669C571.948 937.282 569.458 936.816 567.935 936.245C567.297 936.006 566.834 935.454 566.486 934.853C566.126 934.231 565.812 933.426 565.533 932.479C564.974 930.581 564.508 927.968 564.119 924.768C563.34 918.36 562.853 909.457 562.586 898.905C562.053 877.794 562.399 849.987 563.083 822.122C563.767 794.253 564.789 766.312 565.608 744.928C565.753 741.14 565.891 737.559 566.021 734.22C566.256 728.132 566.461 722.851 566.616 718.598C566.736 715.305 566.826 712.632 566.878 710.679C566.931 708.697 566.943 707.52 566.915 707.166C566.794 705.609 566.043 702.057 564.789 697.599C563.541 693.165 561.813 687.906 559.769 682.962C557.72 678.004 555.375 673.419 552.907 670.294C550.383 667.096 548.027 665.778 545.905 666.426C543.483 667.165 540.826 669.562 538.157 673.068C535.517 676.537 532.97 680.949 530.731 685.491C528.494 690.029 526.576 694.671 525.187 698.583C523.786 702.529 522.956 705.644 522.838 707.166C522.777 707.944 522.766 711.972 522.793 718.53C522.82 725.055 522.883 734.024 522.966 744.623C523.013 750.565 523.066 757.019 523.121 763.842C523.264 781.359 523.427 801.306 523.557 821.253C523.738 848.969 523.857 876.688 523.774 897.891C523.732 908.493 523.64 917.47 523.479 924.007C523.399 927.274 523.301 929.938 523.184 931.894C523.125 932.871 523.061 933.68 522.991 934.303C522.924 934.89 522.843 935.408 522.719 935.734C522.456 936.427 521.862 936.928 521.197 937.3C520.517 937.68 519.647 937.992 518.642 938.253C516.63 938.776 513.921 939.137 510.745 939.373C504.383 939.846 495.99 939.83 487.188 939.544C469.581 938.974 450.226 937.321 441.967 936.295C440.845 936.155 440.002 935.325 439.368 934.269C438.723 933.195 438.188 931.714 437.734 929.916C436.824 926.31 436.193 921.208 435.793 914.963C434.994 902.46 435.117 885.208 435.897 865.799C437.456 826.975 441.645 779.426 446.377 743.777C448.359 728.849 447.075 716.092 445.297 707.072C444.408 702.562 443.396 698.988 442.608 696.547C442.214 695.327 441.877 694.389 441.639 693.76C441.52 693.445 441.425 693.208 441.362 693.05C441.33 692.971 441.306 692.912 441.29 692.874L441.272 692.832L441.268 692.822L441.267 692.821C441.075 692.374 441.282 691.856 441.728 691.664C442.175 691.472 442.693 691.679 442.884 692.126L442.076 692.473C442.884 692.126 442.884 692.125 442.884 692.126L442.887 692.132L442.893 692.145L442.914 692.196C442.933 692.24 442.959 692.305 442.994 692.39C443.062 692.56 443.161 692.81 443.285 693.137C443.533 693.792 443.88 694.757 444.284 696.006C445.09 698.506 446.12 702.146 447.024 706.731C448.831 715.9 450.134 728.853 448.122 744.009C443.397 779.604 439.213 827.1 437.656 865.87C436.877 885.258 436.757 902.439 437.55 914.851C437.947 921.064 438.571 926.038 439.441 929.485C439.877 931.214 440.362 932.504 440.878 933.363C441.404 934.24 441.86 934.507 442.184 934.548C450.385 935.566 469.686 937.216 487.245 937.785C496.028 938.069 504.347 938.083 510.614 937.617C513.754 937.384 516.339 937.033 518.199 936.549C519.131 936.307 519.841 936.041 520.337 935.764C520.848 935.478 521.023 935.24 521.074 935.108C521.107 935.021 521.172 934.72 521.241 934.105C521.307 933.526 521.369 932.752 521.427 931.788C521.542 929.864 521.639 927.223 521.719 923.963C521.879 917.446 521.971 908.482 522.013 897.885C522.097 876.69 521.978 848.979 521.797 821.265C521.666 801.319 521.504 781.374 521.361 763.856C521.305 757.034 521.252 750.58 521.206 744.637C521.123 734.038 521.059 725.066 521.032 718.537C521.006 712.04 521.014 707.901 521.082 707.029C521.221 705.249 522.129 701.935 523.528 697.994C524.939 694.02 526.883 689.315 529.152 684.713C531.419 680.115 534.022 675.594 536.757 672.001C539.463 668.446 542.406 665.653 545.391 664.742C548.677 663.739 551.728 665.959 554.289 669.203C556.907 672.52 559.326 677.281 561.396 682.289C563.472 687.31 565.221 692.636 566.483 697.122Z" fill="black"/>
<path d="M710.153 304.34C709.613 250.832 710.153 113.55 544.766 110.847C379.378 108.145 352.354 211.377 349.652 304.34C346.949 397.303 480.99 516.209 544.766 516.209C608.542 516.209 710.694 357.848 710.153 304.34Z" fill="#C7CAD9"/>
<path fill-rule="evenodd" clip-rule="evenodd" d="M615.273 891.115C604.186 891.375 592.876 895.564 578.134 903.03C577.7 903.249 577.171 903.076 576.951 902.642C576.731 902.208 576.905 901.679 577.339 901.459C592.128 893.969 603.732 889.624 615.231 889.355C626.756 889.086 638.053 892.911 652.238 901.491C652.654 901.743 652.787 902.284 652.536 902.7C652.284 903.116 651.743 903.249 651.327 902.998C637.293 894.509 626.333 890.857 615.273 891.115Z" fill="black"/>
<path d="M612.048 454.809C618.649 448.395 616.308 414.425 616.308 414.425L594.944 426.733C594.944 426.733 605.447 461.223 612.048 454.809Z" fill="white"/>
<path fill-rule="evenodd" clip-rule="evenodd" d="M616.852 416.22C616.852 416.22 616.852 416.22 617.732 416.22C618.612 416.22 618.612 416.22 618.612 416.22L618.612 416.246L618.612 416.321C618.612 416.386 618.612 416.483 618.611 416.61C618.609 416.863 618.605 417.234 618.599 417.707C618.585 418.655 618.557 420.014 618.502 421.662C618.392 424.959 618.172 429.42 617.73 434.071C617.289 438.717 616.626 443.579 615.623 447.668C615.122 449.712 614.53 451.585 613.828 453.15C613.132 454.703 612.297 456.022 611.274 456.887C610.736 457.343 610.148 457.639 609.513 457.737C608.877 457.836 608.261 457.727 607.685 457.475C606.57 456.986 605.563 455.943 604.66 454.673C602.838 452.112 601.133 448.181 599.676 444.151C598.213 440.1 596.973 435.869 596.1 432.657C595.663 431.049 595.317 429.693 595.08 428.739C594.962 428.262 594.871 427.885 594.809 427.627C594.778 427.498 594.755 427.398 594.739 427.331L594.721 427.254L594.715 427.228C594.715 427.228 594.715 427.227 595.572 427.029C596.43 426.831 596.43 426.831 596.43 426.832L596.436 426.855L596.453 426.929C596.468 426.994 596.491 427.091 596.521 427.218C596.582 427.472 596.672 427.844 596.789 428.315C597.023 429.259 597.365 430.602 597.798 432.195C598.665 435.384 599.891 439.564 601.332 443.553C602.781 447.562 604.42 451.299 606.094 453.653C606.94 454.841 607.719 455.567 608.392 455.862C608.71 456.002 608.988 456.037 609.243 455.998C609.499 455.958 609.797 455.831 610.137 455.543C610.871 454.923 611.573 453.877 612.222 452.43C612.865 450.995 613.426 449.232 613.913 447.248C614.886 443.28 615.54 438.515 615.978 433.905C616.414 429.301 616.633 424.877 616.743 421.604C616.797 419.967 616.825 418.62 616.838 417.682C616.845 417.213 616.849 416.846 616.85 416.598C616.851 416.473 616.852 416.378 616.852 416.315L616.852 416.243L616.852 416.22Z" fill="black"/>
<path fill-rule="evenodd" clip-rule="evenodd" d="M474.748 891.115C463.662 891.375 452.352 895.564 437.61 903.03C437.176 903.249 436.646 903.076 436.427 902.642C436.207 902.208 436.381 901.679 436.814 901.459C451.604 893.969 463.208 889.624 474.707 889.355C486.232 889.086 497.529 892.911 511.714 901.491C512.13 901.743 512.263 902.284 512.011 902.7C511.76 903.116 511.218 903.249 510.802 902.998C496.769 894.509 485.809 890.857 474.748 891.115Z" fill="black"/>
<path fill-rule="evenodd" clip-rule="evenodd" d="M581.657 484.301C581.967 484.676 581.913 485.23 581.538 485.54C567 497.535 553.504 502.597 540.626 503.009C527.764 503.42 515.628 499.189 503.811 492.797C503.383 492.565 503.224 492.031 503.456 491.604C503.687 491.176 504.221 491.017 504.649 491.248C516.321 497.562 528.14 501.647 540.57 501.249C552.984 500.853 566.117 495.981 580.418 484.182C580.793 483.873 581.348 483.926 581.657 484.301Z" fill="black"/>
<path d="M576.115 350.822C570.711 338.391 493.422 339.472 485.855 350.822C478.288 362.171 522.608 406.491 532.877 408.653C543.146 410.815 581.52 363.253 576.115 350.822Z" fill="black"/>
<path fill-rule="evenodd" clip-rule="evenodd" d="M491.999 347.875C489.18 348.956 487.372 350.133 486.588 351.31C485.833 352.442 485.657 354.091 486.142 356.287C486.623 358.47 487.728 361.055 489.333 363.911C492.54 369.616 497.645 376.234 503.334 382.596C509.018 388.953 515.255 395.021 520.702 399.629C523.426 401.933 525.942 403.863 528.083 405.279C530.254 406.713 531.95 407.559 533.059 407.792C534.012 407.993 535.49 407.629 537.479 406.528C539.424 405.453 541.691 403.769 544.145 401.615C549.049 397.313 554.602 391.227 559.678 384.671C564.756 378.114 569.329 371.123 572.292 365.022C573.775 361.969 574.84 359.168 575.371 356.773C575.908 354.357 575.874 352.474 575.308 351.173C574.774 349.944 573.252 348.716 570.648 347.596C568.089 346.495 564.67 345.576 560.64 344.847C552.587 343.391 542.24 342.717 531.802 342.784C521.365 342.851 510.878 343.66 502.546 345.152C498.377 345.898 494.776 346.811 491.999 347.875ZM571.344 345.978C574.031 347.134 576.106 348.592 576.923 350.471C577.708 352.277 577.658 354.6 577.09 357.155C576.518 359.733 575.391 362.67 573.876 365.791C570.843 372.036 566.194 379.131 561.07 385.749C555.945 392.367 550.317 398.543 545.306 402.939C542.803 405.135 540.43 406.909 538.331 408.069C536.277 409.205 534.309 409.854 532.696 409.515C531.237 409.207 529.302 408.195 527.113 406.747C524.894 405.281 522.322 403.305 519.565 400.973C514.051 396.308 507.755 390.182 502.022 383.77C496.293 377.363 491.095 370.637 487.799 364.773C486.153 361.844 484.957 359.088 484.422 356.666C483.891 354.257 483.986 352.039 485.123 350.333C486.23 348.673 488.492 347.334 491.369 346.231C494.289 345.112 498.009 344.176 502.235 343.419C510.692 341.905 521.284 341.091 531.791 341.024C542.296 340.956 552.758 341.633 560.953 343.115C565.047 343.856 568.612 344.803 571.344 345.978Z" fill="black"/>
<path fill-rule="evenodd" clip-rule="evenodd" d="M626.55 405.97C626.838 406.362 626.753 406.913 626.361 407.201C608.196 420.527 594.053 429.109 579.978 435.224C565.901 441.34 551.928 444.972 534.126 448.432L534.045 448.448L533.962 448.448C511.827 448.545 495.862 447.48 482.535 444.193C469.18 440.899 458.513 435.386 446.951 426.651C446.563 426.358 446.486 425.806 446.779 425.418C447.072 425.03 447.624 424.953 448.012 425.246C459.419 433.864 469.873 439.257 482.956 442.484C495.872 445.669 511.387 446.752 532.976 446.691C531.363 431.983 531.08 423.501 533.087 409.072C533.154 408.591 533.598 408.255 534.08 408.322C534.561 408.389 534.897 408.833 534.83 409.315C532.848 423.564 533.124 431.894 534.728 446.52C552.024 443.127 565.613 439.546 579.276 433.61C593.187 427.566 607.213 419.064 625.32 405.781C625.712 405.494 626.263 405.578 626.55 405.97Z" fill="black"/>
<path fill-rule="evenodd" clip-rule="evenodd" d="M578.7 910.969C579.182 910.904 579.625 911.242 579.69 911.724L578.817 911.842L577.945 911.959C577.88 911.477 578.218 911.034 578.7 910.969ZM578.817 911.842C577.945 911.959 577.945 911.959 577.945 911.959L577.947 911.975L577.953 912.018C577.958 912.055 577.966 912.111 577.976 912.183C577.997 912.327 578.027 912.537 578.067 912.804C578.147 913.337 578.266 914.096 578.422 915.004C578.732 916.817 579.191 919.231 579.78 921.617C580.366 923.989 581.094 926.389 581.959 928.146C582.388 929.018 582.883 929.801 583.464 930.338C584.059 930.889 584.844 931.261 585.747 931.029C586.547 930.822 587.152 930.246 587.607 929.582C588.065 928.912 588.433 928.063 588.734 927.138C589.338 925.286 589.73 922.958 589.989 920.713C590.249 918.458 590.378 916.241 590.443 914.592C590.475 913.767 590.491 913.081 590.499 912.601C590.503 912.361 590.505 912.172 590.506 912.043C590.507 911.978 590.507 911.928 590.507 911.895L590.507 911.856L590.507 911.843C590.507 911.843 590.507 911.842 589.627 911.842H590.507C590.507 911.355 590.113 910.961 589.627 910.961C589.141 910.961 588.747 911.355 588.747 911.842L588.747 911.852L588.747 911.888C588.747 911.919 588.746 911.967 588.746 912.029C588.745 912.153 588.743 912.337 588.739 912.571C588.731 913.04 588.715 913.713 588.683 914.523C588.62 916.146 588.493 918.315 588.24 920.512C587.986 922.718 587.61 924.908 587.06 926.592C586.785 927.436 586.48 928.111 586.154 928.588C585.823 929.071 585.531 929.266 585.307 929.324C585.184 929.356 584.992 929.354 584.659 929.046C584.312 928.725 583.931 928.166 583.539 927.369C582.76 925.788 582.068 923.538 581.489 921.194C580.914 918.865 580.463 916.496 580.157 914.706C580.004 913.813 579.887 913.065 579.808 912.542C579.769 912.28 579.739 912.075 579.719 911.935C579.709 911.866 579.702 911.812 579.697 911.777L579.691 911.737L579.69 911.724L578.817 911.842Z" fill="black"/>
<path fill-rule="evenodd" clip-rule="evenodd" d="M605.724 910.969C606.206 910.904 606.649 911.242 606.714 911.724L605.841 911.842L604.969 911.959C604.904 911.477 605.242 911.034 605.724 910.969ZM605.841 911.842C604.969 911.959 604.969 911.959 604.969 911.959L604.971 911.975L604.977 912.018C604.982 912.055 604.99 912.111 605 912.183C605.02 912.327 605.051 912.537 605.091 912.804C605.171 913.337 605.29 914.096 605.445 915.004C605.756 916.817 606.214 919.231 606.804 921.617C607.39 923.989 608.118 926.389 608.983 928.146C609.412 929.018 609.907 929.801 610.487 930.338C611.082 930.889 611.868 931.261 612.771 931.029C613.571 930.822 614.176 930.246 614.631 929.582C615.089 928.912 615.457 928.063 615.758 927.138C616.362 925.286 616.754 922.958 617.013 920.713C617.273 918.458 617.402 916.241 617.466 914.592C617.499 913.767 617.515 913.081 617.523 912.601C617.527 912.361 617.529 912.172 617.53 912.043C617.531 911.978 617.531 911.928 617.531 911.895L617.531 911.856L617.531 911.843C617.531 911.843 617.531 911.842 616.651 911.842H617.531C617.531 911.355 617.137 910.961 616.651 910.961C616.165 910.961 615.771 911.355 615.771 911.842L615.771 911.852L615.771 911.888C615.77 911.919 615.77 911.967 615.77 912.029C615.769 912.153 615.767 912.337 615.763 912.571C615.755 913.04 615.739 913.713 615.707 914.523C615.644 916.146 615.517 918.315 615.264 920.512C615.01 922.718 614.634 924.908 614.084 926.592C613.809 927.436 613.504 928.111 613.178 928.588C612.847 929.071 612.555 929.266 612.331 929.324C612.208 929.356 612.015 929.354 611.683 929.046C611.336 928.725 610.955 928.166 610.562 927.369C609.784 925.788 609.092 923.538 608.513 921.194C607.938 918.865 607.487 916.496 607.181 914.706C607.027 913.813 606.91 913.065 606.832 912.542C606.793 912.28 606.763 912.075 606.743 911.935C606.733 911.866 606.726 911.812 606.721 911.777L606.715 911.737L606.714 911.724L605.841 911.842Z" fill="black"/>
<path fill-rule="evenodd" clip-rule="evenodd" d="M632.748 910.969C633.23 910.904 633.673 911.242 633.738 911.724L632.866 911.842L631.993 911.959C631.928 911.477 632.267 911.034 632.748 910.969ZM632.866 911.842C631.993 911.959 631.993 911.959 631.993 911.959L631.995 911.975L632.001 912.018C632.007 912.055 632.014 912.111 632.024 912.183C632.045 912.327 632.075 912.537 632.115 912.804C632.195 913.337 632.314 914.096 632.47 915.004C632.781 916.817 633.239 919.231 633.828 921.617C634.414 923.989 635.143 926.389 636.007 928.146C636.436 929.018 636.932 929.801 637.512 930.338C638.107 930.889 638.893 931.261 639.795 931.029C640.596 930.822 641.201 930.246 641.655 929.582C642.113 928.912 642.481 928.063 642.782 927.138C643.386 925.286 643.779 922.958 644.037 920.713C644.297 918.458 644.426 916.241 644.491 914.592C644.523 913.767 644.539 913.081 644.547 912.601C644.552 912.361 644.554 912.172 644.555 912.043C644.555 911.978 644.555 911.928 644.555 911.895L644.556 911.856L644.556 911.843C644.556 911.843 644.556 911.842 643.675 911.842H644.556C644.556 911.355 644.161 910.961 643.675 910.961C643.189 910.961 642.795 911.355 642.795 911.842L642.795 911.852L642.795 911.888C642.795 911.919 642.795 911.967 642.794 912.029C642.793 912.153 642.791 912.337 642.787 912.571C642.779 913.04 642.763 913.713 642.732 914.523C642.668 916.146 642.541 918.315 642.288 920.512C642.034 922.718 641.658 924.908 641.109 926.592C640.834 927.436 640.528 928.111 640.202 928.588C639.872 929.071 639.58 929.266 639.355 929.324C639.233 929.356 639.04 929.354 638.707 929.046C638.36 928.725 637.979 928.166 637.587 927.369C636.809 925.788 636.116 923.538 635.537 921.194C634.962 918.865 634.512 916.496 634.205 914.706C634.052 913.813 633.935 913.065 633.856 912.542C633.817 912.28 633.787 912.075 633.768 911.935C633.758 911.866 633.75 911.812 633.745 911.777L633.74 911.737L633.738 911.724L632.866 911.842Z" fill="black"/>
<path fill-rule="evenodd" clip-rule="evenodd" d="M495.466 910.969C495.948 910.904 496.391 911.242 496.456 911.724L495.584 911.842L494.711 911.959C494.647 911.477 494.985 911.034 495.466 910.969ZM495.584 911.842C494.711 911.959 494.711 911.959 494.711 911.959L494.713 911.975L494.719 912.018C494.725 912.055 494.732 912.111 494.743 912.183C494.763 912.327 494.793 912.537 494.833 912.804C494.913 913.337 495.032 914.096 495.188 915.004C495.499 916.817 495.957 919.231 496.546 921.617C497.132 923.989 497.861 926.389 498.725 928.146C499.154 929.018 499.65 929.801 500.23 930.338C500.825 930.889 501.611 931.261 502.513 931.029C503.314 930.822 503.919 930.246 504.373 929.582C504.831 928.912 505.199 928.063 505.5 927.138C506.104 925.286 506.497 922.958 506.755 920.713C507.015 918.458 507.144 916.241 507.209 914.592C507.241 913.767 507.257 913.081 507.265 912.601C507.27 912.361 507.272 912.172 507.273 912.043C507.273 911.978 507.273 911.928 507.273 911.895L507.274 911.856L507.274 911.843C507.274 911.843 507.274 911.842 506.393 911.842H507.274C507.274 911.355 506.88 910.961 506.393 910.961C505.907 910.961 505.513 911.355 505.513 911.842L505.513 911.852L505.513 911.888C505.513 911.919 505.513 911.967 505.512 912.029C505.511 912.153 505.509 912.337 505.505 912.571C505.497 913.04 505.481 913.713 505.45 914.523C505.386 916.146 505.259 918.315 505.006 920.512C504.752 922.718 504.376 924.908 503.827 926.592C503.552 927.436 503.246 928.111 502.92 928.588C502.59 929.071 502.298 929.266 502.073 929.324C501.951 929.356 501.758 929.354 501.425 929.046C501.078 928.725 500.697 928.166 500.305 927.369C499.527 925.788 498.834 923.538 498.255 921.194C497.68 918.865 497.23 916.496 496.923 914.706C496.77 913.813 496.653 913.065 496.574 912.542C496.535 912.28 496.505 912.075 496.486 911.935C496.476 911.866 496.468 911.812 496.463 911.777L496.458 911.737L496.456 911.724L495.584 911.842Z" fill="black"/>
<path fill-rule="evenodd" clip-rule="evenodd" d="M470.605 910.969C471.086 910.904 471.529 911.242 471.594 911.724L470.722 911.842L469.85 911.959C469.785 911.477 470.123 911.034 470.605 910.969ZM470.722 911.842C469.85 911.959 469.849 911.959 469.85 911.959L469.852 911.975L469.858 912.018C469.863 912.055 469.87 912.111 469.881 912.183C469.901 912.327 469.931 912.537 469.972 912.804C470.052 913.337 470.171 914.096 470.326 915.004C470.637 916.817 471.095 919.231 471.684 921.617C472.271 923.989 472.999 926.389 473.863 928.146C474.292 929.018 474.788 929.801 475.368 930.338C475.963 930.889 476.749 931.261 477.651 931.029C478.452 930.822 479.057 930.246 479.511 929.582C479.97 928.912 480.337 928.063 480.639 927.138C481.243 925.286 481.635 922.958 481.893 920.713C482.153 918.458 482.282 916.241 482.347 914.592C482.379 913.767 482.396 913.081 482.404 912.601C482.408 912.361 482.41 912.172 482.411 912.043C482.411 911.978 482.412 911.928 482.412 911.895L482.412 911.856L482.412 911.843C482.412 911.843 482.412 911.842 481.532 911.842H482.412C482.412 911.355 482.018 910.961 481.532 910.961C481.045 910.961 480.651 911.355 480.651 911.842L480.651 911.852L480.651 911.888C480.651 911.919 480.651 911.967 480.65 912.029C480.649 912.153 480.647 912.337 480.643 912.571C480.635 913.04 480.62 913.713 480.588 914.523C480.524 916.146 480.397 918.315 480.145 920.512C479.891 922.718 479.514 924.908 478.965 926.592C478.69 927.436 478.385 928.111 478.058 928.588C477.728 929.071 477.436 929.266 477.211 929.324C477.089 929.356 476.896 929.354 476.564 929.046C476.216 928.725 475.835 928.166 475.443 927.369C474.665 925.788 473.972 923.538 473.394 921.194C472.818 918.865 472.368 916.496 472.061 914.706C471.908 913.813 471.791 913.065 471.713 912.542C471.673 912.28 471.644 912.075 471.624 911.935C471.614 911.866 471.606 911.812 471.601 911.777L471.596 911.737L471.594 911.724L470.722 911.842Z" fill="black"/>
<path fill-rule="evenodd" clip-rule="evenodd" d="M445.742 910.969C446.224 910.904 446.667 911.242 446.732 911.724L445.86 911.842L444.987 911.959C444.922 911.477 445.26 911.034 445.742 910.969ZM445.86 911.842C444.987 911.959 444.987 911.959 444.987 911.959L444.989 911.975L444.995 912.018C445 912.055 445.008 912.111 445.018 912.183C445.039 912.327 445.069 912.537 445.109 912.804C445.189 913.337 445.308 914.096 445.464 915.004C445.774 916.817 446.233 919.231 446.822 921.617C447.408 923.989 448.137 926.389 449.001 928.146C449.43 929.018 449.925 929.801 450.506 930.338C451.101 930.889 451.886 931.261 452.789 931.029C453.59 930.822 454.195 930.246 454.649 929.582C455.107 928.912 455.475 928.063 455.776 927.138C456.38 925.286 456.773 922.958 457.031 920.713C457.291 918.458 457.42 916.241 457.485 914.592C457.517 913.767 457.533 913.081 457.541 912.601C457.545 912.361 457.547 912.172 457.548 912.043C457.549 911.978 457.549 911.928 457.549 911.895L457.549 911.856L457.549 911.843C457.549 911.843 457.549 911.842 456.669 911.842H457.549C457.549 911.355 457.155 910.961 456.669 910.961C456.183 910.961 455.789 911.355 455.789 911.842L455.789 911.852L455.789 911.888C455.789 911.919 455.789 911.967 455.788 912.029C455.787 912.153 455.785 912.337 455.781 912.571C455.773 913.04 455.757 913.713 455.726 914.523C455.662 916.146 455.535 918.315 455.282 920.512C455.028 922.718 454.652 924.908 454.103 926.592C453.827 927.436 453.522 928.111 453.196 928.588C452.865 929.071 452.573 929.266 452.349 929.324C452.227 929.356 452.034 929.354 451.701 929.046C451.354 928.725 450.973 928.166 450.581 927.369C449.803 925.788 449.11 923.538 448.531 921.194C447.956 918.865 447.506 916.496 447.199 914.706C447.046 913.813 446.929 913.065 446.85 912.542C446.811 912.28 446.781 912.075 446.761 911.935C446.752 911.866 446.744 911.812 446.739 911.777L446.734 911.737L446.732 911.724L445.86 911.842Z" fill="black"/>
<path fill-rule="evenodd" clip-rule="evenodd" d="M679.887 720.682C680.371 720.642 680.797 721.002 680.837 721.486C681.623 730.907 681.479 738.29 681.125 745.662C681.035 747.532 680.932 749.398 680.827 751.295C680.519 756.882 680.196 762.737 680.153 769.739C680.15 770.225 679.754 770.617 679.267 770.614C678.781 770.611 678.39 770.214 678.393 769.728C678.436 762.679 678.762 756.765 679.071 751.168C679.175 749.279 679.278 747.426 679.366 745.578C679.718 738.249 679.86 730.949 679.083 721.633C679.043 721.148 679.402 720.723 679.887 720.682Z" fill="black"/>
<path fill-rule="evenodd" clip-rule="evenodd" d="M412.237 717.443C411.752 717.407 411.331 717.771 411.295 718.256C410.605 727.684 410.825 735.066 411.254 742.434C411.363 744.303 411.485 746.167 411.609 748.063C411.975 753.647 412.357 759.498 412.472 766.499C412.479 766.985 412.88 767.373 413.366 767.365C413.852 767.357 414.24 766.957 414.232 766.47C414.117 759.422 413.73 753.512 413.364 747.918C413.241 746.03 413.119 744.179 413.012 742.332C412.585 735.007 412.369 727.708 413.051 718.385C413.086 717.9 412.722 717.478 412.237 717.443Z" fill="black"/>
<path d="M245.974 933.909C252.477 891.751 297.625 849.826 384.065 856.295L382.033 870.888C382.033 870.888 367.832 876.934 350.85 883.397C402.676 880.201 476.818 884.36 514.211 904.183C574.362 936.071 239.471 976.066 245.974 933.909Z" fill="#C7CAD9"/>
<path d="M478.851 932.288C478.851 932.288 432.519 944.178 433.332 937.693C433.867 933.422 440.215 925.638 445.187 922.36C440.171 920.315 433.738 916.314 433.738 914.452C433.738 912.5 440.659 909.765 447.055 909.311C436.266 903.611 420.732 893.84 420.732 892.832C420.732 891.804 430.219 891.21 437.467 891.88C434.602 889.767 432.314 887.134 433.332 885.266C435.306 881.64 493.291 893.022 514.617 905.264C519.066 907.818 520.96 910.386 521.526 912.83C515.893 919.937 517.931 923.019 478.851 932.288Z" fill="#222222"/>
<path fill-rule="evenodd" clip-rule="evenodd" d="M350.237 856.285C350.279 856.769 349.92 857.196 349.435 857.238C285.836 862.727 252.337 898.43 246.844 934.043C246.489 936.346 247.274 938.386 249.188 940.24C251.135 942.125 254.229 943.789 258.385 945.21C266.686 948.049 278.903 949.816 293.651 950.655C323.125 952.331 362.442 950.293 400.11 945.938C437.784 941.583 473.733 934.92 496.484 927.373C502.168 925.488 507.007 923.553 510.835 921.596C514.679 919.631 517.431 917.676 519.012 915.781C520.566 913.917 520.916 912.217 520.228 910.575C519.495 908.828 517.506 906.926 513.798 904.96C498.891 897.057 478.024 891.637 454.977 888.197C431.946 884.759 406.805 883.308 383.393 883.308C372.608 883.308 362.194 883.616 352.528 884.179C352.389 884.234 352.249 884.29 352.108 884.346C345.299 887.051 336.261 890.508 327.358 893.51C318.471 896.506 309.661 899.069 303.331 899.959C300.199 900.4 297.518 900.457 295.727 899.841C294.808 899.525 294.021 898.996 293.591 898.152C293.161 897.307 293.177 896.321 293.497 895.277C293.873 894.049 294.974 893.015 296.423 892.126C297.902 891.219 299.901 890.368 302.327 889.572C307.186 887.979 313.909 886.56 321.992 885.374C330.643 884.105 340.889 883.099 352.141 882.438C355.235 881.204 357.831 880.142 359.688 879.373C360.684 878.961 361.467 878.633 362.002 878.408C362.269 878.296 362.474 878.209 362.612 878.151L362.819 878.063C362.819 878.063 362.82 878.062 363.165 878.872C363.51 879.682 363.51 879.682 363.509 879.682L363.507 879.683L363.298 879.772C363.159 879.831 362.953 879.918 362.684 880.031C362.147 880.257 361.36 880.586 360.361 881C359.559 881.332 358.62 881.718 357.563 882.15C365.782 881.758 374.463 881.548 383.393 881.548C406.871 881.548 432.101 883.002 455.237 886.456C478.358 889.907 499.455 895.364 514.623 903.405C518.434 905.425 520.878 907.572 521.851 909.894C522.869 912.321 522.198 914.709 520.364 916.908C518.557 919.075 515.555 921.16 511.636 923.164C507.702 925.176 502.772 927.142 497.038 929.044C474.117 936.648 438.028 943.327 400.312 947.687C362.588 952.048 323.162 954.097 293.551 952.412C278.759 951.571 266.348 949.795 257.815 946.876C253.553 945.419 250.179 943.65 247.963 941.505C245.716 939.329 244.646 936.741 245.104 933.775C250.748 897.186 285.065 861.027 349.284 855.484C349.768 855.442 350.195 855.801 350.237 856.285ZM363.165 878.872L363.51 879.682C363.957 879.491 364.165 878.974 363.975 878.527C363.784 878.08 363.266 877.872 362.819 878.063L363.165 878.872ZM346.773 884.55C337.711 885.192 329.422 886.064 322.247 887.116C314.207 888.295 307.597 889.697 302.876 891.245C300.512 892.02 298.658 892.82 297.343 893.627C295.998 894.452 295.363 895.196 295.18 895.792C294.941 896.573 295.007 897.052 295.16 897.353C295.313 897.654 295.642 897.95 296.3 898.176C297.662 898.644 299.974 898.653 303.086 898.216C309.241 897.35 317.917 894.835 326.795 891.842C333.745 889.499 340.782 886.875 346.773 884.55Z" fill="black"/>
<path d="M729.41 142.851L692.484 230.835L619.893 130.549C619.893 130.549 633.32 65.5103 667.308 60.0555C683.707 57.4235 726.273 52.5313 752.907 78.5181C781.475 106.39 795.225 175.447 780.182 167.055C770.544 161.678 751.012 149.529 729.41 142.851Z" fill="#C7CAD9"/>
<path fill-rule="evenodd" clip-rule="evenodd" d="M706.362 57.6794C722.494 59.3875 740.012 64.7067 753.522 77.888C767.972 91.9864 778.605 116.398 783.751 136.164C786.324 146.047 787.552 154.871 787.162 160.739C786.971 163.632 786.376 166.012 785.16 167.386C784.522 168.108 783.706 168.558 782.732 168.628C781.785 168.695 780.784 168.398 779.753 167.823C778.382 167.059 776.817 166.16 775.078 165.162C767.228 160.658 755.847 154.127 742.915 148.723C738.712 146.966 734.354 145.333 729.912 143.93L693.296 231.175C693.108 231.623 692.592 231.834 692.144 231.646C691.696 231.458 691.485 230.942 691.673 230.494L728.221 143.409C716.467 139.872 704.182 138.025 692.619 139.811C692.139 139.885 691.689 139.556 691.615 139.075C691.541 138.595 691.87 138.145 692.35 138.071C709.341 135.447 727.688 140.451 743.594 147.098C756.64 152.55 768.14 159.15 775.985 163.653C777.712 164.644 779.261 165.533 780.611 166.286C781.461 166.76 782.115 166.907 782.606 166.872C783.069 166.838 783.472 166.638 783.842 166.22C784.642 165.315 785.218 163.459 785.406 160.622C785.777 155.032 784.602 146.423 782.047 136.607C776.936 116.975 766.41 92.9221 752.293 79.1481C739.168 66.3427 722.086 61.1146 706.177 59.4301C690.27 57.7459 675.619 59.6132 667.448 60.9246C659.222 62.2447 652.181 67.1789 646.222 73.9527C640.264 80.7261 635.442 89.2805 631.658 97.7083C627.878 106.13 625.15 114.389 623.368 120.546C622.477 123.624 621.823 126.173 621.392 127.951C621.177 128.84 621.017 129.536 620.911 130.009C620.859 130.246 620.819 130.426 620.793 130.547C620.78 130.608 620.771 130.653 620.764 130.683L620.757 130.717L620.755 130.727C620.755 130.727 620.755 130.727 619.893 130.549C619.031 130.371 619.031 130.371 619.031 130.37L619.034 130.358L619.042 130.321C619.048 130.288 619.059 130.24 619.072 130.178C619.099 130.052 619.139 129.867 619.193 129.626C619.301 129.143 619.463 128.436 619.681 127.536C620.117 125.737 620.778 123.162 621.677 120.057C623.474 113.849 626.228 105.507 630.052 96.9873C633.874 88.4736 638.782 79.7455 644.9 72.79C651.018 65.8348 658.4 60.5936 667.169 59.1863C675.397 57.8657 690.228 55.971 706.362 57.6794ZM619.893 130.549L619.031 130.371C618.933 130.847 619.239 131.313 619.715 131.411C620.191 131.509 620.657 131.203 620.755 130.727L619.893 130.549Z" fill="black"/>
<path d="M331.872 151.874L365.202 231.292L430.726 140.77C430.726 140.77 418.606 82.0629 387.927 77.1391C373.125 74.7634 334.703 70.3475 310.662 93.8043C284.876 118.963 272.464 181.296 286.043 173.721C294.742 168.868 312.373 157.902 331.872 151.874Z" fill="#C7CAD9"/>
<path fill-rule="evenodd" clip-rule="evenodd" d="M352.666 74.9092C338.094 76.4521 322.26 81.2579 310.047 93.1742C296.987 105.916 287.384 127.968 282.738 145.816C280.415 154.741 279.304 162.715 279.656 168.026C279.829 170.64 280.367 172.814 281.485 174.077C282.074 174.743 282.831 175.161 283.735 175.226C284.612 175.289 285.532 175.014 286.471 174.49C287.71 173.799 289.124 172.988 290.694 172.087C297.78 168.02 308.047 162.129 319.714 157.253C323.483 155.678 327.389 154.213 331.37 152.953L364.39 231.632C364.578 232.08 365.094 232.291 365.542 232.103C365.991 231.915 366.202 231.399 366.013 230.951L333.06 152.432C343.634 149.26 354.676 147.61 365.067 149.215C365.548 149.289 365.998 148.959 366.072 148.479C366.146 147.999 365.817 147.549 365.336 147.475C349.976 145.102 333.398 149.627 319.035 155.629C307.254 160.552 296.868 166.513 289.787 170.577C288.229 171.471 286.831 172.273 285.614 172.952C284.855 173.375 284.281 173.501 283.861 173.47C283.468 173.442 283.124 173.273 282.803 172.911C282.101 172.117 281.582 170.467 281.413 167.91C281.079 162.877 282.136 155.116 284.442 146.26C289.053 128.545 298.549 106.851 311.276 94.4343C323.104 82.8939 338.502 78.1792 352.852 76.6599C367.198 75.1408 380.415 76.825 387.787 78.0082C395.186 79.1956 401.525 83.6345 406.896 89.74C412.266 95.8451 416.615 103.558 420.028 111.161C423.439 118.759 425.899 126.21 427.507 131.765C428.311 134.541 428.901 136.841 429.29 138.445C429.484 139.247 429.628 139.875 429.723 140.301C429.771 140.514 429.806 140.677 429.83 140.786C429.841 140.84 429.85 140.881 429.856 140.908L429.862 140.939L429.864 140.947C429.864 140.948 429.864 140.948 430.726 140.77C431.588 140.592 431.588 140.591 431.588 140.591L431.586 140.579L431.578 140.546C431.572 140.516 431.563 140.473 431.551 140.416C431.527 140.303 431.49 140.135 431.442 139.917C431.344 139.481 431.198 138.843 431.001 138.03C430.607 136.404 430.01 134.079 429.198 131.275C427.575 125.669 425.088 118.135 421.634 110.44C418.182 102.751 413.749 94.8645 408.218 88.5772C402.688 82.2903 396.008 77.5445 388.066 76.27C380.636 75.0775 367.241 73.3659 352.666 74.9092ZM430.726 140.77L431.588 140.592C431.686 141.068 431.38 141.533 430.904 141.632C430.428 141.73 429.962 141.423 429.864 140.947L430.726 140.77Z" fill="black"/>
<path fill-rule="evenodd" clip-rule="evenodd" d="M582.631 603.586C583.191 603.441 583.759 603.779 583.901 604.341C586.231 613.577 586.411 618.703 585.626 627.63C585.575 628.208 585.068 628.638 584.493 628.589C583.918 628.54 583.493 628.032 583.544 627.453C584.312 618.725 584.139 613.84 581.875 604.867C581.733 604.305 582.072 603.731 582.631 603.586Z" fill="black"/>
<path fill-rule="evenodd" clip-rule="evenodd" d="M573.429 616.004C573.989 615.859 574.557 616.197 574.699 616.759C577.029 625.995 577.209 631.121 576.424 640.048C576.373 640.627 575.866 641.056 575.291 641.007C574.716 640.959 574.291 640.45 574.342 639.871C575.11 631.143 574.938 626.258 572.673 617.285C572.532 616.723 572.87 616.149 573.429 616.004Z" fill="black"/>
<path fill-rule="evenodd" clip-rule="evenodd" d="M585.79 634.833C586.35 634.688 586.918 635.026 587.06 635.588C589.39 644.824 589.57 649.95 588.785 658.876C588.734 659.455 588.226 659.885 587.652 659.836C587.077 659.787 586.652 659.278 586.703 658.7C587.471 649.971 587.298 645.087 585.034 636.114C584.892 635.552 585.231 634.978 585.79 634.833Z" fill="black"/>
<path fill-rule="evenodd" clip-rule="evenodd" d="M559.931 579.805C560.49 579.659 561.058 579.998 561.2 580.56C563.531 589.796 563.711 594.922 562.925 603.848C562.874 604.427 562.367 604.857 561.792 604.808C561.217 604.759 560.792 604.25 560.843 603.672C561.611 594.943 561.439 590.059 559.175 581.086C559.033 580.523 559.371 579.95 559.931 579.805Z" fill="black"/>
<path fill-rule="evenodd" clip-rule="evenodd" d="M550.729 592.223C551.288 592.078 551.857 592.416 551.998 592.978C554.329 602.214 554.509 607.34 553.723 616.267C553.672 616.845 553.165 617.275 552.59 617.226C552.015 617.177 551.591 616.669 551.641 616.09C552.41 607.362 552.237 602.477 549.973 593.504C549.831 592.942 550.169 592.368 550.729 592.223Z" fill="black"/>
<path fill-rule="evenodd" clip-rule="evenodd" d="M563.089 611.052C563.649 610.906 564.217 611.245 564.359 611.807C566.69 621.043 566.87 626.168 566.084 635.095C566.033 635.674 565.526 636.104 564.951 636.055C564.376 636.006 563.951 635.497 564.002 634.919C564.77 626.19 564.598 621.306 562.334 612.333C562.192 611.77 562.53 611.197 563.089 611.052Z" fill="black"/>
<path fill-rule="evenodd" clip-rule="evenodd" d="M538.311 573.319C538.871 573.174 539.439 573.512 539.581 574.074C541.912 583.31 542.091 588.436 541.306 597.363C541.255 597.941 540.748 598.371 540.173 598.322C539.598 598.273 539.173 597.765 539.224 597.186C539.992 588.457 539.82 583.573 537.556 574.6C537.414 574.038 537.752 573.464 538.311 573.319Z" fill="black"/>
<path fill-rule="evenodd" clip-rule="evenodd" d="M529.11 585.737C529.669 585.592 530.237 585.93 530.379 586.492C532.71 595.728 532.89 600.854 532.104 609.781C532.053 610.36 531.546 610.789 530.971 610.74C530.396 610.691 529.971 610.183 530.022 609.604C530.79 600.876 530.618 595.991 528.354 587.018C528.212 586.456 528.55 585.882 529.11 585.737Z" fill="black"/>
<path fill-rule="evenodd" clip-rule="evenodd" d="M541.47 604.566C542.03 604.421 542.598 604.759 542.74 605.321C545.07 614.557 545.25 619.683 544.465 628.609C544.414 629.188 543.907 629.618 543.332 629.569C542.757 629.52 542.332 629.011 542.383 628.433C543.151 619.704 542.979 614.82 540.714 605.847C540.573 605.284 540.911 604.711 541.47 604.566Z" fill="black"/>
<path fill-rule="evenodd" clip-rule="evenodd" d="M520.422 603.586C519.863 603.441 519.294 603.779 519.152 604.341C516.822 613.577 516.642 618.703 517.428 627.63C517.479 628.208 517.986 628.638 518.561 628.589C519.136 628.54 519.56 628.032 519.509 627.453C518.741 618.725 518.914 613.84 521.178 604.867C521.32 604.305 520.982 603.731 520.422 603.586Z" fill="black"/>
<path fill-rule="evenodd" clip-rule="evenodd" d="M529.624 616.004C529.065 615.859 528.496 616.197 528.354 616.759C526.024 625.995 525.844 631.121 526.63 640.048C526.681 640.627 527.188 641.056 527.763 641.007C528.338 640.959 528.762 640.45 528.711 639.871C527.943 631.143 528.116 626.258 530.38 617.285C530.522 616.723 530.183 616.149 529.624 616.004Z" fill="black"/>
<path fill-rule="evenodd" clip-rule="evenodd" d="M517.263 634.833C516.704 634.688 516.135 635.026 515.994 635.588C513.663 644.824 513.483 649.95 514.269 658.876C514.32 659.455 514.827 659.885 515.402 659.836C515.977 659.787 516.401 659.278 516.35 658.7C515.582 649.971 515.755 645.087 518.019 636.114C518.161 635.552 517.823 634.978 517.263 634.833Z" fill="black"/>
<path fill-rule="evenodd" clip-rule="evenodd" d="M430.702 584.129C430.143 583.983 429.574 584.322 429.432 584.884C427.102 594.12 426.922 599.245 427.708 608.172C427.758 608.751 428.266 609.181 428.841 609.132C429.415 609.083 429.84 608.574 429.789 607.996C429.021 599.267 429.194 594.382 431.458 585.41C431.6 584.847 431.261 584.274 430.702 584.129Z" fill="black"/>
<path fill-rule="evenodd" clip-rule="evenodd" d="M439.904 596.547C439.345 596.402 438.776 596.74 438.634 597.302C436.304 606.538 436.124 611.664 436.909 620.59C436.96 621.169 437.468 621.599 438.042 621.55C438.617 621.501 439.042 620.992 438.991 620.414C438.223 611.685 438.396 606.801 440.66 597.828C440.802 597.266 440.463 596.692 439.904 596.547Z" fill="black"/>
<path fill-rule="evenodd" clip-rule="evenodd" d="M427.543 615.375C426.984 615.23 426.415 615.568 426.273 616.131C423.943 625.366 423.763 630.492 424.549 639.419C424.6 639.998 425.107 640.427 425.682 640.379C426.256 640.33 426.681 639.821 426.63 639.242C425.862 630.514 426.035 625.629 428.299 616.657C428.441 616.094 428.102 615.521 427.543 615.375Z" fill="black"/>
<path fill-rule="evenodd" clip-rule="evenodd" d="M507.508 332.602C507.437 333.176 507.847 333.695 508.423 333.763C517.883 334.869 522.989 334.38 531.737 332.437C532.305 332.311 532.664 331.752 532.541 331.189C532.418 330.625 531.858 330.27 531.291 330.396C522.737 332.296 517.872 332.761 508.68 331.686C508.104 331.618 507.58 332.029 507.508 332.602Z" fill="black"/>
<path fill-rule="evenodd" clip-rule="evenodd" d="M518.621 321.86C518.55 322.434 518.96 322.953 519.536 323.021C528.996 324.127 534.102 323.638 542.85 321.695C543.417 321.569 543.777 321.01 543.654 320.447C543.53 319.883 542.971 319.528 542.404 319.654C533.85 321.553 528.984 322.019 519.793 320.944C519.217 320.876 518.692 321.287 518.621 321.86Z" fill="black"/>
<path fill-rule="evenodd" clip-rule="evenodd" d="M538.901 331.661C538.83 332.235 539.239 332.754 539.815 332.822C549.276 333.928 554.381 333.439 563.129 331.496C563.697 331.37 564.056 330.811 563.933 330.248C563.81 329.684 563.25 329.329 562.683 329.455C554.129 331.355 549.264 331.82 540.072 330.745C539.496 330.677 538.972 331.088 538.901 331.661Z" fill="black"/>
<path fill-rule="evenodd" clip-rule="evenodd" d="M637.999 278.493C637.999 278.493 637.999 278.494 636.872 278.533L637.999 278.494C638.021 279.117 637.533 279.64 636.911 279.661C636.288 279.683 635.765 279.195 635.744 278.572L635.744 278.566L635.743 278.542L635.739 278.442C635.735 278.353 635.728 278.219 635.719 278.044C635.699 277.693 635.667 277.176 635.616 276.516C635.512 275.197 635.332 273.312 635.022 271.057C634.402 266.541 633.27 260.57 631.222 254.703C629.171 248.823 626.23 243.135 622.046 239.101C617.899 235.102 612.505 232.698 605.384 233.37C598.276 234.041 593.265 237.543 589.699 242.477C586.107 247.448 583.981 253.881 582.762 260.327C581.546 266.76 581.248 273.123 581.257 277.887C581.261 280.266 581.342 282.241 581.421 283.617C581.461 284.306 581.5 284.845 581.53 285.209C581.544 285.392 581.556 285.531 581.565 285.623L581.574 285.727L581.577 285.752L581.577 285.758C581.577 285.758 581.577 285.758 581.577 285.758C581.639 286.378 581.187 286.932 580.567 286.994C579.947 287.056 579.394 286.604 579.332 285.983L580.455 285.871C579.332 285.983 579.332 285.983 579.332 285.982L579.332 285.98L579.331 285.971L579.328 285.941L579.317 285.827C579.308 285.727 579.295 285.58 579.28 285.39C579.25 285.009 579.209 284.454 579.168 283.748C579.087 282.335 579.005 280.319 579 277.891C578.991 273.042 579.293 266.527 580.545 259.907C581.794 253.3 584.005 246.503 587.871 241.154C591.762 235.769 597.329 231.862 605.172 231.122C613.002 230.383 619.032 233.059 623.612 237.475C628.155 241.855 631.244 247.914 633.353 253.959C635.467 260.016 636.626 266.146 637.258 270.75C637.574 273.055 637.759 274.984 637.865 276.34C637.918 277.018 637.952 277.553 637.972 277.92C637.982 278.104 637.989 278.245 637.993 278.342L637.998 278.453L637.999 278.482L637.999 278.49L637.999 278.493Z" fill="black"/>
<path fill-rule="evenodd" clip-rule="evenodd" d="M497.385 290.74C497.385 290.74 497.385 290.741 496.257 290.691L497.385 290.741C497.357 291.364 496.831 291.847 496.208 291.819C495.585 291.792 495.103 291.265 495.13 290.642L495.13 290.636L495.131 290.612L495.135 290.512C495.138 290.423 495.142 290.289 495.146 290.114C495.154 289.763 495.163 289.244 495.163 288.583C495.163 287.26 495.13 285.366 494.998 283.094C494.733 278.543 494.071 272.502 492.489 266.493C490.903 260.471 488.417 254.57 484.56 250.221C480.739 245.91 475.549 243.092 468.398 243.205C461.259 243.318 455.99 246.417 452.049 251.058C448.079 255.732 445.456 261.979 443.737 268.31C442.021 274.629 441.227 280.949 440.863 285.699C440.682 288.071 440.608 290.046 440.579 291.425C440.565 292.114 440.562 292.654 440.563 293.02C440.563 293.203 440.564 293.343 440.565 293.436L440.567 293.54L440.567 293.565L440.567 293.571C440.567 293.571 440.567 293.571 440.567 293.571C440.581 294.194 440.087 294.711 439.464 294.725C438.84 294.738 438.325 294.243 438.311 293.62L439.439 293.596C438.311 293.62 438.311 293.62 438.311 293.619L438.311 293.616L438.311 293.608L438.311 293.578L438.309 293.463C438.308 293.363 438.307 293.215 438.306 293.025C438.306 292.643 438.309 292.086 438.323 291.378C438.352 289.964 438.428 287.947 438.613 285.527C438.984 280.691 439.794 274.22 441.559 267.718C443.322 261.229 446.057 254.626 450.329 249.596C454.63 244.532 460.485 241.072 468.362 240.947C476.226 240.823 482.028 243.962 486.249 248.722C490.435 253.444 493.041 259.727 494.671 265.918C496.304 272.122 496.981 278.324 497.251 282.963C497.386 285.285 497.42 287.223 497.42 288.583C497.419 289.263 497.411 289.799 497.402 290.167C497.398 290.35 497.394 290.492 497.39 290.589L497.386 290.7L497.385 290.729L497.385 290.737L497.385 290.74Z" fill="black"/>
</svg>
