<svg width="1024" height="1024" viewBox="0 0 1024 1024" fill="none" xmlns="http://www.w3.org/2000/svg">
<path d="M689.871 64.316C787.564 68.9037 813.8 120.509 827.215 213.743L791.586 312.05C693.319 370.379 688.147 467.375 710.559 538.156C756.532 660.713 754.233 682.996 710.559 791.789C666.884 900.582 520.919 925.487 457.131 924.831C393.344 924.176 312.89 866.438 252.551 786.546C252.551 786.546 180.008 727.414 184.166 721.663C188.324 715.913 288.897 751.196 289.33 743.946C372.191 727.003 463.453 703.968 499.657 682.996C535.861 662.023 638.726 593.864 639.3 546.676C639.875 499.489 627.232 427.397 572.064 365.791C533.193 329.262 499.657 271.416 511.15 213.743C522.643 156.069 592.178 59.7284 689.871 64.316Z" fill="#FEFEFE"/>
<path fill-rule="evenodd" clip-rule="evenodd" d="M654.428 626.478C654.976 626.553 655.358 627.058 655.282 627.605C645.439 698.9 595.267 758.385 546.625 798.033C522.29 817.868 498.291 832.777 479.819 841.75C470.589 846.233 462.702 849.253 456.821 850.654C453.889 851.353 451.392 851.665 449.452 851.523C447.552 851.383 445.899 850.78 445.119 849.339C443.952 847.185 443.354 844.271 443.198 840.93C443.04 837.572 443.324 833.701 443.987 829.575C445.312 821.323 448.165 811.961 452.134 803.488C452.899 801.854 453.707 800.25 454.555 798.691C443.167 800.411 431.149 801.289 421.802 800.796C416.911 800.539 412.675 799.903 409.631 798.773C406.656 797.669 404.387 795.911 404.387 793.186C404.387 790.895 405.327 788.213 406.839 785.345C408.362 782.454 410.523 779.269 413.09 775.944C418.226 769.292 425.057 761.99 431.865 755.223C438.678 748.452 445.487 742.196 450.592 737.634C453.145 735.353 455.273 733.495 456.763 732.206C457.508 731.561 458.094 731.059 458.493 730.718C458.693 730.548 458.847 730.417 458.95 730.329L459.068 730.23L459.106 730.198L459.108 730.196C459.108 730.196 459.108 730.196 459.698 730.895L459.108 730.196C459.53 729.84 460.161 729.893 460.517 730.315C460.874 730.737 460.82 731.368 460.398 731.724L459.827 731.047C460.398 731.724 460.398 731.724 460.398 731.724L460.396 731.726L460.359 731.757L460.244 731.855C460.142 731.941 459.99 732.07 459.792 732.24C459.395 732.578 458.813 733.077 458.071 733.718C456.588 735.001 454.469 736.853 451.925 739.126C446.836 743.673 440.054 749.903 433.275 756.642C426.492 763.384 419.731 770.615 414.673 777.166C412.144 780.442 410.058 783.526 408.608 786.277C407.147 789.05 406.387 791.384 406.387 793.186C406.387 794.555 407.496 795.847 410.327 796.898C413.088 797.922 417.085 798.545 421.907 798.799C431.499 799.305 444.049 798.338 455.807 796.473C459.085 790.881 462.896 786 467.107 782.594C473.04 777.795 479.87 775.861 487.029 779.179C488.766 779.983 490.066 780.854 490.884 781.816C491.732 782.814 492.082 783.945 491.802 785.124C491.539 786.236 490.754 787.22 489.731 788.084C488.694 788.959 487.314 789.793 485.685 790.585C479.345 793.669 468.601 796.413 457.063 798.296C455.962 800.229 454.92 802.252 453.945 804.336C450.053 812.647 447.256 821.83 445.962 829.892C445.314 833.923 445.046 837.651 445.195 840.836C445.346 844.038 445.915 846.609 446.877 848.386C447.161 848.91 447.914 849.405 449.598 849.528C451.243 849.648 453.51 849.387 456.358 848.709C462.038 847.355 469.778 844.404 478.945 839.951C497.266 831.052 521.135 816.229 545.362 796.482C593.841 756.967 643.559 697.894 653.301 627.331C653.377 626.784 653.881 626.402 654.428 626.478ZM458.399 796.045C469.233 794.185 479.031 791.597 484.81 788.787C486.359 788.034 487.578 787.284 488.441 786.556C489.317 785.816 489.735 785.176 489.856 784.663C489.962 784.218 489.879 783.723 489.36 783.112C488.811 782.466 487.809 781.744 486.188 780.993C479.919 778.088 473.895 779.675 468.365 784.149C464.744 787.078 461.381 791.217 458.399 796.045Z" fill="black"/>
<path d="M908.874 301.071C908.178 322.752 705.906 312.871 726.677 306.197C747.447 299.522 758.679 300.819 758.679 300.819L909.057 295.366L908.874 301.071Z" fill="#FDD05E"/>
<path d="M908.874 301.071C908.178 322.752 705.906 312.871 726.677 306.197C747.447 299.522 758.679 300.819 758.679 300.819L909.057 295.366L908.874 301.071Z" fill="black" fill-opacity="0.1"/>
<path d="M943.981 291.578C929.407 294.381 815.055 303.349 815.055 303.349L739.941 313.439C739.941 313.439 716.959 316.242 708.551 291.578C700.143 266.914 714.156 241.129 739.941 241.129H772.453C783.104 241.129 795.996 204.132 815.055 201.89C834.113 199.648 837.144 208.434 844.764 227.115C844.764 227.115 955.192 250.097 962.479 265.793C969.766 281.488 958.555 288.775 943.981 291.578Z" fill="#FDD05E"/>
<path fill-rule="evenodd" clip-rule="evenodd" d="M727.343 191.195C727.343 191.195 727.343 191.196 726.344 191.23L727.343 191.196C727.362 191.748 726.93 192.211 726.378 192.23C725.826 192.249 725.363 191.817 725.344 191.265L725.35 191.265C725.344 191.265 725.344 191.265 725.344 191.265L725.344 191.263L725.344 191.257L725.343 191.228C725.342 191.203 725.34 191.163 725.338 191.111C725.333 191.007 725.326 190.851 725.314 190.646C725.292 190.237 725.254 189.634 725.194 188.866C725.074 187.331 724.864 185.137 724.503 182.513C723.782 177.261 722.463 170.311 720.077 163.476C717.687 156.631 714.253 149.979 709.346 145.25C704.472 140.553 698.121 137.726 689.757 138.515C681.403 139.303 675.509 143.422 671.324 149.21C667.116 155.03 664.636 162.544 663.217 170.046C661.799 177.537 661.453 184.941 661.464 190.481C661.469 193.249 661.563 195.546 661.655 197.148C661.701 197.95 661.747 198.577 661.781 199.003C661.798 199.215 661.812 199.378 661.822 199.486C661.827 199.54 661.831 199.581 661.834 199.608L661.836 199.637L661.837 199.646C661.837 199.646 661.837 199.646 661.791 199.651L661.837 199.646C661.892 200.195 661.491 200.686 660.942 200.74C660.392 200.795 659.902 200.394 659.847 199.845L660.842 199.745C659.847 199.845 659.847 199.844 659.847 199.844L659.847 199.841L659.846 199.832L659.843 199.798C659.84 199.768 659.836 199.724 659.83 199.666C659.82 199.551 659.805 199.382 659.788 199.163C659.752 198.723 659.706 198.081 659.658 197.264C659.564 195.63 659.469 193.295 659.464 190.485C659.453 184.869 659.803 177.331 661.252 169.675C662.698 162.03 665.253 154.192 669.704 148.038C674.177 141.851 680.564 137.373 689.569 136.524C698.562 135.675 705.476 138.743 710.734 143.81C715.959 148.845 719.525 155.826 721.966 162.817C724.41 169.82 725.753 176.911 726.485 182.241C726.851 184.909 727.065 187.142 727.188 188.71C727.25 189.494 727.288 190.113 727.311 190.536C727.323 190.748 727.331 190.912 727.336 191.023C727.338 191.078 727.34 191.121 727.341 191.15L727.342 191.183L727.343 191.195Z" fill="black"/>
<path fill-rule="evenodd" clip-rule="evenodd" d="M714.172 651.648C714.564 651.26 715.197 651.262 715.586 651.655C718.87 654.968 721.419 657.934 721.774 662.068C722.125 666.155 720.314 671.137 715.724 678.486C715.431 678.955 714.814 679.097 714.346 678.805C713.877 678.512 713.735 677.895 714.027 677.427C718.59 670.121 720.072 665.627 719.782 662.239C719.495 658.899 717.468 656.394 714.165 653.063C713.777 652.67 713.779 652.037 714.172 651.648Z" fill="black"/>
<path fill-rule="evenodd" clip-rule="evenodd" d="M726.091 673.702C726.483 673.313 727.116 673.316 727.505 673.708C730.789 677.021 733.339 679.987 733.693 684.122C734.044 688.208 732.233 693.19 727.643 700.539C727.35 701.008 726.733 701.15 726.265 700.858C725.797 700.565 725.654 699.948 725.947 699.48C730.509 692.175 731.992 687.68 731.701 684.293C731.414 680.953 729.387 678.447 726.085 675.116C725.696 674.724 725.699 674.091 726.091 673.702Z" fill="black"/>
<path fill-rule="evenodd" clip-rule="evenodd" d="M708.609 690.242C709.001 689.853 709.634 689.856 710.023 690.248C713.308 693.561 715.857 696.527 716.212 700.662C716.563 704.748 714.751 709.73 710.161 717.079C709.869 717.548 709.252 717.69 708.783 717.398C708.315 717.105 708.172 716.488 708.465 716.02C713.028 708.715 714.51 704.22 714.219 700.833C713.932 697.493 711.906 694.987 708.603 691.656C708.214 691.264 708.217 690.631 708.609 690.242Z" fill="black"/>
<path fill-rule="evenodd" clip-rule="evenodd" d="M585.182 346.113C585.03 346.644 584.476 346.95 583.945 346.797C579.462 345.507 575.79 344.16 573.464 340.724C571.165 337.327 570.316 332.094 570.74 323.44C570.767 322.888 571.236 322.463 571.788 322.49C572.339 322.517 572.764 322.986 572.737 323.538C572.317 332.14 573.214 336.787 575.12 339.603C576.999 342.379 579.99 343.578 584.498 344.875C585.029 345.028 585.335 345.582 585.182 346.113Z" fill="black"/>
<path fill-rule="evenodd" clip-rule="evenodd" d="M564.022 332.672C563.869 333.203 563.315 333.509 562.784 333.356C558.301 332.066 554.629 330.719 552.303 327.283C550.004 323.886 549.156 318.653 549.579 309.999C549.606 309.447 550.075 309.022 550.627 309.049C551.179 309.076 551.604 309.545 551.577 310.097C551.156 318.699 552.054 323.346 553.96 326.162C555.839 328.938 558.83 330.137 563.338 331.434C563.868 331.587 564.175 332.141 564.022 332.672Z" fill="black"/>
<path fill-rule="evenodd" clip-rule="evenodd" d="M569.431 313.416C569.278 313.947 568.724 314.253 568.193 314.101C563.71 312.81 560.038 311.463 557.712 308.027C555.413 304.63 554.565 299.397 554.988 290.743C555.015 290.192 555.484 289.766 556.036 289.793C556.587 289.82 557.013 290.289 556.986 290.841C556.565 299.444 557.462 304.09 559.368 306.906C561.247 309.682 564.239 310.881 568.746 312.179C569.277 312.332 569.583 312.886 569.431 313.416Z" fill="black"/>
<path fill-rule="evenodd" clip-rule="evenodd" d="M229.357 753.802C229.255 753.259 229.612 752.736 230.154 752.634C234.738 751.768 238.624 751.318 242.247 753.339C245.829 755.338 248.942 759.629 252.46 767.547C252.684 768.052 252.456 768.643 251.952 768.867C251.447 769.091 250.856 768.864 250.632 768.359C247.136 760.488 244.242 756.742 241.273 755.086C238.345 753.453 235.135 753.729 230.525 754.599C229.983 754.701 229.46 754.344 229.357 753.802Z" fill="black"/>
<path fill-rule="evenodd" clip-rule="evenodd" d="M254.303 756.279C254.2 755.737 254.557 755.214 255.1 755.111C259.684 754.246 263.569 753.796 267.193 755.817C270.775 757.815 273.888 762.106 277.405 770.025C277.629 770.53 277.402 771.121 276.897 771.345C276.393 771.569 275.802 771.342 275.577 770.837C272.081 762.965 269.188 759.22 266.219 757.564C263.291 755.93 260.08 756.206 255.471 757.077C254.928 757.179 254.405 756.822 254.303 756.279Z" fill="black"/>
<path fill-rule="evenodd" clip-rule="evenodd" d="M258.214 780.026C258.111 779.483 258.468 778.96 259.011 778.857C263.595 777.992 267.48 777.542 271.104 779.563C274.686 781.562 277.799 785.853 281.316 793.771C281.541 794.276 281.313 794.867 280.808 795.091C280.304 795.315 279.713 795.088 279.489 794.583C275.992 786.712 273.099 782.966 270.13 781.31C267.202 779.677 263.991 779.953 259.382 780.823C258.839 780.925 258.316 780.568 258.214 780.026Z" fill="black"/>
<path fill-rule="evenodd" clip-rule="evenodd" d="M812.43 225.641C812.96 225.796 813.265 226.351 813.11 226.881C809.98 237.607 807.157 243.723 798.527 254.728C798.186 255.163 797.557 255.239 797.123 254.898C796.688 254.557 796.612 253.929 796.953 253.494C805.424 242.691 808.131 236.804 811.19 226.321C811.345 225.791 811.9 225.486 812.43 225.641Z" fill="black"/>
<path d="M950.816 876.784C950.816 916.939 751.4 949.491 505.408 949.491C259.416 949.491 60 916.939 60 876.784C60 843.784 276.774 868.364 427.462 875.56C430.737 877.71 427.462 883.42 445.147 882.765C462.832 882.11 458.902 878.18 464.142 876.788C471.867 876.998 479.307 877.135 486.413 877.184C488.808 878.465 494.98 882.609 501.478 881.455C506.315 881.833 509.511 877.638 513.268 876.87C513.718 876.778 520.325 876.132 531.609 875.135C536.965 876.288 543.572 875.801 551.259 873.45C561.194 872.621 572.756 871.689 585.555 870.706C603.414 876.439 626.497 876.087 653.441 865.913C781.436 857.693 950.816 851.693 950.816 876.784Z" fill="#64AD9C"/>
<path fill-rule="evenodd" clip-rule="evenodd" d="M407.567 898.725C407.769 899.554 407.839 900.579 407.811 901.79C407.713 906.034 409.302 909.203 411.857 911.467C414.449 913.763 418.108 915.186 422.177 915.716C430.388 916.787 439.643 914.163 444.142 908.78C444.606 908.225 445.432 908.151 445.987 908.615C446.542 909.079 446.616 909.905 446.152 910.46C440.899 916.746 430.618 919.459 421.838 918.314C417.411 917.738 413.21 916.166 410.12 913.428C406.993 910.658 405.076 906.752 405.192 901.73C405.217 900.625 405.146 899.856 405.021 899.343C404.96 899.092 404.893 898.931 404.838 898.833C404.812 898.785 404.79 898.756 404.775 898.739C404.762 898.724 404.755 898.718 404.752 898.716L404.749 898.715C404.746 898.714 404.74 898.712 404.732 898.711C404.698 898.705 404.617 898.699 404.47 898.725C404.159 898.78 403.705 898.95 403.076 899.29C401.826 899.965 400.256 901.098 398.302 902.509L398.254 902.544C396.311 903.947 394.052 905.574 391.542 907.114C386.531 910.189 380.4 912.997 373.501 913.049C366.548 913.101 359.009 910.355 351.217 902.694C350.701 902.187 350.694 901.358 351.201 900.842C351.708 900.326 352.538 900.319 353.054 900.826C360.433 908.08 367.329 910.475 373.481 910.429C379.686 910.382 385.331 907.851 390.171 904.881C392.587 903.398 394.773 901.826 396.72 900.42L396.896 900.293C398.742 898.96 400.429 897.742 401.831 896.985C402.555 896.593 403.297 896.272 404.015 896.145C404.757 896.014 405.59 896.075 406.312 896.611C407.002 897.122 407.368 897.905 407.567 898.725Z" fill="#1F3E37"/>
<path fill-rule="evenodd" clip-rule="evenodd" d="M314.556 891.954C314.757 892.783 314.827 893.808 314.799 895.019C314.702 899.263 316.29 902.432 318.846 904.696C321.437 906.992 325.096 908.415 329.165 908.945C337.376 910.016 346.631 907.392 351.13 902.009C351.594 901.454 352.42 901.38 352.975 901.844C353.53 902.308 353.604 903.134 353.14 903.689C347.887 909.975 337.606 912.688 328.826 911.543C324.4 910.967 320.199 909.395 317.108 906.657C313.981 903.887 312.064 899.981 312.18 894.959C312.205 893.854 312.134 893.085 312.01 892.572C311.948 892.321 311.881 892.16 311.826 892.062C311.8 892.014 311.778 891.985 311.763 891.968C311.75 891.953 311.743 891.947 311.741 891.945L311.737 891.944C311.734 891.943 311.729 891.941 311.72 891.94C311.686 891.934 311.605 891.928 311.458 891.954C311.147 892.009 310.693 892.179 310.064 892.519C308.815 893.194 307.244 894.327 305.291 895.738L305.242 895.773C303.299 897.176 301.04 898.803 298.53 900.343C293.519 903.418 287.388 906.226 280.489 906.278C273.536 906.33 265.998 903.584 258.205 895.923C257.689 895.416 257.682 894.587 258.189 894.071C258.697 893.555 259.526 893.548 260.042 894.055C267.421 901.309 274.317 903.704 280.469 903.658C286.675 903.611 292.319 901.08 297.16 898.11C299.575 896.627 301.761 895.055 303.709 893.649L303.884 893.522C305.73 892.189 307.417 890.971 308.819 890.214C309.543 889.822 310.285 889.501 311.003 889.374C311.745 889.243 312.578 889.304 313.301 889.84C313.99 890.351 314.356 891.134 314.556 891.954Z" fill="#1F3E37"/>
<path fill-rule="evenodd" clip-rule="evenodd" d="M742.333 893.772C742.714 894.535 743.01 895.52 743.252 896.707C744.099 900.866 746.352 903.602 749.347 905.242C752.384 906.905 756.267 907.48 760.352 907.093C768.596 906.312 777.037 901.698 780.227 895.45C780.556 894.805 781.346 894.55 781.99 894.879C782.634 895.208 782.89 895.997 782.561 896.641C778.835 903.937 769.414 908.866 760.599 909.701C756.155 910.122 751.71 909.523 748.088 907.54C744.424 905.534 741.688 902.152 740.684 897.23C740.464 896.146 740.224 895.413 739.988 894.941C739.873 894.709 739.771 894.567 739.696 894.484C739.659 894.443 739.631 894.419 739.614 894.406C739.598 894.394 739.589 894.39 739.586 894.389L739.583 894.388C739.579 894.388 739.574 894.388 739.566 894.388C739.531 894.39 739.451 894.402 739.313 894.46C739.022 894.583 738.617 894.85 738.079 895.321C737.011 896.256 735.732 897.711 734.14 899.52L734.101 899.565C732.518 901.364 730.677 903.452 728.572 905.512C724.369 909.623 719.015 913.723 712.3 915.307C705.533 916.903 697.573 915.9 688.273 910.162C687.657 909.782 687.466 908.975 687.846 908.359C688.226 907.744 689.033 907.552 689.649 907.932C698.455 913.366 705.711 914.169 711.699 912.757C717.739 911.332 722.68 907.61 726.74 903.639C728.766 901.657 730.548 899.638 732.134 897.834L732.277 897.672C733.78 895.962 735.154 894.4 736.353 893.35C736.972 892.807 737.624 892.329 738.296 892.046C738.99 891.753 739.817 891.628 740.64 891.99C741.426 892.335 741.956 893.017 742.333 893.772Z" fill="#1F3E37"/>
<path fill-rule="evenodd" clip-rule="evenodd" d="M650.142 907.835C650.522 908.599 650.818 909.583 651.06 910.77C651.908 914.93 654.161 917.666 657.155 919.306C660.193 920.969 664.076 921.544 668.161 921.157C676.405 920.376 684.846 915.762 688.036 909.514C688.365 908.869 689.154 908.614 689.799 908.943C690.443 909.272 690.699 910.061 690.37 910.705C686.644 918.001 677.223 922.93 668.408 923.765C663.964 924.186 659.519 923.587 655.897 921.604C652.233 919.598 649.496 916.216 648.493 911.294C648.272 910.21 648.032 909.477 647.797 909.004C647.681 908.773 647.58 908.631 647.505 908.547C647.468 908.507 647.44 908.483 647.422 908.47C647.407 908.458 647.398 908.453 647.395 908.452L647.391 908.452C647.388 908.452 647.383 908.452 647.374 908.452C647.34 908.454 647.259 908.466 647.122 908.524C646.83 908.647 646.426 908.913 645.888 909.384C644.82 910.32 643.541 911.774 641.949 913.584L641.91 913.629C640.327 915.428 638.486 917.516 636.38 919.576C632.178 923.687 626.824 927.787 620.109 929.371C613.342 930.966 605.381 929.964 596.082 924.226C595.466 923.846 595.275 923.039 595.655 922.423C596.035 921.807 596.842 921.616 597.457 921.996C606.264 927.43 613.519 928.233 619.508 926.82C625.548 925.396 630.488 921.674 634.548 917.703C636.574 915.721 638.356 913.702 639.942 911.898L640.086 911.735C641.589 910.026 642.963 908.463 644.162 907.413C644.781 906.871 645.433 906.392 646.105 906.109C646.799 905.817 647.625 905.692 648.448 906.053C649.234 906.399 649.765 907.08 650.142 907.835Z" fill="#1F3E37"/>
<path d="M572.219 857.883C573.881 864.764 576.691 866.972 582.044 871.638L550.603 875.568C559.211 869.383 563.981 865.656 572.219 857.883Z" fill="#64AD9C"/>
<path d="M479.862 864.433C481.525 871.314 483.024 874.832 488.377 879.498L458.246 882.118C466.854 875.934 471.624 872.206 479.862 864.433Z" fill="#64AD9C"/>
<path d="M521.783 871.638C527.985 877.028 530.379 871.957 530.953 878.188L509.338 880.808C517.946 874.624 513.545 879.411 521.783 871.638Z" fill="#64AD9C"/>
<path fill-rule="evenodd" clip-rule="evenodd" d="M574.797 858.396C575.12 859.186 575.342 860.19 575.495 861.391C575.982 865.215 579.354 868.175 585.234 870.225C591.047 872.252 598.877 873.219 607.345 873.329C624.304 873.55 643.309 870.335 652.886 865.866C653.542 865.56 654.321 865.843 654.627 866.499C654.933 867.155 654.65 867.934 653.994 868.24C643.921 872.941 624.475 876.172 607.31 875.949C598.716 875.837 590.566 874.859 584.371 872.699C578.244 870.563 573.58 867.092 572.896 861.722C572.756 860.625 572.571 859.876 572.372 859.388C572.274 859.148 572.183 858.999 572.114 858.91C572.081 858.867 572.055 858.841 572.038 858.827C572.023 858.814 572.015 858.809 572.012 858.807L572.009 858.807C572.005 858.806 572 858.806 571.991 858.806C571.957 858.805 571.876 858.811 571.734 858.859C571.435 858.959 571.011 859.195 570.44 859.625C569.305 860.478 567.922 861.834 566.2 863.52L566.158 863.562C564.446 865.239 562.454 867.184 560.202 869.082C555.705 872.869 550.062 876.56 543.248 877.641C536.832 878.658 529.545 877.336 521.4 871.927C516.989 878.624 507.486 882.641 498.848 882.815C494.385 882.905 489.997 881.977 486.532 879.731C483.028 877.458 480.55 873.882 479.915 868.899C479.775 867.802 479.59 867.053 479.39 866.564C479.292 866.324 479.202 866.175 479.133 866.087C479.1 866.044 479.074 866.018 479.057 866.003C479.042 865.99 479.033 865.985 479.031 865.984L479.027 865.983C479.024 865.983 479.018 865.982 479.01 865.982C478.976 865.981 478.895 865.988 478.753 866.035C478.453 866.136 478.03 866.371 477.459 866.801C476.324 867.655 474.941 869.01 473.219 870.696L473.176 870.738C471.464 872.415 469.473 874.361 467.22 876.258C462.724 880.046 457.081 883.737 450.266 884.817C443.399 885.906 435.535 884.315 426.688 877.902C426.102 877.477 425.971 876.658 426.396 876.073C426.82 875.487 427.639 875.356 428.225 875.781C436.603 881.853 443.779 883.193 449.856 882.23C455.985 881.258 461.189 877.913 465.532 874.254C467.7 872.428 469.627 870.547 471.343 868.867C471.395 868.816 471.446 868.765 471.498 868.715C473.124 867.122 474.61 865.666 475.884 864.708C476.541 864.213 477.227 863.784 477.918 863.552C478.632 863.312 479.466 863.248 480.26 863.67C481.018 864.072 481.496 864.792 481.816 865.573C482.139 866.363 482.361 867.366 482.514 868.568C483.05 872.778 485.093 875.675 487.958 877.532C490.863 879.416 494.693 880.278 498.796 880.195C506.949 880.032 515.568 876.175 519.311 870.334C519.052 869.898 519.061 869.332 519.377 868.896C519.802 868.31 520.621 868.18 521.206 868.604C529.585 874.677 536.761 876.017 542.837 875.053C548.966 874.081 554.17 870.737 558.514 867.078C560.681 865.252 562.608 863.371 564.324 861.69L564.479 861.538C566.105 859.945 567.591 858.489 568.865 857.531C569.523 857.036 570.209 856.607 570.9 856.375C571.613 856.135 572.447 856.071 573.241 856.493C573.999 856.896 574.478 857.615 574.797 858.396Z" fill="#1F3E37"/>
</svg>
