<svg width="1024" height="1024" viewBox="0 0 1024 1024" fill="none" xmlns="http://www.w3.org/2000/svg">
<path d="M903 795C903 827.033 728.167 853 512.5 853C296.833 853 122 827.033 122 795C122 762.967 296.833 737 512.5 737C728.167 737 903 762.967 903 795Z" fill="black" fill-opacity="0.05"/>
<path d="M492.142 265.215C448.8 12.2292 236.227 266.268 236.227 266.268C242.067 344.125 254.282 388.624 299.874 470.259C362.218 592.075 535.484 518.2 492.142 265.215Z" fill="#A6A6A6"/>
<path d="M131.35 403.938C238.454 174.02 363.498 176.52 620.222 218.29L351.747 627.667C348.964 577.654 328.898 523.895 290.34 523.895C248.451 518.659 166.311 621.639 220.841 653.372C247.023 663.369 250.355 608.15 257.019 608.15C263.136 608.762 269.341 612.868 273.051 617.175C279.34 614.763 286.922 613.702 290.34 616.719C298.433 623.859 295.577 737.152 203.705 736.675C111.833 736.199 66.1352 561.5 131.35 403.938Z" fill="#C7C7C7"/>
<path d="M281.676 682.518C281.387 682.989 281.533 683.605 282.004 683.894C282.474 684.184 283.09 684.037 283.38 683.567L281.676 682.518ZM257.019 608.15L257.251 607.177L257.161 607.156L257.069 607.151L257.019 608.15ZM235.623 649.515C235.246 649.918 235.268 650.551 235.672 650.928C236.075 651.305 236.708 651.283 237.085 650.879L235.623 649.515ZM283.38 683.567C283.918 682.691 284.573 681.108 285.281 679.082C286 677.027 286.801 674.436 287.623 671.488C289.266 665.591 291 658.23 292.324 650.804C293.647 643.386 294.567 635.866 294.567 629.664C294.567 626.565 294.338 623.756 293.797 621.437C293.261 619.14 292.39 617.193 291.002 615.969L289.679 617.468C290.609 618.29 291.351 619.757 291.849 621.891C292.342 624.004 292.567 626.645 292.567 629.664C292.567 635.698 291.669 643.087 290.355 650.453C289.043 657.812 287.323 665.111 285.696 670.951C284.882 673.871 284.094 676.419 283.393 678.421C282.683 680.452 282.089 681.847 281.676 682.518L283.38 683.567ZM291.002 615.969C288.362 613.638 284.372 613.181 280.413 613.649C276.411 614.122 272.194 615.566 268.841 617.348C267.162 618.24 265.672 619.231 264.523 620.251C263.396 621.251 262.497 622.367 262.168 623.529C261.998 624.131 261.976 624.763 262.179 625.382C262.381 626 262.781 626.527 263.324 626.96C264.378 627.799 266.05 628.353 268.31 628.658L268.577 626.676C266.434 626.386 265.198 625.895 264.57 625.395C264.273 625.158 264.139 624.941 264.08 624.761C264.021 624.581 264.012 624.361 264.093 624.073C264.267 623.458 264.828 622.655 265.851 621.747C266.851 620.859 268.199 619.954 269.779 619.114C272.943 617.433 276.923 616.075 280.647 615.635C284.415 615.189 287.682 615.707 289.679 617.468L291.002 615.969ZM268.31 628.658C270.572 628.964 272.381 628.943 273.764 628.607C275.161 628.268 276.219 627.578 276.762 626.493C277.294 625.434 277.225 624.213 276.861 623.037C276.495 621.853 275.798 620.596 274.892 619.345C273.077 616.838 270.307 614.195 267.199 611.99C264.093 609.786 260.578 607.97 257.251 607.177L256.787 609.123C259.788 609.837 263.067 611.511 266.042 613.621C269.014 615.73 271.612 618.225 273.272 620.518C274.104 621.666 274.671 622.725 274.95 623.627C275.232 624.538 275.187 625.174 274.975 625.597C274.775 625.995 274.321 626.414 273.293 626.663C272.25 626.917 270.718 626.965 268.577 626.676L268.31 628.658ZM257.069 607.151C255.849 607.09 254.864 607.73 254.089 608.625C253.323 609.509 252.661 610.75 252.051 612.186C250.829 615.059 249.674 619.061 248.335 623.404C245.625 632.197 242.108 642.567 235.623 649.515L237.085 650.879C243.929 643.547 247.552 632.734 250.246 623.993C251.61 619.57 252.722 615.718 253.891 612.969C254.476 611.593 255.04 610.581 255.601 609.934C256.151 609.298 256.593 609.13 256.969 609.149L257.069 607.151Z" fill="black"/>
<path d="M446.46 763.359C435.709 750.259 440.316 605.77 440.316 605.77L543.601 643.53C543.601 643.53 553.2 749.873 543.601 763.359C534.002 776.844 457.211 776.459 446.46 763.359Z" fill="#A6A6A6"/>
<path d="M677.805 770.023C667.054 756.923 671.662 612.434 671.662 612.434L774.947 650.194C774.947 650.194 784.545 756.538 774.947 770.023C765.348 783.509 688.556 783.123 677.805 770.023Z" fill="#A6A6A6"/>
<path d="M358.887 800.462C345.559 784.277 351.271 605.77 351.271 605.77L479.32 652.42C479.32 652.42 491.221 783.801 479.32 800.462C467.42 817.123 372.216 816.647 358.887 800.462Z" fill="#C7C7C7"/>
<path d="M869.709 807.126C883.037 790.942 878.98 612.115 878.98 612.115L749.276 659.084C749.276 659.084 737.375 790.466 749.276 807.126C761.176 823.787 856.38 823.311 869.709 807.126Z" fill="#C7C7C7"/>
<path d="M426.006 196.393C389.352 263.988 351.271 604.342 351.271 604.342C350.319 642.9 653.543 785.706 878.701 629.095C927.731 118.326 543.107 245.423 426.006 196.393Z" fill="#C7C7C7"/>
<path d="M623.554 258.752C606.417 2.65335 368.884 233.523 368.884 233.523C366.698 311.568 374.28 357.087 411.249 442.971C460.755 570.545 640.691 514.85 623.554 258.752Z" fill="#C7C7C7"/>
<path d="M368.884 233.523C368.884 233.523 606.418 2.65335 623.554 258.752C640.691 514.85 460.756 570.545 411.25 442.971" stroke="black" stroke-width="2"/>
<path d="M359.643 800.143C359.643 800.143 352.173 766.795 373.882 769.697C395.591 772.598 386.743 808.97 386.743 808.97" stroke="black" stroke-width="2" stroke-linecap="round"/>
<path d="M391.238 809.663C391.238 809.663 381.809 770.747 403.606 772.895C425.402 775.044 417.817 811.701 417.817 811.701" stroke="black" stroke-width="2" stroke-linecap="round"/>
<path d="M781.063 816.489C781.063 816.489 771.633 777.572 793.43 779.721C815.226 781.87 807.641 818.527 807.641 818.527" stroke="black" stroke-width="2" stroke-linecap="round"/>
<path d="M749.503 805.856C749.503 805.856 740.216 774.716 762.013 776.865C783.809 779.014 776.224 815.671 776.224 815.671" stroke="black" stroke-width="2" stroke-linecap="round"/>
<path d="M814.045 818.374C814.045 818.374 800.102 780.838 822 780.407C843.897 779.976 840.679 817.27 840.679 817.27" stroke="black" stroke-width="2" stroke-linecap="round"/>
<path fill-rule="evenodd" clip-rule="evenodd" d="M331.486 362.128C331.486 362.128 331.486 362.129 330.368 362.167L331.486 362.129C331.507 362.746 331.024 363.264 330.407 363.285C329.79 363.306 329.272 362.823 329.251 362.206L329.25 362.2L329.249 362.176L329.245 362.078C329.241 361.989 329.235 361.857 329.226 361.683C329.206 361.336 329.175 360.823 329.123 360.17C329.021 358.863 328.842 356.996 328.535 354.762C327.921 350.288 326.798 344.373 324.769 338.561C322.735 332.736 319.821 327.101 315.674 323.104C311.563 319.143 306.216 316.761 299.159 317.427C292.114 318.092 287.147 321.561 283.612 326.449C280.052 331.373 277.944 337.746 276.736 344.132C275.531 350.505 275.236 356.808 275.244 361.528C275.249 363.885 275.329 365.84 275.407 367.205C275.447 367.886 275.486 368.42 275.515 368.782C275.529 368.962 275.541 369.1 275.549 369.192L275.559 369.294L275.561 369.319L275.562 369.325C275.562 369.325 275.562 369.325 275.562 369.325C275.623 369.939 275.175 370.488 274.56 370.55C273.946 370.611 273.398 370.163 273.336 369.548L274.449 369.437C273.336 369.548 273.336 369.548 273.336 369.547L273.336 369.545L273.335 369.536L273.332 369.507L273.322 369.393C273.313 369.294 273.3 369.149 273.285 368.96C273.255 368.583 273.215 368.033 273.174 367.333C273.094 365.934 273.012 363.936 273.008 361.532C272.999 356.728 273.298 350.274 274.539 343.716C275.777 337.171 277.968 330.437 281.8 325.139C285.657 319.804 291.175 315.934 298.949 315.2C306.709 314.468 312.686 317.119 317.226 321.494C321.728 325.832 324.79 331.835 326.881 337.824C328.976 343.824 330.125 349.897 330.751 354.457C331.065 356.741 331.248 358.652 331.353 359.995C331.406 360.667 331.439 361.197 331.459 361.56C331.469 361.742 331.476 361.883 331.48 361.978L331.484 362.088L331.486 362.117L331.486 362.125L331.486 362.128Z" fill="black"/>
<path fill-rule="evenodd" clip-rule="evenodd" d="M331.486 362.128C331.486 362.128 331.486 362.129 330.368 362.167L331.486 362.129C331.507 362.746 331.024 363.264 330.407 363.285C329.79 363.306 329.272 362.823 329.251 362.206L329.25 362.2L329.249 362.176L329.245 362.078C329.241 361.989 329.235 361.857 329.226 361.683C329.206 361.336 329.175 360.823 329.123 360.17C329.021 358.863 328.842 356.996 328.535 354.762C327.921 350.288 326.798 344.373 324.769 338.561C322.735 332.736 319.821 327.101 315.674 323.104C311.563 319.143 306.216 316.761 299.159 317.427C292.114 318.092 287.147 321.561 283.612 326.449C280.052 331.373 277.944 337.746 276.736 344.132C275.531 350.505 275.236 356.808 275.244 361.528C275.249 363.885 275.329 365.84 275.407 367.205C275.447 367.886 275.486 368.42 275.515 368.782C275.529 368.962 275.541 369.1 275.549 369.192L275.559 369.294L275.561 369.319L275.562 369.325C275.562 369.325 275.562 369.325 275.562 369.325C275.623 369.939 275.175 370.488 274.56 370.55C273.946 370.611 273.398 370.163 273.336 369.548L274.449 369.437C273.336 369.548 273.336 369.548 273.336 369.547L273.336 369.545L273.335 369.536L273.332 369.507L273.322 369.393C273.313 369.294 273.3 369.149 273.285 368.96C273.255 368.583 273.215 368.033 273.174 367.333C273.094 365.934 273.012 363.936 273.008 361.532C272.999 356.728 273.298 350.274 274.539 343.716C275.777 337.171 277.968 330.437 281.8 325.139C285.657 319.804 291.175 315.934 298.949 315.2C306.709 314.468 312.686 317.119 317.226 321.494C321.728 325.832 324.79 331.835 326.881 337.824C328.976 343.824 330.125 349.897 330.751 354.457C331.065 356.741 331.248 358.652 331.353 359.995C331.406 360.667 331.439 361.197 331.459 361.56C331.469 361.742 331.476 361.883 331.48 361.978L331.484 362.088L331.486 362.117L331.486 362.125L331.486 362.128Z" fill="black"/>
<path d="M298.713 524.052C317.448 517.646 327.119 512.948 338.223 496.443" stroke="black" stroke-width="2" stroke-linecap="round"/>
<path d="M481.98 697.799C482.923 675.559 481.307 663.442 476.744 642.105" stroke="black" stroke-width="2" stroke-linecap="round"/>
<path d="M747.124 702.56C746.025 686.815 746.683 678.186 749.504 663.05" stroke="black" stroke-width="2" stroke-linecap="round"/>
<path d="M935.926 526.728C935.913 446.622 893.895 411.973 840.921 350.305L846.026 372.161C896.358 423.956 925.82 452.38 927.185 528.367C927.185 528.367 923.917 536.077 924.034 541.497C924.151 546.916 930.691 556.978 934.656 556.303C938.621 555.627 936.869 547.692 936.659 543.033L935.926 526.728Z" fill="#C7C7C7"/>
<path fill-rule="evenodd" clip-rule="evenodd" d="M826.379 343.827C826.821 343.499 827.443 343.596 827.769 344.041C833.116 351.365 835.101 355.827 837.588 363.988C837.749 364.517 837.454 365.077 836.929 365.239C836.404 365.4 835.848 365.102 835.687 364.573C833.256 356.594 831.363 352.343 826.168 345.227C825.842 344.781 825.936 344.154 826.379 343.827Z" fill="black"/>
<path fill-rule="evenodd" clip-rule="evenodd" d="M822.678 358.069C823.121 357.741 823.743 357.837 824.068 358.283C829.416 365.607 831.401 370.068 833.888 378.23C834.049 378.759 833.754 379.319 833.229 379.48C832.704 379.642 832.148 379.344 831.987 378.815C829.556 370.835 827.663 366.584 822.467 359.469C822.142 359.023 822.236 358.396 822.678 358.069Z" fill="black"/>
<path fill-rule="evenodd" clip-rule="evenodd" d="M840.299 370.289C840.741 369.961 841.363 370.057 841.689 370.503C847.037 377.827 849.022 382.288 851.508 390.449C851.669 390.979 851.375 391.539 850.85 391.7C850.325 391.862 849.769 391.564 849.607 391.035C847.176 383.055 845.283 378.804 840.088 371.689C839.762 371.243 839.857 370.616 840.299 370.289Z" fill="black"/>
<path fill-rule="evenodd" clip-rule="evenodd" d="M786.601 303.489C786.972 303.083 787.601 303.058 788.006 303.434C794.654 309.601 797.455 313.601 801.455 321.137C801.715 321.625 801.532 322.231 801.048 322.49C800.564 322.749 799.961 322.563 799.701 322.075C795.79 314.706 793.12 310.895 786.661 304.904C786.256 304.528 786.229 303.895 786.601 303.489Z" fill="black"/>
<path fill-rule="evenodd" clip-rule="evenodd" d="M785.69 318.175C786.061 317.769 786.691 317.745 787.095 318.12C793.744 324.287 796.545 328.287 800.545 335.823C800.804 336.312 800.622 336.918 800.137 337.177C799.653 337.436 799.05 337.249 798.791 336.761C794.88 329.393 792.21 325.582 785.75 319.59C785.346 319.215 785.319 318.581 785.69 318.175Z" fill="black"/>
<path fill-rule="evenodd" clip-rule="evenodd" d="M805.321 326.803C805.692 326.397 806.321 326.373 806.726 326.748C813.375 332.915 816.175 336.915 820.175 344.451C820.435 344.94 820.252 345.546 819.768 345.805C819.284 346.064 818.681 345.878 818.422 345.389C814.51 338.021 811.84 334.21 805.381 328.218C804.976 327.843 804.949 327.209 805.321 326.803Z" fill="black"/>
<path fill-rule="evenodd" clip-rule="evenodd" d="M750.767 265.738C751.033 265.256 751.639 265.085 752.121 265.356C760.027 269.797 763.685 273.031 769.336 279.423C769.703 279.837 769.667 280.469 769.257 280.834C768.847 281.199 768.217 281.159 767.851 280.745C762.325 274.496 758.838 271.415 751.157 267.099C750.675 266.829 750.501 266.219 750.767 265.738Z" fill="black"/>
<path fill-rule="evenodd" clip-rule="evenodd" d="M753.315 280.23C753.582 279.749 754.188 279.578 754.669 279.848C762.575 284.29 766.234 287.524 771.885 293.915C772.251 294.33 772.216 294.962 771.805 295.327C771.395 295.692 770.765 295.652 770.399 295.237C764.873 288.988 761.386 285.907 753.705 281.592C753.224 281.321 753.049 280.712 753.315 280.23Z" fill="black"/>
<path fill-rule="evenodd" clip-rule="evenodd" d="M774.419 284.029C774.686 283.547 775.292 283.376 775.773 283.647C783.679 288.088 787.338 291.323 792.989 297.714C793.355 298.128 793.32 298.76 792.909 299.125C792.499 299.49 791.869 299.45 791.503 299.036C785.977 292.787 782.49 289.706 774.809 285.39C774.328 285.12 774.153 284.51 774.419 284.029Z" fill="black"/>
<path fill-rule="evenodd" clip-rule="evenodd" d="M486.603 630.163C487.001 629.783 487.631 629.802 488.009 630.204C494.223 636.808 496.746 640.989 500.225 648.779C500.451 649.284 500.227 649.876 499.727 650.102C499.226 650.327 498.637 650.101 498.411 649.596C495.01 641.979 492.605 637.995 486.567 631.579C486.189 631.177 486.205 630.543 486.603 630.163Z" fill="black"/>
<path fill-rule="evenodd" clip-rule="evenodd" d="M484.697 644.754C485.095 644.374 485.724 644.392 486.103 644.794C492.317 651.399 494.84 655.58 498.319 663.37C498.544 663.875 498.321 664.467 497.82 664.692C497.32 664.918 496.731 664.691 496.505 664.186C493.103 656.57 490.698 652.586 484.661 646.17C484.283 645.767 484.299 645.134 484.697 644.754Z" fill="black"/>
<path fill-rule="evenodd" clip-rule="evenodd" d="M503.697 654.695C504.095 654.315 504.724 654.333 505.103 654.736C511.317 661.34 513.84 665.521 517.319 673.311C517.544 673.816 517.321 674.408 516.82 674.634C516.32 674.859 515.731 674.632 515.505 674.127C512.103 666.511 509.698 662.527 503.661 656.111C503.283 655.709 503.299 655.075 503.697 654.695Z" fill="black"/>
<path fill-rule="evenodd" clip-rule="evenodd" d="M139.889 690.322C139.439 690.638 138.819 690.525 138.506 690.07C133.357 682.606 131.492 678.093 129.225 669.868C129.079 669.335 129.388 668.783 129.917 668.635C130.446 668.488 130.994 668.8 131.141 669.333C133.357 677.376 135.135 681.676 140.138 688.928C140.451 689.383 140.34 690.007 139.889 690.322Z" fill="black"/>
<path fill-rule="evenodd" clip-rule="evenodd" d="M143.97 676.185C143.52 676.5 142.9 676.388 142.587 675.933C137.438 668.468 135.573 663.955 133.307 655.73C133.16 655.197 133.469 654.645 133.998 654.498C134.527 654.35 135.075 654.663 135.222 655.196C137.439 663.238 139.216 667.538 144.219 674.791C144.532 675.245 144.421 675.869 143.97 676.185Z" fill="black"/>
<path fill-rule="evenodd" clip-rule="evenodd" d="M126.684 663.496C126.233 663.812 125.614 663.699 125.3 663.245C120.151 655.78 118.287 651.267 116.02 643.042C115.873 642.509 116.183 641.957 116.712 641.809C117.241 641.662 117.789 641.974 117.936 642.508C120.152 650.55 121.93 654.85 126.932 662.102C127.246 662.557 127.135 663.181 126.684 663.496Z" fill="black"/>
<path fill-rule="evenodd" clip-rule="evenodd" d="M115.776 634.97C115.255 635.147 114.692 634.866 114.517 634.342C111.651 625.739 111.118 620.885 111.232 612.354C111.24 611.801 111.691 611.357 112.24 611.363C112.789 611.369 113.228 611.822 113.221 612.375C113.109 620.716 113.619 625.341 116.403 633.7C116.577 634.224 116.297 634.792 115.776 634.97Z" fill="black"/>
<path fill-rule="evenodd" clip-rule="evenodd" d="M123.634 622.529C123.113 622.706 122.549 622.425 122.375 621.901C119.509 613.298 118.976 608.444 119.09 599.913C119.097 599.36 119.549 598.916 120.098 598.922C120.647 598.928 121.086 599.381 121.079 599.934C120.967 608.275 121.477 612.9 124.261 621.259C124.435 621.783 124.155 622.351 123.634 622.529Z" fill="black"/>
<path fill-rule="evenodd" clip-rule="evenodd" d="M110.566 605.527C110.046 605.704 109.482 605.424 109.308 604.9C106.442 596.296 105.908 591.442 106.023 582.912C106.03 582.359 106.481 581.915 107.03 581.92C107.58 581.926 108.019 582.379 108.011 582.932C107.9 591.273 108.409 595.899 111.194 604.257C111.368 604.781 111.087 605.35 110.566 605.527Z" fill="black"/>
</svg>
