<svg width="1024" height="1024" viewBox="0 0 1024 1024" fill="none" xmlns="http://www.w3.org/2000/svg">
<path d="M987 783.5C987 841.766 768.963 889 500 889C231.037 889 13 841.766 13 783.5C13 725.234 231.037 678 500 678C768.963 678 987 725.234 987 783.5Z" fill="black" fill-opacity="0.05"/>
<path d="M309.873 464.771C309.873 464.771 241.287 416.732 183.196 483.197C125.105 549.661 195.892 624.125 203.456 636.602C211.02 649.08 213.262 689.899 190.758 698.933C168.253 707.967 107.381 718.604 107.472 730.523C107.507 735.154 118.397 735.97 131.683 735.118C125.52 737.812 121.455 741.185 121.939 745.288C122.736 752.036 135.098 753.366 148.41 752.619C141.374 755.621 136.112 759.804 136.364 765.408C137.1 781.759 225.574 760.887 239.47 751.508C253.367 742.129 297.356 734.448 298.722 729.723C300.088 724.999 309.873 464.771 309.873 464.771Z" fill="#9DBD7C"/>
<path d="M654.688 474.21C654.688 474.21 731.685 424.643 803.668 490.009C875.651 555.375 797.754 631.461 789.716 644.121C781.678 656.78 781.641 697.722 808.471 706.299C835.301 714.877 907.004 724.255 907.65 736.198C907.902 740.838 895.246 741.885 879.689 741.31C887.051 743.88 892.007 747.174 891.701 751.294C891.198 758.071 876.857 759.663 861.276 759.194C869.676 762.054 876.08 766.134 876.14 771.754C876.314 788.15 771.758 769.098 754.949 759.994C738.141 750.89 686.327 744.118 684.435 739.414C682.542 734.709 654.688 474.21 654.688 474.21Z" fill="#9DBD7C"/>
<path fill-rule="evenodd" clip-rule="evenodd" d="M786.691 539.305C786.95 539.793 786.764 540.398 786.276 540.657C779.033 544.498 773.985 548.455 769.777 553.915C765.551 559.397 762.133 566.446 758.231 576.548C758.032 577.063 757.453 577.32 756.937 577.121C756.422 576.922 756.166 576.343 756.365 575.828C760.285 565.679 763.787 558.411 768.193 552.694C772.617 546.954 777.912 542.829 785.339 538.89C785.827 538.631 786.432 538.817 786.691 539.305Z" fill="black"/>
<path fill-rule="evenodd" clip-rule="evenodd" d="M739.275 515.488C739.79 515.291 740.369 515.55 740.566 516.065C743.494 523.724 746.804 529.218 751.709 534.061C756.634 538.925 763.213 543.178 772.762 548.286C773.249 548.546 773.433 549.152 773.173 549.639C772.912 550.126 772.306 550.31 771.819 550.049C762.226 544.919 755.44 540.556 750.304 535.484C745.147 530.392 741.7 524.632 738.698 516.78C738.5 516.264 738.759 515.686 739.275 515.488Z" fill="black"/>
<path fill-rule="evenodd" clip-rule="evenodd" d="M208.835 532.206C208.576 532.694 208.762 533.299 209.25 533.558C216.493 537.4 221.541 541.357 225.749 546.816C229.975 552.299 233.393 559.348 237.295 569.45C237.494 569.965 238.073 570.221 238.588 570.022C239.104 569.823 239.36 569.244 239.161 568.729C235.241 558.581 231.739 551.312 227.333 545.595C222.909 539.855 217.614 535.73 210.187 531.791C209.699 531.532 209.093 531.718 208.835 532.206Z" fill="black"/>
<path fill-rule="evenodd" clip-rule="evenodd" d="M256.251 508.39C255.735 508.193 255.157 508.451 254.96 508.967C252.032 516.626 248.722 522.119 243.817 526.962C238.891 531.826 232.313 536.08 222.763 541.187C222.276 541.448 222.093 542.053 222.353 542.54C222.614 543.027 223.22 543.211 223.707 542.951C233.3 537.82 240.086 533.457 245.222 528.386C250.379 523.294 253.826 517.534 256.828 509.681C257.025 509.165 256.767 508.587 256.251 508.39Z" fill="black"/>
<path d="M753.566 581.23C753.566 637.95 759.638 647.498 720.706 682.62C687.903 712.212 622.864 772.297 498.234 770.46C377.231 768.677 298.343 721.006 264.706 693.62C222.577 659.32 242.901 639.341 242.901 581.23C242.901 476.721 357.217 392 498.234 392C639.25 392 753.566 476.721 753.566 581.23Z" fill="#FFEDBF"/>
<path d="M314.518 724.534C281.362 694.304 268.198 562.171 335.971 510L378.39 484.646L318.418 400.782C220.174 506.918 216.027 560.708 228.216 731.848C237.968 760.127 173.12 806.935 196.036 828.876C218.952 850.817 250.157 763.053 265.76 765.491C281.362 767.929 264.297 845.454 295.502 844.479C326.707 843.503 299.89 774.755 310.617 767.929C321.344 761.103 368.151 841.066 388.142 812.298C408.133 783.531 347.673 754.764 314.518 724.534Z" fill="#AECC8E"/>
<path d="M278.172 682.056C262.689 687.72 267.432 563.129 280.322 563.931C293.213 564.733 280.586 592.801 280.538 623.111C280.496 649.921 285.439 679.397 278.172 682.056Z" fill="white" fill-opacity="0.75"/>
<path d="M379.502 822.182C384.553 830.139 397.651 834.731 405.114 826.138C412.577 817.545 425.775 809.558 412.435 801.279C399.094 792.999 395.917 791.55 386.823 797.322C377.729 803.095 374.452 814.225 379.502 822.182Z" fill="#A2BC86"/>
<path opacity="0.7" fill-rule="evenodd" clip-rule="evenodd" d="M391.496 794.172C391.179 793.719 390.556 793.609 390.103 793.925C386.667 796.327 384.106 798.442 382.071 801.107C380.032 803.777 378.567 806.939 377.222 811.373C377.062 811.902 377.36 812.46 377.889 812.621C378.417 812.781 378.976 812.482 379.136 811.954C380.44 807.652 381.817 804.735 383.661 802.321C385.509 799.901 387.871 797.925 391.249 795.564C391.701 795.248 391.812 794.625 391.496 794.172Z" fill="black"/>
<path d="M279.282 837.577C276.794 846.667 282.208 859.447 293.587 859.187C304.965 858.927 319.754 863.318 316.904 847.878C314.054 832.437 312.989 829.112 302.6 826.268C292.211 823.423 281.771 828.487 279.282 837.577Z" fill="#A2BC86"/>
<path opacity="0.7" fill-rule="evenodd" clip-rule="evenodd" d="M308.074 827.605C308.196 827.066 307.858 826.531 307.319 826.409C303.231 825.483 299.943 825.011 296.602 825.298C293.255 825.586 289.93 826.629 285.744 828.618C285.245 828.855 285.033 829.451 285.27 829.95C285.507 830.449 286.104 830.661 286.602 830.424C290.663 828.495 293.747 827.551 296.774 827.291C299.807 827.03 302.858 827.449 306.877 828.359C307.416 828.481 307.952 828.144 308.074 827.605Z" fill="black"/>
<path d="M185.596 816.012C178.434 821.49 175.691 833.089 185.189 837.876C194.687 842.662 204.369 852.299 210.718 839.9C217.066 827.5 218.061 824.632 211.124 818.036C204.187 811.439 192.758 810.533 185.596 816.012Z" fill="#A2BC86"/>
<path opacity="0.7" fill-rule="evenodd" clip-rule="evenodd" d="M214.968 821.479C215.332 821.082 215.281 820.46 214.853 820.09C212.005 817.626 209.553 815.836 206.63 814.576C203.708 813.318 200.389 812.619 195.838 812.226C195.277 812.178 194.802 812.577 194.777 813.117C194.752 813.657 195.187 814.135 195.748 814.183C200.179 814.565 203.245 815.233 205.871 816.365C208.496 817.496 210.752 819.12 213.533 821.527C213.961 821.897 214.603 821.875 214.968 821.479Z" fill="black"/>
<path fill-rule="evenodd" clip-rule="evenodd" d="M267.93 719.547C259.821 721.752 252.214 726.765 242.605 734.758C242.18 735.112 241.55 735.054 241.197 734.629C240.843 734.205 240.901 733.574 241.326 733.221C250.982 725.188 258.864 719.94 267.406 717.617C275.975 715.288 285.083 715.933 297.139 719.414C297.669 719.567 297.975 720.121 297.822 720.652C297.669 721.182 297.115 721.488 296.584 721.335C284.72 717.91 276.013 717.35 267.93 719.547Z" fill="black"/>
<g opacity="0.75">
<path fill-rule="evenodd" clip-rule="evenodd" d="M253.102 655.707C252.573 655.76 252.063 655.359 251.962 654.81C250.312 645.794 250.432 640.954 251.666 632.688C251.746 632.152 252.242 631.823 252.775 631.954C253.307 632.085 253.674 632.625 253.594 633.161C252.388 641.243 252.274 645.856 253.878 654.615C253.979 655.164 253.631 655.653 253.102 655.707Z" fill="white"/>
<path fill-rule="evenodd" clip-rule="evenodd" d="M262.369 645.404C261.84 645.458 261.329 645.056 261.229 644.508C259.578 635.491 259.699 630.652 260.932 622.385C261.012 621.849 261.509 621.521 262.041 621.651C262.574 621.782 262.941 622.322 262.861 622.858C261.655 630.941 261.541 635.553 263.145 644.313C263.245 644.862 262.898 645.35 262.369 645.404Z" fill="white"/>
<path fill-rule="evenodd" clip-rule="evenodd" d="M251.917 625.9C251.388 625.953 250.878 625.552 250.777 625.003C249.127 615.987 249.247 611.147 250.481 602.881C250.561 602.345 251.057 602.016 251.59 602.147C252.122 602.277 252.489 602.818 252.409 603.354C251.203 611.436 251.089 616.049 252.693 624.808C252.794 625.357 252.446 625.846 251.917 625.9Z" fill="white"/>
</g>
<path d="M671.421 724.948C706.082 696.851 726.779 566.433 662.507 510.727L621.858 483.107L686.238 403.312C777.645 514.352 778.657 567.992 756.676 737.191C745.363 764.703 807.039 814.915 783.022 835.375C759.005 855.834 733.093 766.903 717.462 768.423C701.832 769.943 714.298 847.892 683.375 845.122C652.452 842.353 683.044 775.65 672.789 768.254C662.533 760.858 611.448 837.54 593.263 807.827C575.077 778.114 636.761 753.045 671.421 724.948Z" fill="#AECC8E"/>
<g opacity="0.75">
<path fill-rule="evenodd" clip-rule="evenodd" d="M726.285 591.636C725.791 591.825 725.197 591.573 724.958 591.072C721.026 582.848 719.881 578.172 718.913 569.917C718.85 569.382 719.241 568.937 719.786 568.924C720.331 568.911 720.824 569.334 720.887 569.869C721.834 577.94 722.926 582.397 726.746 590.386C726.985 590.887 726.779 591.446 726.285 591.636Z" fill="white"/>
<path fill-rule="evenodd" clip-rule="evenodd" d="M732.497 579.335C732.003 579.524 731.409 579.272 731.169 578.771C727.237 570.548 726.093 565.871 725.124 557.616C725.062 557.081 725.453 556.637 725.998 556.623C726.543 556.61 727.036 557.033 727.098 557.568C728.045 565.64 729.137 570.096 732.957 578.085C733.197 578.586 732.99 579.146 732.497 579.335Z" fill="white"/>
<path fill-rule="evenodd" clip-rule="evenodd" d="M717.387 563.337C716.893 563.526 716.299 563.274 716.059 562.773C712.127 554.549 710.983 549.873 710.014 541.618C709.952 541.083 710.343 540.638 710.888 540.625C711.433 540.612 711.926 541.035 711.988 541.57C712.936 549.641 714.027 554.098 717.847 562.087C718.087 562.588 717.88 563.147 717.387 563.337Z" fill="white"/>
</g>
<path d="M694.016 532.459C705.563 524.609 727.394 626.554 716.641 628.619C705.888 630.684 710.463 605.284 704.244 580.716C698.743 558.985 688.597 536.144 694.016 532.459Z" fill="white" fill-opacity="0.75"/>
<path fill-rule="evenodd" clip-rule="evenodd" d="M722.168 719.036C714.118 716.797 705.069 717.211 692.792 719.156C692.247 719.242 691.735 718.87 691.648 718.325C691.562 717.779 691.934 717.267 692.479 717.18C704.817 715.226 714.222 714.75 722.704 717.109C731.213 719.477 738.669 724.661 747.202 733.767C747.58 734.17 747.559 734.803 747.156 735.18C746.753 735.558 746.12 735.538 745.743 735.135C737.346 726.174 730.192 721.268 722.168 719.036Z" fill="black"/>
<path d="M602.017 822.067C596.544 829.675 583.276 833.478 576.363 824.516C569.45 815.554 556.808 806.863 570.53 799.414C584.252 791.964 587.49 790.709 596.185 796.965C604.88 803.22 607.491 814.459 602.017 822.067Z" fill="#A2BC86"/>
<path fill-rule="evenodd" clip-rule="evenodd" d="M591.724 793.564C592.066 793.13 592.695 793.056 593.128 793.398C596.401 795.98 598.822 798.229 600.689 800.993C602.559 803.762 603.832 806.986 604.911 811.467C605.04 812.004 604.71 812.544 604.173 812.673C603.636 812.802 603.096 812.472 602.967 811.935C601.92 807.59 600.722 804.615 599.031 802.112C597.337 799.604 595.106 797.507 591.889 794.968C591.456 794.626 591.382 793.997 591.724 793.564Z" fill="black"/>
<path d="M700.623 843.136C702.569 852.304 696.456 864.679 685.175 863.764C673.894 862.849 658.958 866.355 662.679 851.19C666.399 836.026 667.649 832.787 678.127 830.562C688.605 828.338 698.677 833.968 700.623 843.136Z" fill="#A2BC86"/>
<path fill-rule="evenodd" clip-rule="evenodd" d="M672.61 831.575C672.52 831.03 672.888 830.515 673.433 830.424C677.545 829.741 680.837 829.462 684.138 829.94C687.446 830.42 690.687 831.647 694.728 833.863C695.212 834.129 695.389 834.737 695.124 835.221C694.858 835.705 694.25 835.883 693.766 835.617C689.847 833.468 686.84 832.353 683.851 831.92C680.856 831.486 677.803 831.725 673.761 832.397C673.216 832.488 672.701 832.119 672.61 831.575Z" fill="black"/>
<path d="M794.877 827.134C801.67 832.987 803.724 844.66 794.018 848.864C784.313 853.067 774.144 862.076 768.558 849.399C762.971 836.723 762.148 833.818 769.416 827.67C776.684 821.522 788.083 821.282 794.877 827.134Z" fill="#A2BC86"/>
<path fill-rule="evenodd" clip-rule="evenodd" d="M765.397 830.87C765.057 830.453 765.144 829.835 765.592 829.49C768.562 827.208 771.101 825.572 774.076 824.49C777.05 823.409 780.386 822.907 784.927 822.78C785.49 822.764 785.941 823.19 785.935 823.731C785.928 824.272 785.467 824.723 784.903 824.739C780.483 824.862 777.401 825.348 774.729 826.32C772.06 827.29 769.726 828.773 766.826 831.001C766.378 831.346 765.738 831.287 765.397 830.87Z" fill="black"/>
<path fill-rule="evenodd" clip-rule="evenodd" d="M381.444 745.247C381.255 745.864 380.566 746.246 379.904 746.1C369.046 743.699 363.692 741.284 355.03 736.012C354.468 735.67 354.335 734.96 354.732 734.426C355.129 733.893 355.906 733.737 356.467 734.079C364.936 739.234 370.04 741.533 380.589 743.866C381.25 744.012 381.633 744.631 381.444 745.247Z" fill="black"/>
<path fill-rule="evenodd" clip-rule="evenodd" d="M374.29 730.034C374.101 730.651 373.411 731.032 372.75 730.886C361.892 728.485 356.537 726.071 347.876 720.799C347.314 720.457 347.181 719.747 347.578 719.213C347.975 718.679 348.752 718.523 349.313 718.865C357.782 724.02 362.885 726.32 373.435 728.652C374.096 728.799 374.479 729.417 374.29 730.034Z" fill="black"/>
<path fill-rule="evenodd" clip-rule="evenodd" d="M347.559 732.534C347.37 733.15 346.681 733.532 346.02 733.386C335.161 730.985 329.807 728.571 321.145 723.298C320.584 722.956 320.45 722.246 320.847 721.713C321.244 721.179 322.021 721.023 322.583 721.365C331.052 726.52 336.155 728.819 346.704 731.152C347.365 731.298 347.748 731.917 347.559 732.534Z" fill="black"/>
<path fill-rule="evenodd" clip-rule="evenodd" d="M674.625 700.251C674.976 700.793 674.824 701.566 674.287 701.978C665.46 708.743 660.166 711.287 650.556 714.523C649.933 714.732 649.304 714.378 649.151 713.73C648.998 713.083 649.379 712.388 650.002 712.178C659.398 709.015 664.443 706.589 673.018 700.016C673.555 699.605 674.275 699.71 674.625 700.251Z" fill="black"/>
<path fill-rule="evenodd" clip-rule="evenodd" d="M658.377 695.935C658.727 696.477 658.576 697.25 658.038 697.662C649.212 704.427 643.918 706.971 634.308 710.206C633.685 710.416 633.055 710.061 632.902 709.414C632.749 708.766 633.13 708.072 633.753 707.862C643.15 704.698 648.194 702.273 656.769 695.7C657.307 695.288 658.026 695.393 658.377 695.935Z" fill="black"/>
<path fill-rule="evenodd" clip-rule="evenodd" d="M643.085 718.002C643.436 718.543 643.284 719.316 642.747 719.728C633.92 726.493 628.626 729.037 619.016 732.273C618.393 732.482 617.764 732.128 617.611 731.48C617.458 730.833 617.839 730.138 618.462 729.928C627.858 726.765 632.903 724.339 641.478 717.767C642.015 717.355 642.735 717.46 643.085 718.002Z" fill="black"/>
<path d="M568.713 173.15C568.713 173.15 628.636 119.922 668.585 126.576C772.489 139.012 751.576 257.421 731.837 292.912C751.811 309.545 749.777 349.705 721.85 382.732C721.85 382.732 643.324 518.789 491.296 518.789C339.267 518.789 282.413 376.079 282.413 376.079C262.83 342.641 257.75 307.731 279.084 276.277C240.205 178.434 282.414 126.576 345.665 126.576C408.917 126.576 442.208 173.15 442.208 173.15C452.986 173.15 474.894 188.704 500.169 188.704C532.819 188.704 568.713 173.15 568.713 173.15Z" fill="#FFEDBF"/>
<path d="M568.713 173.15C568.713 173.15 628.636 119.922 668.585 126.576C772.489 139.012 751.576 257.421 731.837 292.912C740 300.5 754.059 316.625 738.5 355C744 333.5 691.831 356.113 590.676 362.028C590.676 362.028 536.796 352.957 508.451 353.155C479.606 353.356 432.189 358.392 401.38 364.394C340.373 357.163 267.773 337.396 271.155 352.109C271.269 352.456 271.384 352.804 271.5 353.155C271.346 352.788 271.231 352.44 271.155 352.109C257.645 310.785 266.292 297.932 279.084 276.277C240.205 178.434 282.414 126.576 345.665 126.576C408.917 126.576 442.208 173.15 442.208 173.15C453.491 173.15 475.915 179.831 498.986 179.239C522.056 178.648 568.713 173.15 568.713 173.15Z" fill="#AECC8E"/>
<path fill-rule="evenodd" clip-rule="evenodd" d="M603.524 489.758C603.876 490.32 603.705 491.06 603.143 491.412C562.401 516.909 531.369 528.321 501.109 528.27C470.866 528.22 441.583 516.718 404.364 496.827C403.779 496.514 403.559 495.787 403.871 495.203C404.183 494.618 404.91 494.397 405.495 494.71C442.645 514.564 471.49 525.821 501.113 525.87C530.719 525.92 561.292 514.772 601.87 489.377C602.432 489.026 603.172 489.196 603.524 489.758Z" fill="black"/>
<path fill-rule="evenodd" clip-rule="evenodd" d="M655.017 357.327C677.659 354.611 700.048 350.775 712.189 346.301C712.707 346.11 713.282 346.375 713.473 346.894C713.664 347.412 713.398 347.987 712.88 348.178C700.492 352.743 677.885 356.598 655.255 359.312C632.598 362.03 609.78 363.62 596.908 363.62C584.004 363.62 565.959 361.095 548.399 358.627L548.074 358.582C530.564 356.121 513.588 353.735 502.444 353.889C491.968 354.035 476.198 356.149 459.571 358.379C458.368 358.54 457.162 358.702 455.952 358.863C438.07 361.254 419.593 363.62 406.193 363.62C392.783 363.62 363.103 359.76 336.862 355.919C323.723 353.996 311.417 352.072 302.396 350.63C297.886 349.909 294.196 349.308 291.634 348.887C290.353 348.677 289.354 348.511 288.675 348.399C288.336 348.342 288.076 348.299 287.901 348.27L287.641 348.226L287.638 348.226C287.637 348.226 287.637 348.226 287.802 347.239C287.967 346.253 287.968 346.253 287.968 346.253L287.971 346.254L288.231 346.297C288.405 346.326 288.664 346.369 289.003 346.426C289.681 346.538 290.679 346.703 291.958 346.914C294.518 347.334 298.205 347.934 302.712 348.655C311.727 350.097 324.024 352.018 337.152 353.94C363.447 357.789 392.962 361.62 406.193 361.62C419.432 361.62 437.765 359.277 455.687 356.881C456.916 356.717 458.142 356.552 459.366 356.388C475.928 354.167 491.814 352.037 502.416 351.889C513.716 351.733 530.804 354.134 548.186 356.578L548.677 356.647C566.292 359.122 584.176 361.62 596.908 361.62C609.67 361.62 632.401 360.039 655.017 357.327ZM286.816 347.074C286.907 346.529 287.423 346.162 287.967 346.253L287.802 347.239L287.637 348.226C287.092 348.134 286.724 347.619 286.816 347.074Z" fill="black"/>
<path d="M542.052 307.613C545.488 313.171 546.47 318.791 544.247 320.165C542.024 321.539 537.437 318.148 534.001 312.589C530.566 307.031 529.584 301.412 531.807 300.037C534.03 298.663 538.617 302.055 542.052 307.613Z" fill="#849B6B"/>
<path d="M542.052 307.613C545.488 313.171 546.47 318.791 544.247 320.165C542.024 321.539 537.437 318.148 534.001 312.589C530.566 307.031 529.584 301.412 531.807 300.037C534.03 298.663 538.617 302.055 542.052 307.613Z" fill="black"/>
<path d="M458.323 307.309C462.329 302.147 467.25 299.261 469.315 300.863C471.38 302.465 469.806 307.949 465.801 313.111C461.795 318.274 456.874 321.16 454.809 319.557C452.744 317.955 454.317 312.471 458.323 307.309Z" fill="#849B6B"/>
<path d="M458.323 307.309C462.329 302.147 467.25 299.261 469.315 300.863C471.38 302.465 469.806 307.949 465.801 313.111C461.795 318.274 456.874 321.16 454.809 319.557C452.744 317.955 454.317 312.471 458.323 307.309Z" fill="black"/>
<path fill-rule="evenodd" clip-rule="evenodd" d="M281.971 237.038C281.972 237.039 281.972 237.039 283.346 236.831L281.972 237.039C282.086 237.798 282.795 238.32 283.554 238.205C284.313 238.091 284.835 237.382 284.72 236.623L284.719 236.616L284.715 236.587L284.697 236.465C284.682 236.357 284.659 236.193 284.631 235.979C284.575 235.55 284.498 234.917 284.411 234.107C284.238 232.488 284.031 230.165 283.896 227.367C283.626 221.761 283.648 214.28 284.801 206.716C285.957 199.137 288.232 191.589 292.387 185.76C296.504 179.984 302.493 175.855 311.266 175.058C320.024 174.263 326.883 177.368 332.315 182.533C337.788 187.737 341.816 195.041 344.748 202.566C347.675 210.076 349.473 217.709 350.539 223.476C351.071 226.357 351.419 228.764 351.634 230.448C351.742 231.29 351.816 231.951 351.863 232.399C351.886 232.623 351.903 232.794 351.914 232.908L351.926 233.036L351.929 233.066L351.929 233.073C351.929 233.073 351.929 233.073 351.929 233.073C351.994 233.838 352.667 234.407 353.432 234.342C354.197 234.276 354.764 233.604 354.699 232.839L353.314 232.957C354.699 232.839 354.699 232.838 354.699 232.837L354.698 232.834L354.698 232.824L354.694 232.787L354.681 232.646C354.67 232.523 354.652 232.343 354.627 232.109C354.578 231.642 354.502 230.96 354.392 230.096C354.171 228.369 353.815 225.91 353.272 222.971C352.187 217.1 350.35 209.285 347.338 201.557C344.332 193.843 340.119 186.118 334.231 180.519C328.302 174.882 320.678 171.413 311.015 172.29C301.367 173.166 294.671 177.768 290.123 184.147C285.613 190.474 283.241 198.506 282.054 206.298C280.863 214.106 280.845 221.786 281.12 227.5C281.257 230.361 281.469 232.738 281.647 234.402C281.736 235.235 281.817 235.89 281.875 236.339C281.904 236.563 281.928 236.736 281.945 236.854L281.964 236.989L281.97 237.025L281.971 237.035L281.971 237.038Z" fill="black"/>
<path fill-rule="evenodd" clip-rule="evenodd" d="M281.971 237.038C281.972 237.039 281.972 237.039 283.346 236.831L281.972 237.039C282.086 237.798 282.795 238.32 283.554 238.205C284.313 238.091 284.835 237.382 284.72 236.623L284.719 236.616L284.715 236.587L284.697 236.465C284.682 236.357 284.659 236.193 284.631 235.979C284.575 235.55 284.498 234.917 284.411 234.107C284.238 232.488 284.031 230.165 283.896 227.367C283.626 221.761 283.648 214.28 284.801 206.716C285.957 199.137 288.232 191.589 292.387 185.76C296.504 179.984 302.493 175.855 311.266 175.058C320.024 174.263 326.883 177.368 332.315 182.533C337.788 187.737 341.816 195.041 344.748 202.566C347.675 210.076 349.473 217.709 350.539 223.476C351.071 226.357 351.419 228.764 351.634 230.448C351.742 231.29 351.816 231.951 351.863 232.399C351.886 232.623 351.903 232.794 351.914 232.908L351.926 233.036L351.929 233.066L351.929 233.073C351.929 233.073 351.929 233.073 351.929 233.073C351.994 233.838 352.667 234.407 353.432 234.342C354.197 234.276 354.764 233.604 354.699 232.839L353.314 232.957C354.699 232.839 354.699 232.838 354.699 232.837L354.698 232.834L354.698 232.824L354.694 232.787L354.681 232.646C354.67 232.523 354.652 232.343 354.627 232.109C354.578 231.642 354.502 230.96 354.392 230.096C354.171 228.369 353.815 225.91 353.272 222.971C352.187 217.1 350.35 209.285 347.338 201.557C344.332 193.843 340.119 186.118 334.231 180.519C328.302 174.882 320.678 171.413 311.015 172.29C301.367 173.166 294.671 177.768 290.123 184.147C285.613 190.474 283.241 198.506 282.054 206.298C280.863 214.106 280.845 221.786 281.12 227.5C281.257 230.361 281.469 232.738 281.647 234.402C281.736 235.235 281.817 235.89 281.875 236.339C281.904 236.563 281.928 236.736 281.945 236.854L281.964 236.989L281.97 237.025L281.971 237.035L281.971 237.038Z" fill="black"/>
<path fill-rule="evenodd" clip-rule="evenodd" d="M706.244 392.673C706.734 393.093 706.809 393.877 706.411 394.425C699.876 403.423 695.526 407.369 687.235 413.207C686.697 413.586 685.993 413.425 685.662 412.848C685.331 412.271 685.498 411.496 686.036 411.118C694.142 405.41 698.287 401.648 704.636 392.906C705.034 392.358 705.754 392.254 706.244 392.673Z" fill="black"/>
<path fill-rule="evenodd" clip-rule="evenodd" d="M689.439 393.162C689.93 393.582 690.004 394.366 689.607 394.914C683.072 403.912 678.721 407.858 670.43 413.696C669.893 414.074 669.188 413.913 668.857 413.336C668.526 412.759 668.694 411.985 669.231 411.606C677.338 405.898 681.483 402.137 687.832 393.395C688.229 392.847 688.949 392.743 689.439 393.162Z" fill="black"/>
<path fill-rule="evenodd" clip-rule="evenodd" d="M681.064 418.669C681.554 419.089 681.629 419.873 681.231 420.421C674.696 429.419 670.346 433.365 662.055 439.203C661.517 439.581 660.813 439.42 660.482 438.843C660.151 438.266 660.318 437.492 660.856 437.113C668.962 431.405 673.107 427.644 679.456 418.902C679.854 418.354 680.574 418.25 681.064 418.669Z" fill="black"/>
<path fill-rule="evenodd" clip-rule="evenodd" d="M530.933 497.382C530.964 498.027 530.444 498.618 529.772 498.704C518.74 500.109 512.885 499.644 502.952 497.604C502.308 497.472 501.943 496.849 502.137 496.212C502.33 495.576 503.009 495.167 503.653 495.299C513.365 497.293 518.945 497.735 529.662 496.37C530.334 496.285 530.903 496.738 530.933 497.382Z" fill="black"/>
<path fill-rule="evenodd" clip-rule="evenodd" d="M519.064 485.476C519.094 486.121 518.574 486.713 517.902 486.798C506.871 488.203 501.016 487.738 491.083 485.698C490.439 485.566 490.073 484.943 490.267 484.306C490.46 483.67 491.139 483.261 491.783 483.393C501.495 485.387 507.075 485.829 517.793 484.464C518.464 484.379 519.033 484.832 519.064 485.476Z" fill="black"/>
<path fill-rule="evenodd" clip-rule="evenodd" d="M494.746 496.851C494.776 497.496 494.256 498.088 493.584 498.173C482.553 499.578 476.698 499.113 466.765 497.073C466.121 496.941 465.756 496.318 465.949 495.682C466.142 495.045 466.821 494.636 467.465 494.768C477.177 496.763 482.757 497.205 493.475 495.839C494.147 495.754 494.716 496.207 494.746 496.851Z" fill="black"/>
<path fill-rule="evenodd" clip-rule="evenodd" d="M351.745 455.363C351.267 455.796 350.48 455.772 349.986 455.308C341.881 447.695 338.512 442.883 333.763 433.924C333.455 433.343 333.703 432.665 334.317 432.409C334.931 432.153 335.678 432.416 335.986 432.997C340.63 441.756 343.841 446.341 351.716 453.738C352.21 454.202 352.223 454.929 351.745 455.363Z" fill="black"/>
<path fill-rule="evenodd" clip-rule="evenodd" d="M353.372 438.63C352.894 439.063 352.106 439.039 351.613 438.575C343.507 430.962 340.139 426.15 335.389 417.191C335.081 416.61 335.329 415.932 335.943 415.676C336.557 415.42 337.305 415.683 337.613 416.264C342.257 425.023 345.468 429.608 353.343 437.005C353.837 437.469 353.849 438.196 353.372 438.63Z" fill="black"/>
<path fill-rule="evenodd" clip-rule="evenodd" d="M329.119 427.115C328.641 427.549 327.854 427.525 327.36 427.061C319.255 419.447 315.887 414.635 311.137 405.677C310.829 405.096 311.077 404.417 311.691 404.161C312.305 403.905 313.052 404.169 313.36 404.75C318.004 413.509 321.215 418.094 329.091 425.491C329.584 425.955 329.597 426.682 329.119 427.115Z" fill="black"/>
<path fill-rule="evenodd" clip-rule="evenodd" d="M534.444 195.424C534.499 196.067 534.003 196.679 533.335 196.79C522.366 198.623 516.497 198.385 506.493 196.733C505.844 196.626 505.455 196.017 505.624 195.374C505.792 194.73 506.455 194.295 507.103 194.402C516.885 196.018 522.478 196.243 533.135 194.463C533.803 194.351 534.389 194.782 534.444 195.424Z" fill="black"/>
<path fill-rule="evenodd" clip-rule="evenodd" d="M522.121 183.988C522.176 184.631 521.68 185.243 521.012 185.354C510.043 187.187 504.174 186.949 494.17 185.297C493.521 185.19 493.132 184.581 493.3 183.938C493.469 183.294 494.131 182.859 494.78 182.966C504.562 184.582 510.155 184.807 520.812 183.027C521.479 182.915 522.066 183.346 522.121 183.988Z" fill="black"/>
<path fill-rule="evenodd" clip-rule="evenodd" d="M498.263 196.299C498.318 196.942 497.822 197.554 497.154 197.665C486.185 199.498 480.316 199.26 470.312 197.608C469.663 197.501 469.274 196.892 469.443 196.249C469.611 195.605 470.274 195.17 470.922 195.277C480.704 196.893 486.297 197.118 496.954 195.338C497.622 195.226 498.208 195.657 498.263 196.299Z" fill="black"/>
<path fill-rule="evenodd" clip-rule="evenodd" d="M733.426 234.88C733.426 234.881 733.426 234.881 732.046 234.715L733.426 234.881C733.333 235.643 732.641 236.186 731.879 236.094C731.117 236.002 730.574 235.31 730.666 234.548L730.667 234.54L730.67 234.511L730.684 234.389C730.696 234.28 730.714 234.116 730.735 233.901C730.779 233.47 730.838 232.835 730.9 232.023C731.025 230.399 731.163 228.072 731.214 225.27C731.317 219.66 731.071 212.182 729.694 204.657C728.313 197.115 725.814 189.638 721.487 183.936C717.199 178.285 711.09 174.336 702.297 173.801C693.52 173.268 686.756 176.575 681.48 181.9C676.165 187.264 672.357 194.685 669.65 202.294C666.948 209.889 665.378 217.571 664.485 223.368C664.039 226.263 663.762 228.679 663.597 230.369C663.515 231.214 663.461 231.877 663.427 232.326C663.41 232.551 663.399 232.722 663.391 232.837L663.383 232.964L663.381 232.995L663.381 233.002C663.381 233.002 663.381 233.002 663.381 233.002C663.339 233.768 662.683 234.357 661.917 234.315C661.15 234.272 660.563 233.617 660.606 232.85L661.993 232.927C660.606 232.85 660.606 232.85 660.606 232.849L660.606 232.846L660.606 232.836L660.609 232.798L660.617 232.657C660.625 232.534 660.638 232.353 660.655 232.119C660.69 231.65 660.746 230.967 660.831 230.1C661 228.366 661.282 225.898 661.738 222.944C662.647 217.044 664.251 209.177 667.031 201.363C669.805 193.563 673.786 185.716 679.506 179.944C685.264 174.133 692.781 170.438 702.466 171.027C712.135 171.615 718.966 176.015 723.701 182.256C728.399 188.446 731.008 196.403 732.428 204.156C733.85 211.925 734.098 219.601 733.993 225.321C733.941 228.185 733.8 230.567 733.671 232.236C733.607 233.071 733.546 233.728 733.501 234.178C733.479 234.403 733.46 234.577 733.447 234.695L733.432 234.831L733.427 234.867L733.426 234.877L733.426 234.88Z" fill="black"/>
<path fill-rule="evenodd" clip-rule="evenodd" d="M733.426 234.88C733.426 234.881 733.426 234.881 732.046 234.715L733.426 234.881C733.333 235.643 732.641 236.186 731.879 236.094C731.117 236.002 730.574 235.31 730.666 234.548L730.667 234.54L730.67 234.511L730.684 234.389C730.696 234.28 730.714 234.116 730.735 233.901C730.779 233.47 730.838 232.835 730.9 232.023C731.025 230.399 731.163 228.072 731.214 225.27C731.317 219.66 731.071 212.182 729.694 204.657C728.313 197.115 725.814 189.638 721.487 183.936C717.199 178.285 711.09 174.336 702.297 173.801C693.52 173.268 686.756 176.575 681.48 181.9C676.165 187.264 672.357 194.685 669.65 202.294C666.948 209.889 665.378 217.571 664.485 223.368C664.039 226.263 663.762 228.679 663.597 230.369C663.515 231.214 663.461 231.877 663.427 232.326C663.41 232.551 663.399 232.722 663.391 232.837L663.383 232.964L663.381 232.995L663.381 233.002C663.381 233.002 663.381 233.002 663.381 233.002C663.339 233.768 662.683 234.357 661.917 234.315C661.15 234.272 660.563 233.617 660.606 232.85L661.993 232.927C660.606 232.85 660.606 232.85 660.606 232.849L660.606 232.846L660.606 232.836L660.609 232.798L660.617 232.657C660.625 232.534 660.638 232.353 660.655 232.119C660.69 231.65 660.746 230.967 660.831 230.1C661 228.366 661.282 225.898 661.738 222.944C662.647 217.044 664.251 209.177 667.031 201.363C669.805 193.563 673.786 185.716 679.506 179.944C685.264 174.133 692.781 170.438 702.466 171.027C712.135 171.615 718.966 176.015 723.701 182.256C728.399 188.446 731.008 196.403 732.428 204.156C733.85 211.925 734.098 219.601 733.993 225.321C733.941 228.185 733.8 230.567 733.671 232.236C733.607 233.071 733.546 233.728 733.501 234.178C733.479 234.403 733.46 234.577 733.447 234.695L733.432 234.831L733.427 234.867L733.426 234.877L733.426 234.88Z" fill="black"/>
</svg>
