<svg width="1024" height="1024" viewBox="0 0 1024 1024" fill="none" xmlns="http://www.w3.org/2000/svg">
<path d="M987 783.5C987 841.766 768.963 889 500 889C231.037 889 13 841.766 13 783.5C13 725.234 231.037 678 500 678C768.963 678 987 725.234 987 783.5Z" fill="black" fill-opacity="0.05"/>
<path d="M309.873 464.771C309.873 464.771 241.287 416.732 183.196 483.197C125.105 549.661 195.892 624.125 203.456 636.602C211.02 649.08 213.262 689.899 190.758 698.933C168.253 707.967 107.381 718.604 107.472 730.523C107.507 735.154 118.397 735.97 131.683 735.118C125.52 737.812 121.455 741.185 121.939 745.288C122.736 752.036 135.098 753.366 148.41 752.619C141.374 755.621 136.112 759.804 136.364 765.408C137.1 781.759 225.574 760.887 239.47 751.508C253.367 742.129 297.356 734.448 298.722 729.723C300.088 724.999 309.873 464.771 309.873 464.771Z" fill="#9DBD7C"/>
<path d="M654.688 474.21C654.688 474.21 731.685 424.643 803.668 490.009C875.651 555.375 797.754 631.461 789.716 644.121C781.678 656.78 781.641 697.722 808.471 706.299C835.301 714.877 907.004 724.255 907.65 736.198C907.902 740.838 895.246 741.885 879.689 741.31C887.051 743.88 892.007 747.174 891.701 751.294C891.198 758.071 876.857 759.663 861.276 759.194C869.676 762.054 876.08 766.134 876.14 771.754C876.314 788.15 771.758 769.098 754.949 759.994C738.141 750.89 686.327 744.118 684.435 739.414C682.542 734.709 654.688 474.21 654.688 474.21Z" fill="#9DBD7C"/>
<path fill-rule="evenodd" clip-rule="evenodd" d="M786.691 539.305C786.95 539.793 786.764 540.398 786.276 540.657C779.033 544.498 773.985 548.455 769.777 553.915C765.551 559.397 762.133 566.446 758.231 576.548C758.032 577.063 757.453 577.32 756.937 577.121C756.422 576.922 756.166 576.343 756.365 575.828C760.285 565.679 763.787 558.411 768.193 552.694C772.617 546.954 777.912 542.829 785.339 538.89C785.827 538.631 786.432 538.817 786.691 539.305Z" fill="black"/>
<path fill-rule="evenodd" clip-rule="evenodd" d="M739.275 515.488C739.79 515.291 740.369 515.55 740.566 516.065C743.494 523.724 746.804 529.218 751.709 534.061C756.634 538.925 763.213 543.178 772.762 548.286C773.249 548.546 773.433 549.152 773.173 549.639C772.912 550.126 772.306 550.31 771.819 550.049C762.226 544.918 755.44 540.556 750.304 535.484C745.147 530.392 741.7 524.632 738.698 516.78C738.5 516.264 738.759 515.686 739.275 515.488Z" fill="black"/>
<path fill-rule="evenodd" clip-rule="evenodd" d="M208.835 532.206C208.576 532.694 208.762 533.299 209.25 533.558C216.493 537.4 221.541 541.357 225.749 546.816C229.975 552.299 233.393 559.348 237.295 569.45C237.494 569.965 238.073 570.221 238.588 570.022C239.104 569.823 239.36 569.244 239.161 568.729C235.241 558.581 231.739 551.312 227.333 545.595C222.909 539.855 217.614 535.73 210.187 531.791C209.699 531.532 209.093 531.718 208.835 532.206Z" fill="black"/>
<path fill-rule="evenodd" clip-rule="evenodd" d="M256.251 508.39C255.735 508.193 255.157 508.451 254.96 508.967C252.032 516.625 248.722 522.119 243.817 526.962C238.891 531.826 232.313 536.08 222.763 541.187C222.276 541.447 222.093 542.053 222.353 542.54C222.614 543.027 223.22 543.211 223.707 542.951C233.3 537.82 240.086 533.457 245.222 528.386C250.379 523.294 253.826 517.534 256.828 509.681C257.025 509.165 256.767 508.587 256.251 508.39Z" fill="black"/>
<path d="M753.566 581.23C753.566 637.95 759.638 647.498 720.706 682.62C687.903 712.212 622.864 772.297 498.234 770.46C377.231 768.677 298.343 721.006 264.706 693.62C222.577 659.32 242.901 639.341 242.901 581.23C242.901 476.721 357.217 392 498.234 392C639.25 392 753.566 476.721 753.566 581.23Z" fill="#FFEDBF"/>
<path d="M314.518 724.534C281.362 694.304 268.198 562.171 335.971 510L378.39 484.646L318.418 400.782C220.174 506.918 216.027 560.708 228.216 731.848C237.968 760.127 173.12 806.935 196.036 828.876C218.952 850.817 250.157 763.053 265.76 765.491C281.362 767.929 264.297 845.454 295.502 844.479C326.707 843.503 299.89 774.755 310.617 767.929C321.344 761.103 368.151 841.066 388.142 812.298C408.133 783.531 347.673 754.764 314.518 724.534Z" fill="#AECC8E"/>
<path d="M379.502 822.182C384.553 830.139 397.651 834.731 405.114 826.138C412.577 817.545 425.775 809.558 412.435 801.279C399.094 792.999 395.917 791.55 386.823 797.322C377.729 803.095 374.452 814.225 379.502 822.182Z" fill="#A2BC86"/>
<path opacity="0.7" fill-rule="evenodd" clip-rule="evenodd" d="M391.496 794.172C391.179 793.719 390.556 793.609 390.103 793.925C386.667 796.327 384.106 798.442 382.071 801.107C380.032 803.777 378.567 806.939 377.222 811.373C377.062 811.902 377.36 812.46 377.889 812.621C378.417 812.781 378.976 812.482 379.136 811.954C380.44 807.652 381.817 804.735 383.661 802.321C385.509 799.901 387.871 797.925 391.249 795.564C391.701 795.248 391.812 794.625 391.496 794.172Z" fill="black"/>
<path d="M279.246 837.583C276.757 846.673 282.171 859.453 293.55 859.193C304.929 858.933 319.717 863.324 316.867 847.884C314.018 832.443 312.952 829.118 302.563 826.274C292.174 823.43 281.735 828.493 279.246 837.583Z" fill="#A2BC86"/>
<path opacity="0.7" fill-rule="evenodd" clip-rule="evenodd" d="M308.037 827.611C308.159 827.072 307.822 826.537 307.283 826.415C303.195 825.489 299.907 825.017 296.566 825.304C293.219 825.592 289.894 826.635 285.708 828.624C285.209 828.861 284.997 829.457 285.234 829.956C285.471 830.455 286.067 830.667 286.566 830.43C290.626 828.501 293.711 827.557 296.737 827.297C299.771 827.036 302.822 827.455 306.841 828.365C307.38 828.487 307.915 828.15 308.037 827.611Z" fill="black"/>
<path d="M185.56 816.018C178.398 821.496 175.655 833.095 185.153 837.882C194.651 842.668 204.333 852.305 210.681 839.906C217.03 827.506 218.025 824.638 211.088 818.042C204.151 811.445 192.721 810.539 185.56 816.018Z" fill="#A2BC86"/>
<path opacity="0.7" fill-rule="evenodd" clip-rule="evenodd" d="M214.931 821.485C215.296 821.088 215.245 820.466 214.817 820.096C211.969 817.632 209.516 815.842 206.594 814.582C203.672 813.324 200.353 812.625 195.802 812.232C195.241 812.184 194.766 812.583 194.741 813.123C194.716 813.663 195.151 814.141 195.712 814.189C200.143 814.571 203.209 815.239 205.835 816.371C208.459 817.502 210.716 819.126 213.497 821.533C213.925 821.903 214.567 821.881 214.931 821.485Z" fill="black"/>
<path fill-rule="evenodd" clip-rule="evenodd" d="M267.894 719.553C259.785 721.758 252.178 726.771 242.568 734.764C242.144 735.118 241.513 735.06 241.16 734.635C240.807 734.211 240.865 733.58 241.289 733.227C250.946 725.194 258.827 719.946 267.369 717.623C275.938 715.294 285.046 715.939 297.102 719.42C297.633 719.573 297.939 720.127 297.785 720.658C297.632 721.188 297.078 721.494 296.547 721.341C284.683 717.916 275.976 717.356 267.894 719.553Z" fill="black"/>
<g opacity="0.75">
<path fill-rule="evenodd" clip-rule="evenodd" d="M248.242 545.419C248.769 545.486 249.177 545.991 249.151 546.549C248.735 555.706 247.531 560.395 244.473 568.173C244.275 568.677 243.718 568.886 243.228 568.639C242.738 568.392 242.502 567.783 242.7 567.279C245.69 559.673 246.837 555.205 247.241 546.308C247.266 545.751 247.714 545.353 248.242 545.419Z" fill="white"/>
<path fill-rule="evenodd" clip-rule="evenodd" d="M236.898 553.378C237.426 553.444 237.833 553.95 237.808 554.508C237.392 563.664 236.188 568.353 233.13 576.132C232.932 576.636 232.374 576.845 231.885 576.598C231.395 576.351 231.159 575.742 231.357 575.238C234.347 567.632 235.493 563.163 235.897 554.267C235.923 553.71 236.371 553.312 236.898 553.378Z" fill="white"/>
<path fill-rule="evenodd" clip-rule="evenodd" d="M242.704 574.731C243.232 574.798 243.639 575.303 243.614 575.861C243.198 585.018 241.994 589.707 238.936 597.485C238.738 597.989 238.18 598.198 237.69 597.951C237.201 597.704 236.965 597.095 237.163 596.591C240.153 588.986 241.299 584.517 241.703 575.621C241.728 575.063 242.177 574.665 242.704 574.731Z" fill="white"/>
</g>
<g opacity="0.75">
<path fill-rule="evenodd" clip-rule="evenodd" d="M379.43 461.342C379.767 461.754 379.713 462.401 379.31 462.787C372.696 469.133 368.591 471.7 361.014 475.226C360.522 475.454 359.975 475.221 359.79 474.705C359.606 474.188 359.854 473.584 360.346 473.356C367.755 469.908 371.666 467.461 378.092 461.296C378.495 460.909 379.094 460.93 379.43 461.342Z" fill="white"/>
<path fill-rule="evenodd" clip-rule="evenodd" d="M365.727 459.286C366.063 459.698 366.009 460.345 365.606 460.732C358.993 467.078 354.888 469.644 347.31 473.17C346.819 473.399 346.271 473.166 346.086 472.649C345.902 472.133 346.151 471.529 346.642 471.3C354.051 467.853 357.963 465.406 364.388 459.24C364.791 458.854 365.39 458.875 365.727 459.286Z" fill="white"/>
<path fill-rule="evenodd" clip-rule="evenodd" d="M355.21 478.756C355.547 479.168 355.493 479.815 355.09 480.202C348.476 486.548 344.371 489.114 336.794 492.641C336.303 492.869 335.755 492.636 335.57 492.119C335.386 491.603 335.635 490.999 336.126 490.771C343.535 487.323 347.446 484.876 353.872 478.71C354.275 478.324 354.874 478.345 355.21 478.756Z" fill="white"/>
</g>
<g opacity="0.75">
<path fill-rule="evenodd" clip-rule="evenodd" d="M275.072 633.96C275.594 633.86 276.138 634.215 276.287 634.753C278.726 643.588 279.032 648.42 278.532 656.763C278.5 657.304 278.034 657.675 277.492 657.591C276.95 657.508 276.537 657.002 276.569 656.461C277.058 648.304 276.765 643.7 274.395 635.116C274.247 634.578 274.55 634.06 275.072 633.96Z" fill="white"/>
<path fill-rule="evenodd" clip-rule="evenodd" d="M266.749 645.039C267.272 644.939 267.815 645.294 267.964 645.832C270.403 654.668 270.709 659.499 270.209 667.842C270.177 668.383 269.711 668.754 269.169 668.671C268.627 668.587 268.214 668.081 268.247 667.541C268.735 659.383 268.442 654.779 266.073 646.195C265.924 645.657 266.227 645.139 266.749 645.039Z" fill="white"/>
<path fill-rule="evenodd" clip-rule="evenodd" d="M278.88 663.547C279.402 663.446 279.946 663.801 280.094 664.339C282.533 673.175 282.84 678.006 282.34 686.349C282.307 686.89 281.842 687.261 281.3 687.178C280.758 687.095 280.345 686.589 280.377 686.048C280.866 677.891 280.573 673.286 278.203 664.702C278.054 664.164 278.357 663.647 278.88 663.547Z" fill="white"/>
</g>
<path d="M671.421 724.948C706.082 696.851 726.779 566.433 662.507 510.727L621.858 483.107L686.238 403.312C777.645 514.352 778.657 567.992 756.676 737.191C745.363 764.703 807.039 814.915 783.022 835.375C759.005 855.834 733.093 766.903 717.462 768.423C701.832 769.943 714.298 847.892 683.375 845.122C652.452 842.353 683.044 775.65 672.789 768.254C662.533 760.858 611.448 837.54 593.263 807.827C575.077 778.114 636.761 753.045 671.421 724.948Z" fill="#AECC8E"/>
<g opacity="0.75">
<path fill-rule="evenodd" clip-rule="evenodd" d="M726.285 591.636C725.791 591.825 725.197 591.573 724.958 591.072C721.026 582.848 719.881 578.172 718.913 569.917C718.85 569.382 719.241 568.937 719.786 568.924C720.331 568.911 720.824 569.334 720.887 569.869C721.834 577.94 722.926 582.397 726.746 590.386C726.985 590.887 726.779 591.446 726.285 591.636Z" fill="white"/>
<path fill-rule="evenodd" clip-rule="evenodd" d="M732.497 579.335C732.003 579.524 731.409 579.272 731.169 578.771C727.237 570.548 726.093 565.871 725.124 557.616C725.062 557.081 725.453 556.637 725.998 556.623C726.543 556.61 727.036 557.033 727.098 557.568C728.045 565.64 729.137 570.096 732.957 578.085C733.197 578.586 732.99 579.146 732.497 579.335Z" fill="white"/>
<path fill-rule="evenodd" clip-rule="evenodd" d="M717.387 563.337C716.893 563.526 716.299 563.274 716.059 562.773C712.127 554.549 710.983 549.873 710.014 541.618C709.952 541.083 710.343 540.638 710.888 540.625C711.433 540.612 711.926 541.035 711.988 541.57C712.936 549.641 714.027 554.098 717.847 562.087C718.087 562.588 717.88 563.147 717.387 563.337Z" fill="white"/>
</g>
<g opacity="0.75">
<path fill-rule="evenodd" clip-rule="evenodd" d="M697.47 702.57C696.947 702.494 696.552 701.984 696.587 701.43C697.176 692.334 698.463 687.695 701.652 680.019C701.859 679.522 702.417 679.325 702.899 679.58C703.381 679.835 703.604 680.445 703.398 680.942C700.279 688.447 699.054 692.868 698.482 701.705C698.447 702.259 697.993 702.647 697.47 702.57Z" fill="white"/>
<path fill-rule="evenodd" clip-rule="evenodd" d="M708.901 694.874C708.377 694.798 707.982 694.287 708.018 693.734C708.607 684.637 709.894 679.998 713.083 672.323C713.289 671.826 713.848 671.629 714.33 671.884C714.812 672.138 715.035 672.748 714.828 673.246C711.71 680.751 710.485 685.172 709.913 694.009C709.877 694.563 709.424 694.95 708.901 694.874Z" fill="white"/>
<path fill-rule="evenodd" clip-rule="evenodd" d="M703.537 673.533C703.014 673.456 702.618 672.946 702.654 672.392C703.243 663.296 704.53 658.657 707.719 650.981C707.926 650.484 708.484 650.287 708.966 650.542C709.448 650.797 709.671 651.407 709.465 651.904C706.346 659.409 705.121 663.83 704.549 672.667C704.513 673.221 704.06 673.609 703.537 673.533Z" fill="white"/>
</g>
<path fill-rule="evenodd" clip-rule="evenodd" d="M722.168 719.036C714.118 716.797 705.069 717.211 692.792 719.156C692.247 719.242 691.735 718.87 691.648 718.325C691.562 717.779 691.934 717.267 692.479 717.18C704.817 715.226 714.222 714.75 722.704 717.109C731.213 719.477 738.669 724.661 747.202 733.767C747.58 734.17 747.559 734.803 747.156 735.18C746.753 735.558 746.12 735.538 745.743 735.135C737.346 726.174 730.192 721.268 722.168 719.036Z" fill="black"/>
<path d="M602.017 822.067C596.544 829.675 583.276 833.478 576.363 824.516C569.45 815.554 556.808 806.863 570.53 799.414C584.252 791.964 587.49 790.709 596.185 796.965C604.88 803.22 607.491 814.459 602.017 822.067Z" fill="#A2BC86"/>
<path fill-rule="evenodd" clip-rule="evenodd" d="M591.724 793.564C592.066 793.13 592.695 793.056 593.128 793.398C596.401 795.98 598.822 798.229 600.689 800.993C602.559 803.762 603.832 806.986 604.911 811.467C605.04 812.004 604.71 812.544 604.173 812.673C603.636 812.802 603.096 812.472 602.967 811.935C601.92 807.59 600.722 804.615 599.031 802.112C597.337 799.604 595.106 797.507 591.889 794.968C591.456 794.626 591.382 793.997 591.724 793.564Z" fill="black"/>
<path d="M700.623 843.136C702.569 852.304 696.456 864.679 685.175 863.764C673.894 862.849 658.958 866.355 662.679 851.19C666.399 836.026 667.649 832.787 678.127 830.562C688.605 828.338 698.677 833.968 700.623 843.136Z" fill="#A2BC86"/>
<path fill-rule="evenodd" clip-rule="evenodd" d="M672.61 831.575C672.52 831.03 672.888 830.515 673.433 830.424C677.545 829.741 680.837 829.462 684.138 829.94C687.446 830.42 690.687 831.647 694.728 833.863C695.212 834.129 695.389 834.737 695.124 835.221C694.858 835.705 694.25 835.883 693.766 835.617C689.847 833.468 686.84 832.353 683.851 831.92C680.856 831.486 677.803 831.725 673.761 832.397C673.216 832.488 672.701 832.119 672.61 831.575Z" fill="black"/>
<path d="M794.877 827.134C801.67 832.987 803.724 844.66 794.018 848.864C784.313 853.067 774.144 862.076 768.558 849.399C762.971 836.723 762.148 833.818 769.416 827.67C776.684 821.522 788.083 821.282 794.877 827.134Z" fill="#A2BC86"/>
<path fill-rule="evenodd" clip-rule="evenodd" d="M765.397 830.87C765.057 830.453 765.144 829.835 765.592 829.49C768.562 827.208 771.101 825.572 774.076 824.49C777.05 823.409 780.386 822.907 784.927 822.78C785.49 822.764 785.941 823.19 785.935 823.731C785.928 824.272 785.467 824.723 784.903 824.739C780.483 824.862 777.401 825.348 774.729 826.32C772.06 827.29 769.726 828.773 766.826 831.001C766.378 831.346 765.738 831.287 765.397 830.87Z" fill="black"/>
<path fill-rule="evenodd" clip-rule="evenodd" d="M381.444 745.247C381.255 745.864 380.566 746.246 379.904 746.1C369.046 743.699 363.692 741.284 355.03 736.012C354.468 735.67 354.335 734.96 354.732 734.426C355.129 733.893 355.906 733.737 356.467 734.079C364.936 739.234 370.04 741.533 380.589 743.866C381.25 744.012 381.633 744.631 381.444 745.247Z" fill="black"/>
<path fill-rule="evenodd" clip-rule="evenodd" d="M374.29 730.034C374.101 730.651 373.411 731.032 372.75 730.886C361.892 728.485 356.537 726.071 347.876 720.799C347.314 720.457 347.181 719.747 347.578 719.213C347.975 718.679 348.752 718.523 349.313 718.865C357.782 724.02 362.885 726.32 373.435 728.652C374.096 728.799 374.479 729.417 374.29 730.034Z" fill="black"/>
<path fill-rule="evenodd" clip-rule="evenodd" d="M347.559 732.534C347.37 733.15 346.681 733.532 346.02 733.386C335.161 730.985 329.807 728.571 321.145 723.298C320.584 722.956 320.45 722.246 320.847 721.713C321.244 721.179 322.021 721.023 322.583 721.365C331.052 726.52 336.155 728.819 346.704 731.152C347.365 731.298 347.748 731.917 347.559 732.534Z" fill="black"/>
<path fill-rule="evenodd" clip-rule="evenodd" d="M674.625 700.251C674.976 700.793 674.824 701.566 674.287 701.978C665.46 708.743 660.166 711.287 650.556 714.523C649.933 714.732 649.304 714.378 649.151 713.73C648.998 713.083 649.379 712.388 650.002 712.178C659.398 709.015 664.443 706.589 673.018 700.016C673.555 699.605 674.275 699.71 674.625 700.251Z" fill="black"/>
<path fill-rule="evenodd" clip-rule="evenodd" d="M658.377 695.935C658.727 696.477 658.576 697.25 658.038 697.662C649.212 704.427 643.918 706.971 634.308 710.206C633.685 710.416 633.055 710.061 632.902 709.414C632.749 708.766 633.13 708.072 633.753 707.862C643.15 704.698 648.194 702.273 656.769 695.7C657.307 695.288 658.026 695.393 658.377 695.935Z" fill="black"/>
<path fill-rule="evenodd" clip-rule="evenodd" d="M643.085 718.002C643.436 718.543 643.284 719.316 642.747 719.728C633.92 726.493 628.626 729.037 619.016 732.273C618.393 732.482 617.764 732.128 617.611 731.48C617.458 730.833 617.839 730.138 618.462 729.928C627.858 726.765 632.903 724.339 641.478 717.767C642.015 717.355 642.735 717.46 643.085 718.002Z" fill="black"/>
<path d="M568.713 173.15C568.713 173.15 628.636 119.922 668.585 126.576C772.489 139.012 751.576 257.421 731.837 292.912C751.811 309.545 749.777 349.705 721.85 382.732C721.85 382.732 643.324 518.789 491.296 518.789C339.267 518.789 282.413 376.079 282.413 376.079C262.83 342.641 257.75 307.731 279.084 276.277C240.205 178.434 282.414 126.576 345.665 126.576C408.917 126.576 442.208 173.15 442.208 173.15C452.986 173.15 474.894 188.704 500.169 188.704C532.819 188.704 568.713 173.15 568.713 173.15Z" fill="#FFEDBF"/>
<path d="M568.713 173.15C568.713 173.15 628.636 119.922 668.585 126.576C772.489 139.012 751.576 257.421 731.837 292.912C740 300.5 755.5 318.5 738.85 355C744.35 333.5 669.5 367.5 590.676 362.028C590.676 362.028 564.5 360.5 508.451 353.155C445.5 360.5 432 362.028 401.38 364.394C339.5 359 267.773 337.396 271.155 352.109C271.269 352.456 271.384 352.804 271.5 353.155C271.346 352.788 271.231 352.44 271.155 352.109C257.645 310.785 266.292 297.932 279.084 276.277C240.205 178.434 282.414 126.576 345.665 126.576C408.917 126.576 442.208 173.15 442.208 173.15C453.491 173.15 475.915 179.831 498.986 179.239C522.056 178.648 568.713 173.15 568.713 173.15Z" fill="#AECC8E"/>
<path fill-rule="evenodd" clip-rule="evenodd" d="M603.524 489.758C603.876 490.32 603.705 491.06 603.143 491.412C562.401 516.909 531.369 528.321 501.109 528.27C470.866 528.22 441.583 516.718 404.364 496.827C403.779 496.514 403.559 495.787 403.871 495.203C404.183 494.618 404.91 494.397 405.495 494.71C442.645 514.564 471.49 525.821 501.113 525.87C530.719 525.92 561.292 514.772 601.87 489.377C602.432 489.026 603.172 489.196 603.524 489.758Z" fill="black"/>
<path fill-rule="evenodd" clip-rule="evenodd" d="M659.017 358.327C681.659 355.611 704.048 351.775 716.189 347.301C716.707 347.11 717.282 347.375 717.473 347.894C717.664 348.412 717.398 348.987 716.88 349.178C704.492 353.743 681.885 357.598 659.255 360.312C636.598 363.03 613.78 364.62 600.908 364.62C588.004 364.62 569.959 362.095 552.399 359.627L552.074 359.582C534.564 357.121 517.588 354.735 506.444 354.889C495.968 355.035 480.198 357.149 463.571 359.379C462.368 359.54 461.162 359.702 459.952 359.863C442.07 362.254 423.593 364.62 410.193 364.62C396.783 364.62 367.103 360.76 340.862 356.919C327.723 354.996 315.417 353.072 306.396 351.63C301.886 350.909 298.196 350.308 295.634 349.887C294.353 349.677 293.354 349.511 292.675 349.399C292.336 349.342 292.076 349.299 291.901 349.27L291.641 349.226L291.638 349.226C291.637 349.226 291.637 349.226 291.802 348.239C291.967 347.253 291.968 347.253 291.968 347.253L291.971 347.254L292.231 347.297C292.405 347.326 292.664 347.369 293.003 347.426C293.681 347.538 294.679 347.703 295.958 347.914C298.518 348.334 302.205 348.934 306.712 349.655C315.727 351.097 328.024 353.018 341.152 354.94C367.447 358.789 396.962 362.62 410.193 362.62C423.432 362.62 441.765 360.277 459.687 357.881C460.916 357.717 462.142 357.552 463.366 357.388C479.928 355.167 495.814 353.037 506.416 352.889C517.716 352.733 534.804 355.134 552.186 357.578L552.677 357.647C570.292 360.122 588.176 362.62 600.908 362.62C613.67 362.62 636.401 361.039 659.017 358.327ZM290.816 348.074C290.907 347.529 291.423 347.162 291.967 347.253L291.802 348.239L291.637 349.226C291.092 349.134 290.724 348.619 290.816 348.074Z" fill="black"/>
<path d="M291.802 348.239C291.637 349.226 291.637 349.226 291.638 349.226L291.641 349.226L291.901 349.27C292.076 349.299 292.336 349.342 292.675 349.399C293.354 349.511 294.353 349.677 295.634 349.887C298.196 350.308 301.886 350.909 306.396 351.63C315.417 353.072 327.723 354.996 340.862 356.919C367.103 360.76 396.783 364.62 410.193 364.62C423.593 364.62 442.07 362.254 459.952 359.863C461.162 359.702 462.368 359.54 463.571 359.379C480.198 357.149 495.968 355.035 506.444 354.889C517.588 354.735 534.564 357.121 552.074 359.582L552.399 359.627C569.959 362.095 588.004 364.62 600.908 364.62C613.78 364.62 636.598 363.03 659.255 360.312C681.885 357.598 704.492 353.743 716.88 349.178C717.398 348.987 717.664 348.412 717.473 347.894C717.282 347.375 716.707 347.11 716.189 347.301C704.048 351.775 681.659 355.611 659.017 358.327C636.401 361.039 613.67 362.62 600.908 362.62C588.176 362.62 570.292 360.122 552.677 357.647L552.186 357.578C534.804 355.134 517.716 352.733 506.416 352.889C495.814 353.037 479.928 355.167 463.366 357.388C462.142 357.552 460.916 357.717 459.687 357.881C441.765 360.277 423.432 362.62 410.193 362.62C396.962 362.62 367.447 358.789 341.152 354.94C328.024 353.018 315.727 351.097 306.712 349.655C302.205 348.934 298.518 348.334 295.958 347.914C294.679 347.703 293.681 347.538 293.003 347.426C292.664 347.369 292.405 347.326 292.231 347.297L291.971 347.254L291.968 347.253C291.968 347.253 291.967 347.253 291.802 348.239ZM291.802 348.239L291.967 347.253C291.423 347.162 290.907 347.529 290.816 348.074C290.724 348.619 291.092 349.134 291.637 349.226L291.802 348.239Z" stroke="black" stroke-width="0.4" stroke-linecap="round"/>
<path d="M542.052 307.613C545.488 313.171 546.47 318.791 544.247 320.165C542.024 321.539 537.437 318.148 534.001 312.589C530.566 307.031 529.584 301.412 531.807 300.037C534.03 298.663 538.617 302.055 542.052 307.613Z" fill="#849B6B"/>
<path d="M542.052 307.613C545.488 313.171 546.47 318.791 544.247 320.165C542.024 321.539 537.437 318.148 534.001 312.589C530.566 307.031 529.584 301.412 531.807 300.037C534.03 298.663 538.617 302.055 542.052 307.613Z" fill="black"/>
<path d="M458.323 307.309C462.329 302.147 467.25 299.261 469.315 300.863C471.38 302.465 469.806 307.949 465.801 313.111C461.795 318.274 456.874 321.16 454.809 319.557C452.744 317.955 454.317 312.471 458.323 307.309Z" fill="#849B6B"/>
<path d="M458.323 307.309C462.329 302.147 467.25 299.261 469.315 300.863C471.38 302.465 469.806 307.949 465.801 313.111C461.795 318.274 456.874 321.16 454.809 319.557C452.744 317.955 454.317 312.471 458.323 307.309Z" fill="black"/>
<path fill-rule="evenodd" clip-rule="evenodd" d="M281.971 237.038C281.972 237.039 281.972 237.039 283.346 236.831L281.972 237.039C282.086 237.798 282.795 238.32 283.554 238.205C284.313 238.091 284.835 237.382 284.72 236.623L284.719 236.616L284.715 236.587L284.697 236.465C284.682 236.357 284.659 236.193 284.631 235.979C284.575 235.55 284.498 234.917 284.411 234.107C284.238 232.488 284.031 230.165 283.896 227.367C283.626 221.761 283.648 214.28 284.801 206.717C285.957 199.137 288.232 191.589 292.387 185.76C296.504 179.984 302.493 175.855 311.266 175.058C320.024 174.263 326.883 177.368 332.315 182.533C337.788 187.737 341.816 195.041 344.748 202.566C347.675 210.076 349.473 217.709 350.539 223.476C351.071 226.357 351.419 228.764 351.634 230.448C351.742 231.29 351.816 231.951 351.863 232.399C351.886 232.623 351.903 232.794 351.914 232.908L351.926 233.036L351.929 233.066L351.929 233.073C351.929 233.073 351.929 233.073 351.929 233.073C351.994 233.838 352.667 234.407 353.432 234.342C354.197 234.276 354.764 233.604 354.699 232.839L353.314 232.957C354.699 232.839 354.699 232.838 354.699 232.837L354.698 232.834L354.698 232.824L354.694 232.787L354.681 232.646C354.67 232.523 354.652 232.343 354.627 232.109C354.578 231.642 354.502 230.96 354.392 230.096C354.171 228.369 353.815 225.91 353.272 222.971C352.187 217.1 350.35 209.285 347.338 201.557C344.332 193.843 340.119 186.118 334.231 180.519C328.302 174.882 320.678 171.413 311.015 172.29C301.367 173.166 294.671 177.768 290.123 184.147C285.613 190.474 283.241 198.506 282.054 206.298C280.863 214.106 280.845 221.786 281.12 227.5C281.257 230.361 281.469 232.738 281.647 234.402C281.736 235.235 281.817 235.89 281.875 236.339C281.904 236.563 281.928 236.736 281.945 236.854L281.964 236.989L281.97 237.025L281.971 237.035L281.971 237.038Z" fill="black"/>
<path fill-rule="evenodd" clip-rule="evenodd" d="M281.971 237.038C281.972 237.039 281.972 237.039 283.346 236.831L281.972 237.039C282.086 237.798 282.795 238.32 283.554 238.205C284.313 238.091 284.835 237.382 284.72 236.623L284.719 236.616L284.715 236.587L284.697 236.465C284.682 236.357 284.659 236.193 284.631 235.979C284.575 235.55 284.498 234.917 284.411 234.107C284.238 232.488 284.031 230.165 283.896 227.367C283.626 221.761 283.648 214.28 284.801 206.717C285.957 199.137 288.232 191.589 292.387 185.76C296.504 179.984 302.493 175.855 311.266 175.058C320.024 174.263 326.883 177.368 332.315 182.533C337.788 187.737 341.816 195.041 344.748 202.566C347.675 210.076 349.473 217.709 350.539 223.476C351.071 226.357 351.419 228.764 351.634 230.448C351.742 231.29 351.816 231.951 351.863 232.399C351.886 232.623 351.903 232.794 351.914 232.908L351.926 233.036L351.929 233.066L351.929 233.073C351.929 233.073 351.929 233.073 351.929 233.073C351.994 233.838 352.667 234.407 353.432 234.342C354.197 234.276 354.764 233.604 354.699 232.839L353.314 232.957C354.699 232.839 354.699 232.838 354.699 232.837L354.698 232.834L354.698 232.824L354.694 232.787L354.681 232.646C354.67 232.523 354.652 232.343 354.627 232.109C354.578 231.642 354.502 230.96 354.392 230.096C354.171 228.369 353.815 225.91 353.272 222.971C352.187 217.1 350.35 209.285 347.338 201.557C344.332 193.843 340.119 186.118 334.231 180.519C328.302 174.882 320.678 171.413 311.015 172.29C301.367 173.166 294.671 177.768 290.123 184.147C285.613 190.474 283.241 198.506 282.054 206.298C280.863 214.106 280.845 221.786 281.12 227.5C281.257 230.361 281.469 232.738 281.647 234.402C281.736 235.235 281.817 235.89 281.875 236.339C281.904 236.563 281.928 236.736 281.945 236.854L281.964 236.989L281.97 237.025L281.971 237.035L281.971 237.038Z" fill="black"/>
<path fill-rule="evenodd" clip-rule="evenodd" d="M706.244 392.673C706.734 393.093 706.809 393.877 706.411 394.425C699.876 403.423 695.526 407.369 687.235 413.207C686.697 413.586 685.993 413.425 685.662 412.848C685.331 412.271 685.498 411.496 686.036 411.118C694.142 405.41 698.287 401.648 704.636 392.906C705.034 392.358 705.754 392.254 706.244 392.673Z" fill="black"/>
<path fill-rule="evenodd" clip-rule="evenodd" d="M689.439 393.162C689.93 393.582 690.004 394.366 689.607 394.914C683.072 403.912 678.721 407.858 670.43 413.696C669.893 414.074 669.188 413.913 668.857 413.336C668.526 412.759 668.694 411.985 669.231 411.606C677.338 405.898 681.483 402.137 687.832 393.395C688.229 392.847 688.949 392.743 689.439 393.162Z" fill="black"/>
<path fill-rule="evenodd" clip-rule="evenodd" d="M681.064 418.669C681.554 419.089 681.629 419.873 681.231 420.421C674.696 429.419 670.346 433.365 662.055 439.203C661.517 439.581 660.813 439.42 660.482 438.843C660.151 438.266 660.318 437.492 660.856 437.113C668.962 431.405 673.107 427.644 679.456 418.902C679.854 418.354 680.574 418.25 681.064 418.669Z" fill="black"/>
<path fill-rule="evenodd" clip-rule="evenodd" d="M530.933 497.382C530.964 498.027 530.444 498.618 529.772 498.704C518.74 500.109 512.885 499.644 502.952 497.604C502.308 497.472 501.943 496.849 502.137 496.212C502.33 495.576 503.009 495.167 503.653 495.299C513.365 497.293 518.945 497.735 529.662 496.37C530.334 496.285 530.903 496.738 530.933 497.382Z" fill="black"/>
<path fill-rule="evenodd" clip-rule="evenodd" d="M519.064 485.476C519.094 486.121 518.574 486.713 517.902 486.798C506.871 488.203 501.016 487.738 491.083 485.698C490.439 485.566 490.073 484.943 490.267 484.306C490.46 483.67 491.139 483.261 491.783 483.393C501.495 485.387 507.075 485.829 517.793 484.464C518.464 484.379 519.033 484.832 519.064 485.476Z" fill="black"/>
<path fill-rule="evenodd" clip-rule="evenodd" d="M494.746 496.851C494.776 497.496 494.256 498.088 493.584 498.173C482.553 499.578 476.698 499.113 466.765 497.073C466.121 496.941 465.756 496.318 465.949 495.682C466.142 495.045 466.821 494.636 467.465 494.768C477.177 496.763 482.757 497.205 493.475 495.839C494.147 495.754 494.716 496.207 494.746 496.851Z" fill="black"/>
<path fill-rule="evenodd" clip-rule="evenodd" d="M351.745 455.363C351.267 455.796 350.48 455.772 349.986 455.308C341.881 447.695 338.512 442.883 333.763 433.924C333.455 433.343 333.703 432.665 334.317 432.409C334.931 432.153 335.678 432.416 335.986 432.997C340.63 441.756 343.841 446.341 351.716 453.738C352.21 454.202 352.223 454.929 351.745 455.363Z" fill="black"/>
<path fill-rule="evenodd" clip-rule="evenodd" d="M353.372 438.63C352.894 439.063 352.106 439.039 351.613 438.575C343.507 430.962 340.139 426.15 335.389 417.191C335.081 416.61 335.329 415.932 335.943 415.676C336.557 415.42 337.305 415.683 337.613 416.264C342.257 425.023 345.468 429.608 353.343 437.005C353.837 437.469 353.849 438.196 353.372 438.63Z" fill="black"/>
<path fill-rule="evenodd" clip-rule="evenodd" d="M329.119 427.115C328.641 427.549 327.854 427.525 327.36 427.061C319.255 419.447 315.887 414.635 311.137 405.677C310.829 405.096 311.077 404.417 311.691 404.161C312.305 403.905 313.052 404.169 313.36 404.75C318.004 413.509 321.215 418.094 329.091 425.491C329.584 425.955 329.597 426.682 329.119 427.115Z" fill="black"/>
<path fill-rule="evenodd" clip-rule="evenodd" d="M534.444 195.424C534.499 196.067 534.003 196.679 533.335 196.79C522.366 198.623 516.497 198.385 506.493 196.733C505.844 196.626 505.455 196.017 505.624 195.374C505.792 194.73 506.455 194.295 507.103 194.402C516.885 196.018 522.478 196.243 533.135 194.463C533.803 194.351 534.389 194.782 534.444 195.424Z" fill="black"/>
<path fill-rule="evenodd" clip-rule="evenodd" d="M522.121 183.988C522.176 184.631 521.68 185.243 521.012 185.354C510.043 187.187 504.174 186.949 494.17 185.297C493.521 185.19 493.132 184.581 493.3 183.938C493.469 183.294 494.131 182.859 494.78 182.966C504.562 184.582 510.155 184.807 520.812 183.027C521.479 182.915 522.066 183.346 522.121 183.988Z" fill="black"/>
<path fill-rule="evenodd" clip-rule="evenodd" d="M498.263 196.299C498.318 196.942 497.822 197.554 497.154 197.665C486.185 199.498 480.316 199.26 470.312 197.608C469.663 197.501 469.274 196.892 469.443 196.249C469.611 195.605 470.274 195.17 470.922 195.277C480.704 196.893 486.297 197.118 496.954 195.338C497.622 195.226 498.208 195.657 498.263 196.299Z" fill="black"/>
<path fill-rule="evenodd" clip-rule="evenodd" d="M733.426 234.88C733.426 234.881 733.426 234.881 732.046 234.715L733.426 234.881C733.333 235.643 732.641 236.186 731.879 236.094C731.117 236.002 730.574 235.31 730.666 234.548L730.667 234.54L730.67 234.511L730.684 234.389C730.696 234.28 730.714 234.116 730.735 233.901C730.779 233.47 730.838 232.835 730.9 232.023C731.025 230.399 731.163 228.072 731.214 225.27C731.317 219.66 731.071 212.182 729.694 204.657C728.313 197.115 725.814 189.638 721.487 183.936C717.199 178.285 711.09 174.336 702.297 173.801C693.52 173.268 686.756 176.575 681.48 181.9C676.165 187.264 672.357 194.685 669.65 202.294C666.948 209.889 665.378 217.571 664.485 223.368C664.039 226.263 663.762 228.679 663.597 230.369C663.515 231.214 663.461 231.877 663.427 232.326C663.41 232.551 663.399 232.722 663.391 232.837L663.383 232.964L663.381 232.995L663.381 233.002C663.381 233.002 663.381 233.002 663.381 233.002C663.339 233.768 662.683 234.357 661.917 234.315C661.15 234.272 660.563 233.617 660.606 232.85L661.993 232.927C660.606 232.85 660.606 232.85 660.606 232.849L660.606 232.846L660.606 232.836L660.609 232.798L660.617 232.657C660.625 232.534 660.638 232.353 660.655 232.119C660.69 231.65 660.746 230.967 660.831 230.1C661 228.366 661.282 225.898 661.738 222.944C662.647 217.044 664.251 209.177 667.031 201.363C669.805 193.563 673.786 185.716 679.506 179.944C685.264 174.133 692.781 170.438 702.466 171.027C712.135 171.615 718.966 176.015 723.701 182.256C728.399 188.446 731.008 196.403 732.428 204.156C733.85 211.925 734.098 219.601 733.993 225.321C733.941 228.185 733.8 230.567 733.671 232.236C733.607 233.071 733.546 233.728 733.501 234.178C733.479 234.403 733.46 234.577 733.447 234.695L733.432 234.831L733.427 234.867L733.426 234.877L733.426 234.88Z" fill="black"/>
<path fill-rule="evenodd" clip-rule="evenodd" d="M733.426 234.88C733.426 234.881 733.426 234.881 732.046 234.715L733.426 234.881C733.333 235.643 732.641 236.186 731.879 236.094C731.117 236.002 730.574 235.31 730.666 234.548L730.667 234.54L730.67 234.511L730.684 234.389C730.696 234.28 730.714 234.116 730.735 233.901C730.779 233.47 730.838 232.835 730.9 232.023C731.025 230.399 731.163 228.072 731.214 225.27C731.317 219.66 731.071 212.182 729.694 204.657C728.313 197.115 725.814 189.638 721.487 183.936C717.199 178.285 711.09 174.336 702.297 173.801C693.52 173.268 686.756 176.575 681.48 181.9C676.165 187.264 672.357 194.685 669.65 202.294C666.948 209.889 665.378 217.571 664.485 223.368C664.039 226.263 663.762 228.679 663.597 230.369C663.515 231.214 663.461 231.877 663.427 232.326C663.41 232.551 663.399 232.722 663.391 232.837L663.383 232.964L663.381 232.995L663.381 233.002C663.381 233.002 663.381 233.002 663.381 233.002C663.339 233.768 662.683 234.357 661.917 234.315C661.15 234.272 660.563 233.617 660.606 232.85L661.993 232.927C660.606 232.85 660.606 232.85 660.606 232.849L660.606 232.846L660.606 232.836L660.609 232.798L660.617 232.657C660.625 232.534 660.638 232.353 660.655 232.119C660.69 231.65 660.746 230.967 660.831 230.1C661 228.366 661.282 225.898 661.738 222.944C662.647 217.044 664.251 209.177 667.031 201.363C669.805 193.563 673.786 185.716 679.506 179.944C685.264 174.133 692.781 170.438 702.466 171.027C712.135 171.615 718.966 176.015 723.701 182.256C728.399 188.446 731.008 196.403 732.428 204.156C733.85 211.925 734.098 219.601 733.993 225.321C733.941 228.185 733.8 230.567 733.671 232.236C733.607 233.071 733.546 233.728 733.501 234.178C733.479 234.403 733.46 234.577 733.447 234.695L733.432 234.831L733.427 234.867L733.426 234.877L733.426 234.88Z" fill="black"/>
</svg>
