<svg width="1024" height="1024" viewBox="0 0 1024 1024" fill="none" xmlns="http://www.w3.org/2000/svg">
<g clip-path="url(#clip0_481_1260)">
<path d="M824.923 940.573C824.923 965.19 650.108 985.146 434.462 985.146C218.816 985.146 44 965.19 44 940.573C44 915.956 218.816 896 434.462 896C650.108 896 824.923 915.956 824.923 940.573Z" fill="black" fill-opacity="0.05"/>
<path d="M641.571 257.588C630.12 307.604 540.277 409.526 443.992 382.587C347.708 355.647 376.793 200.476 379.804 190.778C382.815 181.08 431.959 38.8391 542.281 75.4767C652.604 112.114 653.023 207.571 641.571 257.588Z" fill="#565656"/>
<path d="M588.589 262.028C581.025 282.489 499.986 368.64 462.169 358.948C424.351 349.256 409.224 272.797 405.982 254.49C403.943 242.975 414.73 226.346 424.358 219.078C416.026 211.098 409.301 193.12 423.27 162.955C449.203 106.957 504.308 136.033 525.918 140.34C547.529 144.648 598.313 157.571 602.635 190.954C605.374 212.107 594.23 231.098 585.148 238.339C589.13 244.077 591.946 252.947 588.589 262.028Z" fill="#C4C4C4"/>
<path fill-rule="evenodd" clip-rule="evenodd" d="M481.03 226.209C480.805 226.573 480.92 227.049 481.287 227.272C487.31 230.938 490.897 232.186 497.383 233.581C497.803 233.671 498.218 233.406 498.309 232.989C498.4 232.572 498.133 232.16 497.712 232.07C491.371 230.706 487.953 229.516 482.101 225.954C481.735 225.731 481.255 225.845 481.03 226.209Z" fill="black"/>
<path fill-rule="evenodd" clip-rule="evenodd" d="M491.825 222.414C491.6 222.778 491.715 223.254 492.081 223.477C498.105 227.143 501.691 228.391 508.177 229.786C508.597 229.876 509.012 229.611 509.103 229.194C509.194 228.777 508.927 228.365 508.507 228.275C502.165 226.911 498.748 225.721 492.896 222.159C492.529 221.936 492.049 222.05 491.825 222.414Z" fill="black"/>
<path fill-rule="evenodd" clip-rule="evenodd" d="M502.442 235.271C502.217 235.635 502.332 236.111 502.699 236.334C508.722 240.001 512.308 241.248 518.794 242.643C519.215 242.734 519.629 242.469 519.72 242.052C519.812 241.634 519.545 241.223 519.124 241.132C512.782 239.768 509.365 238.579 503.513 235.017C503.146 234.793 502.667 234.907 502.442 235.271Z" fill="black"/>
<path fill-rule="evenodd" clip-rule="evenodd" d="M489.16 245.56C491.38 247.774 493.678 249.436 496.213 250.001C498.851 250.589 501.668 250.588 504.509 250.366C506.186 250.234 507.805 250.035 509.397 249.838C510.549 249.696 511.687 249.555 512.822 249.444C515.448 249.186 517.961 249.1 520.084 249.653C522.258 250.219 524.029 251.459 525.101 253.79C525.657 255.002 525.817 256.558 525.727 258.281C525.637 260.017 525.29 261.997 524.766 264.106C523.718 268.325 521.945 273.143 520.009 277.706C518.071 282.273 515.961 286.607 514.228 289.865C513.363 291.494 512.588 292.861 511.973 293.857C511.666 294.353 511.394 294.768 511.165 295.079C511.052 295.234 510.942 295.374 510.839 295.489C510.749 295.589 510.618 295.724 510.46 295.818C510.092 296.037 509.616 295.916 509.398 295.548C509.186 295.191 509.294 294.734 509.635 294.508C509.643 294.5 509.659 294.484 509.685 294.455C509.742 294.392 509.818 294.296 509.916 294.163C510.11 293.899 510.358 293.523 510.655 293.043C511.246 292.085 512.004 290.749 512.861 289.138C514.573 285.918 516.663 281.624 518.583 277.101C520.503 272.573 522.243 267.839 523.262 263.733C523.772 261.679 524.097 259.803 524.18 258.2C524.264 256.584 524.098 255.319 523.693 254.437C522.841 252.583 521.479 251.617 519.693 251.152C517.856 250.673 515.581 250.73 512.974 250.986C511.932 251.088 510.817 251.225 509.666 251.366C508.023 251.568 506.307 251.779 504.629 251.91C501.725 252.137 498.732 252.15 495.876 251.513C492.916 250.853 490.362 248.947 488.066 246.656C486.322 244.916 484.67 242.893 483.08 240.945C482.581 240.334 482.088 239.73 481.6 239.145C479.525 236.655 477.545 234.502 475.481 233.266C473.475 232.064 471.429 231.748 469.093 232.884C467.939 233.445 466.793 234.495 465.672 235.976C464.555 237.451 463.494 239.311 462.498 241.432C460.505 245.676 458.804 250.886 457.421 255.968C456.039 261.045 454.982 265.967 454.269 269.622C453.913 271.449 453.643 272.958 453.463 274.009C453.373 274.535 453.305 274.946 453.259 275.225C453.237 275.365 453.22 275.472 453.208 275.543L453.196 275.624L453.192 275.65C453.192 275.65 453.192 275.65 452.426 275.532C451.661 275.415 451.661 275.414 451.661 275.414L451.665 275.385L451.678 275.302C451.69 275.228 451.707 275.119 451.73 274.977C451.776 274.694 451.845 274.278 451.936 273.747C452.118 272.686 452.39 271.166 452.748 269.326C453.465 265.647 454.531 260.686 455.926 255.561C457.32 250.442 459.048 245.134 461.096 240.774C462.12 238.593 463.233 236.63 464.437 235.041C465.636 233.457 466.959 232.199 468.416 231.491C471.302 230.087 473.905 230.516 476.278 231.937C478.593 233.324 480.723 235.672 482.79 238.153C483.302 238.766 483.81 239.389 484.318 240.011C485.897 241.945 487.478 243.881 489.16 245.56ZM452.426 275.532L451.661 275.414C451.596 275.837 451.886 276.233 452.308 276.298C452.731 276.363 453.127 276.073 453.192 275.65L452.426 275.532Z" fill="black"/>
<path fill-rule="evenodd" clip-rule="evenodd" d="M428.592 284.107C428.954 283.879 429.433 283.988 429.661 284.35L429.005 284.763L428.35 285.175C428.122 284.813 428.23 284.335 428.592 284.107ZM524.978 313.878C525.235 314.608 525.235 314.608 525.235 314.608L525.233 314.609L525.128 314.646C525.093 314.658 525.051 314.673 525 314.691C524.947 314.709 524.887 314.73 524.818 314.754C524.546 314.848 524.147 314.986 523.637 315.159C522.616 315.505 521.15 315.995 519.369 316.57C515.806 317.718 510.973 319.205 505.902 320.557C500.835 321.908 495.508 323.131 490.962 323.744C488.689 324.05 486.591 324.207 484.806 324.146C483.042 324.086 481.491 323.811 480.381 323.177C476.509 320.965 475.076 319.27 474.065 317.827C473.937 317.643 473.821 317.473 473.711 317.311C473.388 316.836 473.119 316.442 472.763 316.051C472.311 315.555 471.716 315.071 470.714 314.571C468.763 313.595 466.792 313.574 464.267 313.839C463.642 313.905 462.982 313.989 462.284 314.078C460.192 314.343 457.756 314.652 454.885 314.652C453.716 314.652 452.449 314.099 451.184 313.276C449.9 312.441 448.523 311.265 447.114 309.881C444.295 307.113 441.269 303.439 438.498 299.789C435.723 296.134 433.186 292.481 431.345 289.744C430.424 288.375 429.676 287.234 429.158 286.435C428.899 286.035 428.697 285.721 428.56 285.506C428.491 285.399 428.439 285.316 428.404 285.261L428.364 285.197L428.35 285.175C428.35 285.175 428.35 285.175 429.005 284.763C429.661 284.35 429.661 284.35 429.661 284.35L429.673 284.37L429.712 284.431C429.747 284.486 429.798 284.567 429.866 284.673C430.001 284.885 430.201 285.196 430.458 285.592C430.972 286.385 431.715 287.519 432.63 288.879C434.462 291.601 436.98 295.228 439.732 298.852C442.486 302.48 445.459 306.085 448.2 308.776C449.571 310.122 450.865 311.22 452.029 311.977C453.211 312.747 454.168 313.103 454.885 313.103C457.648 313.103 459.945 312.812 462.019 312.549C462.738 312.458 463.43 312.37 464.105 312.299C466.702 312.025 469.045 312.004 471.407 313.185C472.562 313.763 473.315 314.357 473.908 315.007C474.345 315.487 474.696 316.004 475.035 316.502C475.135 316.649 475.234 316.795 475.334 316.938C476.211 318.191 477.473 319.731 481.15 321.832C481.928 322.276 483.173 322.54 484.859 322.598C486.524 322.655 488.528 322.509 490.755 322.209C495.206 321.608 500.46 320.405 505.503 319.06C510.541 317.717 515.346 316.238 518.893 315.095C520.667 314.524 522.124 314.036 523.138 313.692C523.645 313.52 524.041 313.383 524.31 313.29C524.445 313.244 524.547 313.208 524.616 313.184L524.694 313.156L524.72 313.147C524.72 313.147 524.72 313.147 524.978 313.878ZM524.978 313.878L525.235 314.608C525.638 314.466 525.85 314.023 525.708 313.62C525.566 313.217 525.123 313.005 524.72 313.147L524.978 313.878Z" fill="black"/>
<path fill-rule="evenodd" clip-rule="evenodd" d="M570.27 223.336C570.27 223.337 570.27 223.337 569.617 223.117L570.27 223.337C570.148 223.699 569.757 223.895 569.396 223.773C569.035 223.652 568.841 223.26 568.963 222.897L568.964 222.894L568.969 222.88L568.988 222.822C569.005 222.77 569.03 222.692 569.062 222.589C569.127 222.383 569.22 222.079 569.333 221.69C569.558 220.91 569.861 219.789 570.17 218.428C570.789 215.703 571.428 212.032 571.521 208.224C571.615 204.408 571.159 200.511 569.634 197.296C568.123 194.11 565.556 191.571 561.337 190.427C557.126 189.285 553.504 190.219 550.4 192.285C547.274 194.367 544.671 197.603 542.584 201.042C540.501 204.474 538.96 208.062 537.938 210.799C537.427 212.166 537.048 213.317 536.797 214.124C536.671 214.528 536.577 214.846 536.515 215.061C536.484 215.169 536.461 215.252 536.446 215.307L536.429 215.368L536.425 215.383L536.425 215.386C536.425 215.386 536.425 215.386 536.425 215.386C536.326 215.756 535.948 215.977 535.58 215.879C535.212 215.782 534.993 215.403 535.091 215.034L535.758 215.21C535.091 215.034 535.091 215.033 535.091 215.033L535.092 215.031L535.093 215.026L535.098 215.009L535.117 214.941C535.133 214.881 535.157 214.794 535.19 214.682C535.254 214.457 535.351 214.129 535.48 213.715C535.737 212.887 536.125 211.711 536.646 210.317C537.686 207.531 539.263 203.856 541.406 200.325C543.545 196.8 546.275 193.373 549.639 191.133C553.026 188.878 557.054 187.831 561.7 189.091C566.339 190.348 569.212 193.18 570.881 196.699C572.535 200.189 572.997 204.331 572.9 208.254C572.804 212.186 572.146 215.954 571.515 218.732C571.199 220.123 570.889 221.271 570.658 222.072C570.542 222.472 570.446 222.787 570.378 223.002C570.344 223.109 570.318 223.192 570.299 223.248L570.278 223.313L570.272 223.33L570.271 223.335L570.27 223.336Z" fill="black"/>
<path d="M512.338 264.778C513.507 267.516 510.459 271.442 505.529 273.547C500.599 275.651 495.655 275.137 494.486 272.398C493.317 269.659 496.366 265.733 501.295 263.629C506.225 261.525 511.169 262.039 512.338 264.778Z" fill="black"/>
<path d="M512.338 264.778C513.507 267.516 510.459 271.442 505.529 273.547C500.599 275.651 495.655 275.137 494.486 272.398C493.317 269.659 496.366 265.733 501.295 263.629C506.225 261.525 511.169 262.039 512.338 264.778Z" fill="black"/>
<path d="M475.693 265.888C472.741 266.275 469.783 262.28 469.087 256.966C468.39 251.651 470.22 247.029 473.172 246.643C476.125 246.256 479.082 250.251 479.779 255.565C480.475 260.88 478.646 265.502 475.693 265.888Z" fill="black"/>
<path d="M475.693 265.888C472.741 266.275 469.783 262.28 469.087 256.966C468.39 251.651 470.22 247.029 473.172 246.643C476.125 246.256 479.082 250.251 479.779 255.565C480.475 260.88 478.646 265.502 475.693 265.888Z" fill="black"/>
<path fill-rule="evenodd" clip-rule="evenodd" d="M491.621 203.598C491.621 203.599 491.621 203.599 490.964 203.378L491.621 203.599C491.498 203.963 491.104 204.159 490.742 204.037C490.379 203.915 490.184 203.521 490.307 203.157L490.308 203.153L490.313 203.139L490.332 203.081C490.349 203.029 490.374 202.95 490.407 202.847C490.472 202.64 490.565 202.335 490.678 201.943C490.905 201.16 491.209 200.034 491.52 198.666C492.142 195.927 492.784 192.238 492.878 188.412C492.972 184.577 492.513 180.661 490.982 177.43C489.463 174.228 486.883 171.677 482.644 170.528C478.412 169.38 474.772 170.319 471.653 172.395C468.512 174.487 465.896 177.739 463.799 181.195C461.706 184.643 460.157 188.249 459.13 191C458.617 192.373 458.236 193.53 457.983 194.341C457.857 194.747 457.763 195.066 457.701 195.283C457.67 195.391 457.646 195.474 457.631 195.529L457.614 195.591L457.61 195.606L457.609 195.609C457.609 195.609 457.609 195.609 457.609 195.609C457.511 195.981 457.131 196.203 456.761 196.105C456.391 196.007 456.171 195.626 456.27 195.255L456.939 195.432C456.27 195.255 456.27 195.254 456.27 195.254L456.27 195.253L456.271 195.248L456.276 195.23L456.295 195.161C456.311 195.102 456.336 195.014 456.368 194.901C456.433 194.675 456.53 194.346 456.66 193.93C456.919 193.097 457.308 191.916 457.832 190.515C458.877 187.716 460.462 184.023 462.615 180.474C464.764 176.932 467.508 173.488 470.889 171.237C474.292 168.971 478.339 167.919 483.009 169.185C487.67 170.449 490.557 173.294 492.234 176.83C493.897 180.338 494.36 184.5 494.264 188.442C494.167 192.393 493.505 196.179 492.872 198.972C492.554 200.369 492.243 201.522 492.01 202.327C491.894 202.73 491.797 203.046 491.729 203.262C491.695 203.37 491.668 203.453 491.65 203.51L491.629 203.575L491.623 203.592L491.621 203.597L491.621 203.598Z" fill="black"/>
<path fill-rule="evenodd" clip-rule="evenodd" d="M491.621 203.598C491.621 203.599 491.621 203.599 490.964 203.378L491.621 203.599C491.498 203.963 491.104 204.159 490.742 204.037C490.379 203.915 490.184 203.521 490.307 203.157L490.308 203.153L490.313 203.139L490.332 203.081C490.349 203.029 490.374 202.95 490.407 202.847C490.472 202.64 490.565 202.335 490.678 201.943C490.905 201.16 491.209 200.034 491.52 198.666C492.142 195.927 492.784 192.238 492.878 188.412C492.972 184.577 492.513 180.661 490.982 177.43C489.463 174.228 486.883 171.677 482.644 170.528C478.412 169.38 474.772 170.319 471.653 172.395C468.512 174.487 465.896 177.739 463.799 181.195C461.706 184.643 460.157 188.249 459.13 191C458.617 192.373 458.236 193.53 457.983 194.341C457.857 194.747 457.763 195.066 457.701 195.283C457.67 195.391 457.646 195.474 457.631 195.529L457.614 195.591L457.61 195.606L457.609 195.609C457.609 195.609 457.609 195.609 457.609 195.609C457.511 195.981 457.131 196.203 456.761 196.105C456.391 196.007 456.171 195.626 456.27 195.255L456.939 195.432C456.27 195.255 456.27 195.254 456.27 195.254L456.27 195.253L456.271 195.248L456.276 195.23L456.295 195.161C456.311 195.102 456.336 195.014 456.368 194.901C456.433 194.675 456.53 194.346 456.66 193.93C456.919 193.097 457.308 191.916 457.832 190.515C458.877 187.716 460.462 184.023 462.615 180.474C464.764 176.932 467.508 173.488 470.889 171.237C474.292 168.971 478.339 167.919 483.009 169.185C487.67 170.449 490.557 173.294 492.234 176.83C493.897 180.338 494.36 184.5 494.264 188.442C494.167 192.393 493.505 196.179 492.872 198.972C492.554 200.369 492.243 201.522 492.01 202.327C491.894 202.73 491.797 203.046 491.729 203.262C491.695 203.37 491.668 203.453 491.65 203.51L491.629 203.575L491.623 203.592L491.621 203.597L491.621 203.598Z" fill="black"/>
<path d="M649.104 79.3644L661.269 96.009L693.634 72.3558L681.469 55.7112L649.104 79.3644Z" fill="#C4C4C4"/>
<path d="M570.1 927.535C570.1 927.535 590.824 948.961 585.916 952.908C581.007 956.855 500.29 960.802 498.654 957.982C497.718 956.37 499.816 951.437 502.395 947.72C494.683 951.782 481.919 956.618 481.202 952.908C480.111 947.269 513.925 923.025 513.925 923.025L570.1 927.535Z" fill="#C4C4C4"/>
<path fill-rule="evenodd" clip-rule="evenodd" d="M546.267 936.039C555.741 936.075 565.199 937.772 577.273 940.999C577.572 941.079 577.75 941.387 577.67 941.686C577.59 941.986 577.283 942.164 576.983 942.084C564.952 938.868 555.599 937.197 546.263 937.161C536.928 937.125 527.578 938.722 515.555 942.082C515.257 942.165 514.947 941.991 514.864 941.693C514.78 941.394 514.955 941.084 515.253 941.001C527.333 937.626 536.792 936.002 546.267 936.039Z" fill="black"/>
<path fill-rule="evenodd" clip-rule="evenodd" d="M579.673 942.568C580.035 942.487 580.396 942.715 580.477 943.078L579.82 943.225C580.477 943.078 580.477 943.078 580.477 943.078L580.477 943.079L580.478 943.082L580.479 943.088L580.484 943.111C580.488 943.131 580.494 943.159 580.501 943.194C580.515 943.265 580.534 943.367 580.556 943.496C580.599 943.754 580.653 944.121 580.697 944.567C580.783 945.454 580.83 946.667 580.66 947.947C580.321 950.5 579.086 953.477 575.444 954.452C573.705 954.917 572.365 954.789 571.371 954.191C570.383 953.595 569.875 952.617 569.62 951.674C569.364 950.731 569.339 949.749 569.372 949.024C569.388 948.657 569.42 948.346 569.448 948.125C569.462 948.014 569.475 947.926 569.485 947.864C569.49 947.833 569.494 947.809 569.497 947.791L569.501 947.771L569.502 947.764L569.502 947.762C569.502 947.762 569.502 947.761 570.164 947.884L569.502 947.761C569.57 947.395 569.922 947.154 570.287 947.222C570.653 947.289 570.894 947.64 570.827 948.006L570.826 948.008L570.824 948.02C570.822 948.032 570.819 948.05 570.815 948.075C570.807 948.124 570.796 948.199 570.784 948.294C570.76 948.486 570.732 948.76 570.717 949.085C570.687 949.741 570.715 950.567 570.919 951.321C571.124 952.076 571.485 952.687 572.066 953.037C572.642 953.384 573.571 953.559 575.096 953.151C577.981 952.379 579.02 950.067 579.325 947.77C579.477 946.624 579.437 945.52 579.356 944.697C579.317 944.288 579.267 943.952 579.228 943.72C579.208 943.604 579.192 943.515 579.18 943.456C579.174 943.426 579.169 943.404 579.166 943.39L579.163 943.375L579.163 943.372C579.082 943.01 579.31 942.649 579.673 942.568ZM559.472 943.69C559.835 943.609 560.195 943.837 560.276 944.2L559.619 944.347C560.276 944.2 560.276 944.2 560.276 944.2L560.276 944.202L560.277 944.204L560.278 944.211L560.283 944.234C560.287 944.253 560.293 944.281 560.3 944.316C560.314 944.387 560.333 944.489 560.355 944.618C560.399 944.876 560.453 945.244 560.496 945.689C560.583 946.576 560.629 947.789 560.459 949.069C560.121 951.623 558.885 954.599 555.243 955.574C553.504 956.04 552.164 955.912 551.17 955.313C550.183 954.718 549.675 953.739 549.419 952.796C549.163 951.853 549.138 950.872 549.171 950.146C549.188 949.779 549.22 949.468 549.248 949.247C549.262 949.137 549.275 949.048 549.284 948.986C549.289 948.955 549.293 948.931 549.296 948.914L549.3 948.893L549.301 948.887L549.302 948.885C549.302 948.885 549.302 948.883 549.964 949.006L549.302 948.883C549.37 948.518 549.721 948.276 550.087 948.344C550.452 948.412 550.694 948.763 550.626 949.128L550.626 949.13L550.624 949.142C550.622 949.154 550.618 949.172 550.615 949.197C550.607 949.246 550.596 949.321 550.584 949.417C550.559 949.608 550.531 949.882 550.516 950.207C550.487 950.864 550.514 951.689 550.719 952.444C550.924 953.199 551.284 953.809 551.865 954.159C552.441 954.506 553.371 954.681 554.895 954.273C557.781 953.501 558.82 951.19 559.124 948.892C559.276 947.746 559.236 946.642 559.156 945.82C559.116 945.41 559.066 945.074 559.027 944.842C559.008 944.727 558.991 944.637 558.979 944.578C558.973 944.548 558.969 944.526 558.966 944.512L558.963 944.497L558.962 944.495C558.881 944.132 559.109 943.772 559.472 943.69ZM539.271 944.813C539.634 944.731 539.994 944.96 540.076 945.323L539.419 945.47C540.076 945.323 540.076 945.323 540.076 945.323L540.076 945.324L540.076 945.326L540.078 945.333L540.083 945.356C540.087 945.375 540.093 945.403 540.1 945.439C540.114 945.509 540.133 945.611 540.155 945.74C540.198 945.998 540.252 946.366 540.296 946.811C540.382 947.699 540.428 948.911 540.259 950.191C539.92 952.745 538.684 955.722 535.043 956.696C533.304 957.162 531.963 957.034 530.97 956.435C529.982 955.84 529.474 954.861 529.218 953.918C528.963 952.975 528.938 951.994 528.97 951.268C528.987 950.901 529.019 950.59 529.047 950.37C529.061 950.259 529.074 950.171 529.084 950.109C529.089 950.078 529.093 950.053 529.096 950.036L529.099 950.015L529.101 950.009L529.101 950.007C529.101 950.007 529.101 950.005 529.763 950.128L529.101 950.005C529.169 949.64 529.52 949.398 529.886 949.466C530.252 949.534 530.493 949.885 530.425 950.251L530.425 950.252L530.423 950.265C530.421 950.276 530.418 950.295 530.414 950.319C530.406 950.369 530.395 950.443 530.383 950.539C530.359 950.73 530.33 951.005 530.316 951.329C530.286 951.986 530.314 952.812 530.518 953.566C530.723 954.321 531.083 954.931 531.665 955.282C532.24 955.629 533.17 955.804 534.695 955.395C537.58 954.623 538.619 952.312 538.924 950.014C539.076 948.868 539.036 947.765 538.955 946.942C538.915 946.532 538.866 946.196 538.827 945.965C538.807 945.849 538.79 945.759 538.779 945.7C538.773 945.67 538.768 945.648 538.765 945.634L538.762 945.619L538.761 945.617C538.68 945.254 538.909 944.894 539.271 944.813Z" fill="black"/>
<path fill-rule="evenodd" clip-rule="evenodd" d="M519.545 945.486C519.908 945.405 520.268 945.633 520.349 945.996L519.692 946.143C520.349 945.996 520.349 945.996 520.349 945.996L520.349 945.997L520.35 945.999L520.351 946.006L520.356 946.029C520.36 946.049 520.366 946.076 520.373 946.112C520.387 946.183 520.406 946.285 520.428 946.414C520.472 946.672 520.526 947.039 520.569 947.485C520.656 948.372 520.702 949.585 520.532 950.865C520.194 953.418 518.958 956.395 515.316 957.37C513.577 957.835 512.237 957.707 511.243 957.108C510.256 956.513 509.748 955.535 509.492 954.592C509.236 953.648 509.211 952.667 509.244 951.941C509.26 951.575 509.292 951.264 509.32 951.043C509.334 950.932 509.347 950.844 509.357 950.782C509.362 950.751 509.366 950.727 509.369 950.709L509.373 950.688L509.374 950.682L509.374 950.68C509.374 950.68 509.375 950.679 510.037 950.802L509.375 950.679C509.442 950.313 509.794 950.072 510.16 950.14C510.525 950.207 510.766 950.558 510.699 950.924L510.699 950.926L510.696 950.938C510.694 950.949 510.691 950.968 510.687 950.993C510.68 951.042 510.668 951.117 510.656 951.212C510.632 951.404 510.604 951.678 510.589 952.002C510.559 952.659 510.587 953.485 510.792 954.239C510.996 954.994 511.357 955.604 511.938 955.955C512.514 956.302 513.444 956.477 514.968 956.069C517.854 955.296 518.893 952.985 519.197 950.688C519.349 949.542 519.309 948.438 519.229 947.615C519.189 947.206 519.139 946.87 519.1 946.638C519.081 946.522 519.064 946.433 519.052 946.373C519.046 946.344 519.042 946.322 519.039 946.308L519.035 946.293L519.035 946.29C518.954 945.927 519.182 945.567 519.545 945.486Z" fill="black"/>
<path d="M319.139 903.41C319.139 903.41 295.824 927.514 301.346 931.954C306.868 936.395 397.675 940.835 399.515 937.663C400.568 935.849 398.208 930.299 395.307 926.118C403.982 930.688 418.342 936.129 419.149 931.954C420.376 925.611 382.336 898.336 382.336 898.336L319.139 903.41Z" fill="#C4C4C4"/>
<path fill-rule="evenodd" clip-rule="evenodd" d="M345.95 913.046C335.301 913.087 324.668 914.994 311.087 918.625C310.787 918.705 310.609 919.012 310.689 919.312C310.77 919.611 311.077 919.789 311.376 919.709C324.914 916.09 335.442 914.209 345.955 914.168C356.465 914.128 366.99 915.927 380.52 919.707C380.819 919.791 381.128 919.616 381.212 919.318C381.295 919.019 381.121 918.71 380.822 918.626C367.236 914.83 356.601 913.005 345.95 913.046Z" fill="black"/>
<path fill-rule="evenodd" clip-rule="evenodd" d="M353.386 922.927C353.75 923.002 353.984 923.359 353.908 923.723C352.554 930.222 355.691 934.257 358.656 934.923C360.12 935.252 361.624 934.803 362.735 933.355C363.869 931.878 364.634 929.295 364.36 925.316C364.334 924.945 364.614 924.623 364.985 924.597C365.356 924.572 365.678 924.852 365.703 925.223C365.99 929.38 365.213 932.338 363.804 934.175C362.372 936.041 360.334 936.68 358.361 936.237C354.453 935.359 351.137 930.417 352.589 923.448C352.665 923.084 353.022 922.851 353.386 922.927Z" fill="black"/>
<path fill-rule="evenodd" clip-rule="evenodd" d="M333.068 921.917C333.432 921.993 333.665 922.349 333.589 922.713C332.235 929.212 335.373 933.248 338.338 933.913C339.802 934.242 341.306 933.793 342.417 932.346C343.55 930.868 344.316 928.285 344.042 924.306C344.016 923.935 344.296 923.613 344.667 923.588C345.038 923.562 345.359 923.842 345.385 924.213C345.672 928.37 344.894 931.329 343.485 933.165C342.054 935.032 340.016 935.67 338.043 935.227C334.134 934.35 330.819 929.407 332.271 922.439C332.347 922.075 332.703 921.841 333.068 921.917Z" fill="black"/>
<path fill-rule="evenodd" clip-rule="evenodd" d="M312.751 920.907C313.115 920.983 313.349 921.339 313.273 921.703C311.919 928.202 315.057 932.238 318.021 932.903C319.485 933.232 320.99 932.783 322.1 931.336C323.234 929.858 324 927.275 323.725 923.296C323.7 922.925 323.98 922.603 324.351 922.578C324.722 922.552 325.043 922.832 325.069 923.203C325.355 927.36 324.578 930.319 323.169 932.155C321.737 934.022 319.7 934.66 317.727 934.217C313.818 933.34 310.503 928.397 311.955 921.429C312.03 921.065 312.387 920.831 312.751 920.907Z" fill="black"/>
<path fill-rule="evenodd" clip-rule="evenodd" d="M375.712 923.039C376.076 923.115 376.31 923.472 376.234 923.836C374.88 930.334 378.017 934.37 380.982 935.036C382.446 935.364 383.951 934.916 385.061 933.468C386.195 931.99 386.961 929.408 386.686 925.428C386.661 925.057 386.941 924.736 387.312 924.71C387.683 924.685 388.004 924.965 388.03 925.336C388.316 929.493 387.539 932.451 386.13 934.288C384.698 936.154 382.661 936.793 380.687 936.35C376.779 935.472 373.464 930.53 374.916 923.561C374.991 923.197 375.348 922.963 375.712 923.039Z" fill="black"/>
<path d="M654.887 104.177C665.402 117.287 681.218 116.422 681.218 116.422L715.774 78.1237C698.536 66.3266 698.629 66.6121 679.869 61.4258C665.269 57.3897 655.241 72.3742 654.792 83.5379C651.275 76.7662 646.305 69.253 644.157 71.2025C639.889 75.0745 644.373 91.0668 654.887 104.177Z" fill="#C4C4C4"/>
<path fill-rule="evenodd" clip-rule="evenodd" d="M643.516 84.3693C645.436 90.5513 649.216 97.8805 654.509 104.48C659.848 111.136 666.531 114.242 671.869 115.684C674.538 116.404 676.874 116.71 678.545 116.835C679.381 116.898 680.052 116.916 680.515 116.918C680.747 116.919 680.927 116.916 681.05 116.913C681.111 116.911 681.159 116.909 681.191 116.908L681.229 116.906L681.239 116.906L681.242 116.906C681.242 116.906 681.243 116.906 681.217 116.422L681.243 116.906L681.443 116.895L716.504 78.0371L716.047 77.7244C707.439 71.8334 703.115 68.9282 698.593 66.8558C694.398 64.9334 690.037 63.73 681.952 61.4991C681.323 61.3257 680.672 61.146 679.997 60.9594C672.488 58.8833 666.154 61.7128 661.672 66.4494C657.634 70.7157 655.068 76.555 654.441 81.8462C652.848 78.9082 651.036 75.9559 649.341 73.8007C648.357 72.549 647.385 71.5301 646.494 70.9497C646.047 70.6592 645.587 70.4553 645.13 70.4132C644.652 70.3693 644.204 70.5053 643.831 70.8442C642.612 71.9495 642.085 73.8466 642.07 76.1415C642.054 78.4563 642.556 81.2798 643.516 84.3693ZM655.281 83.43C656.991 86.7335 658.364 89.8734 658.886 91.6544C659.018 92.1016 659.106 92.4971 659.121 92.7999C659.129 92.9454 659.123 93.1223 659.06 93.284C658.987 93.4741 658.815 93.6724 658.528 93.7C658.306 93.7213 658.115 93.6255 657.993 93.5496C657.856 93.4644 657.713 93.3449 657.567 93.2034C657.273 92.9188 656.91 92.4918 656.473 91.9159C654.859 89.792 654.195 86.8461 654.303 83.6481C652.562 80.3077 650.482 76.8185 648.58 74.3992C647.613 73.1699 646.72 72.2528 645.965 71.7611C645.588 71.5157 645.281 71.3995 645.041 71.3774C644.822 71.3572 644.645 71.4128 644.481 71.5613C643.566 72.392 643.053 73.9459 643.038 76.1482C643.023 78.3307 643.498 81.0506 644.44 84.082C646.323 90.1417 650.043 97.3639 655.264 103.874C660.441 110.328 666.922 113.345 672.121 114.749C674.72 115.451 676.995 115.748 678.618 115.87C679.429 115.931 680.076 115.948 680.519 115.95C680.722 115.951 680.882 115.948 680.995 115.946L715.043 78.2107C706.718 72.516 702.542 69.7305 698.19 67.736C694.069 65.8474 689.786 64.6655 681.65 62.4204C681.036 62.2508 680.399 62.0751 679.739 61.8926C672.649 59.9326 666.669 62.5773 662.375 67.1149C658.1 71.6321 655.535 77.9937 655.281 83.43ZM655.311 85.6415C655.488 87.8908 656.125 89.8577 657.244 91.3301C657.575 91.7658 657.847 92.0935 658.065 92.3279C658.037 92.2089 658.001 92.0753 657.957 91.9271C657.552 90.545 656.582 88.2367 655.311 85.6415Z" fill="black"/>
<path d="M654.985 66.4065C650.409 69.1762 651.978 77.9549 651.978 77.9549L655.65 75.1409C655.65 75.1409 658.332 81.5264 660.164 84.8787C661.996 88.231 664.467 89.6199 666.683 86.917C668.899 84.2142 659.562 63.6367 654.985 66.4065Z" fill="#C4C4C4"/>
<path d="M661.356 62.6061C655.228 65.793 661.477 71.3858 661.477 71.3858C661.477 71.3858 664.395 77.6196 666.472 80.8566C668.55 84.0936 671.616 85.2907 674.698 82.37C677.78 79.4494 667.484 59.4192 661.356 62.6061Z" fill="#C4C4C4"/>
<path d="M669.165 58.633C663.037 61.8199 669.285 67.4127 669.285 67.4127C669.285 67.4127 672.203 73.6466 674.281 76.8835C676.359 80.1205 679.425 81.3176 682.507 78.397C685.589 75.4764 675.293 55.4461 669.165 58.633Z" fill="#C4C4C4"/>
<path d="M676.42 54.8147C670.292 58.0017 676.541 63.5944 676.541 63.5944C676.541 63.5944 679.459 69.8283 681.536 73.0653C683.614 76.3023 686.68 77.4993 689.762 74.5787C692.844 71.6581 682.548 51.6278 676.42 54.8147Z" fill="#C4C4C4"/>
<path fill-rule="evenodd" clip-rule="evenodd" d="M652.065 78.4308C652.328 78.3838 652.503 78.1324 652.456 77.8692L652.455 77.8648L652.453 77.8481C652.45 77.8329 652.446 77.8096 652.441 77.7786C652.431 77.7168 652.417 77.6245 652.401 77.5053C652.368 77.2668 652.325 76.9212 652.288 76.4972C652.214 75.6478 652.163 74.4906 652.25 73.2528C652.428 70.7354 653.168 68.0727 655.238 66.8199C655.638 66.5775 656.111 66.5654 656.7 66.8242C657.303 67.0894 657.982 67.6235 658.704 68.3932C660.144 69.9279 661.647 72.2797 662.952 74.8294C664.255 77.3746 665.344 80.0834 665.969 82.3125C666.282 83.4288 666.473 84.4073 666.522 85.1763C666.547 85.5606 666.535 85.878 666.492 86.1267C666.447 86.379 666.376 86.5282 666.31 86.6094C665.795 87.2375 665.295 87.5916 664.83 87.7519C664.374 87.9094 663.918 87.8925 663.453 87.7154C662.493 87.3493 661.489 86.2898 660.59 84.6458C659.685 82.9883 658.563 80.5694 657.664 78.5546C657.215 77.5494 656.823 76.6485 656.544 75.9989C656.404 75.6742 656.292 75.4124 656.216 75.2319L656.128 75.0244L656.098 74.9537L656.098 74.9527C655.994 74.7062 655.71 74.5903 655.464 74.6938C655.217 74.7973 655.101 75.0811 655.205 75.3276L655.651 75.1401C655.205 75.3275 655.205 75.3276 655.205 75.3276L655.236 75.401L655.325 75.6103C655.402 75.7921 655.514 76.0553 655.654 76.3816C655.935 77.0341 656.328 77.9391 656.779 78.9493C657.679 80.9653 658.815 83.4154 659.741 85.1101C660.674 86.8183 661.821 88.1294 663.108 88.6202C663.768 88.8715 664.459 88.9046 665.147 88.6671C665.826 88.4324 666.466 87.9465 667.059 87.2232C667.269 86.9666 667.385 86.6382 667.445 86.2935C667.506 85.9452 667.516 85.546 667.489 85.1145C667.434 84.2516 667.223 83.2007 666.901 82.0511C666.256 79.7483 665.14 76.979 663.814 74.3882C662.49 71.8019 660.939 69.3598 659.41 67.7307C658.648 66.9185 657.864 66.2784 657.089 65.9378C656.3 65.5909 655.48 65.5416 654.736 65.9916C652.23 67.5086 651.466 70.6201 651.284 73.1845C651.192 74.4876 651.247 75.6982 651.324 76.5814C651.362 77.0236 651.407 77.3855 651.442 77.638C651.459 77.7642 651.474 77.8632 651.485 77.9313C651.491 77.9653 651.495 77.9917 651.498 78.0098L651.502 78.0309L651.503 78.0367L651.503 78.0385C651.503 78.0387 651.503 78.0394 651.939 77.9614L651.503 78.0385C651.55 78.3017 651.802 78.4778 652.065 78.4308Z" fill="black"/>
<path fill-rule="evenodd" clip-rule="evenodd" d="M661.08 71.6761C661.079 71.6752 661.078 71.6744 661.077 71.6735C661.03 71.6287 660.962 71.5636 660.879 71.4803C660.713 71.3139 660.484 71.0737 660.229 70.7755C659.723 70.1827 659.102 69.3437 658.677 68.3862C658.254 67.4306 658.007 66.3108 658.325 65.1893C658.647 64.0548 659.519 63.0156 661.134 62.1756C662.942 61.2352 664.958 62.0628 666.77 63.5654C668.608 65.0898 670.406 67.4375 671.898 69.9495C673.393 72.465 674.601 75.1821 675.243 77.47C675.563 78.612 675.748 79.669 675.746 80.5515C675.745 81.4144 675.564 82.2165 675.032 82.7205C673.404 84.2635 671.706 84.7784 670.097 84.3922C668.518 84.0131 667.142 82.7924 666.066 81.1171C665.013 79.4756 663.754 77.0882 662.764 75.1242C662.268 74.1395 661.837 73.2565 661.53 72.6196C661.377 72.3011 661.254 72.044 661.17 71.8665C661.132 71.7862 661.102 71.7222 661.08 71.6761ZM661.917 71.1796L661.875 71.09L661.801 71.0243L661.799 71.022L661.788 71.012C661.778 71.0027 661.762 70.9883 661.742 70.969C661.701 70.9303 661.64 70.8721 661.564 70.7962C661.413 70.6444 661.201 70.4227 660.966 70.1468C660.492 69.5914 659.934 68.833 659.562 67.9939C659.19 67.1529 659.023 66.277 659.257 65.4536C659.487 64.6431 660.132 63.7881 661.581 63.0346C662.837 62.3815 664.406 62.8627 666.152 64.3107C667.871 65.737 669.603 67.9817 671.066 70.444C672.526 72.9028 673.697 75.5417 674.311 77.7314C674.618 78.8281 674.78 79.7902 674.778 80.5497C674.777 81.3288 674.605 81.7915 674.366 82.0177C672.913 83.3953 671.537 83.7421 670.323 83.4507C669.079 83.1522 667.884 82.1559 666.881 80.5941C665.857 78.9986 664.618 76.6507 663.629 74.6885C663.136 73.7101 662.708 72.8324 662.403 72.1993C662.25 71.8828 662.129 71.6275 662.045 71.4515C662.003 71.3636 661.971 71.2954 661.949 71.2493L661.917 71.1796Z" fill="black"/>
<path fill-rule="evenodd" clip-rule="evenodd" d="M668.888 67.7031C668.887 67.7022 668.886 67.7013 668.886 67.7004C668.838 67.6556 668.77 67.5906 668.687 67.5073C668.521 67.3409 668.292 67.1007 668.037 66.8024C667.531 66.2096 666.91 65.3706 666.485 64.4132C666.062 63.4576 665.815 62.3377 666.133 61.2162C666.455 60.0818 667.327 59.0425 668.942 58.2026C670.75 57.2622 672.766 58.0897 674.578 59.5924C676.416 61.1167 678.214 63.4645 679.706 65.9765C681.201 68.492 682.41 71.2091 683.051 73.4969C683.371 74.6389 683.556 75.696 683.555 76.5784C683.553 77.4414 683.372 78.2435 682.841 78.7474C681.212 80.2904 679.514 80.8054 677.905 80.4192C676.326 80.0401 674.95 78.8193 673.874 77.1441C672.821 75.5026 671.562 73.1152 670.573 71.1512C670.076 70.1665 669.645 69.2834 669.339 68.6466C669.185 68.3281 669.063 68.071 668.978 67.8934C668.94 67.8132 668.91 67.7492 668.888 67.7031ZM669.725 67.2065L669.683 67.117L669.609 67.0513L669.607 67.049L669.596 67.039C669.586 67.0297 669.57 67.0153 669.55 66.9959C669.509 66.9573 669.448 66.899 669.372 66.8232C669.221 66.6713 669.009 66.4497 668.774 66.1738C668.3 65.6184 667.742 64.8599 667.371 64.0209C666.998 63.1799 666.831 62.304 667.065 61.4805C667.295 60.67 667.94 59.8151 669.389 59.0616C670.645 58.4085 672.214 58.8897 673.96 60.3376C675.679 61.7639 677.411 64.0087 678.874 66.471C680.335 68.9298 681.505 71.5686 682.119 73.7583C682.426 74.8551 682.588 75.8172 682.586 76.5767C682.585 77.3557 682.413 77.8185 682.175 78.0446C680.721 79.4223 679.345 79.7691 678.131 79.4777C676.887 79.1791 675.692 78.1828 674.689 76.6211C673.665 75.0256 672.426 72.6776 671.437 70.7155C670.944 69.7371 670.516 68.8593 670.211 68.2262C670.058 67.9097 669.937 67.6545 669.853 67.4785C669.811 67.3905 669.779 67.3224 669.758 67.2763L669.725 67.2065Z" fill="black"/>
<path fill-rule="evenodd" clip-rule="evenodd" d="M676.145 63.8851C676.144 63.8842 676.143 63.8834 676.142 63.8825C676.094 63.8377 676.027 63.7726 675.944 63.6893C675.777 63.5229 675.548 63.2827 675.294 62.9845C674.788 62.3917 674.166 61.5527 673.742 60.5952C673.318 59.6397 673.072 58.5198 673.39 57.3983C673.712 56.2638 674.583 55.2246 676.198 54.3846C678.007 53.4443 680.022 54.2718 681.834 55.7744C683.672 57.2988 685.471 59.6466 686.963 62.1586C688.457 64.674 689.666 67.3912 690.307 69.679C690.627 70.821 690.812 71.878 690.811 72.7605C690.809 73.6234 690.629 74.4255 690.097 74.9295C688.469 76.4725 686.77 76.9874 685.161 76.6012C683.582 76.2221 682.206 75.0014 681.131 73.3262C680.077 71.6846 678.819 69.2972 677.829 67.3332C677.333 66.3485 676.902 65.4655 676.595 64.8286C676.441 64.5101 676.319 64.2531 676.235 64.0755C676.197 63.9953 676.166 63.9312 676.145 63.8851ZM676.981 63.3886L676.939 63.299L676.866 63.2333L676.863 63.231L676.852 63.221C676.842 63.2117 676.827 63.1973 676.806 63.178C676.765 63.1393 676.704 63.0811 676.629 63.0052C676.477 62.8534 676.266 62.6317 676.03 62.3559C675.556 61.8004 674.999 61.042 674.627 60.2029C674.254 59.3619 674.088 58.486 674.321 57.6626C674.551 56.8521 675.196 55.9971 676.645 55.2436C677.901 54.5906 679.47 55.0717 681.216 56.5197C682.936 57.946 684.668 60.1908 686.13 62.653C687.591 65.1118 688.761 67.7507 689.375 69.9404C689.682 71.0371 689.844 71.9992 689.843 72.7588C689.841 73.5378 689.67 74.0005 689.431 74.2267C687.977 75.6043 686.601 75.9511 685.387 75.6597C684.144 75.3612 682.948 74.3649 681.946 72.8031C680.921 71.2077 679.682 68.8597 678.694 66.8975C678.201 65.9191 677.772 65.0414 677.467 64.4083C677.315 64.0918 677.193 63.8365 677.11 63.6606C677.068 63.5726 677.036 63.5044 677.014 63.4583L676.981 63.3886Z" fill="black"/>
<path fill-rule="evenodd" clip-rule="evenodd" d="M660.858 84.3309C660.672 84.5227 660.676 84.8292 660.868 85.0154L661.205 84.668C660.868 85.0154 660.868 85.0154 660.868 85.0154L660.871 85.0182L660.878 85.025L660.904 85.05C660.927 85.0716 660.96 85.1026 661.002 85.1417C661.085 85.2197 661.206 85.3299 661.353 85.4598C661.647 85.7189 662.053 86.0604 662.495 86.3836C662.932 86.7036 663.426 87.0213 663.895 87.2179C664.324 87.3985 664.905 87.5511 665.383 87.2623C665.795 87.0129 666.011 86.572 666.13 86.1658C666.253 85.7477 666.3 85.2775 666.314 84.8534C666.327 84.4253 666.306 84.0212 666.282 83.726C666.27 83.5778 666.258 83.4555 666.248 83.3696C666.243 83.3266 666.239 83.2926 666.235 83.269L666.232 83.2413L666.231 83.2335L666.23 83.2302C666.23 83.2301 666.23 83.23 665.758 83.2972L666.23 83.2302C666.193 82.9655 665.947 82.7812 665.683 82.8189C665.418 82.8566 665.234 83.1016 665.272 83.3662C665.272 83.3663 665.272 83.3662 665.272 83.3662L665.272 83.372L665.275 83.3935C665.278 83.4129 665.281 83.4423 665.286 83.4805C665.295 83.557 665.306 83.668 665.317 83.8037C665.339 84.0762 665.358 84.4422 665.346 84.8232C665.334 85.2083 665.291 85.5864 665.201 85.8926C665.108 86.2107 664.987 86.3701 664.882 86.4338C664.842 86.4581 664.673 86.4947 664.27 86.3253C663.904 86.1718 663.481 85.9054 663.066 85.6021C662.656 85.302 662.274 84.981 661.994 84.7335C661.854 84.6102 661.74 84.506 661.661 84.433C661.622 84.3966 661.592 84.3679 661.572 84.3487L661.549 84.327L661.544 84.3218L661.543 84.3207" fill="black"/>
<path fill-rule="evenodd" clip-rule="evenodd" d="M644.553 78.9273C644.601 79.1905 644.426 79.4422 644.163 79.4895L644.553 78.9273ZM644.106 74.6182C644.349 75.1518 644.62 75.9093 644.878 76.7024C645.143 77.5179 645.388 78.3529 645.568 78.9853C645.658 79.3011 645.731 79.5658 645.781 79.7513C645.807 79.844 645.826 79.9169 645.839 79.9665L645.855 80.023L645.86 80.0418L646.328 79.9182C646.796 79.7945 646.796 79.7945 646.796 79.7944L646.79 79.774L646.775 79.7157C646.761 79.6649 646.741 79.5907 646.715 79.4966C646.664 79.3084 646.59 79.0404 646.499 78.7208C646.318 78.0821 646.069 77.2344 645.798 76.403C645.53 75.5765 645.234 74.7478 644.959 74.1562C644.826 73.8681 644.679 73.5971 644.524 73.4122C644.45 73.3247 644.332 73.205 644.168 73.1422C644.078 73.1076 643.966 73.0876 643.843 73.1086C643.719 73.1298 643.617 73.187 643.54 73.2554C643.333 73.4383 643.251 73.7142 643.209 73.9173C643.161 74.1456 643.141 74.4144 643.136 74.6945C643.125 75.2573 643.175 75.9371 643.243 76.5823C643.312 77.2309 643.401 77.8595 643.473 78.3248C643.509 78.5578 643.541 78.7506 643.564 78.8855C643.575 78.9529 643.584 79.0059 643.591 79.0422L643.598 79.0838L643.601 79.0987C643.601 79.0988 643.601 79.0988 644.077 79.0131L643.601 79.0987C643.648 79.3618 643.9 79.5369 644.163 79.4895M646.451 80.3863C646.71 80.3179 646.864 80.0529 646.796 79.7944L646.328 79.9182L645.86 80.0418C645.928 80.3003 646.193 80.4546 646.451 80.3863Z" fill="black"/>
<path d="M443.864 68.0152L428.106 83.649L397.707 53.0096L413.465 37.3758L443.864 68.0152Z" fill="#C4C4C4"/>
<path d="M433.504 93.4163C420.1 105.572 403.431 101.969 403.431 101.969L373.186 55.3864C393.515 45.7674 393.368 46.0552 414.194 43.7233C430.402 41.9085 438.523 59.5419 437.106 71.4878C441.994 64.8844 448.553 57.7392 450.507 60.1765C454.387 65.0172 446.908 81.2605 433.504 93.4163Z" fill="#C4C4C4"/>
<path fill-rule="evenodd" clip-rule="evenodd" d="M448.923 74.2678C445.834 80.5106 440.575 87.6585 433.831 93.7748C427.033 99.9398 419.408 102.106 413.494 102.732C410.537 103.046 408.003 102.974 406.207 102.824C405.308 102.749 404.593 102.655 404.101 102.578C403.855 102.54 403.665 102.507 403.535 102.482C403.47 102.47 403.42 102.46 403.386 102.453L403.346 102.445L403.335 102.443L403.331 102.442C403.331 102.442 403.331 102.442 403.433 101.969L403.331 102.442L403.136 102.4L372.481 55.1856L372.981 54.9488C383.134 50.1449 388.22 47.7911 393.376 46.3557C398.159 45.0241 402.997 44.4848 411.974 43.4842C412.672 43.4064 413.394 43.3259 414.143 43.2421C422.463 42.3105 428.705 46.3842 432.661 52.172C436.25 57.4222 437.985 64.1135 437.725 69.8641C439.936 66.9801 442.392 64.1103 444.58 62.0864C445.838 60.9231 447.041 60.0081 448.081 59.5447C448.602 59.3127 449.12 59.1765 449.605 59.2088C450.11 59.2423 450.554 59.4584 450.887 59.8736C451.985 61.2431 452.225 63.3366 451.853 65.7759C451.478 68.2347 450.467 71.1479 448.923 74.2678ZM436.642 71.3038C434.261 74.5286 432.268 77.6356 431.411 79.4386C431.196 79.8913 431.037 80.2936 430.97 80.6086C430.937 80.7602 430.915 80.9432 430.952 81.118C430.996 81.3228 431.138 81.549 431.421 81.6226C431.641 81.6797 431.852 81.6142 431.992 81.5552C432.149 81.4893 432.318 81.388 432.496 81.263C432.855 81.0119 433.312 80.621 433.874 80.0834C435.944 78.1049 437.147 75.0908 437.573 71.6732C439.993 68.4136 442.801 65.051 445.238 62.7973C446.475 61.6534 447.584 60.8265 448.475 60.4292C448.921 60.2309 449.274 60.1571 449.541 60.1749C449.787 60.1913 449.976 60.2851 450.131 60.4792C450.974 61.53 451.254 63.2822 450.896 65.6299C450.541 67.958 449.572 70.773 448.055 73.8384C445.023 79.9664 439.84 87.0181 433.181 93.0576C426.575 99.0484 419.163 101.158 413.392 101.77C410.507 102.075 408.035 102.005 406.287 101.86C405.414 101.787 404.721 101.695 404.25 101.622C404.023 101.587 403.848 101.556 403.727 101.533L373.896 55.5872C383.737 50.9325 388.66 48.6737 393.636 47.2885C398.341 45.9787 403.098 45.4482 412.127 44.4414C412.81 44.3653 413.517 44.2864 414.251 44.2043C422.138 43.3212 428.06 47.1568 431.862 52.7184C435.648 58.2569 437.298 65.4699 436.642 71.3038ZM436.279 73.4586C435.717 75.9071 434.688 77.9655 433.205 79.3834C432.721 79.8465 432.34 80.1749 432.051 80.3898C432.111 80.2372 432.189 80.0586 432.286 79.8543C432.966 78.4224 434.435 76.0652 436.279 73.4586Z" fill="black"/>
<path d="M439.809 53.2394C444.205 56.9606 441.047 66.0284 441.047 66.0284L437.621 62.4135C437.621 62.4135 433.686 68.7479 431.169 72.0014C428.653 75.255 425.79 76.3125 423.892 73.0628C421.995 69.8131 435.413 49.5181 439.809 53.2394Z" fill="#C4C4C4"/>
<path d="M433.678 48.1175C439.653 52.5455 432.06 57.432 432.06 57.432C432.06 57.432 427.9 63.5651 425.142 66.6544C422.384 69.7437 418.921 70.4963 416.139 66.8682C413.358 63.24 427.703 43.6895 433.678 48.1175Z" fill="#C4C4C4"/>
<path d="M426.052 42.569C432.026 46.997 424.434 51.8835 424.434 51.8835C424.434 51.8835 420.274 58.0166 417.516 61.1059C414.757 64.1952 411.294 64.9478 408.513 61.3197C405.731 57.6915 420.077 38.141 426.052 42.569Z" fill="#C4C4C4"/>
<path d="M418.983 37.278C424.958 41.706 417.365 46.5925 417.365 46.5925C417.365 46.5925 413.205 52.7257 410.447 55.8149C407.689 58.9042 404.226 59.6569 401.444 56.0287C398.663 52.4006 413.008 32.8501 418.983 37.278Z" fill="#C4C4C4"/>
<path fill-rule="evenodd" clip-rule="evenodd" d="M440.59 65.87L440.592 65.8654L440.598 65.848C440.603 65.8321 440.611 65.8079 440.622 65.7757C440.643 65.7114 440.674 65.6154 440.712 65.4912C440.787 65.2427 440.891 64.8819 441.003 64.4367C441.226 63.5448 441.477 62.3212 441.594 60.9878C441.832 58.2792 441.499 55.3054 439.496 53.6097C439.1 53.274 438.586 53.1812 437.908 53.3586C437.215 53.5401 436.397 53.9962 435.497 54.6934C433.702 56.0839 431.703 58.3328 429.882 60.8236C428.063 63.3103 426.444 66.0077 425.401 68.2745C424.878 69.4095 424.507 70.4201 424.324 71.2328C424.232 71.6391 424.19 71.9817 424.194 72.2574C424.199 72.5368 424.249 72.7144 424.311 72.8195C424.754 73.5788 425.23 74.046 425.704 74.2993C426.171 74.5485 426.668 74.6089 427.2 74.4978C428.296 74.2687 429.551 73.3039 430.787 71.706C432.032 70.096 433.635 67.7134 434.933 65.7237C435.581 64.7308 436.15 63.8392 436.558 63.1959C436.761 62.8742 436.925 62.6147 437.037 62.4358C437.093 62.3463 437.136 62.2769 437.165 62.23L437.21 62.1589L437.621 62.4143C438.032 62.6697 438.032 62.6698 438.032 62.6698L437.987 62.7424C437.957 62.7899 437.914 62.8598 437.857 62.9499C437.744 63.13 437.58 63.3908 437.376 63.7139C436.967 64.3599 436.395 65.2553 435.744 66.2527C434.446 68.2435 432.824 70.6549 431.552 72.2984C430.272 73.9541 428.837 75.1449 427.398 75.4455C426.662 75.5993 425.931 75.5181 425.248 75.1533C424.573 74.7926 423.98 74.1733 423.475 73.3078C423.299 73.0067 423.232 72.645 423.226 72.2719C423.221 71.895 423.277 71.472 423.379 71.0196C423.583 70.115 423.984 69.036 424.521 67.8695C425.597 65.5332 427.251 62.7802 429.1 60.2521C430.946 57.728 433.007 55.3978 434.904 53.928C435.851 53.1951 436.788 52.6508 437.663 52.4219C438.552 52.1891 439.419 52.276 440.122 52.8707C442.515 54.8961 442.801 58.3169 442.559 61.0725C442.436 62.4712 442.173 63.7471 441.942 64.6717C441.826 65.1348 441.718 65.5114 441.638 65.7734C441.598 65.9044 441.565 66.0068 441.542 66.0771C441.531 66.1123 441.521 66.1395 441.515 66.1581L441.508 66.1798L441.506 66.1857L441.505 66.1875C441.505 66.1877 441.505 66.1884 441.048 66.0292L441.505 66.1884C441.417 66.4409 441.141 66.5743 440.888 66.4864C440.636 66.3985 440.503 66.1225 440.59 65.87ZM437.621 62.4143L438.032 62.6698C438.173 62.4427 438.104 62.1441 437.876 62.003C437.649 61.862 437.351 61.9317 437.21 62.1589L437.621 62.4143Z" fill="black"/>
<path fill-rule="evenodd" clip-rule="evenodd" d="M432.407 57.783C432.41 57.781 432.413 57.7789 432.416 57.7768C432.474 57.7374 432.557 57.6799 432.659 57.6057C432.863 57.4574 433.147 57.2414 433.467 56.9683C434.104 56.425 434.905 55.6411 435.516 54.6992C436.126 53.7591 436.573 52.619 436.427 51.3844C436.278 50.1364 435.535 48.8919 433.966 47.7291C432.222 46.4367 429.958 46.9643 427.779 48.2529C425.572 49.5589 423.264 51.7466 421.253 54.1626C419.239 56.5818 417.495 59.263 416.426 61.5832C415.893 62.7414 415.518 63.8305 415.371 64.7643C415.227 65.679 415.285 66.5495 415.755 67.1633C417.219 69.0728 418.926 69.9001 420.687 69.7636C422.417 69.6294 424.079 68.5723 425.503 66.9774C426.901 65.4124 428.643 63.0888 430.028 61.1685C430.722 60.206 431.33 59.3404 431.765 58.7154C431.982 58.4029 432.156 58.1504 432.275 57.9759C432.332 57.8937 432.376 57.8288 432.407 57.783ZM431.659 57.1608L431.715 57.079L431.798 57.0256L431.801 57.0235L431.815 57.0146C431.827 57.0064 431.846 56.9936 431.871 56.9764C431.922 56.9421 431.997 56.8902 432.09 56.8222C432.278 56.686 432.541 56.4856 432.839 56.2315C433.439 55.7201 434.163 55.0056 434.703 54.1724C435.245 53.3374 435.575 52.4256 435.465 51.4986C435.357 50.585 434.808 49.5582 433.39 48.507C432.146 47.5854 430.377 47.8412 428.272 49.0863C426.197 50.314 423.971 52.4105 421.997 54.7821C420.025 57.1506 418.332 59.7606 417.306 61.9881C416.792 63.1038 416.456 64.1027 416.328 64.9152C416.196 65.7469 416.299 66.281 416.524 66.5742C417.841 68.2929 419.256 68.9033 420.612 68.7982C421.998 68.6908 423.447 67.8269 424.781 66.3325C426.142 64.8083 427.859 62.5206 429.243 60.602C429.933 59.6452 430.538 58.7844 430.969 58.1629C431.185 57.8522 431.358 57.6013 431.477 57.4283C431.536 57.3419 431.582 57.2748 431.613 57.2295L431.659 57.1608Z" fill="black"/>
<path fill-rule="evenodd" clip-rule="evenodd" d="M424.781 52.2345C424.784 52.2325 424.787 52.2304 424.79 52.2283C424.848 52.1889 424.931 52.1314 425.033 52.0572C425.237 51.9089 425.521 51.6929 425.841 51.4198C426.478 50.8765 427.279 50.0926 427.89 49.1507C428.5 48.2106 428.947 47.0705 428.801 45.8359C428.652 44.5879 427.909 43.3434 426.34 42.1806C424.596 40.8883 422.332 41.4158 420.153 42.7044C417.946 44.0104 415.638 46.1981 413.627 48.6141C411.613 51.0333 409.869 53.7145 408.8 56.0347C408.267 57.1929 407.892 58.282 407.745 59.2158C407.601 60.1305 407.659 61.001 408.129 61.6148C409.593 63.5243 411.3 64.3516 413.061 64.2151C414.791 64.0809 416.453 63.0238 417.877 61.4289C419.275 59.8639 421.017 57.5403 422.402 55.62C423.097 54.6575 423.704 53.7919 424.139 53.1669C424.356 52.8544 424.53 52.6019 424.649 52.4274C424.706 52.3452 424.75 52.2803 424.781 52.2345ZM424.034 51.6123L424.089 51.5305L424.172 51.4771L424.175 51.475L424.189 51.4661C424.201 51.4579 424.22 51.4451 424.246 51.4279C424.296 51.3936 424.371 51.3417 424.464 51.2737C424.652 51.1375 424.915 50.9371 425.213 50.683C425.813 50.1716 426.537 49.4571 427.077 48.6239C427.619 47.7889 427.949 46.8771 427.839 45.9501C427.731 45.0365 427.182 44.0097 425.764 42.9585C424.52 42.0369 422.751 42.2927 420.646 43.5378C418.571 44.7655 416.345 46.862 414.371 49.2336C412.4 51.6021 410.706 54.2121 409.68 56.4396C409.166 57.5553 408.83 58.5542 408.702 59.3667C408.57 60.1984 408.673 60.7325 408.898 61.0257C410.215 62.7444 411.63 63.3548 412.986 63.2497C414.372 63.1423 415.821 62.2784 417.155 60.784C418.516 59.2598 420.233 56.9721 421.617 55.0535C422.307 54.0967 422.912 53.2359 423.344 52.6144C423.559 52.3037 423.732 52.0529 423.851 51.8799C423.91 51.7934 423.956 51.7263 423.987 51.681L424.034 51.6123Z" fill="black"/>
<path fill-rule="evenodd" clip-rule="evenodd" d="M417.714 46.9436C417.717 46.9416 417.72 46.9395 417.724 46.9373C417.781 46.8979 417.864 46.8405 417.966 46.7663C418.171 46.6179 418.454 46.402 418.774 46.1288C419.412 45.5856 420.212 44.8017 420.823 43.8598C421.433 42.9197 421.88 41.7796 421.734 40.5449C421.585 39.297 420.842 38.0524 419.273 36.8897C417.53 35.5973 415.265 36.1248 413.086 37.4135C410.879 38.7194 408.571 40.9071 406.56 43.3232C404.546 45.7423 402.802 48.4235 401.734 50.7437C401.2 51.902 400.826 52.991 400.678 53.9249C400.534 54.8395 400.592 55.7101 401.062 56.3239C402.526 58.2333 404.233 59.0606 405.994 58.9241C407.724 58.79 409.386 57.7329 410.81 56.1379C412.208 54.5729 413.95 52.2494 415.335 50.3291C416.03 49.3665 416.637 48.5009 417.072 47.8759C417.289 47.5634 417.463 47.3109 417.582 47.1365C417.639 47.0542 417.683 46.9893 417.714 46.9436ZM416.967 46.3214L417.022 46.2395L417.105 46.1862L417.108 46.1841L417.122 46.1752C417.134 46.1669 417.153 46.1542 417.179 46.137C417.229 46.1026 417.304 46.0508 417.397 45.9827C417.585 45.8465 417.848 45.6461 418.146 45.392C418.746 44.8806 419.47 44.1662 420.011 43.3329C420.552 42.4979 420.882 41.5862 420.772 40.6592C420.664 39.7456 420.115 38.7188 418.697 37.6676C417.453 36.7459 415.684 37.0018 413.579 38.2468C411.504 39.4746 409.278 41.571 407.304 43.9426C405.333 46.3111 403.639 48.9211 402.613 51.1487C402.099 52.2643 401.763 53.2633 401.635 54.0758C401.503 54.9074 401.606 55.4415 401.831 55.7348C403.148 57.4534 404.563 58.0639 405.919 57.9588C407.305 57.8513 408.754 56.9874 410.088 55.4931C411.449 53.9688 413.166 51.6812 414.55 49.7626C415.24 48.8057 415.845 47.945 416.277 47.3234C416.493 47.0127 416.665 46.7619 416.784 46.5889C416.843 46.5024 416.889 46.4354 416.92 46.39L416.967 46.3214Z" fill="black"/>
<path fill-rule="evenodd" clip-rule="evenodd" d="M430.494 71.3231C430.648 71.5419 430.595 71.8438 430.376 71.9975L430.098 71.6013C430.376 71.9975 430.376 71.9974 430.376 71.9975L430.373 71.9999L430.364 72.0059L430.332 72.0279C430.305 72.0469 430.264 72.0743 430.213 72.1086C430.111 72.1772 429.965 72.2738 429.787 72.3867C429.431 72.612 428.942 72.9056 428.419 73.1736C427.9 73.4391 427.324 73.6916 426.797 73.8202C426.311 73.939 425.684 73.9981 425.24 73.6226C424.855 73.2964 424.702 72.8023 424.645 72.3537C424.585 71.8927 424.614 71.3882 424.672 70.9366C424.73 70.4809 424.821 70.0562 424.896 69.7472C424.933 69.5921 424.968 69.4647 424.993 69.3754C425.005 69.3307 425.015 69.2955 425.023 69.271L425.031 69.2424L425.034 69.2344L425.034 69.2321L425.035 69.2311C425.035 69.2309 425.035 69.2309 425.491 69.3717L425.035 69.2311C425.113 68.9756 425.385 68.8323 425.64 68.9112C425.895 68.9901 426.039 69.2611 425.96 69.5165M425.959 69.5175L425.958 69.5226L425.951 69.5452C425.945 69.5656 425.936 69.5964 425.925 69.6365C425.903 69.7166 425.871 69.8331 425.836 69.976C425.767 70.2628 425.685 70.6503 425.632 71.0592C425.58 71.4722 425.561 71.885 425.605 72.2302C425.651 72.5878 425.754 72.789 425.866 72.8835C425.919 72.9287 426.109 72.9916 426.568 72.8796C426.986 72.7774 427.484 72.5644 427.978 72.3117C428.466 72.0616 428.928 71.7845 429.269 71.5686C429.439 71.461 429.578 71.3693 429.673 71.3049C429.721 71.2727 429.759 71.2473 429.783 71.2302L429.811 71.2109L429.818 71.2062L429.82 71.2052C429.82 71.2052 429.82 71.2052 429.82 71.2052C430.038 71.0516 430.341 71.1043 430.494 71.3231" fill="black"/>
<path fill-rule="evenodd" clip-rule="evenodd" d="M448.811 68.3345C448.811 68.3345 448.811 68.3345 448.811 68.3345L448.815 68.3213L448.829 68.2808C448.842 68.2449 448.86 68.192 448.883 68.1242C448.928 67.9885 448.993 67.7934 449.07 67.5569C449.222 67.0833 449.418 66.4464 449.596 65.7889C449.775 65.1283 449.93 64.4612 450.006 63.9229C450.018 63.8334 450.028 63.7495 450.036 63.6712C450.02 63.6941 450.004 63.7179 449.987 63.7425C449.63 64.2719 449.198 65.0576 448.775 65.8848C448.355 66.7074 447.952 67.554 447.654 68.1962C447.505 68.5169 447.382 68.786 447.297 68.9748C447.254 69.0691 447.221 69.1434 447.198 69.1939L447.173 69.2515L447.164 69.2707L446.721 69.0749C446.279 68.879 446.279 68.8789 446.279 68.8789L446.288 68.8582L446.314 68.7989C446.337 68.7473 446.371 68.6718 446.414 68.5761C446.501 68.3848 446.625 68.1125 446.775 67.7882C447.077 67.1401 447.485 66.2815 447.913 65.444C448.339 64.611 448.793 63.7817 449.184 63.2013C449.375 62.9181 449.574 62.6583 449.767 62.4915C449.859 62.4123 449.998 62.31 450.174 62.2729C450.271 62.2526 450.386 62.2505 450.506 62.2912C450.627 62.3322 450.72 62.4059 450.787 62.4872C450.968 62.7069 451.008 63.0035 451.018 63.2252C451.03 63.4727 451.006 63.7594 450.965 64.0571C450.881 64.655 450.713 65.3676 450.531 66.0416C450.348 66.7187 450.146 67.3713 449.991 67.8536C449.913 68.095 449.847 68.2945 449.8 68.4338C449.777 68.5035 449.758 68.5582 449.745 68.5957L449.73 68.6386L449.725 68.6539C449.725 68.654 449.725 68.654 449.268 68.4943L449.725 68.6539C449.637 68.9063 449.36 69.0395 449.108 68.9513C448.856 68.8631 448.723 68.5869 448.811 68.3345ZM446.721 69.0749L446.279 68.8789C446.17 69.1234 446.281 69.4094 446.525 69.5176C446.77 69.6258 447.056 69.5152 447.164 69.2707L446.721 69.0749Z" fill="black"/>
<path d="M263.557 779.667C252.286 724.288 296.949 684.533 340.986 643.196L523.288 614.023C523.288 614.023 561.078 624.383 555.63 736.155C550.182 847.926 551.71 839.497 570.822 927.016H512.015C495.524 857.619 434.586 759.889 423.805 754.944C413.024 750 349.808 788.567 349.808 802.412C349.808 816.257 405.263 899.821 393.994 906.249C382.724 912.677 316.483 906.249 316.483 906.249C316.483 906.249 274.829 835.047 263.557 779.667Z" fill="#565656"/>
<path d="M727.436 321.237C709.249 330.509 523.579 348.413 504.991 353.335L551.014 475.355C551.014 475.355 779.199 401.638 806.778 387.922C894.62 344.236 736.509 116.494 710.763 67.6157C689.902 60.6509 664.406 115.81 666.703 126.352C668.999 136.895 745.622 311.966 727.436 321.237Z" fill="#565656"/>
<path d="M278.494 204.549C286.394 221.499 410.314 339.086 420.956 353.119L319.241 404.041C319.241 404.041 195.804 233.47 183.63 208.015C144.855 126.937 336.643 66.9747 382.782 46.1675C401.766 52.8925 426.191 97.11 418.59 103.433C410.989 109.757 270.593 187.599 278.494 204.549Z" fill="#565656"/>
<path d="M369.786 717.925C229.683 616.983 265.736 461.614 316.145 391.409L405.353 342.361L520.216 377.395L598.929 458.674C552.583 520.589 523.389 554.764 523.714 624.501C492.759 667.583 435.089 709.984 369.786 717.925Z" fill="#565656"/>
<path d="M511.012 437.693C501.474 399.859 385.938 375.376 346.407 401.555C306.877 427.734 286.948 534.786 320.835 597.594C354.721 660.401 402.171 659.941 436.282 625.879C470.393 591.817 520.551 475.526 511.012 437.693Z" fill="#C4C4C4"/>
<path fill-rule="evenodd" clip-rule="evenodd" d="M380.177 283.424C379.766 283.505 379.501 283.905 379.585 284.318C380.974 291.09 382.472 294.497 385.8 300.085C386.016 300.447 386.483 300.568 386.844 300.354C387.204 300.141 387.321 299.675 387.105 299.313C383.851 293.849 382.424 290.602 381.075 284.023C380.99 283.61 380.588 283.342 380.177 283.424Z" fill="black"/>
<path fill-rule="evenodd" clip-rule="evenodd" d="M390.108 288.64C389.696 288.721 389.431 289.122 389.516 289.534C390.904 296.306 392.403 299.713 395.731 305.301C395.947 305.663 396.414 305.784 396.774 305.571C397.135 305.358 397.252 304.891 397.036 304.529C393.782 299.066 392.355 295.818 391.006 289.239C390.921 288.827 390.519 288.558 390.108 288.64Z" fill="black"/>
<path fill-rule="evenodd" clip-rule="evenodd" d="M387.964 304.845C387.553 304.926 387.288 305.327 387.372 305.739C388.761 312.511 390.259 315.918 393.588 321.506C393.803 321.868 394.27 321.989 394.631 321.776C394.991 321.563 395.108 321.096 394.893 320.734C391.638 315.271 390.211 312.023 388.862 305.444C388.778 305.032 388.375 304.764 387.964 304.845Z" fill="black"/>
<path fill-rule="evenodd" clip-rule="evenodd" d="M383.248 81.2542C383.478 80.9036 383.378 80.4341 383.025 80.2053C377.222 76.4491 373.741 75.1295 367.423 73.5867C367.013 73.4867 366.6 73.735 366.499 74.1415C366.399 74.5479 366.649 74.9584 367.059 75.0585C373.236 76.567 376.553 77.8254 382.191 81.4747C382.544 81.7034 383.017 81.6047 383.248 81.2542Z" fill="black"/>
<path fill-rule="evenodd" clip-rule="evenodd" d="M372.567 84.6805C372.797 84.33 372.697 83.8604 372.344 83.6317C366.54 79.8755 363.06 78.5559 356.742 77.013C356.332 76.913 355.919 77.1614 355.818 77.5678C355.718 77.9742 355.968 78.3848 356.378 78.4848C362.555 79.9934 365.872 81.2517 371.51 84.9011C371.863 85.1298 372.336 85.031 372.567 84.6805Z" fill="black"/>
<path fill-rule="evenodd" clip-rule="evenodd" d="M362.511 71.793C362.741 71.4425 362.641 70.9729 362.288 70.7442C356.485 66.9879 353.004 65.6684 346.686 64.1255C346.277 64.0255 345.863 64.2739 345.762 64.6803C345.662 65.0867 345.912 65.4973 346.322 65.5973C352.499 67.1058 355.816 68.3642 361.454 72.0136C361.807 72.2423 362.281 72.1435 362.511 71.793Z" fill="black"/>
<path fill-rule="evenodd" clip-rule="evenodd" d="M535.426 123.087C535.553 122.688 535.33 122.263 534.928 122.138C528.326 120.089 524.618 119.759 518.118 119.981C517.697 119.995 517.366 120.346 517.379 120.765C517.392 121.183 517.744 121.511 518.165 121.496C524.52 121.28 528.054 121.595 534.468 123.585C534.87 123.71 535.299 123.487 535.426 123.087Z" fill="black"/>
<path fill-rule="evenodd" clip-rule="evenodd" d="M526.068 129.272C526.195 128.873 525.972 128.447 525.57 128.323C518.968 126.274 515.26 125.944 508.76 126.166C508.339 126.18 508.008 126.531 508.021 126.949C508.034 127.368 508.386 127.696 508.807 127.681C515.162 127.464 518.696 127.78 525.11 129.77C525.512 129.895 525.941 129.672 526.068 129.272Z" fill="black"/>
<path fill-rule="evenodd" clip-rule="evenodd" d="M512.904 119.581C513.031 119.181 512.808 118.756 512.406 118.631C505.804 116.583 502.096 116.253 495.597 116.475C495.175 116.489 494.844 116.84 494.857 117.258C494.87 117.677 495.222 118.004 495.644 117.99C501.999 117.773 505.532 118.089 511.947 120.079C512.349 120.204 512.777 119.981 512.904 119.581Z" fill="black"/>
<path fill-rule="evenodd" clip-rule="evenodd" d="M567.186 117.98C567.374 117.605 567.22 117.15 566.842 116.964C560.641 113.91 557.03 113.005 550.575 112.209C550.157 112.158 549.775 112.453 549.722 112.868C549.67 113.283 549.967 113.662 550.385 113.713C556.696 114.492 560.137 115.355 566.162 118.322C566.539 118.508 566.998 118.355 567.186 117.98Z" fill="black"/>
<path fill-rule="evenodd" clip-rule="evenodd" d="M556.977 122.628C557.165 122.253 557.011 121.798 556.633 121.612C550.432 118.558 546.821 117.653 540.366 116.857C539.948 116.806 539.566 117.1 539.513 117.516C539.461 117.931 539.758 118.31 540.176 118.361C546.487 119.14 549.928 120.003 555.953 122.97C556.33 123.156 556.789 123.003 556.977 122.628Z" fill="black"/>
<path fill-rule="evenodd" clip-rule="evenodd" d="M545.488 111C545.676 110.625 545.522 110.171 545.144 109.985C538.943 106.93 535.332 106.025 528.878 105.229C528.459 105.178 528.077 105.473 528.025 105.888C527.972 106.303 528.269 106.682 528.687 106.734C534.999 107.512 538.439 108.375 544.464 111.343C544.842 111.528 545.3 111.375 545.488 111Z" fill="black"/>
<path fill-rule="evenodd" clip-rule="evenodd" d="M571.059 94.7424C571.247 94.3674 571.093 93.9127 570.715 93.7267C564.514 90.6724 560.903 89.7675 554.448 88.9715C554.03 88.9199 553.648 89.2148 553.596 89.6302C553.543 90.0455 553.84 90.4241 554.258 90.4757C560.569 91.254 564.01 92.1172 570.035 95.0846C570.412 95.2706 570.871 95.1174 571.059 94.7424Z" fill="black"/>
<path fill-rule="evenodd" clip-rule="evenodd" d="M560.85 99.3902C561.038 99.0153 560.884 98.5605 560.506 98.3745C554.305 95.3202 550.694 94.4153 544.239 93.6193C543.821 93.5677 543.439 93.8626 543.387 94.278C543.334 94.6934 543.631 95.0719 544.049 95.1235C550.36 95.9018 553.801 96.7651 559.826 99.7325C560.203 99.9184 560.662 99.7652 560.85 99.3902Z" fill="black"/>
<path fill-rule="evenodd" clip-rule="evenodd" d="M549.361 87.7625C549.549 87.3875 549.395 86.9328 549.017 86.7468C542.816 83.6925 539.205 82.7876 532.751 81.9916C532.332 81.94 531.95 82.2349 531.898 82.6503C531.845 83.0656 532.142 83.4442 532.56 83.4958C538.872 84.2741 542.312 85.1373 548.337 88.1047C548.715 88.2907 549.173 88.1375 549.361 87.7625Z" fill="black"/>
<path fill-rule="evenodd" clip-rule="evenodd" d="M592.074 349.096C592.042 348.678 591.677 348.367 591.257 348.402C584.368 348.969 580.805 350.048 574.859 352.682C574.474 352.853 574.298 353.302 574.466 353.686C574.634 354.069 575.083 354.241 575.469 354.071C581.283 351.495 584.678 350.467 591.371 349.916C591.791 349.882 592.105 349.515 592.074 349.096Z" fill="black"/>
<path fill-rule="evenodd" clip-rule="evenodd" d="M585.705 358.33C585.674 357.912 585.308 357.601 584.889 357.635C577.999 358.202 574.437 359.282 568.49 361.916C568.105 362.087 567.929 362.536 568.097 362.919C568.266 363.303 568.715 363.475 569.1 363.304C574.914 360.728 578.309 359.701 585.003 359.15C585.422 359.115 585.737 358.748 585.705 358.33Z" fill="black"/>
<path fill-rule="evenodd" clip-rule="evenodd" d="M569.874 354.26C569.842 353.842 569.476 353.531 569.057 353.565C562.167 354.132 558.605 355.212 552.659 357.846C552.273 358.017 552.097 358.466 552.266 358.849C552.434 359.233 552.883 359.405 553.269 359.234C559.083 356.658 562.478 355.631 569.171 355.08C569.591 355.045 569.905 354.678 569.874 354.26Z" fill="black"/>
<path fill-rule="evenodd" clip-rule="evenodd" d="M535.592 651.73C535.991 651.601 536.208 651.173 536.076 650.773C533.911 644.208 532.026 640.998 528.072 635.834C527.816 635.5 527.338 635.434 527.005 635.687C526.671 635.941 526.609 636.418 526.866 636.753C530.732 641.801 532.527 644.861 534.631 651.239C534.763 651.639 535.193 651.858 535.592 651.73Z" fill="black"/>
<path fill-rule="evenodd" clip-rule="evenodd" d="M525.123 647.702C525.523 647.573 525.739 647.145 525.607 646.745C523.442 640.18 521.558 636.97 517.603 631.807C517.347 631.472 516.869 631.406 516.536 631.66C516.203 631.913 516.14 632.39 516.397 632.725C520.263 637.773 522.058 640.833 524.162 647.211C524.294 647.611 524.724 647.831 525.123 647.702Z" fill="black"/>
<path fill-rule="evenodd" clip-rule="evenodd" d="M525.37 631.357C525.77 631.229 525.986 630.8 525.855 630.401C523.689 623.836 521.805 620.626 517.85 615.462C517.594 615.127 517.116 615.062 516.783 615.315C516.45 615.569 516.387 616.046 516.644 616.38C520.51 621.429 522.305 624.489 524.409 630.867C524.541 631.266 524.971 631.486 525.37 631.357Z" fill="black"/>
<path fill-rule="evenodd" clip-rule="evenodd" d="M391.734 335.834C392.062 335.572 392.114 335.095 391.849 334.768C387.505 329.391 384.608 327.053 379.085 323.619C378.727 323.396 378.257 323.503 378.034 323.858C377.812 324.213 377.922 324.681 378.281 324.904C383.681 328.262 386.44 330.49 390.661 335.714C390.926 336.042 391.406 336.095 391.734 335.834Z" fill="black"/>
<path fill-rule="evenodd" clip-rule="evenodd" d="M380.518 335.763C380.846 335.502 380.897 335.024 380.632 334.697C376.288 329.32 373.391 326.982 367.868 323.548C367.51 323.325 367.04 323.433 366.818 323.787C366.596 324.142 366.706 324.61 367.064 324.833C372.464 328.191 375.224 330.419 379.445 335.643C379.709 335.971 380.19 336.024 380.518 335.763Z" fill="black"/>
<path fill-rule="evenodd" clip-rule="evenodd" d="M374.976 320.384C375.305 320.123 375.356 319.646 375.091 319.318C370.747 313.941 367.85 311.603 362.327 308.169C361.969 307.947 361.499 308.054 361.277 308.409C361.055 308.764 361.165 309.232 361.523 309.455C366.923 312.812 369.683 315.041 373.904 320.265C374.168 320.592 374.648 320.646 374.976 320.384Z" fill="black"/>
<path fill-rule="evenodd" clip-rule="evenodd" d="M469.154 760.506C469.527 760.315 469.672 759.857 469.477 759.484C466.279 753.355 463.901 750.492 459.164 746.035C458.857 745.746 458.374 745.759 458.086 746.063C457.799 746.367 457.814 746.847 458.121 747.136C462.753 751.494 465.019 754.223 468.126 760.177C468.32 760.55 468.781 760.698 469.154 760.506Z" fill="black"/>
<path fill-rule="evenodd" clip-rule="evenodd" d="M458.171 758.223C458.545 758.032 458.689 757.574 458.494 757.201C455.296 751.072 452.918 748.209 448.181 743.752C447.874 743.463 447.392 743.476 447.104 743.78C446.816 744.084 446.832 744.565 447.139 744.853C451.771 749.211 454.036 751.94 457.143 757.894C457.338 758.267 457.798 758.415 458.171 758.223Z" fill="black"/>
<path fill-rule="evenodd" clip-rule="evenodd" d="M455.774 742.054C456.147 741.862 456.292 741.404 456.097 741.031C452.899 734.903 450.521 732.039 445.784 727.583C445.477 727.294 444.994 727.306 444.707 727.61C444.419 727.914 444.434 728.395 444.741 728.684C449.373 733.041 451.639 735.771 454.746 741.725C454.941 742.098 455.401 742.245 455.774 742.054Z" fill="black"/>
<path fill-rule="evenodd" clip-rule="evenodd" d="M315.529 684.866C315.259 684.545 314.781 684.507 314.46 684.78C309.203 689.268 306.944 692.227 303.661 697.841C303.448 698.205 303.568 698.672 303.929 698.885C304.289 699.097 304.754 698.974 304.967 698.61C308.178 693.121 310.331 690.302 315.439 685.942C315.759 685.668 315.799 685.187 315.529 684.866Z" fill="black"/>
<path fill-rule="evenodd" clip-rule="evenodd" d="M315.762 696.081C315.492 695.76 315.013 695.721 314.693 695.995C309.436 700.483 307.177 703.442 303.894 709.056C303.681 709.42 303.801 709.887 304.162 710.099C304.522 710.312 304.987 710.189 305.2 709.825C308.41 704.336 310.564 701.517 315.672 697.156C315.992 696.883 316.032 696.401 315.762 696.081Z" fill="black"/>
<path fill-rule="evenodd" clip-rule="evenodd" d="M300.539 702.036C300.269 701.715 299.79 701.676 299.47 701.95C294.213 706.438 291.954 709.397 288.671 715.011C288.458 715.375 288.578 715.842 288.938 716.054C289.299 716.267 289.764 716.144 289.977 715.78C293.187 710.291 295.341 707.472 300.448 703.111C300.769 702.838 300.809 702.357 300.539 702.036Z" fill="black"/>
<path fill-rule="evenodd" clip-rule="evenodd" d="M311.63 632.325C311.247 632.496 311.077 632.945 311.251 633.328C314.105 639.624 316.321 642.615 320.804 647.326C321.095 647.632 321.577 647.646 321.881 647.359C322.186 647.071 322.197 646.59 321.906 646.285C317.523 641.678 315.412 638.827 312.639 632.71C312.465 632.327 312.013 632.154 311.63 632.325Z" fill="black"/>
<path fill-rule="evenodd" clip-rule="evenodd" d="M322.47 635.212C322.086 635.383 321.917 635.832 322.09 636.215C324.945 642.511 327.161 645.502 331.644 650.214C331.934 650.519 332.417 650.533 332.721 650.246C333.025 649.958 333.036 649.477 332.745 649.172C328.362 644.565 326.251 641.714 323.478 635.597C323.304 635.214 322.853 635.041 322.47 635.212Z" fill="black"/>
<path fill-rule="evenodd" clip-rule="evenodd" d="M323.969 651.489C323.585 651.66 323.416 652.109 323.589 652.492C326.444 658.789 328.66 661.779 333.143 666.491C333.433 666.796 333.916 666.811 334.22 666.523C334.524 666.235 334.535 665.755 334.244 665.449C329.861 660.842 327.75 657.992 324.977 651.875C324.803 651.491 324.352 651.319 323.969 651.489Z" fill="black"/>
<path fill-rule="evenodd" clip-rule="evenodd" d="M462.423 614.609C462.108 614.332 461.629 614.366 461.353 614.684C456.828 619.91 455.039 623.174 452.635 629.217C452.479 629.609 452.668 630.053 453.056 630.209C453.445 630.365 453.886 630.174 454.042 629.782C456.392 623.873 458.099 620.763 462.495 615.686C462.77 615.368 462.738 614.885 462.423 614.609Z" fill="black"/>
<path fill-rule="evenodd" clip-rule="evenodd" d="M464.335 625.662C464.02 625.385 463.541 625.419 463.265 625.737C458.741 630.963 456.951 634.227 454.547 640.27C454.391 640.662 454.58 641.106 454.968 641.262C455.357 641.418 455.798 641.227 455.954 640.835C458.305 634.926 460.011 631.816 464.407 626.739C464.682 626.421 464.65 625.938 464.335 625.662Z" fill="black"/>
<path fill-rule="evenodd" clip-rule="evenodd" d="M450.177 633.833C449.862 633.556 449.383 633.59 449.108 633.908C444.583 639.134 442.793 642.398 440.389 648.441C440.233 648.833 440.422 649.277 440.81 649.433C441.199 649.589 441.64 649.398 441.796 649.006C444.147 643.097 445.853 639.987 450.249 634.91C450.525 634.592 450.492 634.109 450.177 633.833Z" fill="black"/>
<path fill-rule="evenodd" clip-rule="evenodd" d="M602.857 443.321C602.625 442.972 602.154 442.88 601.805 443.116C596.076 446.985 593.499 449.671 589.605 454.88C589.353 455.218 589.42 455.695 589.754 455.947C590.089 456.199 590.565 456.129 590.817 455.791C594.624 450.698 597.081 448.139 602.647 444.38C602.995 444.145 603.09 443.671 602.857 443.321Z" fill="black"/>
<path fill-rule="evenodd" clip-rule="evenodd" d="M601.828 454.491C601.595 454.142 601.124 454.05 600.775 454.285C595.047 458.154 592.469 460.84 588.576 466.049C588.323 466.387 588.39 466.865 588.724 467.117C589.059 467.368 589.535 467.299 589.787 466.961C593.594 461.868 596.051 459.309 601.617 455.55C601.966 455.314 602.06 454.84 601.828 454.491Z" fill="black"/>
<path fill-rule="evenodd" clip-rule="evenodd" d="M586.032 458.697C585.799 458.348 585.328 458.256 584.979 458.491C579.251 462.36 576.673 465.046 572.78 470.255C572.527 470.593 572.594 471.071 572.929 471.323C573.263 471.574 573.739 471.505 573.991 471.167C577.799 466.073 580.255 463.514 585.821 459.756C586.17 459.52 586.264 459.046 586.032 458.697Z" fill="black"/>
<path fill-rule="evenodd" clip-rule="evenodd" d="M308.21 377.334C307.792 377.369 307.485 377.738 307.523 378.157C308.15 385.041 309.26 388.594 311.947 394.517C312.121 394.901 312.572 395.073 312.953 394.901C313.335 394.73 313.504 394.279 313.329 393.895C310.703 388.104 309.646 384.718 309.036 378.029C308.998 377.61 308.628 377.299 308.21 377.334Z" fill="black"/>
<path fill-rule="evenodd" clip-rule="evenodd" d="M317.499 383.622C317.081 383.657 316.774 384.026 316.812 384.445C317.439 391.329 318.549 394.882 321.236 400.805C321.41 401.189 321.861 401.361 322.242 401.189C322.624 401.017 322.793 400.567 322.618 400.183C319.992 394.392 318.935 391.006 318.325 384.317C318.287 383.898 317.917 383.587 317.499 383.622Z" fill="black"/>
<path fill-rule="evenodd" clip-rule="evenodd" d="M313.568 399.488C313.15 399.524 312.842 399.892 312.88 400.311C313.507 407.196 314.618 410.748 317.304 416.671C317.478 417.055 317.929 417.227 318.311 417.056C318.693 416.884 318.861 416.433 318.687 416.049C316.06 410.258 315.003 406.872 314.394 400.184C314.355 399.765 313.986 399.453 313.568 399.488Z" fill="black"/>
<path fill-rule="evenodd" clip-rule="evenodd" d="M504.837 625.452C505.104 625.117 505.591 625.062 505.926 625.328C506.26 625.594 506.316 626.082 506.049 626.417L505.443 625.934L504.837 625.452ZM337.104 675.335L337.108 675.339L337.122 675.358C337.136 675.376 337.157 675.403 337.185 675.44C337.242 675.513 337.328 675.622 337.442 675.765C337.672 676.051 338.018 676.47 338.476 676.999C339.393 678.056 340.762 679.548 342.558 681.277C346.153 684.737 351.455 689.14 358.281 692.912C371.914 700.446 391.637 705.476 416.069 695.416C440.636 685.3 462.826 667.822 478.893 652.841C486.922 645.356 493.412 638.504 497.893 633.525C500.133 631.036 501.871 629.015 503.048 627.617C503.637 626.919 504.085 626.376 504.386 626.009C504.536 625.825 504.649 625.685 504.725 625.591L504.81 625.486L504.831 625.46L504.836 625.453L504.837 625.452C504.837 625.451 504.837 625.452 505.443 625.934C506.049 626.417 506.049 626.417 506.048 626.417L506.047 626.419L506.019 626.455L505.931 626.564C505.853 626.66 505.737 626.803 505.585 626.989C505.28 627.362 504.827 627.911 504.233 628.615C503.046 630.024 501.297 632.058 499.044 634.561C494.539 639.567 488.018 646.452 479.95 653.975C463.823 669.01 441.474 686.63 416.659 696.848C391.711 707.121 371.494 701.984 357.532 694.268C350.56 690.415 345.151 685.923 341.484 682.393C339.65 680.628 338.25 679.102 337.306 678.014C336.834 677.47 336.476 677.036 336.235 676.736C336.114 676.586 336.023 676.469 335.961 676.39C335.93 676.35 335.907 676.319 335.89 676.298L335.872 676.273L335.867 676.267L335.865 676.265C335.865 676.264 335.864 676.263 336.484 675.799L335.864 676.263C335.608 675.921 335.677 675.436 336.019 675.179C336.362 674.922 336.848 674.992 337.104 675.335Z" fill="black"/>
<path fill-rule="evenodd" clip-rule="evenodd" d="M403.081 71.2441C403.292 70.8817 403.167 70.4182 402.802 70.2089C396.805 66.771 393.258 65.6411 386.866 64.4412C386.452 64.3634 386.052 64.6338 385.974 65.045C385.895 65.4563 386.167 65.8527 386.582 65.9305C392.832 67.1037 396.211 68.1814 402.038 71.5214C402.403 71.7307 402.87 71.6066 403.081 71.2441Z" fill="black"/>
<path fill-rule="evenodd" clip-rule="evenodd" d="M392.6 75.2415C392.811 74.8791 392.686 74.4156 392.321 74.2063C386.324 70.7684 382.777 69.6385 376.385 68.4386C375.971 68.3608 375.571 68.6312 375.493 69.0424C375.414 69.4537 375.686 69.8501 376.101 69.9279C382.351 71.1011 385.73 72.1788 391.557 75.5188C391.922 75.7281 392.389 75.604 392.6 75.2415Z" fill="black"/>
<path fill-rule="evenodd" clip-rule="evenodd" d="M381.864 62.915C382.075 62.5526 381.95 62.0891 381.585 61.8798C375.588 58.442 372.041 57.312 365.649 56.1122C365.235 56.0344 364.835 56.3047 364.757 56.7159C364.678 57.1272 364.951 57.5236 365.365 57.6014C371.615 58.7746 374.994 59.8523 380.821 63.1923C381.186 63.4016 381.653 63.2775 381.864 62.915Z" fill="black"/>
<path fill-rule="evenodd" clip-rule="evenodd" d="M365.318 88.6727C365.529 88.3103 365.405 87.8468 365.039 87.6375C359.042 84.1996 355.495 83.0697 349.103 81.8698C348.689 81.792 348.289 82.0624 348.211 82.4736C348.132 82.8849 348.405 83.2813 348.819 83.3591C355.069 84.5323 358.448 85.61 364.275 88.95C364.64 89.1593 365.107 89.0352 365.318 88.6727Z" fill="black"/>
<path fill-rule="evenodd" clip-rule="evenodd" d="M354.837 92.6701C355.049 92.3077 354.924 91.8442 354.558 91.6349C348.561 88.197 345.014 87.0671 338.622 85.8672C338.208 85.7894 337.808 86.0598 337.73 86.471C337.651 86.8823 337.924 87.2787 338.338 87.3565C344.588 88.5297 347.967 89.6074 353.794 92.9474C354.159 93.1567 354.626 93.0326 354.837 92.6701Z" fill="black"/>
<path fill-rule="evenodd" clip-rule="evenodd" d="M344.102 80.3436C344.313 79.9812 344.188 79.5177 343.823 79.3084C337.825 75.8706 334.279 74.7406 327.887 73.5408C327.472 73.463 327.073 73.7333 326.994 74.1445C326.916 74.5558 327.188 74.9522 327.602 75.03C333.852 76.2032 337.232 77.2809 343.058 80.6209C343.423 80.8302 343.891 80.7061 344.102 80.3436Z" fill="black"/>
<path fill-rule="evenodd" clip-rule="evenodd" d="M698.067 73.8399C697.759 73.5548 697.279 73.5756 696.995 73.8862C692.331 78.9882 690.454 82.2027 687.888 88.1784C687.721 88.5658 687.898 89.0148 688.282 89.1812C688.666 89.3476 689.112 89.1685 689.279 88.7811C691.788 82.9382 693.578 79.8754 698.109 74.9186C698.393 74.6079 698.374 74.125 698.067 73.8399Z" fill="black"/>
<path fill-rule="evenodd" clip-rule="evenodd" d="M699.679 84.9404C699.372 84.6553 698.892 84.676 698.608 84.9867C693.944 90.0887 692.067 93.3031 689.5 99.2789C689.334 99.6663 689.51 100.115 689.895 100.282C690.279 100.448 690.725 100.269 690.892 99.8815C693.401 94.0387 695.191 90.9759 699.722 86.0191C700.006 85.7084 699.987 85.2255 699.679 84.9404Z" fill="black"/>
<path fill-rule="evenodd" clip-rule="evenodd" d="M685.306 92.7259C684.998 92.4408 684.519 92.4615 684.235 92.7722C679.57 97.8742 677.693 101.089 675.127 107.064C674.96 107.452 675.137 107.901 675.521 108.067C675.905 108.234 676.352 108.054 676.518 107.667C679.028 101.824 680.817 98.7614 685.349 93.8046C685.633 93.4939 685.614 93.011 685.306 92.7259Z" fill="black"/>
<path fill-rule="evenodd" clip-rule="evenodd" d="M706.83 114.496C706.522 114.211 706.043 114.232 705.759 114.542C701.094 119.644 699.217 122.859 696.651 128.834C696.484 129.222 696.661 129.671 697.045 129.837C697.429 130.004 697.876 129.824 698.042 129.437C700.551 123.594 702.341 120.531 706.873 115.575C707.157 115.264 707.137 114.781 706.83 114.496Z" fill="black"/>
<path fill-rule="evenodd" clip-rule="evenodd" d="M708.443 125.596C708.135 125.311 707.655 125.332 707.371 125.643C702.707 130.745 700.83 133.959 698.263 139.935C698.097 140.322 698.274 140.771 698.658 140.938C699.042 141.104 699.488 140.925 699.655 140.538C702.164 134.695 703.954 131.632 708.485 126.675C708.769 126.364 708.75 125.881 708.443 125.596Z" fill="black"/>
<path fill-rule="evenodd" clip-rule="evenodd" d="M694.069 133.382C693.762 133.097 693.282 133.118 692.998 133.428C688.334 138.53 686.457 141.745 683.89 147.72C683.724 148.108 683.9 148.557 684.284 148.723C684.668 148.89 685.115 148.71 685.281 148.323C687.791 142.48 689.58 139.417 694.112 134.461C694.396 134.15 694.377 133.667 694.069 133.382Z" fill="black"/>
<path fill-rule="evenodd" clip-rule="evenodd" d="M384.088 237.757C383.673 237.699 383.291 237.99 383.235 238.407C382.324 245.259 382.62 248.97 383.929 255.341C384.014 255.754 384.415 256.021 384.826 255.938C385.236 255.855 385.5 255.453 385.415 255.04C384.135 248.811 383.854 245.275 384.74 238.618C384.795 238.2 384.503 237.815 384.088 237.757Z" fill="black"/>
<path fill-rule="evenodd" clip-rule="evenodd" d="M391.755 245.945C391.34 245.886 390.958 246.178 390.902 246.595C389.991 253.447 390.287 257.158 391.596 263.528C391.681 263.941 392.082 264.209 392.493 264.126C392.903 264.043 393.167 263.641 393.082 263.228C391.802 256.999 391.521 253.463 392.407 246.805C392.462 246.388 392.17 246.003 391.755 245.945Z" fill="black"/>
<path fill-rule="evenodd" clip-rule="evenodd" d="M384.409 260.547C383.994 260.489 383.612 260.78 383.557 261.198C382.645 268.05 382.941 271.76 384.25 278.131C384.335 278.544 384.737 278.812 385.147 278.729C385.557 278.646 385.821 278.243 385.736 277.83C384.457 271.602 384.175 268.066 385.061 261.408C385.116 260.991 384.825 260.606 384.409 260.547Z" fill="black"/>
<path fill-rule="evenodd" clip-rule="evenodd" d="M426.805 118.848C426.494 118.567 426.015 118.595 425.735 118.909C421.142 124.076 419.31 127.316 416.826 133.327C416.665 133.716 416.848 134.163 417.234 134.324C417.621 134.485 418.065 134.299 418.226 133.91C420.654 128.033 422.401 124.945 426.863 119.926C427.143 119.612 427.117 119.129 426.805 118.848Z" fill="black"/>
<path fill-rule="evenodd" clip-rule="evenodd" d="M428.572 129.925C428.26 129.644 427.781 129.672 427.501 129.986C422.908 135.153 421.076 138.393 418.592 144.404C418.431 144.793 418.614 145.24 419 145.401C419.387 145.562 419.831 145.377 419.992 144.987C422.42 139.11 424.167 136.022 428.629 131.003C428.909 130.689 428.883 130.206 428.572 129.925Z" fill="black"/>
<path fill-rule="evenodd" clip-rule="evenodd" d="M414.308 137.909C413.996 137.629 413.517 137.656 413.237 137.97C408.644 143.137 406.812 146.377 404.329 152.388C404.168 152.777 404.35 153.224 404.737 153.385C405.123 153.546 405.567 153.361 405.728 152.971C408.156 147.094 409.903 144.007 414.366 138.987C414.645 138.673 414.619 138.19 414.308 137.909Z" fill="black"/>
<path fill-rule="evenodd" clip-rule="evenodd" d="M400.915 334.679C401.227 334.386 401.717 334.401 402.01 334.712C424.809 358.966 438.078 371.704 454.986 375.395C463.434 377.239 472.847 376.833 484.893 374.379C496.946 371.923 511.581 367.429 530.462 361.135C530.868 361 531.306 361.219 531.442 361.625C531.577 362.031 531.358 362.469 530.952 362.605C512.071 368.898 497.356 373.42 485.203 375.897C473.043 378.374 463.394 378.816 454.655 376.908C437.19 373.095 423.591 359.932 400.882 335.774C400.589 335.462 400.604 334.972 400.915 334.679Z" fill="black"/>
<path fill-rule="evenodd" clip-rule="evenodd" d="M500.247 469.404C499.897 469.159 499.414 469.244 499.169 469.594C491.585 480.436 484.58 487.125 474.722 489.836C464.819 492.559 451.895 491.309 432.377 485.87C431.965 485.756 431.538 485.997 431.423 486.409C431.308 486.821 431.549 487.248 431.961 487.363C451.528 492.815 464.8 494.171 475.133 491.33C485.511 488.476 492.78 481.43 500.438 470.482C500.683 470.132 500.598 469.649 500.247 469.404Z" fill="black"/>
<path d="M466.628 471.258C466.478 472.317 467.143 473.286 468.114 473.424C469.085 473.561 469.993 472.814 470.143 471.755C470.293 470.696 469.628 469.726 468.657 469.589C467.686 469.452 466.778 470.199 466.628 471.258Z" fill="black"/>
<path fill-rule="evenodd" clip-rule="evenodd" d="M328.444 433.763C328.863 433.675 329.274 433.943 329.362 434.361C332.095 447.307 335.921 456.205 343.929 462.56C351.975 468.944 364.356 472.855 384.445 475.494C384.869 475.55 385.168 475.939 385.112 476.363C385.056 476.787 384.667 477.086 384.243 477.03C364.104 474.384 351.361 470.434 342.966 463.773C334.535 457.083 330.605 447.753 327.846 434.681C327.758 434.263 328.026 433.852 328.444 433.763Z" fill="black"/>
<path d="M354.2 451.905C353.754 452.877 352.67 453.333 351.779 452.924C350.888 452.515 350.528 451.395 350.974 450.423C351.421 449.451 352.505 448.995 353.396 449.405C354.287 449.814 354.647 450.934 354.2 451.905Z" fill="black"/>
</g>
<defs>
<clipPath id="clip0_481_1260">
<rect width="1024" height="1024" fill="white"/>
</clipPath>
</defs>
</svg>
