<svg width="1024" height="953" viewBox="0 0 1024 953" fill="none" xmlns="http://www.w3.org/2000/svg">
<path d="M966.036 907.931C966.036 932.548 791.221 952.504 575.575 952.504C359.929 952.504 185.113 932.548 185.113 907.931C185.113 883.314 359.929 863.358 575.575 863.358C791.221 863.358 966.036 883.314 966.036 907.931Z" fill="black" fill-opacity="0.05"/>
<path d="M873.887 738.81C883.224 793.792 840.923 872.24 796.949 858.498L800.684 859.994L770.806 916.846C770.806 916.846 817.864 912.225 831.31 905.999C844.756 899.773 901.524 867.1 911.608 810.623C921.692 754.146 875.999 575.414 901.524 506.916C927.05 438.418 973.233 417.151 943.354 412.288C913.476 407.426 876.881 421.097 865.297 468.392C853.712 515.686 864.55 683.829 873.887 738.81Z" fill="#F7C67C"/>
<path d="M380.916 879.28C387.174 866.812 373.922 735.903 380.916 731.005C387.91 726.107 415.887 739.465 415.887 739.465L419.568 905.105C419.568 905.105 401.162 920.244 390.487 921.58C379.812 922.916 343.001 925.587 347.786 905.105C352.572 884.623 374.658 891.747 380.916 879.28Z" fill="#DBAA61"/>
<path d="M506.04 458.475C559.974 566.342 674.64 602.246 788.301 698.079C901.963 793.911 780.611 911.339 780.611 911.339C772.142 923.819 538.133 940.586 534.567 940.312C522.978 939.42 496.234 942.094 496.68 919.808C497.125 897.521 520.749 885.932 523.869 885.932H583.777C579.875 884.856 558.845 877.971 544.351 858.002C526.5 841 523.903 849.11 496 811C468.097 772.89 461.304 776.03 460.5 787C459.696 797.97 463.809 926.54 448.095 933.626C432.381 940.711 377.669 938.529 374.549 919.808C371.429 901.087 389.258 900.195 399.064 895.292C415.556 841.805 385.246 773.162 385.246 773.162C296.245 638.507 284.425 565.905 307.243 466.943L506.04 458.475Z" fill="#F7C67C"/>
<path fill-rule="evenodd" clip-rule="evenodd" d="M506.723 492.933C506.977 492.512 507.524 492.38 507.944 492.638C514.85 496.871 518.006 499.882 522.833 505.78C523.146 506.162 523.093 506.725 522.714 507.037C522.336 507.349 521.775 507.292 521.462 506.909C516.742 501.143 513.734 498.274 507.024 494.161C506.604 493.904 506.469 493.354 506.723 492.933Z" fill="black"/>
<path fill-rule="evenodd" clip-rule="evenodd" d="M508.505 505.956C508.759 505.535 509.306 505.403 509.726 505.661C516.633 509.894 519.788 512.905 524.615 518.802C524.928 519.185 524.875 519.748 524.496 520.059C524.118 520.371 523.557 520.314 523.244 519.932C518.524 514.166 515.516 511.297 508.807 507.184C508.386 506.926 508.251 506.376 508.505 505.956Z" fill="black"/>
<path fill-rule="evenodd" clip-rule="evenodd" d="M527.214 510.064C527.468 509.643 528.015 509.511 528.435 509.769C535.341 514.002 538.497 517.013 543.324 522.91C543.637 523.293 543.584 523.856 543.205 524.167C542.827 524.479 542.266 524.422 541.953 524.04C537.233 518.274 534.225 515.405 527.515 511.292C527.095 511.034 526.96 510.484 527.214 510.064Z" fill="black"/>
<path fill-rule="evenodd" clip-rule="evenodd" d="M308.493 301.362C308.249 300.936 308.399 300.394 308.829 300.152C315.887 296.177 320.053 294.884 327.554 293.535C328.04 293.447 328.506 293.768 328.594 294.25C328.682 294.733 328.36 295.195 327.874 295.283C320.54 296.602 316.57 297.834 309.713 301.696C309.283 301.938 308.737 301.789 308.493 301.362Z" fill="black"/>
<path fill-rule="evenodd" clip-rule="evenodd" d="M320.738 306.139C320.494 305.713 320.644 305.171 321.074 304.929C328.132 300.954 332.298 299.661 339.799 298.312C340.285 298.225 340.751 298.545 340.839 299.028C340.928 299.51 340.605 299.972 340.119 300.06C332.785 301.379 328.815 302.612 321.958 306.474C321.528 306.716 320.982 306.566 320.738 306.139Z" fill="black"/>
<path fill-rule="evenodd" clip-rule="evenodd" d="M333.428 291.791C333.184 291.364 333.334 290.822 333.764 290.58C340.822 286.605 344.988 285.313 352.488 283.964C352.975 283.876 353.441 284.197 353.529 284.679C353.617 285.162 353.295 285.624 352.808 285.711C345.475 287.031 341.505 288.263 334.648 292.125C334.218 292.367 333.672 292.218 333.428 291.791Z" fill="black"/>
<path fill-rule="evenodd" clip-rule="evenodd" d="M577.059 542.817C577.247 542.363 577.768 542.151 578.222 542.343C585.685 545.494 589.256 547.998 594.912 553.106C595.278 553.437 595.31 554.002 594.982 554.367C594.655 554.732 594.092 554.759 593.725 554.428C588.195 549.434 584.791 547.048 577.541 543.987C577.087 543.795 576.871 543.271 577.059 542.817Z" fill="black"/>
<path fill-rule="evenodd" clip-rule="evenodd" d="M580.772 555.426C580.96 554.972 581.481 554.76 581.935 554.952C589.397 558.103 592.969 560.607 598.625 565.715C598.991 566.046 599.023 566.611 598.695 566.976C598.368 567.341 597.805 567.368 597.438 567.037C591.908 562.043 588.504 559.657 581.254 556.596C580.8 556.404 580.584 555.88 580.772 555.426Z" fill="black"/>
<path fill-rule="evenodd" clip-rule="evenodd" d="M599.885 556.686C600.073 556.232 600.594 556.019 601.048 556.211C608.511 559.362 612.082 561.867 617.738 566.974C618.104 567.306 618.136 567.87 617.808 568.235C617.481 568.6 616.918 568.628 616.551 568.297C611.021 563.303 607.617 560.917 600.367 557.855C599.913 557.663 599.697 557.14 599.885 556.686Z" fill="black"/>
<path fill-rule="evenodd" clip-rule="evenodd" d="M336.372 674.244C335.964 674.518 335.413 674.406 335.141 673.995C330.673 667.238 329.088 663.174 327.208 655.789C327.086 655.31 327.373 654.822 327.848 654.7C328.323 654.577 328.807 654.866 328.929 655.345C330.766 662.566 332.279 666.438 336.619 673.003C336.891 673.415 336.78 673.97 336.372 674.244Z" fill="black"/>
<path fill-rule="evenodd" clip-rule="evenodd" d="M340.266 661.69C339.858 661.964 339.306 661.852 339.034 661.441C334.567 654.683 332.981 650.62 331.102 643.234C330.98 642.756 331.266 642.268 331.741 642.146C332.216 642.023 332.7 642.312 332.822 642.791C334.66 650.012 336.172 653.884 340.512 660.449C340.784 660.86 340.674 661.416 340.266 661.69Z" fill="black"/>
<path fill-rule="evenodd" clip-rule="evenodd" d="M325.051 650.054C324.643 650.327 324.091 650.216 323.819 649.804C319.352 643.047 317.766 638.984 315.887 631.598C315.765 631.12 316.051 630.632 316.526 630.51C317.001 630.387 317.485 630.676 317.607 631.155C319.445 638.376 320.957 642.248 325.297 648.813C325.569 649.224 325.459 649.78 325.051 650.054Z" fill="black"/>
<path fill-rule="evenodd" clip-rule="evenodd" d="M367.454 709.544C367.084 709.868 366.523 709.827 366.201 709.454C360.91 703.32 358.82 699.491 356.016 692.405C355.834 691.945 356.056 691.425 356.512 691.243C356.968 691.062 357.484 691.287 357.666 691.746C360.408 698.675 362.4 702.323 367.54 708.282C367.862 708.656 367.824 709.221 367.454 709.544Z" fill="black"/>
<path fill-rule="evenodd" clip-rule="evenodd" d="M369.719 696.597C369.349 696.92 368.788 696.88 368.465 696.506C363.175 690.372 361.085 686.544 358.281 679.457C358.099 678.998 358.321 678.478 358.777 678.296C359.233 678.114 359.749 678.339 359.931 678.798C362.673 685.727 364.665 689.375 369.805 695.335C370.127 695.708 370.089 696.273 369.719 696.597Z" fill="black"/>
<path fill-rule="evenodd" clip-rule="evenodd" d="M353.147 686.991C352.777 687.314 352.216 687.274 351.893 686.9C346.603 680.766 344.513 676.938 341.709 669.851C341.527 669.392 341.749 668.872 342.205 668.69C342.661 668.508 343.177 668.733 343.359 669.193C346.101 676.121 348.093 679.769 353.233 685.729C353.555 686.102 353.517 686.667 353.147 686.991Z" fill="black"/>
<path fill-rule="evenodd" clip-rule="evenodd" d="M327.683 634.768C327.241 634.982 326.71 634.795 326.498 634.35C323.015 627.036 322.01 622.792 321.177 615.216C321.123 614.725 321.474 614.283 321.962 614.227C322.449 614.172 322.888 614.526 322.942 615.017C323.757 622.424 324.715 626.468 328.1 633.573C328.312 634.019 328.125 634.553 327.683 634.768Z" fill="black"/>
<path fill-rule="evenodd" clip-rule="evenodd" d="M333.286 622.878C332.843 623.092 332.313 622.905 332.101 622.459C328.617 615.146 327.613 610.902 326.779 603.326C326.725 602.835 327.077 602.392 327.564 602.337C328.052 602.282 328.491 602.636 328.545 603.127C329.36 610.533 330.318 614.578 333.702 621.683C333.914 622.129 333.728 622.663 333.286 622.878Z" fill="black"/>
<path fill-rule="evenodd" clip-rule="evenodd" d="M319.838 609.237C319.396 609.451 318.866 609.264 318.653 608.819C315.17 601.506 314.166 597.261 313.332 589.686C313.278 589.195 313.63 588.752 314.117 588.697C314.605 588.642 315.044 588.995 315.098 589.486C315.912 596.893 316.871 600.937 320.255 608.043C320.467 608.488 320.281 609.023 319.838 609.237Z" fill="black"/>
<path fill-rule="evenodd" clip-rule="evenodd" d="M524.168 901.982C524.24 902.404 523.956 902.804 523.535 902.876C513.987 904.503 508.263 906.743 504.83 910.343C501.416 913.921 500.132 918.988 499.865 926.661C499.85 927.088 499.491 927.423 499.064 927.408C498.636 927.393 498.302 927.034 498.317 926.607C498.587 918.844 499.886 913.281 503.709 909.273C507.511 905.287 513.675 902.985 523.275 901.349C523.696 901.277 524.096 901.561 524.168 901.982Z" fill="black"/>
<path fill-rule="evenodd" clip-rule="evenodd" d="M541.401 911.046C541.473 911.467 541.189 911.867 540.768 911.939C531.22 913.566 525.496 915.806 522.062 919.406C518.649 922.984 517.365 928.051 517.098 935.724C517.083 936.152 516.724 936.486 516.297 936.471C515.869 936.456 515.535 936.098 515.55 935.67C515.82 927.907 517.119 922.345 520.941 918.337C524.743 914.351 530.908 912.048 540.507 910.412C540.929 910.341 541.329 910.624 541.401 911.046Z" fill="black"/>
<path fill-rule="evenodd" clip-rule="evenodd" d="M393.262 904.794C393.318 905.12 393.099 905.428 392.774 905.484C386.378 906.573 382.564 908.071 380.282 910.464C378.015 912.841 377.155 916.211 376.976 921.349C376.965 921.678 376.688 921.936 376.358 921.925C376.029 921.913 375.771 921.637 375.782 921.307C375.963 916.1 376.835 912.347 379.417 909.64C381.984 906.949 386.137 905.402 392.573 904.306C392.898 904.25 393.207 904.469 393.262 904.794Z" fill="black"/>
<path fill-rule="evenodd" clip-rule="evenodd" d="M400.648 912.916C400.707 913.243 400.487 913.551 400.155 913.604C393.641 914.648 389.764 916.121 387.454 918.503C385.161 920.869 384.31 924.243 384.167 929.395C384.157 929.725 383.877 929.982 383.541 929.968C383.205 929.954 382.939 929.674 382.949 929.344C383.093 924.122 383.953 920.365 386.566 917.669C389.163 914.99 393.387 913.471 399.942 912.421C400.273 912.368 400.589 912.589 400.648 912.916Z" fill="black"/>
<path fill-rule="evenodd" clip-rule="evenodd" d="M533.469 530.302C533.674 529.855 534.203 529.662 534.65 529.871C541.988 533.301 545.462 535.938 550.922 541.255C551.276 541.6 551.286 542.165 550.945 542.518C550.604 542.87 550.041 542.876 549.687 542.532C544.348 537.333 541.037 534.821 533.907 531.488C533.46 531.28 533.264 530.748 533.469 530.302Z" fill="black"/>
<path fill-rule="evenodd" clip-rule="evenodd" d="M536.705 543.041C536.91 542.595 537.439 542.402 537.885 542.611C545.224 546.04 548.698 548.678 554.158 553.995C554.512 554.34 554.522 554.905 554.181 555.257C553.84 555.61 553.276 555.616 552.922 555.271C547.584 550.073 544.272 547.56 537.143 544.228C536.696 544.019 536.5 543.488 536.705 543.041Z" fill="black"/>
<path fill-rule="evenodd" clip-rule="evenodd" d="M555.757 545.019C555.962 544.573 556.491 544.38 556.937 544.589C564.276 548.019 567.75 550.656 573.21 555.973C573.564 556.318 573.574 556.883 573.233 557.235C572.892 557.588 572.328 557.594 571.974 557.25C566.636 552.051 563.324 549.538 556.195 546.206C555.748 545.997 555.552 545.466 555.757 545.019Z" fill="black"/>
<path fill-rule="evenodd" clip-rule="evenodd" d="M812.03 804.237C812.515 804.321 812.836 804.782 812.749 805.268C811.311 813.239 809.65 817.273 805.908 823.911C805.665 824.342 805.121 824.496 804.693 824.257C804.265 824.017 804.115 823.474 804.357 823.044C808.017 816.553 809.598 812.709 810.995 804.964C811.083 804.478 811.546 804.153 812.03 804.237Z" fill="black"/>
<path fill-rule="evenodd" clip-rule="evenodd" d="M800.543 810.624C801.027 810.708 801.349 811.17 801.261 811.655C799.823 819.627 798.163 823.661 794.42 830.299C794.177 830.729 793.634 830.884 793.205 830.644C792.777 830.405 792.627 829.862 792.87 829.431C796.529 822.94 798.111 819.096 799.508 811.351C799.595 810.866 800.059 810.541 800.543 810.624Z" fill="black"/>
<path fill-rule="evenodd" clip-rule="evenodd" d="M803.506 829.549C803.99 829.632 804.312 830.094 804.224 830.579C802.786 838.551 801.126 842.585 797.383 849.223C797.14 849.654 796.596 849.808 796.168 849.569C795.74 849.329 795.59 848.786 795.833 848.355C799.492 841.864 801.074 838.02 802.47 830.275C802.558 829.79 803.022 829.465 803.506 829.549Z" fill="black"/>
<path fill-rule="evenodd" clip-rule="evenodd" d="M810.885 754.077C811.376 754.065 811.781 754.455 811.79 754.948C811.937 763.047 811.097 767.327 808.723 774.569C808.569 775.038 808.066 775.296 807.599 775.145C807.132 774.993 806.879 774.49 807.033 774.02C809.354 766.94 810.154 762.861 810.011 754.992C810.002 754.499 810.393 754.089 810.885 754.077Z" fill="black"/>
<path fill-rule="evenodd" clip-rule="evenodd" d="M800.866 762.586C801.357 762.573 801.763 762.963 801.772 763.456C801.919 771.555 801.078 775.835 798.704 783.077C798.55 783.547 798.047 783.805 797.581 783.653C797.114 783.502 796.86 782.998 797.014 782.529C799.336 775.448 800.136 771.369 799.993 763.501C799.984 763.008 800.375 762.598 800.866 762.586Z" fill="black"/>
<path fill-rule="evenodd" clip-rule="evenodd" d="M807.468 780.566C807.96 780.554 808.365 780.944 808.374 781.437C808.521 789.536 807.681 793.816 805.306 801.058C805.153 801.527 804.649 801.785 804.183 801.634C803.716 801.483 803.463 800.979 803.617 800.51C805.938 793.429 806.738 789.35 806.595 781.481C806.586 780.988 806.977 780.579 807.468 780.566Z" fill="black"/>
<path fill-rule="evenodd" clip-rule="evenodd" d="M534.763 808.076C531.164 816.092 530.951 827.451 537.097 843.538C549.315 875.522 580.462 887.56 608.802 891.561C622.951 893.559 636.339 893.543 646.193 893.025C651.119 892.767 655.158 892.383 657.964 892.064C659.367 891.905 660.461 891.762 661.203 891.659C661.574 891.608 661.857 891.566 662.047 891.538C662.142 891.523 662.213 891.512 662.261 891.505L662.314 891.497L662.327 891.495L662.33 891.494C662.33 891.494 662.33 891.494 662.454 892.259C662.577 893.023 662.576 893.023 662.575 893.023L662.571 893.024L662.556 893.026L662.499 893.035C662.459 893.042 662.402 893.05 662.33 893.061L662.277 893.069C662.082 893.099 661.793 893.141 661.416 893.193C660.662 893.298 659.555 893.443 658.139 893.603C655.306 893.925 651.235 894.311 646.274 894.572C636.355 895.093 622.862 895.111 608.585 893.095C580.071 889.069 548.178 876.884 535.65 844.09C529.422 827.787 529.521 815.971 533.35 807.442C537.18 798.911 544.663 793.844 552.822 790.87C560.978 787.897 569.891 786.984 576.738 786.808C580.167 786.72 583.09 786.817 585.157 786.935C586.191 786.995 587.011 787.06 587.575 787.11C587.856 787.135 588.074 787.157 588.222 787.172C588.296 787.179 588.352 787.186 588.391 787.19L588.435 787.195L588.45 787.196C588.45 787.196 588.451 787.197 588.361 787.966L588.451 787.197C588.876 787.246 589.18 787.63 589.131 788.055C589.081 788.48 588.697 788.784 588.272 788.735L588.321 788.313C588.272 788.735 588.272 788.735 588.272 788.735L588.27 788.735L588.26 788.734L588.221 788.729C588.186 788.726 588.133 788.72 588.063 788.712C587.922 788.698 587.711 788.677 587.437 788.653C586.888 788.604 586.084 788.54 585.068 788.482C583.036 788.365 580.157 788.27 576.778 788.357C570.011 788.531 561.287 789.434 553.352 792.326C545.421 795.217 538.361 800.063 534.763 808.076ZM663.218 892.135C663.286 892.558 662.999 892.955 662.577 893.023L662.454 892.259L662.33 891.494C662.752 891.426 663.15 891.713 663.218 892.135Z" fill="black"/>
<path fill-rule="evenodd" clip-rule="evenodd" d="M498.891 465.564C499.248 465.799 499.346 466.28 499.11 466.637C467.481 514.525 445.607 537.968 420.268 544.628C407.587 547.96 394.114 547.071 378.24 543.056C362.375 539.042 344.052 531.889 321.658 522.642C321.263 522.479 321.075 522.026 321.238 521.631C321.401 521.235 321.854 521.047 322.249 521.211C344.652 530.461 362.878 537.572 378.619 541.554C394.35 545.533 407.538 546.372 419.874 543.13C444.567 536.64 466.152 513.727 497.818 465.783C498.053 465.426 498.534 465.328 498.891 465.564Z" fill="black"/>
<path d="M343.164 631.007C338.242 637.638 331.273 643.411 323.999 645.246C304.493 650.168 236.86 644.455 213.14 579.211C209.193 568.355 206.614 559.814 205.075 553.144C199.841 552.977 193.095 552.16 184.457 550.457C138.625 541.421 123.217 503.404 147.654 447.354C150.07 441.812 152.375 437.025 154.569 432.904C150.256 432.165 145.463 431.042 140.148 429.458C97.3867 416.715 113.286 349.846 134.626 315.022C139.301 307.394 144.023 302.113 148.551 298.623C145.863 290.941 145.162 279.42 148.232 262.631C159.849 199.111 246.32 119.054 288.902 124.364C312.566 127.315 324.913 140.586 331.206 153.631C364.311 75.0139 491.113 110.362 492.748 154.83C492.936 159.936 493.029 164.444 493.031 168.418C501.516 165.693 512.983 163.782 528.165 163.431C589.07 162.02 618.527 244.902 621.97 277.018C623.442 290.75 620.982 301.246 616.953 308.444C623.842 310.021 632.479 313.402 643.053 319.477C686.89 344.661 659.307 429.697 625.126 447.292C613.172 453.445 602.925 458.344 594.559 461.653C601.64 466.926 610.398 474.74 621.117 485.908C664.868 531.493 603.531 634.909 535.57 628.967C535.57 628.967 513.711 628.119 496.396 624.929C496.864 626.583 497.276 628.37 497.62 630.294C511.646 724.834 383.627 673.638 360.559 652.207C354.406 646.49 348.03 638.657 343.164 631.007Z" fill="#DB7943"/>
<path fill-rule="evenodd" clip-rule="evenodd" d="M597.271 207.24C612.744 231.902 621.006 260.765 622.739 276.936C624.166 290.245 621.94 300.605 618.114 307.925C624.925 309.612 633.313 312.988 643.438 318.805C665.811 331.658 669.813 359.688 664.103 386.392C661.241 399.781 655.925 412.93 649.17 423.847C642.422 434.752 634.197 443.493 625.48 447.98C614.119 453.828 604.28 458.554 596.121 461.861C603.047 467.145 611.484 474.753 621.676 485.372C643.917 508.546 639.326 546.237 620.9 577.157C602.463 608.095 569.908 632.737 535.521 629.74L535.475 629.738L535.287 629.73C535.121 629.723 534.877 629.712 534.56 629.698C533.927 629.668 533.003 629.622 531.84 629.558C529.516 629.428 526.236 629.222 522.414 628.916C515.126 628.332 505.85 627.384 497.462 625.908C497.806 627.246 498.114 628.662 498.382 630.158L498.384 630.169L498.386 630.18C501.914 653.967 496.535 668.828 485.843 677.225C475.212 685.575 459.548 687.347 442.914 685.509C426.251 683.669 408.45 678.188 393.378 671.832C378.326 665.485 365.899 658.225 360.032 652.774C354.075 647.239 347.925 639.755 343.111 632.356C338.172 638.698 331.364 644.186 324.189 645.997C314.253 648.504 292.3 648.279 269.861 639.259C247.383 630.224 224.36 612.339 212.412 579.475C208.571 568.911 206.017 560.519 204.455 553.897C199.254 553.687 192.649 552.861 184.307 551.217C161.194 546.66 145.62 534.755 138.978 516.804C132.354 498.9 134.685 475.161 146.944 447.044C149.185 441.903 151.333 437.405 153.388 433.482C149.318 432.739 144.841 431.665 139.927 430.201C129.021 426.95 121.828 420.23 117.548 411.438C113.28 402.672 111.923 391.885 112.576 380.476C113.881 357.664 123.241 332.118 133.965 314.618C138.528 307.172 143.157 301.911 147.641 298.352C145.042 290.501 144.455 278.975 147.47 262.492C153.32 230.503 177.972 194.47 206.418 167.128C220.652 153.446 235.872 141.906 250.222 134.115C264.548 126.337 278.112 122.238 288.997 123.596C312.064 126.472 324.555 139.056 331.155 151.798C348.283 113.29 388.125 102.774 423.875 107.305C441.998 109.602 459.152 115.768 471.899 124.181C484.616 132.574 493.099 143.315 493.521 154.802C493.693 159.469 493.786 163.641 493.803 167.365C502.267 164.781 513.503 162.995 528.147 162.656C559.003 161.942 581.805 182.588 597.271 207.24ZM492.256 167.856C479.734 171.99 473.591 177.97 471.751 183.486C469.874 189.117 472.56 194.151 477.28 195.619C479.775 196.395 482.107 197.087 484.159 197.152C486.273 197.22 488.152 196.626 489.648 194.817C491.094 193.068 492.117 190.257 492.792 186.053C493.453 181.935 493.792 176.383 493.805 168.985C502.147 166.379 513.373 164.548 528.183 164.205C558.232 163.509 580.611 183.599 595.959 208.063C611.302 232.519 619.49 261.155 621.199 277.101C622.623 290.38 620.328 300.541 616.553 307.562C605.942 305.254 599.275 307.183 596.14 310.402C594.54 312.044 593.87 314.029 594.163 315.873C594.457 317.725 595.705 319.319 597.696 320.187C600.651 321.475 604.295 321.051 607.831 319.129C611.252 317.27 614.63 313.984 617.339 309.33C624.042 310.938 632.427 314.265 642.667 320.148C664.131 332.479 668.256 359.56 662.589 386.068C659.762 399.286 654.513 412.269 647.853 423.032C641.186 433.806 633.145 442.293 624.771 446.603C613.014 452.654 602.93 457.482 594.674 460.774C589.342 456.836 584.934 454.318 581.33 452.895C577.659 451.446 574.754 451.107 572.54 451.637C570.284 452.177 568.83 453.602 568.083 455.45C567.35 457.264 567.308 459.45 567.747 461.586C568.143 463.517 569.084 464.986 570.579 465.946C572.049 466.888 573.971 467.285 576.249 467.257C580.71 467.203 586.838 465.513 594.441 462.532C601.417 467.767 610.032 475.476 620.558 486.444C642.067 508.856 637.865 545.664 619.57 576.364C601.289 607.038 569.204 631.13 535.637 628.195L535.618 628.194L535.599 628.193L535.591 628.401C535.599 628.193 535.6 628.193 535.599 628.193L535.599 628.193L535.584 628.192L535.538 628.19L535.353 628.183C535.281 628.18 535.194 628.176 535.092 628.171C534.963 628.166 534.809 628.159 534.632 628.15C534.003 628.121 533.084 628.076 531.927 628.011C529.612 627.882 526.345 627.677 522.538 627.372C515.057 626.773 505.51 625.791 497.007 624.253C494.073 614.255 489.027 608.918 484.355 607.546C481.967 606.845 479.673 607.189 477.919 608.522C476.172 609.85 475.068 612.075 474.873 614.932C474.773 616.398 475.464 617.678 476.596 618.761C477.719 619.836 479.335 620.778 481.266 621.614C485.025 623.242 490.176 624.55 495.779 625.602C496.186 627.097 496.548 628.701 496.855 630.418C500.336 653.896 494.973 668.085 484.886 676.007C474.738 683.977 459.585 685.793 443.084 683.97C426.613 682.15 408.961 676.722 393.98 670.405C378.979 664.08 366.753 656.904 361.086 651.639C355.106 646.084 348.9 638.497 344.103 631.037C348.114 625.506 350.765 619.365 350.978 614.325C351.087 611.728 350.551 609.356 349.139 607.531C347.717 605.693 345.49 604.515 342.437 604.159C339.334 603.797 337.027 604.371 335.604 605.915C334.196 607.443 333.851 609.711 334.152 612.269C334.744 617.281 337.894 624.084 342.224 630.969C337.385 637.336 330.696 642.758 323.81 644.495C314.239 646.91 292.623 646.739 270.439 637.822C248.294 628.92 225.64 611.326 213.868 578.946C210.118 568.631 207.61 560.426 206.058 553.943C211.211 554.029 214.902 553.462 217.482 552.439C220.254 551.341 221.784 549.698 222.395 547.773C222.993 545.888 222.663 543.878 222.03 542.107C221.394 540.328 220.422 538.702 219.614 537.531C218.738 536.26 216.906 534.47 214.794 533.025C212.703 531.594 210.164 530.381 207.883 530.495C206.709 530.554 205.596 530.967 204.685 531.875C203.787 532.77 203.144 534.089 202.78 535.862C202.085 539.246 202.361 544.5 204.096 552.331C199.064 552.099 192.673 551.287 184.607 549.697C161.888 545.218 146.842 533.595 140.431 516.267C134.002 498.891 136.185 475.596 148.364 447.664C150.677 442.356 152.886 437.749 154.991 433.761C169.958 436.238 179.26 434.116 184.488 430.51C189.763 426.871 190.914 421.639 189.171 418.438C188.394 417.011 187.1 414.765 185.267 412.813C183.436 410.863 181.001 409.135 177.937 408.882C174.857 408.627 171.327 409.878 167.351 413.492C163.451 417.037 159.062 422.904 154.15 432.045C150.014 431.311 145.433 430.225 140.369 428.716C129.895 425.595 123.039 419.178 118.941 410.76C114.829 402.315 113.478 391.819 114.122 380.565C115.411 358.051 124.671 332.75 135.286 315.427C139.636 308.329 144.008 303.311 148.195 299.894C150.109 304.812 152.877 308.133 156.019 310.207C159.368 312.417 163.089 313.176 166.54 313C169.983 312.823 173.188 311.715 175.534 310.15C177.838 308.612 179.498 306.498 179.42 304.257C179.269 299.957 175.495 295.206 169.815 293.134C164.264 291.109 156.873 291.608 148.948 297.358C146.6 289.857 146.069 278.76 148.994 262.771C154.76 231.24 179.152 195.484 207.491 168.245C221.65 154.636 236.759 143.187 250.961 135.476C265.187 127.752 278.401 123.835 288.806 125.133C311.976 128.022 324.111 140.906 330.356 153.655C325.301 165.76 323.122 174.133 322.743 179.722C322.367 185.266 323.76 188.43 326.33 189.419C327.575 189.898 328.956 189.794 330.27 189.347C331.586 188.899 332.891 188.09 334.041 187.071C336.318 185.052 338.147 182.063 338.157 179.094C338.174 174.298 337.018 164.055 332.055 153.612C348.499 115.017 387.914 104.308 423.681 108.842C441.601 111.113 458.522 117.209 471.046 125.474C483.598 133.758 491.578 144.112 491.974 154.859C492.152 159.718 492.246 164.031 492.256 167.856ZM331.246 155.556C326.603 166.894 324.638 174.684 324.289 179.827C323.92 185.259 325.355 187.384 326.887 187.974C327.693 188.284 328.683 188.251 329.77 187.881C330.855 187.511 331.985 186.823 333.013 185.911C335.092 184.069 336.6 181.466 336.608 179.089C336.624 174.673 335.594 165.302 331.246 155.556ZM149.472 298.896C151.292 303.803 153.945 306.982 156.872 308.914C159.908 310.917 163.291 311.615 166.461 311.453C169.638 311.29 172.571 310.264 174.674 308.861C176.819 307.43 177.922 305.743 177.872 304.311C177.749 300.811 174.548 296.509 169.284 294.589C164.193 292.732 157.186 293.137 149.472 298.896ZM155.763 432.317C170.219 434.626 178.901 432.481 183.608 429.235C188.446 425.898 189.062 421.477 187.811 419.179C187.047 417.776 185.83 415.675 184.138 413.873C182.444 412.069 180.341 410.634 177.809 410.425C175.293 410.218 172.169 411.206 168.392 414.638C164.739 417.959 160.531 423.52 155.763 432.317ZM205.696 552.387C210.954 552.507 214.536 551.941 216.912 550.999C219.351 550.033 220.478 548.693 220.919 547.305C221.372 545.877 221.149 544.244 220.572 542.629C219.998 541.023 219.105 539.521 218.339 538.41C217.6 537.337 215.922 535.674 213.919 534.304C211.896 532.919 209.715 531.954 207.96 532.042C207.117 532.085 206.383 532.369 205.779 532.971C205.162 533.586 204.622 534.591 204.297 536.173C203.658 539.284 203.895 544.395 205.696 552.387ZM343.209 629.623C346.913 624.37 349.241 618.739 349.43 614.26C349.53 611.9 349.034 609.927 347.914 608.479C346.803 607.042 344.997 606.017 342.257 605.698C339.381 605.362 337.683 605.945 336.743 606.965C335.788 608.002 335.41 609.708 335.691 612.088C336.226 616.624 339.081 622.97 343.209 629.623ZM495.292 623.932C492.408 614.686 487.763 610.161 483.919 609.032C481.93 608.448 480.162 608.763 478.857 609.755C477.544 610.752 476.591 612.517 476.419 615.037C476.36 615.896 476.741 616.756 477.667 617.641C478.6 618.535 480.027 619.389 481.881 620.192C485.315 621.679 490.034 622.915 495.292 623.932ZM592.965 461.443C588.057 457.887 584.025 455.625 580.762 454.336C577.241 452.946 574.682 452.717 572.901 453.143C571.163 453.559 570.091 454.616 569.519 456.03C568.934 457.478 568.866 459.334 569.264 461.275C569.589 462.857 570.321 463.94 571.415 464.642C572.535 465.36 574.119 465.734 576.23 465.708C580.226 465.659 585.826 464.187 592.965 461.443ZM615.749 308.974C605.657 306.878 599.8 308.864 597.249 311.483C595.935 312.832 595.488 314.342 595.693 315.63C595.896 316.911 596.761 318.089 598.315 318.767C600.707 319.81 603.839 319.536 607.092 317.768C610.123 316.12 613.206 313.197 615.749 308.974ZM492.255 169.49C492.227 176.598 491.89 181.899 491.262 185.808C490.601 189.93 489.631 192.405 488.454 193.83C487.326 195.194 485.952 195.66 484.209 195.604C482.405 195.546 480.279 194.93 477.74 194.14C473.923 192.953 471.592 188.86 473.221 183.976C474.817 179.189 480.291 173.54 492.255 169.49Z" fill="black"/>
<path d="M241.478 430.454C241.954 363.366 312.544 286.21 385.559 286.372C458.574 286.535 526.495 355.588 529.641 430.454C532.786 505.32 425.972 574.535 385.559 574.535C345.147 574.535 241.002 497.542 241.478 430.454Z" fill="#F7C67C"/>
<path fill-rule="evenodd" clip-rule="evenodd" d="M466.082 427.749C466.082 427.75 466.082 427.75 465.173 427.782L466.082 427.75C466.099 428.253 465.706 428.674 465.204 428.691C464.702 428.708 464.281 428.315 464.263 427.813L464.263 427.808L464.262 427.789L464.259 427.709C464.256 427.637 464.251 427.529 464.243 427.388C464.227 427.105 464.201 426.688 464.16 426.157C464.077 425.094 463.931 423.575 463.681 421.758C463.182 418.118 462.268 413.307 460.618 408.579C458.963 403.84 456.593 399.256 453.219 396.005C449.875 392.783 445.526 390.846 439.785 391.387C434.054 391.928 430.014 394.75 427.138 398.726C424.242 402.732 422.528 407.916 421.545 413.11C420.564 418.295 420.324 423.422 420.331 427.261C420.335 429.179 420.4 430.77 420.464 431.879C420.496 432.434 420.528 432.868 420.551 433.162C420.563 433.309 420.573 433.421 420.58 433.496L420.587 433.579L420.589 433.599L420.59 433.604C420.59 433.604 420.59 433.604 420.59 433.604C420.64 434.104 420.275 434.55 419.775 434.6C419.275 434.65 418.829 434.286 418.779 433.786L419.685 433.695C418.779 433.786 418.779 433.785 418.779 433.785L418.779 433.783L418.778 433.776L418.776 433.752L418.768 433.66C418.76 433.579 418.75 433.461 418.738 433.308C418.713 433.001 418.68 432.553 418.648 431.984C418.582 430.846 418.515 429.221 418.512 427.265C418.505 423.357 418.748 418.107 419.757 412.772C420.765 407.448 422.547 401.97 425.664 397.66C428.802 393.321 433.29 390.173 439.614 389.576C445.927 388.98 450.789 391.137 454.482 394.695C458.144 398.225 460.635 403.108 462.336 407.979C464.04 412.86 464.974 417.8 465.484 421.51C465.739 423.367 465.888 424.922 465.974 426.015C466.017 426.561 466.043 426.992 466.06 427.288C466.068 427.436 466.073 427.55 466.077 427.628L466.081 427.717L466.081 427.741L466.082 427.748L466.082 427.749Z" fill="black"/>
<path fill-rule="evenodd" clip-rule="evenodd" d="M466.082 427.749C466.082 427.75 466.082 427.75 465.173 427.782L466.082 427.75C466.099 428.253 465.706 428.674 465.204 428.691C464.702 428.708 464.281 428.315 464.263 427.813L464.263 427.808L464.262 427.789L464.259 427.709C464.256 427.637 464.251 427.529 464.243 427.388C464.227 427.105 464.201 426.688 464.16 426.157C464.077 425.094 463.931 423.575 463.681 421.758C463.182 418.118 462.268 413.307 460.618 408.579C458.963 403.84 456.593 399.256 453.219 396.005C449.875 392.783 445.526 390.846 439.785 391.387C434.054 391.928 430.014 394.75 427.138 398.726C424.242 402.732 422.528 407.916 421.545 413.11C420.564 418.295 420.324 423.422 420.331 427.261C420.335 429.179 420.4 430.77 420.464 431.879C420.496 432.434 420.528 432.868 420.551 433.162C420.563 433.309 420.573 433.421 420.58 433.496L420.587 433.579L420.589 433.599L420.59 433.604C420.59 433.604 420.59 433.604 420.59 433.604C420.64 434.104 420.275 434.55 419.775 434.6C419.275 434.65 418.829 434.286 418.779 433.786L419.685 433.695C418.779 433.786 418.779 433.785 418.779 433.785L418.779 433.783L418.778 433.776L418.776 433.752L418.768 433.66C418.76 433.579 418.75 433.461 418.738 433.308C418.713 433.001 418.68 432.553 418.648 431.984C418.582 430.846 418.515 429.221 418.512 427.265C418.505 423.357 418.748 418.107 419.757 412.772C420.765 407.448 422.547 401.97 425.664 397.66C428.802 393.321 433.29 390.173 439.614 389.576C445.927 388.98 450.789 391.137 454.482 394.695C458.144 398.225 460.635 403.108 462.336 407.979C464.04 412.86 464.974 417.8 465.484 421.51C465.739 423.367 465.888 424.922 465.974 426.015C466.017 426.561 466.043 426.992 466.06 427.288C466.068 427.436 466.073 427.55 466.077 427.628L466.081 427.717L466.081 427.741L466.082 427.748L466.082 427.749Z" fill="black"/>
<path fill-rule="evenodd" clip-rule="evenodd" d="M357.659 427.749C357.659 427.75 357.659 427.75 356.75 427.782L357.659 427.75C357.676 428.253 357.283 428.674 356.781 428.691C356.279 428.708 355.858 428.315 355.841 427.813L355.841 427.808L355.84 427.789L355.836 427.709C355.833 427.637 355.828 427.529 355.82 427.388C355.805 427.105 355.779 426.688 355.737 426.157C355.654 425.094 355.508 423.575 355.259 421.758C354.759 418.118 353.846 413.307 352.195 408.579C350.541 403.84 348.17 399.256 344.796 396.005C341.453 392.783 337.103 390.846 331.362 391.387C325.631 391.928 321.591 394.75 318.716 398.726C315.819 402.732 314.105 407.916 313.123 413.11C312.142 418.295 311.902 423.422 311.909 427.261C311.912 429.179 311.977 430.77 312.041 431.879C312.073 432.434 312.105 432.868 312.129 433.162C312.141 433.309 312.15 433.421 312.157 433.496L312.165 433.579L312.167 433.599L312.167 433.604C312.167 433.604 312.167 433.604 312.167 433.604C312.217 434.104 311.852 434.55 311.353 434.6C310.853 434.65 310.407 434.286 310.357 433.786L311.262 433.695C310.357 433.786 310.357 433.785 310.357 433.785L310.356 433.783L310.356 433.776L310.353 433.752L310.345 433.66C310.338 433.579 310.327 433.461 310.315 433.308C310.29 433.001 310.258 432.553 310.225 431.984C310.159 430.846 310.093 429.221 310.089 427.265C310.082 423.357 310.325 418.107 311.335 412.772C312.342 407.448 314.125 401.97 317.241 397.66C320.379 393.321 324.868 390.173 331.191 389.576C337.504 388.98 342.366 391.137 346.059 394.695C349.722 398.225 352.212 403.108 353.913 407.979C355.617 412.86 356.552 417.8 357.061 421.51C357.316 423.367 357.466 424.922 357.551 426.015C357.594 426.561 357.621 426.992 357.637 427.288C357.645 427.436 357.651 427.55 357.654 427.628L357.658 427.717L357.659 427.741L357.659 427.748L357.659 427.749Z" fill="black"/>
<path fill-rule="evenodd" clip-rule="evenodd" d="M357.659 427.749C357.659 427.75 357.659 427.75 356.75 427.782L357.659 427.75C357.676 428.253 357.283 428.674 356.781 428.691C356.279 428.708 355.858 428.315 355.841 427.813L355.841 427.808L355.84 427.789L355.836 427.709C355.833 427.637 355.828 427.529 355.82 427.388C355.805 427.105 355.779 426.688 355.737 426.157C355.654 425.094 355.508 423.575 355.259 421.758C354.759 418.118 353.846 413.307 352.195 408.579C350.541 403.84 348.17 399.256 344.796 396.005C341.453 392.783 337.103 390.846 331.362 391.387C325.631 391.928 321.591 394.75 318.716 398.726C315.819 402.732 314.105 407.916 313.123 413.11C312.142 418.295 311.902 423.422 311.909 427.261C311.912 429.179 311.977 430.77 312.041 431.879C312.073 432.434 312.105 432.868 312.129 433.162C312.141 433.309 312.15 433.421 312.157 433.496L312.165 433.579L312.167 433.599L312.167 433.604C312.167 433.604 312.167 433.604 312.167 433.604C312.217 434.104 311.852 434.55 311.353 434.6C310.853 434.65 310.407 434.286 310.357 433.786L311.262 433.695C310.357 433.786 310.357 433.785 310.357 433.785L310.356 433.783L310.356 433.776L310.353 433.752L310.345 433.66C310.338 433.579 310.327 433.461 310.315 433.308C310.29 433.001 310.258 432.553 310.225 431.984C310.159 430.846 310.093 429.221 310.089 427.265C310.082 423.357 310.325 418.107 311.335 412.772C312.342 407.448 314.125 401.97 317.241 397.66C320.379 393.321 324.868 390.173 331.191 389.576C337.504 388.98 342.366 391.137 346.059 394.695C349.722 398.225 352.212 403.108 353.913 407.979C355.617 412.86 356.552 417.8 357.061 421.51C357.316 423.367 357.466 424.922 357.551 426.015C357.594 426.561 357.621 426.992 357.637 427.288C357.645 427.436 357.651 427.55 357.654 427.628L357.658 427.717L357.659 427.741L357.659 427.748L357.659 427.749Z" fill="black"/>
<path d="M411.993 490.31C410.057 483.34 365.527 484.502 361.654 490.31C357.782 496.119 379.854 519.352 387.598 519.352C395.343 519.352 413.93 497.28 411.993 490.31Z" fill="black"/>
<path fill-rule="evenodd" clip-rule="evenodd" d="M439.174 503.721C439.594 503.798 439.873 504.201 439.796 504.622L439.034 504.483C439.796 504.622 439.796 504.622 439.796 504.623L439.795 504.63L439.791 504.649L439.777 504.721C439.765 504.783 439.747 504.875 439.723 504.995C439.674 505.233 439.601 505.582 439.5 506.025C439.298 506.911 438.988 508.177 438.551 509.705C437.677 512.759 436.296 516.869 434.262 521.083C430.218 529.462 423.479 538.489 412.819 540.098C407.529 540.897 403.244 539.976 399.804 538.114C396.376 536.258 393.832 533.491 391.969 530.659C390.106 527.826 388.906 524.904 388.172 522.696C387.805 521.591 387.553 520.66 387.392 520.003C387.311 519.674 387.254 519.414 387.216 519.234C387.197 519.144 387.183 519.074 387.174 519.026C387.169 519.001 387.165 518.983 387.163 518.97L387.16 518.954L387.159 518.95L387.159 518.948C387.159 518.948 387.159 518.947 387.921 518.81C388.683 518.672 388.683 518.672 388.683 518.672L388.683 518.674L388.685 518.684L388.694 518.729C388.702 518.77 388.714 518.833 388.732 518.915C388.766 519.08 388.82 519.324 388.896 519.635C389.049 520.257 389.29 521.147 389.642 522.208C390.348 524.332 391.496 527.122 393.263 529.807C395.03 532.493 397.399 535.05 400.542 536.752C403.673 538.447 407.616 539.317 412.588 538.567C422.45 537.078 428.876 528.68 432.867 520.409C434.851 516.298 436.204 512.276 437.061 509.279C437.49 507.782 437.793 506.544 437.989 505.681C438.088 505.25 438.159 504.913 438.205 504.685C438.228 504.571 438.245 504.485 438.257 504.427L438.269 504.363L438.272 504.347L438.272 504.344" fill="black"/>
<path fill-rule="evenodd" clip-rule="evenodd" d="M335.507 503.334C335.086 503.411 334.807 503.814 334.884 504.235L335.646 504.095C334.884 504.235 334.884 504.235 334.884 504.236L334.885 504.242L334.889 504.261L334.903 504.333C334.915 504.396 334.933 504.488 334.957 504.607C335.006 504.846 335.08 505.194 335.18 505.638C335.382 506.524 335.693 507.79 336.13 509.318C337.003 512.372 338.385 516.482 340.418 520.695C344.462 529.075 351.201 538.102 361.861 539.711C367.151 540.51 371.436 539.589 374.876 537.727C378.304 535.87 380.848 533.104 382.711 530.271C384.574 527.439 385.774 524.517 386.508 522.309C386.875 521.204 387.128 520.273 387.288 519.616C387.369 519.287 387.426 519.026 387.464 518.846C387.483 518.756 387.497 518.687 387.507 518.638C387.511 518.614 387.515 518.596 387.517 518.582L387.52 518.567L387.521 518.562L387.521 518.561C387.521 518.561 387.521 518.56 386.759 518.423C385.997 518.285 385.997 518.285 385.997 518.285L385.997 518.287L385.995 518.297L385.986 518.342C385.978 518.383 385.966 518.446 385.949 518.528C385.914 518.692 385.86 518.936 385.784 519.247C385.632 519.87 385.391 520.76 385.038 521.821C384.332 523.945 383.184 526.734 381.417 529.42C379.65 532.106 377.281 534.663 374.139 536.365C371.008 538.06 367.064 538.93 362.093 538.18C352.23 536.691 345.804 528.293 341.813 520.022C339.829 515.911 338.476 511.889 337.619 508.892C337.19 507.395 336.887 506.156 336.691 505.294C336.593 504.863 336.521 504.526 336.475 504.298C336.452 504.184 336.435 504.097 336.424 504.04L336.411 503.975L336.408 503.96L336.408 503.957" fill="black"/>
<path d="M405.733 539.333H366.624C378.114 537.857 384.262 532.777 387.147 518.423C390.951 532.089 395.518 538.62 405.733 539.333Z" fill="black"/>
<path fill-rule="evenodd" clip-rule="evenodd" d="M386.767 518.346L387.519 518.319C389.418 525.14 391.494 530.122 394.332 533.486C397.151 536.827 400.745 538.596 405.76 538.946L405.733 539.72H366.624L366.574 538.949C372.274 538.217 376.591 536.598 379.842 533.43C383.097 530.258 385.332 525.486 386.767 518.346ZM387.2 520.019C385.743 526.416 383.55 530.898 380.382 533.985C377.847 536.455 374.714 538.006 370.901 538.945H401.252C398.229 538.046 395.787 536.412 393.74 533.985C391.008 530.748 388.996 526.121 387.2 520.019Z" fill="black"/>
<path d="M545.235 252.146C582.098 281.531 525.047 341.048 525.047 341.048L468.165 291.222C468.165 291.222 508.371 222.76 545.235 252.146Z" fill="#F7C67C"/>
<path fill-rule="evenodd" clip-rule="evenodd" d="M521.165 266.109C526.247 265.562 531.127 266.354 534.89 269.59C538.644 272.818 540.148 277.291 540.341 282.078C540.533 286.853 539.425 292.003 537.89 296.717C536.352 301.438 534.37 305.766 532.774 308.91C531.976 310.484 531.274 311.764 530.77 312.651C530.518 313.095 530.315 313.442 530.175 313.678C530.105 313.795 530.051 313.886 530.014 313.947L529.971 314.017L529.96 314.036L529.957 314.041L529.956 314.042C529.956 314.042 529.956 314.043 529.296 313.637C528.88 313.38 528.726 313.286 528.67 313.251C528.637 313.231 528.637 313.231 528.637 313.231L528.637 313.23L528.64 313.226L528.649 313.211L528.688 313.146C528.723 313.088 528.775 313.002 528.843 312.888C528.978 312.659 529.176 312.322 529.423 311.887C529.916 311.017 530.607 309.758 531.393 308.209C532.966 305.109 534.912 300.857 536.417 296.237C537.925 291.608 538.975 286.656 538.793 282.14C538.612 277.636 537.211 273.629 533.88 270.765C530.56 267.908 526.17 267.128 521.331 267.649C516.49 268.17 511.291 269.987 506.484 272.205C501.685 274.42 497.318 277.016 494.148 279.061C492.563 280.083 491.281 280.965 490.395 281.591C489.952 281.905 489.609 282.153 489.377 282.324C489.261 282.409 489.173 282.474 489.114 282.518L489.048 282.567L489.032 282.579L489.027 282.583C489.027 282.583 489.027 282.583 488.56 281.965C488.092 281.348 488.093 281.348 488.093 281.348L488.099 281.343L488.118 281.329L488.188 281.276C488.25 281.23 488.341 281.162 488.461 281.075C488.7 280.9 489.05 280.645 489.501 280.327C490.402 279.69 491.703 278.794 493.308 277.759C496.516 275.69 500.949 273.054 505.835 270.799C510.714 268.547 516.087 266.655 521.165 266.109Z" fill="black"/>
<path d="M537.564 309.614C563.134 324.304 539.934 342.64 539.934 342.64L534.422 356.42L446.457 291.927C446.457 291.927 456.639 254.912 472.927 255.65C489.215 256.388 492.774 269.28 492.528 274.71C492.499 275.348 492.451 276.058 492.384 276.818C493.812 276.161 495.513 275.636 497.528 275.295C514.118 272.488 523.72 287.734 525.683 301.205C525.85 302.35 525.945 303.428 525.978 304.44C529.075 305.296 532.893 306.93 537.564 309.614Z" fill="#DB7943"/>
<path fill-rule="evenodd" clip-rule="evenodd" d="M489.555 262.966C492.564 267.118 493.431 271.876 493.301 274.745C493.289 275.023 493.273 275.316 493.253 275.619C494.474 275.163 495.851 274.793 497.398 274.532C505.991 273.078 512.792 276.315 517.661 281.622C522.508 286.904 525.451 294.238 526.449 301.093C526.589 302.054 526.681 302.973 526.727 303.849C529.807 304.765 533.513 306.393 537.95 308.942C544.441 312.671 547.943 316.693 549.447 320.699C550.954 324.714 550.409 328.59 549.056 331.927C547.706 335.254 545.541 338.083 543.732 340.067C542.825 341.063 542.001 341.854 541.402 342.397C541.102 342.669 540.858 342.879 540.688 343.023C540.602 343.095 540.536 343.15 540.489 343.187C540.479 343.196 540.469 343.204 540.461 343.21C540.451 343.219 540.443 343.225 540.436 343.231L540.421 343.243L540.417 343.246L540.415 343.247C540.415 343.247 540.414 343.248 539.934 342.64C539.454 342.033 539.454 342.033 539.454 342.033L539.454 342.033L539.456 342.031L539.466 342.023C539.476 342.015 539.491 342.003 539.511 341.987C539.551 341.954 539.611 341.904 539.69 341.838C539.847 341.706 540.076 341.508 540.361 341.25C540.931 340.733 541.719 339.977 542.587 339.024C544.33 337.111 546.366 334.438 547.62 331.345C548.871 328.262 549.332 324.799 547.997 321.244C546.659 317.68 543.472 313.901 537.178 310.285C533.034 307.904 529.595 306.373 526.763 305.48C526.715 310.003 525.395 313.229 523.508 315.163C521.049 317.685 517.621 317.946 515.325 315.827C514.17 314.761 513.395 312.833 513.242 310.863C513.087 308.874 513.552 306.656 515.111 305.048C516.689 303.421 519.24 302.569 522.935 303.027C523.629 303.113 524.366 303.246 525.149 303.429C525.1 302.755 525.024 302.051 524.917 301.316C523.953 294.7 521.113 287.676 516.52 282.669C511.95 277.688 505.655 274.705 497.657 276.059C495.892 276.357 494.389 276.799 493.114 277.342C492.885 279.754 492.484 282.583 491.936 285.143C491.555 286.922 491.098 288.599 490.567 289.925C490.301 290.588 490.009 291.185 489.685 291.671C489.368 292.146 488.981 292.576 488.5 292.821C487.781 293.188 487.089 292.869 486.638 292.461C486.185 292.052 485.805 291.432 485.515 290.724C484.928 289.294 484.607 287.273 484.917 285.13C485.229 282.975 486.184 280.677 488.172 278.734C489.104 277.824 490.252 277.002 491.65 276.311C491.696 275.727 491.731 275.177 491.754 274.675C491.87 272.114 491.081 267.711 488.301 263.875C485.547 260.076 480.806 256.782 472.892 256.424C465.184 256.075 460.284 261.184 457.258 266.6C455.751 269.297 454.738 272.024 454.101 274.082C453.783 275.11 453.56 275.967 453.417 276.565C453.346 276.864 453.294 277.098 453.261 277.255C453.244 277.334 453.232 277.394 453.225 277.434L453.216 277.477L453.214 277.487L453.214 277.489L453.214 277.49C453.214 277.49 453.214 277.489 452.452 277.347C451.691 277.205 451.691 277.205 451.691 277.204L451.691 277.203L451.692 277.199L451.695 277.185L451.705 277.132C451.714 277.087 451.728 277.021 451.746 276.936C451.782 276.765 451.836 276.518 451.911 276.205C452.06 275.579 452.292 274.689 452.621 273.625C453.279 271.499 454.33 268.664 455.906 265.844C459.045 260.227 464.382 254.488 472.962 254.876C481.337 255.256 486.518 258.777 489.555 262.966ZM491.473 278.164C490.6 278.677 489.867 279.243 489.254 279.842C487.539 281.518 486.72 283.491 486.45 285.352C486.179 287.226 486.468 288.967 486.948 290.136C487.191 290.728 487.459 291.116 487.676 291.312C487.751 291.38 487.801 291.41 487.829 291.423C487.969 291.341 488.165 291.159 488.397 290.811C488.64 290.446 488.886 289.955 489.129 289.349C489.614 288.139 490.049 286.558 490.422 284.819C490.885 282.654 491.241 280.288 491.473 278.164ZM487.859 291.431C487.86 291.432 487.853 291.433 487.839 291.427C487.852 291.426 487.859 291.429 487.859 291.431ZM525.216 305.039C524.324 304.814 523.502 304.658 522.744 304.564C519.365 304.145 517.361 304.953 516.223 306.126C515.066 307.32 514.654 309.044 514.786 310.743C514.92 312.462 515.595 313.969 516.375 314.689C517.949 316.142 520.42 316.112 522.399 314.082C523.986 312.455 525.252 309.506 525.216 305.039Z" fill="black"/>
<path d="M222.098 262.38C191.701 295.938 254.987 343.528 254.987 343.528L301.197 287.498C301.197 287.498 252.494 228.823 222.098 262.38Z" fill="#F7C67C"/>
<path fill-rule="evenodd" clip-rule="evenodd" d="M246.562 272.653C241.453 272.777 236.718 274.202 233.412 277.904C230.115 281.596 229.209 286.228 229.646 290.998C230.081 295.757 231.855 300.718 233.995 305.189C236.139 309.668 238.672 313.699 240.666 316.607C241.663 318.062 242.528 319.239 243.144 320.053C243.452 320.46 243.698 320.777 243.867 320.992C243.952 321.1 244.018 321.183 244.063 321.239L244.114 321.303L244.128 321.319L244.131 321.324L244.132 321.325C244.133 321.325 244.133 321.326 244.733 320.837C245.113 320.528 245.252 320.414 245.304 320.372C245.334 320.348 245.334 320.348 245.334 320.348L245.333 320.347L245.331 320.344L245.319 320.329L245.272 320.27C245.23 320.218 245.167 320.139 245.085 320.035C244.921 319.826 244.681 319.517 244.379 319.118C243.775 318.321 242.925 317.164 241.943 315.731C239.977 312.864 237.49 308.904 235.392 304.521C233.291 300.13 231.6 295.358 231.188 290.857C230.777 286.368 231.641 282.213 234.567 278.936C237.485 275.669 241.734 274.319 246.6 274.201C251.468 274.083 256.86 275.203 261.916 276.772C266.964 278.338 271.634 280.339 275.045 281.95C276.749 282.756 278.137 283.462 279.097 283.967C279.577 284.22 279.95 284.421 280.202 284.56C280.328 284.629 280.424 284.682 280.488 284.718L280.56 284.758L280.578 284.768L280.583 284.771C280.583 284.771 280.583 284.771 280.965 284.097C281.348 283.424 281.348 283.424 281.347 283.424L281.34 283.42L281.32 283.408L281.243 283.365C281.176 283.328 281.076 283.272 280.947 283.201C280.687 283.059 280.306 282.853 279.818 282.596C278.841 282.083 277.434 281.366 275.707 280.55C272.255 278.919 267.515 276.887 262.375 275.292C257.243 273.7 251.669 272.529 246.562 272.653Z" fill="black"/>
<path d="M237.879 321.831C215.008 340.449 240.859 354.808 240.859 354.808L248.519 367.52L324.948 289.701C324.948 289.701 308.936 254.809 292.979 258.161C277.023 261.513 275.587 274.81 276.705 280.129C276.836 280.754 276.998 281.448 277.186 282.187C275.671 281.769 273.908 281.524 271.864 281.512C255.038 281.414 248.017 298.007 248.25 311.619C248.27 312.776 248.349 313.855 248.48 314.859C245.561 316.203 242.056 318.431 237.879 321.831Z" fill="#DB7943"/>
<path fill-rule="evenodd" clip-rule="evenodd" d="M277.747 268.06C275.446 272.643 275.356 277.478 275.947 280.288C276.004 280.561 276.067 280.847 276.135 281.144C274.857 280.89 273.438 280.747 271.869 280.738C263.155 280.687 256.963 284.977 253.013 291C249.08 296.994 247.357 304.706 247.476 311.632C247.492 312.603 247.55 313.525 247.645 314.397C244.753 315.796 241.358 318.001 237.39 321.231C231.584 325.957 228.775 330.49 227.936 334.686C227.096 338.891 228.258 342.629 230.131 345.704C231.999 348.771 234.592 351.213 236.696 352.881C237.752 353.717 238.693 354.365 239.372 354.805C239.711 355.025 239.986 355.193 240.177 355.308C240.273 355.365 240.348 355.408 240.399 355.438C240.411 355.445 240.422 355.451 240.431 355.456C240.442 355.463 240.452 355.468 240.459 355.472L240.476 355.481L240.48 355.484L240.482 355.485C240.482 355.485 240.483 355.485 240.859 354.808C241.235 354.131 241.235 354.132 241.235 354.132L241.235 354.131L241.233 354.13L241.221 354.124C241.211 354.118 241.194 354.108 241.172 354.095C241.127 354.07 241.059 354.03 240.971 353.978C240.795 353.872 240.536 353.714 240.214 353.505C239.568 353.087 238.669 352.468 237.658 351.667C235.63 350.06 233.19 347.749 231.454 344.899C229.723 342.057 228.711 338.714 229.455 334.99C230.202 331.258 232.738 327.014 238.368 322.432C242.074 319.414 245.222 317.35 247.873 316.012C248.649 320.468 250.471 323.439 252.645 325.045C255.478 327.137 258.903 326.843 260.828 324.382C261.796 323.143 262.25 321.116 262.084 319.147C261.916 317.159 261.101 315.045 259.303 313.709C257.484 312.357 254.828 311.927 251.256 312.974C250.585 313.171 249.878 313.421 249.135 313.728C249.075 313.055 249.037 312.348 249.024 311.605C248.91 304.92 250.581 297.53 254.308 291.849C258.016 286.197 263.748 282.239 271.86 282.287C273.65 282.297 275.204 282.491 276.55 282.822C277.164 285.165 278.016 287.892 278.969 290.331C279.631 292.025 280.353 293.606 281.091 294.83C281.46 295.441 281.844 295.984 282.242 296.411C282.631 296.829 283.083 297.191 283.597 297.355C284.366 297.601 284.997 297.175 285.377 296.7C285.758 296.223 286.033 295.55 286.205 294.805C286.554 293.298 286.546 291.252 285.894 289.188C285.239 287.111 283.927 284.996 281.652 283.4C280.586 282.651 279.32 282.025 277.829 281.568C277.689 280.999 277.566 280.462 277.462 279.97C276.935 277.461 277.005 272.989 279.131 268.755C281.237 264.562 285.386 260.548 293.138 258.919C300.69 257.333 306.349 261.587 310.208 266.444C312.129 268.863 313.569 271.391 314.529 273.32C315.008 274.283 315.366 275.093 315.603 275.66C315.722 275.944 315.81 276.166 315.869 276.317C315.898 276.392 315.919 276.449 315.933 276.487L315.949 276.529L315.952 276.538L315.953 276.54L315.953 276.54C315.953 276.54 315.953 276.54 316.682 276.277C317.41 276.014 317.41 276.014 317.41 276.014L317.409 276.012L317.408 276.008L317.403 275.995L317.384 275.945C317.368 275.901 317.344 275.838 317.313 275.757C317.25 275.595 317.156 275.359 317.032 275.062C316.783 274.469 316.412 273.627 315.915 272.63C314.924 270.639 313.43 268.01 311.42 265.481C307.418 260.442 301.225 255.638 292.82 257.403C284.616 259.127 280.069 263.436 277.747 268.06ZM278.302 283.369C279.246 283.734 280.061 284.175 280.762 284.667C282.724 286.045 283.851 287.86 284.417 289.654C284.987 291.46 284.982 293.224 284.696 294.455C284.552 295.078 284.35 295.505 284.167 295.733C284.104 295.812 284.06 295.85 284.034 295.868C283.883 295.809 283.66 295.661 283.375 295.355C283.076 295.034 282.754 294.589 282.417 294.03C281.744 292.913 281.059 291.423 280.412 289.767C279.606 287.705 278.873 285.427 278.302 283.369ZM284.005 295.88C284.005 295.881 284.012 295.881 284.025 295.873C284.012 295.874 284.006 295.878 284.005 295.88ZM249.329 315.327C250.172 314.961 250.959 314.676 251.692 314.461C254.959 313.503 257.067 313.977 258.379 314.952C259.714 315.944 260.397 317.579 260.541 319.277C260.686 320.995 260.262 322.591 259.608 323.428C258.289 325.115 255.846 325.483 253.565 323.799C251.737 322.449 250.012 319.742 249.329 315.327Z" fill="black"/>
<path d="M484.322 495.154C483.76 501.536 478.853 506.181 473.361 505.529C467.869 504.876 463.872 499.173 464.434 492.791C464.995 486.408 469.903 481.763 475.395 482.416C480.887 483.068 484.884 488.771 484.322 495.154Z" fill="#E92222" fill-opacity="0.34"/>
<path d="M313.948 495.154C313.387 501.536 308.479 506.181 302.987 505.529C297.495 504.876 293.499 499.173 294.06 492.791C294.622 486.408 299.529 481.763 305.021 482.416C310.513 483.068 314.51 488.771 313.948 495.154Z" fill="#E92222" fill-opacity="0.34"/>
<path fill-rule="evenodd" clip-rule="evenodd" d="M567.583 476.485C567.648 476.908 567.358 477.303 566.935 477.368C506.96 486.561 473.815 495.717 415.298 517.599C414.897 517.749 414.451 517.546 414.301 517.145C414.151 516.744 414.355 516.298 414.755 516.148C473.36 494.233 506.608 485.048 566.701 475.837C567.123 475.772 567.519 476.063 567.583 476.485Z" fill="black"/>
<path fill-rule="evenodd" clip-rule="evenodd" d="M567.292 499.391C567.316 499.818 566.989 500.183 566.562 500.206C505.978 503.548 472.103 509.451 411.741 525.564C411.328 525.675 410.903 525.429 410.793 525.016C410.683 524.603 410.928 524.178 411.342 524.068C471.793 507.931 505.774 502.008 566.476 498.66C566.903 498.636 567.269 498.964 567.292 499.391Z" fill="black"/>
<path fill-rule="evenodd" clip-rule="evenodd" d="M564.473 521.763C564.451 522.19 564.086 522.519 563.659 522.496C503.066 519.331 468.753 521.573 407.013 531.129C406.591 531.194 406.195 530.905 406.13 530.482C406.064 530.059 406.354 529.664 406.777 529.598C468.608 520.028 503.028 517.778 563.74 520.949C564.167 520.972 564.495 521.336 564.473 521.763Z" fill="black"/>
<path fill-rule="evenodd" clip-rule="evenodd" d="M207.097 476.098C207.032 476.521 207.322 476.916 207.745 476.981C267.72 486.174 300.865 495.33 359.382 517.212C359.783 517.362 360.229 517.158 360.379 516.758C360.529 516.357 360.325 515.911 359.925 515.761C301.32 493.846 268.072 484.661 207.98 475.45C207.557 475.385 207.162 475.675 207.097 476.098Z" fill="black"/>
<path fill-rule="evenodd" clip-rule="evenodd" d="M207.388 499.003C207.364 499.43 207.691 499.796 208.118 499.819C268.702 503.161 302.577 509.064 362.939 525.177C363.352 525.288 363.776 525.042 363.887 524.629C363.997 524.215 363.752 523.791 363.338 523.681C302.887 507.544 268.906 501.621 208.204 498.273C207.777 498.249 207.411 498.576 207.388 499.003Z" fill="black"/>
<path fill-rule="evenodd" clip-rule="evenodd" d="M210.207 521.376C210.23 521.803 210.594 522.131 211.021 522.109C271.614 518.944 305.927 521.185 367.667 530.742C368.089 530.807 368.485 530.518 368.551 530.095C368.616 529.672 368.326 529.276 367.904 529.211C306.072 519.641 271.652 517.391 210.94 520.562C210.513 520.585 210.185 520.949 210.207 521.376Z" fill="black"/>
<path fill-rule="evenodd" clip-rule="evenodd" d="M499.88 367.738C500.305 367.491 500.848 367.639 501.093 368.067C505.111 375.1 506.429 379.258 507.825 386.75C507.915 387.236 507.598 387.704 507.116 387.795C506.634 387.886 506.17 387.567 506.079 387.081C504.715 379.755 503.458 375.793 499.553 368.96C499.309 368.532 499.455 367.985 499.88 367.738Z" fill="black"/>
<path fill-rule="evenodd" clip-rule="evenodd" d="M495.178 380.013C495.603 379.766 496.146 379.913 496.391 380.341C500.41 387.375 501.728 391.533 503.123 399.025C503.214 399.51 502.896 399.978 502.414 400.07C501.932 400.161 501.468 399.841 501.378 399.355C500.013 392.03 498.756 388.068 494.852 381.235C494.607 380.806 494.753 380.259 495.178 380.013Z" fill="black"/>
<path fill-rule="evenodd" clip-rule="evenodd" d="M509.605 392.613C510.03 392.367 510.573 392.514 510.818 392.942C514.836 399.975 516.154 404.133 517.55 411.625C517.64 412.111 517.323 412.579 516.841 412.67C516.359 412.762 515.894 412.442 515.804 411.956C514.44 404.631 513.182 400.669 509.278 393.835C509.034 393.407 509.18 392.86 509.605 392.613Z" fill="black"/>
<path fill-rule="evenodd" clip-rule="evenodd" d="M312.639 320.731C312.317 320.36 311.756 320.322 311.385 320.648C305.298 325.993 302.7 329.496 298.945 336.127C298.701 336.557 298.849 337.103 299.276 337.346C299.702 337.589 300.245 337.438 300.488 337.008C304.16 330.524 306.637 327.186 312.551 321.993C312.921 321.668 312.961 321.103 312.639 320.731Z" fill="black"/>
<path fill-rule="evenodd" clip-rule="evenodd" d="M313.094 333.867C312.773 333.496 312.211 333.459 311.841 333.784C305.754 339.129 303.155 342.632 299.4 349.264C299.157 349.694 299.305 350.239 299.731 350.482C300.157 350.725 300.7 350.574 300.943 350.144C304.615 343.66 307.092 340.322 313.006 335.129C313.376 334.804 313.416 334.239 313.094 333.867Z" fill="black"/>
<path fill-rule="evenodd" clip-rule="evenodd" d="M295.355 341.093C295.033 340.722 294.472 340.685 294.101 341.01C288.015 346.355 285.416 349.858 281.661 356.49C281.417 356.92 281.565 357.465 281.992 357.708C282.418 357.951 282.961 357.8 283.204 357.37C286.876 350.886 289.353 347.548 295.267 342.355C295.637 342.03 295.677 341.465 295.355 341.093Z" fill="black"/>
<path fill-rule="evenodd" clip-rule="evenodd" d="M276.268 351.513C275.871 351.224 275.316 351.314 275.028 351.715C270.306 358.297 268.567 362.297 266.406 369.605C266.266 370.079 266.534 370.577 267.004 370.717C267.474 370.858 267.969 370.588 268.109 370.114C270.221 362.968 271.88 359.157 276.467 352.762C276.755 352.361 276.666 351.802 276.268 351.513Z" fill="black"/>
<path fill-rule="evenodd" clip-rule="evenodd" d="M279.68 364.206C279.282 363.917 278.727 364.008 278.44 364.408C273.718 370.99 271.978 374.99 269.818 382.299C269.678 382.772 269.946 383.27 270.416 383.411C270.886 383.551 271.38 383.281 271.52 382.807C273.632 375.662 275.291 371.85 279.879 365.456C280.166 365.055 280.077 364.496 279.68 364.206Z" fill="black"/>
<path fill-rule="evenodd" clip-rule="evenodd" d="M264.032 375.253C263.634 374.964 263.079 375.055 262.791 375.455C258.07 382.037 256.33 386.037 254.17 393.346C254.03 393.819 254.297 394.317 254.767 394.458C255.237 394.598 255.732 394.328 255.872 393.854C257.984 386.709 259.643 382.897 264.23 376.503C264.518 376.102 264.429 375.543 264.032 375.253Z" fill="black"/>
<path fill-rule="evenodd" clip-rule="evenodd" d="M466.707 333.283C467.064 332.945 467.626 332.963 467.963 333.323C473.496 339.239 475.739 342.98 478.826 349.948C479.026 350.4 478.825 350.928 478.377 351.128C477.929 351.328 477.404 351.124 477.204 350.673C474.185 343.86 472.048 340.295 466.672 334.548C466.335 334.187 466.351 333.621 466.707 333.283Z" fill="black"/>
<path fill-rule="evenodd" clip-rule="evenodd" d="M464.966 346.311C465.323 345.973 465.885 345.991 466.222 346.351C471.755 352.267 473.998 356.008 477.085 362.976C477.285 363.428 477.084 363.956 476.636 364.156C476.188 364.357 475.663 364.153 475.463 363.701C472.444 356.888 470.306 353.323 464.93 347.576C464.593 347.216 464.609 346.649 464.966 346.311Z" fill="black"/>
<path fill-rule="evenodd" clip-rule="evenodd" d="M481.911 355.242C482.268 354.904 482.83 354.922 483.167 355.282C488.701 361.198 490.943 364.939 494.03 371.907C494.23 372.358 494.029 372.887 493.581 373.087C493.133 373.287 492.608 373.083 492.408 372.631C489.389 365.819 487.252 362.254 481.876 356.506C481.539 356.146 481.555 355.58 481.911 355.242Z" fill="black"/>
<path d="M908.931 360.491C895.952 382.075 892.63 459.128 899.578 463.301C906.527 467.475 947.893 431.028 947.893 431.028C947.893 431.028 993.522 438.032 1000.57 430.908C1003.32 428.122 998.26 423.982 990.963 420.506C995.697 419.822 1000.14 419.005 1003.52 418.297C1016.91 415.489 1017.97 384.322 996.409 380.971C988.003 379.665 979.452 380.433 972.397 382.216C974.962 377.847 977.2 372.798 978.562 367.736C982.93 351.495 949.811 340.628 936.85 350.046C932.214 353.415 927.381 359.019 923.529 364.531C922.535 355.037 916.861 347.301 908.931 360.491Z" fill="#DB7943"/>
<path fill-rule="evenodd" clip-rule="evenodd" d="M949.441 345.778C944.49 345.831 939.811 346.937 936.395 349.42C932.119 352.527 927.708 357.469 924.027 362.503C923.837 361.422 923.586 360.381 923.276 359.409C922.723 357.67 921.973 356.111 921.025 354.934C920.076 353.756 918.885 352.91 917.463 352.729C916.035 352.547 914.535 353.055 913.015 354.251C911.501 355.441 909.917 357.348 908.271 360.086C900.486 372.519 898.114 387.188 895.951 421.165C895.924 421.592 896.248 421.96 896.674 421.987C897.101 422.015 897.469 421.691 897.497 421.264C899.664 387.223 902.039 372.953 909.587 360.902L909.591 360.896L909.594 360.89C911.191 358.235 912.661 356.499 913.972 355.468C915.277 354.442 916.372 354.151 917.267 354.265C918.169 354.38 919.03 354.926 919.819 355.906C920.609 356.887 921.283 358.254 921.8 359.878C922.233 361.239 922.547 362.754 922.728 364.327C921.246 366.462 919.915 368.577 918.801 370.536C917.783 372.326 916.938 374.002 916.32 375.46C915.709 376.905 915.299 378.188 915.189 379.178C915.135 379.669 915.145 380.164 915.301 380.59C915.472 381.058 915.822 381.437 916.358 381.576C916.835 381.7 917.349 381.603 917.838 381.422C918.341 381.235 918.91 380.924 919.545 380.5C922.259 378.688 923.696 375.035 924.221 371.159C924.502 369.078 924.53 366.872 924.329 364.74C928.117 359.355 932.822 353.93 937.305 350.673C940.369 348.446 944.691 347.378 949.458 347.327C954.214 347.276 959.336 348.24 963.928 349.992C968.528 351.748 972.538 354.272 975.121 357.299C977.689 360.308 978.825 363.776 977.814 367.535C976.5 372.422 974.354 377.3 971.892 381.546C969.987 382.038 968.192 382.604 966.539 383.222C962.594 384.697 959.393 386.495 957.434 388.366C956.455 389.301 955.736 390.301 955.431 391.337C955.115 392.41 955.257 393.481 955.926 394.443C956.567 395.364 957.423 395.91 958.436 396.053C959.419 396.192 960.464 395.94 961.503 395.449C963.573 394.469 965.868 392.418 968.107 389.738C969.741 387.782 971.375 385.454 972.899 382.888C979.801 381.185 988.119 380.467 996.29 381.737C1006.62 383.342 1011.57 391.586 1012.3 399.906C1012.67 404.066 1011.97 408.186 1010.4 411.412C1008.82 414.638 1006.41 416.9 1003.36 417.539C1000.05 418.233 995.709 419.032 991.084 419.706C989.08 418.76 986.924 417.869 984.726 417.069C979.504 415.17 973.973 413.762 969.603 413.399C967.427 413.218 965.473 413.29 963.974 413.732C962.467 414.176 961.263 415.054 960.957 416.564C960.684 417.914 961.022 419.076 961.881 419.99C962.7 420.863 963.941 421.457 965.393 421.866C968.305 422.686 972.434 422.863 976.951 422.678C981.369 422.497 986.235 421.966 990.841 421.306C993.349 422.513 995.568 423.791 997.261 425.052C998.817 426.21 999.846 427.293 1000.3 428.225C1000.52 428.678 1000.58 429.059 1000.54 429.38C1000.5 429.692 1000.36 430.02 1000.02 430.363C999.29 431.099 997.958 431.724 996.042 432.201C994.151 432.672 991.794 432.973 989.127 433.138C983.795 433.468 977.318 433.246 971.034 432.8C964.756 432.355 958.694 431.687 954.201 431.13C951.954 430.852 950.101 430.602 948.809 430.421C948.164 430.331 947.659 430.258 947.315 430.207C947.144 430.182 947.013 430.163 946.925 430.149L946.825 430.135L946.792 430.13C946.792 430.13 946.792 430.13 946.675 430.895C946.559 431.661 946.559 431.661 946.559 431.661L946.561 431.661L946.695 431.681C946.785 431.695 946.918 431.714 947.091 431.74C947.437 431.791 947.946 431.864 948.595 431.955C949.893 432.137 951.754 432.388 954.01 432.668C958.52 433.226 964.611 433.897 970.925 434.345C977.234 434.793 983.79 435.02 989.223 434.684C991.938 434.516 994.398 434.207 996.416 433.704C998.411 433.208 1000.08 432.497 1001.12 431.452C1001.66 430.905 1001.99 430.273 1002.08 429.573C1002.17 428.881 1002.01 428.196 1001.69 427.548C1001.07 426.277 999.802 425.013 998.186 423.81C996.871 422.83 995.273 421.852 993.491 420.908C997.329 420.307 1000.87 419.643 1003.68 419.055C1007.33 418.29 1010.07 415.604 1011.79 412.091C1013.5 408.579 1014.23 404.171 1013.85 399.77C1013.07 390.966 1007.76 381.952 996.528 380.206C988.691 378.989 980.737 379.548 973.949 381.052C976.174 377.003 978.089 372.477 979.31 367.938C980.483 363.576 979.118 359.596 976.299 356.293C973.496 353.009 969.235 350.36 964.481 348.545C959.719 346.728 954.404 345.725 949.441 345.778ZM946.675 430.895L946.559 431.661C946.137 431.596 945.845 431.201 945.91 430.779C945.974 430.356 946.37 430.065 946.792 430.13L946.675 430.895ZM988.194 420.105C984.379 420.6 980.479 420.983 976.887 421.13C972.402 421.314 968.478 421.126 965.813 420.375C964.478 419.999 963.55 419.506 963.01 418.93C962.509 418.396 962.298 417.749 962.475 416.871C962.621 416.151 963.19 415.578 964.412 415.217C965.642 414.855 967.374 414.768 969.475 414.942C973.66 415.291 979.05 416.653 984.196 418.525C985.56 419.021 986.901 419.551 988.194 420.105ZM970.727 383.47C969.493 385.423 968.204 387.205 966.918 388.745C964.732 391.362 962.611 393.211 960.841 394.049C959.961 394.465 959.231 394.601 958.653 394.519C958.105 394.442 957.616 394.159 957.198 393.558C956.808 392.999 956.727 392.417 956.917 391.775C957.116 391.097 957.63 390.32 958.503 389.486C960.249 387.82 963.231 386.113 967.082 384.673C968.229 384.244 969.448 383.84 970.727 383.47ZM922.902 366.83C922.936 368.218 922.867 369.613 922.686 370.951C922.18 374.687 920.836 377.776 918.685 379.212C918.104 379.6 917.647 379.841 917.299 379.969C916.983 380.087 916.821 380.087 916.764 380.08C916.762 380.075 916.759 380.067 916.756 380.059C916.718 379.956 916.686 379.735 916.729 379.348C916.813 378.584 917.153 377.467 917.747 376.064C918.335 374.675 919.15 373.055 920.147 371.302C920.959 369.873 921.887 368.365 922.902 366.83Z" fill="black"/>
<path fill-rule="evenodd" clip-rule="evenodd" d="M877.723 464.62C877.247 464.498 876.963 464.012 877.089 463.535C879.156 455.703 881.132 451.815 885.391 445.495C885.667 445.085 886.221 444.974 886.629 445.247C887.037 445.52 887.144 446.073 886.867 446.483C882.703 452.662 880.821 456.369 878.813 463.978C878.687 464.455 878.199 464.742 877.723 464.62Z" fill="black"/>
<path fill-rule="evenodd" clip-rule="evenodd" d="M889.682 459.166C889.206 459.044 888.922 458.558 889.048 458.081C891.115 450.249 893.091 446.361 897.35 440.041C897.626 439.631 898.18 439.52 898.588 439.793C898.996 440.066 899.102 440.619 898.826 441.029C894.662 447.208 892.78 450.915 890.772 458.524C890.646 459.001 890.158 459.288 889.682 459.166Z" fill="black"/>
<path fill-rule="evenodd" clip-rule="evenodd" d="M888.233 440.066C887.757 439.944 887.473 439.459 887.599 438.982C889.666 431.15 891.642 427.261 895.901 420.941C896.177 420.531 896.732 420.42 897.139 420.693C897.547 420.966 897.654 421.52 897.378 421.929C893.213 428.109 891.331 431.815 889.323 439.424C889.197 439.901 888.709 440.189 888.233 440.066Z" fill="black"/>
<path fill-rule="evenodd" clip-rule="evenodd" d="M882.415 485.064C881.939 484.942 881.655 484.456 881.781 483.98C883.848 476.147 885.824 472.259 890.083 465.939C890.359 465.529 890.913 465.418 891.321 465.691C891.728 465.964 891.835 466.517 891.559 466.927C887.395 473.106 885.513 476.813 883.505 484.422C883.379 484.899 882.891 485.186 882.415 485.064Z" fill="black"/>
<path fill-rule="evenodd" clip-rule="evenodd" d="M894.374 479.61C893.898 479.488 893.614 479.002 893.74 478.526C895.807 470.693 897.783 466.805 902.042 460.485C902.318 460.075 902.872 459.964 903.28 460.237C903.687 460.51 903.794 461.063 903.518 461.473C899.354 467.652 897.472 471.359 895.464 478.968C895.338 479.445 894.85 479.732 894.374 479.61Z" fill="black"/>
<path fill-rule="evenodd" clip-rule="evenodd" d="M908.617 460.993C908.183 460.761 908.023 460.222 908.259 459.789C912.127 452.672 914.97 449.364 920.609 444.237C920.974 443.904 921.539 443.928 921.87 444.29C922.201 444.652 922.173 445.215 921.808 445.547C916.295 450.561 913.586 453.714 909.828 460.628C909.592 461.061 909.05 461.225 908.617 460.993Z" fill="black"/>
<path fill-rule="evenodd" clip-rule="evenodd" d="M921.529 458.536C921.096 458.304 920.936 457.765 921.171 457.332C925.04 450.215 927.883 446.907 933.521 441.78C933.887 441.447 934.451 441.471 934.783 441.833C935.114 442.195 935.086 442.758 934.72 443.09C929.208 448.104 926.499 451.257 922.741 458.171C922.505 458.605 921.963 458.768 921.529 458.536Z" fill="black"/>
<path fill-rule="evenodd" clip-rule="evenodd" d="M927.983 438.944C927.717 438.531 927.839 437.981 928.255 437.717C935.097 433.38 939.19 431.873 946.61 430.135C947.091 430.022 947.573 430.318 947.686 430.795C947.8 431.273 947.502 431.751 947.021 431.863C939.765 433.563 935.865 435 929.218 439.214C928.802 439.478 928.249 439.357 927.983 438.944Z" fill="black"/>
</svg>
