<svg width="1024" height="1024" viewBox="0 0 1024 1024" fill="none" xmlns="http://www.w3.org/2000/svg">
<path d="M883.847 786.408C885.594 816.457 712.472 850.964 497.168 863.481C281.865 875.999 105.91 861.787 104.163 831.738C102.416 801.689 275.538 767.183 490.842 754.665C706.145 742.147 882.1 756.359 883.847 786.408Z" fill="black" fill-opacity="0.05"/>
<path d="M352.066 266.206C353.153 235.748 448.881 150.899 442.898 175.374C436.915 199.85 453.775 231.396 454.864 250.433C455.952 269.47 452.144 318.965 436.915 324.948C421.686 330.931 350.978 296.665 352.066 266.206Z" fill="#F5B2AF"/>
<path fill-rule="evenodd" clip-rule="evenodd" d="M423.659 284.973C423.659 284.974 423.659 284.974 422.605 285.243C421.551 285.512 421.551 285.512 421.55 285.511L421.535 285.451L421.491 285.275C421.452 285.12 421.394 284.89 421.32 284.591C421.172 283.993 420.957 283.119 420.692 282.011C420.162 279.795 419.427 276.642 418.612 272.892C416.981 265.395 415.021 255.498 413.713 245.922C413.69 245.757 413.668 245.591 413.646 245.426C409.472 249.516 405.119 253.259 401.584 256.146C399.39 257.938 397.508 259.404 396.172 260.422C395.504 260.932 394.973 261.329 394.608 261.6C394.426 261.735 394.285 261.839 394.189 261.909L394.08 261.989L394.042 262.017C394.042 262.017 394.041 262.017 393.403 261.136C392.765 260.256 392.765 260.256 392.765 260.255L392.766 260.254L392.798 260.231L392.903 260.155C392.995 260.087 393.133 259.986 393.312 259.853C393.669 259.587 394.193 259.195 394.853 258.692C396.172 257.686 398.036 256.235 400.208 254.462C404.051 251.322 408.846 247.182 413.298 242.706C412.279 234.313 411.849 226.324 412.74 220.708C413.236 217.582 414.179 214.923 415.916 213.44C416.818 212.67 417.906 212.243 419.155 212.224C420.378 212.206 421.695 212.579 423.098 213.293C425.904 214.721 427.64 216.653 428.371 218.998C429.093 221.312 428.783 223.857 427.856 226.43C426.014 231.548 421.574 237.214 416.605 242.428C416.268 242.781 415.928 243.133 415.586 243.483C415.676 244.195 415.77 244.91 415.869 245.628C417.165 255.124 419.112 264.96 420.737 272.429C421.55 276.162 422.28 279.301 422.808 281.505C423.072 282.607 423.285 283.475 423.432 284.067C423.505 284.364 423.562 284.591 423.601 284.744L423.644 284.916L423.659 284.973ZM415.253 240.692C420.092 235.585 424.155 230.287 425.809 225.693C426.644 223.375 426.824 221.346 426.294 219.646C425.774 217.978 424.515 216.456 422.111 215.232C420.91 214.621 419.948 214.388 419.187 214.4C418.452 214.411 417.85 214.649 417.328 215.095C416.217 216.043 415.369 218.019 414.888 221.049C414.105 225.988 414.396 233.026 415.253 240.692ZM422.874 286.297C422.292 286.446 421.699 286.094 421.551 285.512L422.605 285.243L423.659 284.973C423.807 285.555 423.456 286.148 422.874 286.297Z" fill="black"/>
<path d="M165.681 266.229C164.593 235.771 68.8658 150.922 74.8487 175.397C80.8316 199.873 63.971 231.42 62.8828 250.456C61.7947 269.493 65.6027 318.988 80.8316 324.971C96.0606 330.954 166.769 296.688 165.681 266.229Z" fill="#F5B2AF"/>
<path d="M103.051 241.303C104.736 224.792 103.87 210.744 95.1417 214.286C85.262 218.295 93.046 230.4 103.051 241.303Z" fill="#F5B2AF"/>
<path fill-rule="evenodd" clip-rule="evenodd" d="M101.919 241.677C97.036 236.316 92.6253 230.588 90.6301 225.614C89.6099 223.071 89.1609 220.579 89.7523 218.383C90.3624 216.117 92.0187 214.379 94.7328 213.278C97.1786 212.285 99.3244 212.454 100.996 213.858C102.562 215.173 103.502 217.41 104.065 220.047C105.178 225.256 104.985 232.843 104.182 240.926C108.87 245.997 114.015 250.792 118.026 254.349C120.078 256.168 121.83 257.66 123.068 258.697C123.687 259.216 124.177 259.62 124.512 259.895C124.68 260.032 124.809 260.137 124.895 260.207L124.993 260.286L125.024 260.311L124.344 261.16C123.663 262.008 123.662 262.008 123.662 262.008L123.627 261.979L123.525 261.897C123.436 261.825 123.304 261.718 123.134 261.578C122.793 261.299 122.297 260.889 121.671 260.365C120.42 259.317 118.652 257.811 116.583 255.977C112.906 252.716 108.266 248.408 103.877 243.782C102.794 253.233 100.981 263.227 99.3916 271.056C98.5294 275.303 97.7316 278.918 97.1492 281.472C96.8579 282.749 96.6205 283.761 96.4557 284.455C96.3733 284.802 96.3091 285.069 96.2654 285.249L96.2155 285.455L96.1985 285.524C96.1985 285.525 96.1982 285.526 95.1418 285.266L96.1982 285.526C96.0548 286.109 95.4656 286.466 94.8822 286.322C94.2988 286.179 93.9421 285.59 94.0855 285.006L95.1418 285.266C94.0855 285.006 94.0854 285.007 94.0855 285.006L94.1019 284.939L94.1508 284.738C94.1938 284.56 94.2573 284.296 94.339 283.952C94.5024 283.264 94.7383 282.259 95.028 280.988C95.6073 278.448 96.4014 274.85 97.2595 270.623C98.9494 262.301 100.883 251.566 101.919 241.677ZM101.938 220.502C102.89 224.957 102.835 231.467 102.202 238.733C97.9218 233.878 94.3215 228.973 92.6493 224.804C91.7079 222.457 91.438 220.49 91.8531 218.948C92.2496 217.476 93.3251 216.197 95.5509 215.294C97.4693 214.515 98.7048 214.775 99.5973 215.524C100.596 216.363 101.404 218.006 101.938 220.502Z" fill="black"/>
<path fill-rule="evenodd" clip-rule="evenodd" d="M866.722 544.51C866.721 544.51 866.72 544.51 866.289 543.511C865.859 542.513 865.859 542.512 865.86 542.512L865.863 542.511L865.932 542.481C865.982 542.459 866.056 542.427 866.154 542.384C866.35 542.298 866.64 542.171 867.017 542.004C867.77 541.669 868.868 541.176 870.245 540.543C872.999 539.277 876.867 537.452 881.318 535.218C885.887 532.925 891.06 530.206 896.271 527.222C896.257 527.205 896.242 527.188 896.227 527.171C890.139 520.103 884.475 511.765 881.348 504.145C879.785 500.337 878.829 496.646 878.811 493.347C878.793 490.029 879.728 487.048 882.006 484.81C884.268 482.589 887.711 481.242 892.426 480.874C897.142 480.506 903.229 481.109 910.916 482.888C918.608 484.667 923.844 486.973 927.003 489.743C930.236 492.577 931.283 495.899 930.548 499.432C929.836 502.853 927.481 506.345 924.235 509.749C920.97 513.173 916.702 516.612 911.991 519.915C908.103 522.64 903.893 525.287 899.66 527.772C905.129 533.815 910.744 538.645 914.993 540.887C919.628 543.332 926.046 544.071 933.203 543.717C940.334 543.365 948.06 541.937 955.213 540.179C962.361 538.423 968.906 536.344 973.665 534.704C976.044 533.884 977.974 533.174 979.309 532.67C979.976 532.418 980.494 532.217 980.845 532.08C981.02 532.011 981.153 531.958 981.242 531.923L981.343 531.883L981.373 531.87L981.374 531.87C981.375 531.87 981.375 531.87 981.633 532.51L981.374 531.87C981.931 531.645 982.566 531.914 982.791 532.471C983.016 533.028 982.747 533.662 982.19 533.887L981.835 533.008C982.19 533.887 982.191 533.887 982.19 533.887L982.187 533.888L982.153 533.902L982.047 533.944C981.955 533.981 981.817 534.035 981.638 534.105C981.28 534.246 980.754 534.45 980.078 534.705C978.726 535.216 976.775 535.933 974.374 536.76C969.573 538.415 962.963 540.515 955.733 542.292C948.508 544.067 940.633 545.528 933.311 545.89C926.016 546.25 919.129 545.529 913.978 542.811C909.325 540.356 903.38 535.175 897.738 528.889C892.347 531.988 886.993 534.804 882.294 537.162C877.817 539.409 873.926 541.245 871.154 542.52C869.768 543.157 868.661 543.654 867.9 543.992C867.519 544.161 867.225 544.29 867.026 544.377C866.981 544.397 866.941 544.415 866.906 544.43C866.863 544.449 866.827 544.464 866.799 544.476L866.741 544.502L866.722 544.51ZM898.188 526.113C902.503 523.59 906.795 520.9 910.742 518.133C915.392 514.873 919.533 511.528 922.66 508.248C925.808 504.947 927.83 501.815 928.418 498.989C928.983 496.276 928.253 493.732 925.569 491.378C922.811 488.961 917.992 486.758 910.426 485.007C902.856 483.256 897.008 482.699 892.595 483.043C888.181 483.387 885.301 484.624 883.531 486.363C881.777 488.085 880.971 490.439 880.987 493.335C881.002 496.251 881.855 499.652 883.36 503.319C886.369 510.649 891.878 518.788 897.876 525.751C897.98 525.872 898.084 525.993 898.188 526.113Z" fill="black"/>
<path d="M263.349 768.402C265.699 753.831 242.198 689.908 242.198 689.908L358.764 694.608C358.764 694.608 365.814 796.603 358.764 805.064C351.713 813.524 247.838 817.755 246.898 813.054C245.958 808.354 252.538 802.272 252.538 802.272C252.538 802.272 244.548 801.774 243.138 799.479C241.727 797.185 261.679 778.755 263.349 768.402Z" fill="#E88894"/>
<path d="M284.622 797.601C287.342 780.74 260.146 706.769 260.146 706.769L395.035 712.208C395.035 712.208 403.193 830.235 395.035 840.025C386.876 849.816 266.673 854.711 265.586 849.272C264.498 843.833 272.112 836.794 272.112 836.794C272.112 836.794 262.866 836.218 261.234 833.563C259.603 830.908 282.69 809.581 284.622 797.601Z" fill="#F5B2AF"/>
<path fill-rule="evenodd" clip-rule="evenodd" d="M276.173 814.266C276.581 814.706 276.556 815.394 276.116 815.803C272.324 819.324 268.422 823.26 265.681 826.627C264.305 828.317 263.259 829.818 262.658 831.023C262.357 831.627 262.193 832.107 262.135 832.466C262.077 832.825 262.141 832.961 262.161 832.993C262.37 833.333 262.955 833.76 264.017 834.174C265.025 834.567 266.26 834.873 267.487 835.105C268.708 835.336 269.884 835.487 270.758 835.581C271.194 835.628 271.552 835.66 271.8 835.68C271.924 835.69 272.021 835.697 272.085 835.702L272.158 835.707L272.175 835.708L272.179 835.708L274.423 835.848L272.922 837.521L272.916 837.527L272.898 837.547L272.825 837.63C272.76 837.704 272.664 837.813 272.543 837.953C272.3 838.233 271.955 838.638 271.549 839.13C270.736 840.116 269.686 841.447 268.723 842.836C267.751 844.241 266.911 845.645 266.474 846.791C266.255 847.369 266.168 847.801 266.173 848.094C266.177 848.353 266.244 848.406 266.263 848.421L266.265 848.422C266.459 848.578 266.822 848.767 267.392 848.959C267.945 849.146 268.626 849.313 269.401 849.461C270.949 849.756 272.79 849.956 274.574 850.091C276.352 850.225 278.05 850.292 279.306 850.326C279.933 850.343 280.448 850.351 280.805 850.355C280.984 850.357 281.123 850.359 281.217 850.359L281.324 850.359L281.357 850.36H281.358C281.959 850.36 282.446 850.847 282.446 851.447C282.446 852.048 281.959 852.535 281.358 852.535V851.447C281.358 852.535 281.359 852.535 281.358 852.535H281.355L281.348 852.535L281.318 852.535L281.205 852.535C281.107 852.534 280.963 852.533 280.78 852.531C280.413 852.527 279.886 852.518 279.247 852.501C277.97 852.466 276.234 852.398 274.41 852.26C272.59 852.123 270.658 851.915 268.994 851.598C268.162 851.44 267.377 851.25 266.696 851.021C266.031 850.796 265.391 850.509 264.906 850.121C264.243 849.591 264.008 848.842 263.997 848.127C263.987 847.441 264.177 846.712 264.441 846.017C264.974 844.62 265.935 843.041 266.935 841.598C267.944 840.14 269.035 838.759 269.871 837.746C269.89 837.722 269.909 837.699 269.928 837.676C269.106 837.578 268.113 837.438 267.083 837.243C265.795 836.999 264.412 836.664 263.227 836.201C262.097 835.761 260.914 835.12 260.307 834.132C259.919 833.501 259.881 832.78 259.987 832.121C260.093 831.461 260.358 830.76 260.711 830.052C261.419 828.634 262.582 826.987 263.994 825.253C266.828 821.773 270.813 817.758 274.635 814.209C275.076 813.8 275.764 813.825 276.173 814.266Z" fill="black"/>
<path fill-rule="evenodd" clip-rule="evenodd" d="M255.435 784.015C255.806 784.353 255.82 784.917 255.466 785.275C252.422 788.358 249.306 791.787 247.148 794.687C246.065 796.142 245.253 797.426 244.804 798.443C244.579 798.953 244.464 799.354 244.434 799.651C244.403 799.948 244.464 800.055 244.483 800.08C244.679 800.347 245.199 800.664 246.125 800.945C247.003 801.211 248.07 801.394 249.127 801.518C250.178 801.64 251.187 801.7 251.936 801.729C252.309 801.743 252.616 801.75 252.828 801.753C252.934 801.755 253.017 801.755 253.072 801.756L253.134 801.756L253.149 801.756L253.152 801.756L255.069 801.748L253.879 803.197L253.874 803.202L253.86 803.22L253.802 803.291C253.75 803.355 253.674 803.449 253.578 803.571C253.386 803.813 253.114 804.162 252.794 804.586C252.153 805.437 251.328 806.581 250.582 807.769C249.827 808.969 249.185 810.163 248.873 811.123C248.716 811.606 248.665 811.965 248.684 812.204C248.701 812.415 248.761 812.454 248.779 812.466L248.78 812.467C248.954 812.584 249.272 812.718 249.767 812.845C250.248 812.967 250.836 813.067 251.503 813.146C252.837 813.303 254.414 813.366 255.939 813.38C257.46 813.393 258.909 813.356 259.98 813.315C260.514 813.295 260.953 813.274 261.257 813.258C261.41 813.25 261.528 813.243 261.608 813.239L261.699 813.233L261.727 813.232L261.729 813.231C262.24 813.199 262.68 813.57 262.711 814.061C262.743 814.552 262.353 814.977 261.842 815.009L261.785 814.12C261.842 815.009 261.842 815.009 261.842 815.009L261.839 815.01L261.833 815.01L261.808 815.012L261.712 815.017C261.628 815.022 261.505 815.029 261.349 815.037C261.036 815.054 260.588 815.075 260.043 815.096C258.954 815.137 257.473 815.175 255.913 815.162C254.357 815.148 252.701 815.083 251.268 814.914C250.552 814.83 249.874 814.718 249.282 814.567C248.705 814.42 248.145 814.22 247.712 813.929C247.12 813.532 246.881 812.932 246.834 812.349C246.79 811.788 246.913 811.182 247.102 810.6C247.483 809.429 248.219 808.087 248.995 806.853C249.778 805.607 250.635 804.419 251.293 803.546C251.308 803.526 251.323 803.506 251.338 803.486C250.634 803.451 249.781 803.39 248.894 803.286C247.785 803.157 246.591 802.958 245.558 802.644C244.573 802.346 243.533 801.886 242.965 801.112C242.601 800.617 242.531 800.03 242.587 799.485C242.643 798.94 242.832 798.353 243.096 797.755C243.624 796.558 244.529 795.149 245.64 793.656C247.871 790.658 251.054 787.161 254.123 784.052C254.477 783.694 255.064 783.678 255.435 784.015Z" fill="black"/>
<path d="M618.036 741.578C620.755 724.717 593.56 650.746 593.56 650.746L728.448 656.185C728.448 656.185 736.607 774.213 728.448 784.003C720.29 793.793 600.087 798.688 598.999 793.249C597.911 787.81 605.526 780.772 605.526 780.772C605.526 780.772 596.279 780.196 594.648 777.54C593.016 774.885 616.103 753.559 618.036 741.578Z" fill="#E88894"/>
<path fill-rule="evenodd" clip-rule="evenodd" d="M609.586 758.243C609.995 758.683 609.969 759.372 609.529 759.78C605.737 763.302 601.836 767.238 599.094 770.605C597.719 772.294 596.673 773.795 596.071 775.001C595.77 775.605 595.606 776.084 595.548 776.443C595.491 776.803 595.554 776.938 595.574 776.971C595.783 777.311 596.368 777.738 597.431 778.152C598.438 778.545 599.673 778.851 600.901 779.083C602.121 779.314 603.297 779.465 604.171 779.559C604.607 779.605 604.965 779.637 605.214 779.658C605.338 779.668 605.434 779.675 605.499 779.68L605.571 779.685L605.589 779.686L605.593 779.686L607.836 779.826L606.335 781.498L606.33 781.504L606.312 781.525L606.238 781.608C606.173 781.681 606.077 781.79 605.956 781.931C605.713 782.211 605.368 782.615 604.963 783.107C604.149 784.094 603.099 785.424 602.137 786.814C601.164 788.218 600.324 789.623 599.888 790.769C599.668 791.346 599.581 791.779 599.586 792.072C599.59 792.33 599.657 792.383 599.677 792.399L599.678 792.4C599.873 792.556 600.235 792.744 600.805 792.937C601.359 793.124 602.04 793.291 602.814 793.438C604.363 793.733 606.203 793.934 607.987 794.068C609.766 794.202 611.464 794.27 612.719 794.303C613.346 794.32 613.861 794.329 614.218 794.333C614.397 794.335 614.536 794.336 614.631 794.337L614.737 794.337L614.77 794.337H614.772C615.372 794.337 615.86 794.824 615.86 795.425C615.86 796.026 615.373 796.513 614.772 796.513V795.425C614.772 796.513 614.772 796.513 614.772 796.513H614.769L614.761 796.513L614.731 796.513L614.619 796.512C614.52 796.512 614.376 796.511 614.193 796.508C613.826 796.504 613.3 796.495 612.661 796.478C611.383 796.444 609.648 796.375 607.823 796.238C606.003 796.1 604.071 795.893 602.407 795.576C601.575 795.417 600.79 795.228 600.109 794.998C599.445 794.774 598.804 794.487 598.319 794.099C597.656 793.569 597.421 792.819 597.411 792.105C597.4 791.418 597.59 790.689 597.855 789.995C598.387 788.597 599.349 787.019 600.348 785.575C601.357 784.118 602.449 782.736 603.284 781.723C603.303 781.7 603.322 781.677 603.341 781.654C602.519 781.556 601.526 781.415 600.496 781.221C599.208 780.977 597.826 780.641 596.64 780.179C595.51 779.738 594.327 779.098 593.721 778.11C593.333 777.479 593.294 776.757 593.4 776.098C593.506 775.438 593.771 774.737 594.124 774.029C594.832 772.611 595.995 770.965 597.407 769.231C600.241 765.751 604.226 761.736 608.049 758.186C608.489 757.777 609.177 757.803 609.586 758.243Z" fill="black"/>
<path d="M738.239 744.842L792.629 703.505L567.453 637.149C555.911 702.629 620.212 736.139 632.177 740.491C644.143 744.842 638.16 803.04 632.177 806.303C626.195 809.567 613.141 825.34 618.036 829.691C622.931 834.042 731.168 828.603 731.712 825.884C732.256 823.164 738.239 744.842 738.239 744.842Z" fill="#F5B2AF"/>
<path fill-rule="evenodd" clip-rule="evenodd" d="M567.023 636.455L793.814 703.287L738.762 745.127L738.523 748.254C738.358 750.401 738.122 753.471 737.838 757.164C737.268 764.549 736.503 774.425 735.721 784.385C734.94 794.346 734.141 804.392 733.503 812.118C733.184 815.981 732.906 819.265 732.69 821.669C732.476 824.048 732.321 825.613 732.245 825.99C732.196 826.236 732.023 826.384 731.928 826.453C731.817 826.534 731.686 826.597 731.557 826.65C731.295 826.756 730.942 826.856 730.52 826.953C729.672 827.146 728.459 827.345 726.943 827.546C723.908 827.948 719.605 828.367 714.452 828.78C704.143 829.605 690.402 830.404 676.528 830.982C662.654 831.56 648.639 831.918 637.783 831.858C632.357 831.828 627.71 831.694 624.262 831.43C622.539 831.299 621.103 831.134 620.013 830.93C619.469 830.828 618.999 830.714 618.617 830.586C618.249 830.462 617.911 830.307 617.674 830.097C616.203 828.789 616.173 826.699 616.817 824.507C617.47 822.284 618.866 819.747 620.581 817.279C622.299 814.804 624.36 812.366 626.369 810.339C628.371 808.32 630.352 806.679 631.917 805.826C632.165 805.69 632.478 805.37 632.83 804.791C633.175 804.225 633.526 803.465 633.876 802.527C634.575 800.652 635.246 798.124 635.851 795.147C637.06 789.195 637.992 781.506 638.365 773.779C638.738 766.047 638.55 758.306 637.53 752.241C637.02 749.206 636.307 746.619 635.368 744.67C634.425 742.711 633.294 741.475 631.991 741.002C625.941 738.802 606.799 729.293 590.604 712.116C574.396 694.925 561.108 670.011 566.917 637.054L567.023 636.455ZM738.239 744.842L737.696 744.8L737.715 744.557L791.444 703.723L567.885 637.843C562.417 670.069 575.447 694.454 591.396 711.37C607.457 728.406 626.448 737.829 632.363 739.979C634.052 740.594 635.352 742.128 636.348 744.198C637.349 746.277 638.085 748.976 638.603 752.06C639.64 758.233 639.826 766.061 639.451 773.831C639.076 781.604 638.139 789.349 636.917 795.363C636.307 798.369 635.622 800.957 634.895 802.907C634.532 803.881 634.153 804.71 633.759 805.357C633.373 805.991 632.937 806.508 632.438 806.781C631.011 807.559 629.117 809.113 627.142 811.105C625.174 813.09 623.155 815.479 621.474 817.899C619.789 820.326 618.466 822.752 617.861 824.813C617.247 826.904 617.421 828.417 618.397 829.284C618.467 829.346 618.636 829.445 618.964 829.555C619.28 829.661 619.696 829.764 620.213 829.86C621.247 830.054 622.638 830.215 624.345 830.346C627.755 830.607 632.372 830.741 637.789 830.77C648.621 830.83 662.617 830.473 676.483 829.895C690.348 829.318 704.074 828.519 714.365 827.695C719.512 827.284 723.793 826.866 726.8 826.467C728.306 826.268 729.479 826.075 730.278 825.892C730.681 825.8 730.967 825.716 731.147 825.642C731.169 825.633 731.188 825.625 731.204 825.618C731.276 825.106 731.415 823.706 731.607 821.572C731.822 819.172 732.1 815.891 732.419 812.029C733.056 804.305 733.855 794.26 734.637 784.3C735.419 774.34 736.184 764.465 736.753 757.08C737.038 753.388 737.274 750.318 737.438 748.171L737.696 744.804L737.696 744.8C737.696 744.8 737.696 744.8 738.239 744.842ZM731.289 825.573C731.288 825.573 731.288 825.574 731.287 825.574C731.293 825.569 731.295 825.568 731.289 825.573Z" fill="#F5B2AF"/>
<path d="M634.352 777.476C637.072 760.615 609.876 686.644 609.876 686.644L744.765 692.083C744.765 692.083 752.923 810.11 744.765 819.901C736.606 829.691 616.403 834.586 615.316 829.147C614.228 823.708 621.842 816.669 621.842 816.669C621.842 816.669 612.596 816.093 610.964 813.438C609.333 810.783 632.42 789.457 634.352 777.476Z" fill="#F5B2AF"/>
<path fill-rule="evenodd" clip-rule="evenodd" d="M625.903 794.141C626.311 794.581 626.286 795.269 625.846 795.678C622.054 799.199 618.152 803.136 615.411 806.502C614.035 808.192 612.989 809.693 612.388 810.898C612.087 811.502 611.923 811.982 611.865 812.341C611.807 812.701 611.871 812.836 611.891 812.869C612.1 813.209 612.685 813.636 613.747 814.05C614.755 814.442 615.99 814.748 617.217 814.981C618.438 815.212 619.614 815.363 620.488 815.456C620.924 815.503 621.282 815.535 621.53 815.555C621.654 815.566 621.751 815.573 621.815 815.577L621.888 815.582L621.905 815.584L621.909 815.584L624.153 815.724L622.652 817.396L622.646 817.402L622.628 817.422L622.555 817.506C622.49 817.579 622.394 817.688 622.273 817.828C622.03 818.109 621.685 818.513 621.279 819.005C620.466 819.992 619.415 821.322 618.453 822.712C617.481 824.116 616.641 825.521 616.204 826.667C615.985 827.244 615.898 827.677 615.903 827.97C615.907 828.228 615.974 828.281 615.993 828.296L615.995 828.298C616.189 828.453 616.552 828.642 617.122 828.835C617.675 829.021 618.356 829.189 619.131 829.336C620.679 829.631 622.52 829.831 624.304 829.966C626.082 830.1 627.78 830.168 629.036 830.201C629.662 830.218 630.177 830.227 630.535 830.231C630.714 830.233 630.853 830.234 630.947 830.234L631.054 830.235L631.087 830.235H631.088C631.689 830.235 632.176 830.722 632.176 831.323C632.176 831.924 631.689 832.411 631.088 832.411V831.323C631.088 832.411 631.089 832.411 631.088 832.411H631.085L631.078 832.411L631.048 832.41L630.935 832.41C630.837 832.409 630.693 832.408 630.51 832.406C630.143 832.402 629.616 832.393 628.977 832.376C627.7 832.342 625.964 832.273 624.14 832.136C622.32 831.998 620.388 831.79 618.724 831.473C617.892 831.315 617.107 831.126 616.426 830.896C615.761 830.672 615.121 830.385 614.636 829.997C613.973 829.466 613.738 828.717 613.727 828.003C613.717 827.316 613.907 826.587 614.171 825.892C614.704 824.495 615.665 822.916 616.665 821.473C617.674 820.015 618.765 818.634 619.601 817.621C619.62 817.598 619.639 817.575 619.658 817.552C618.836 817.454 617.843 817.313 616.813 817.118C615.525 816.875 614.142 816.539 612.957 816.077C611.827 815.636 610.644 814.995 610.037 814.008C609.649 813.376 609.611 812.655 609.717 811.996C609.823 811.336 610.088 810.635 610.441 809.927C611.148 808.509 612.312 806.863 613.724 805.129C616.558 801.648 620.543 797.634 624.365 794.084C624.806 793.675 625.494 793.701 625.903 794.141Z" fill="black"/>
<path d="M629.458 366.828C579.962 364.109 485.396 390.444 447.794 362.477L191.071 624.639C258.965 701.188 197.773 764.022 572.892 707.856L724.097 747.017C724.097 747.017 907.937 664.344 869.863 523.473C831.79 382.602 633.809 366.828 629.458 366.828Z" fill="#F5B2AF"/>
<path d="M488.041 452.221C485.867 301.016 374.908 237.923 273.198 239.011C171.489 240.099 32.7931 264.574 36.0565 452.221C39.32 639.868 210.65 638.236 273.199 639.868C335.748 641.5 490.215 603.427 488.041 452.221Z" fill="#F5B2AF"/>
<path fill-rule="evenodd" clip-rule="evenodd" d="M591.791 710.997C607.786 727.963 626.701 737.342 632.549 739.468L631.805 741.513C625.687 739.288 606.469 729.737 590.208 712.49C573.919 695.213 560.534 670.134 566.381 636.96L568.523 637.338C562.829 669.645 575.823 694.061 591.791 710.997Z" fill="black"/>
<path fill-rule="evenodd" clip-rule="evenodd" d="M473.994 482.149C474.588 482.241 474.994 482.796 474.903 483.39C465.152 546.443 432.553 591.159 388.037 616.93C343.545 642.688 287.236 649.472 230.098 636.868C229.511 636.739 229.141 636.158 229.27 635.571C229.399 634.985 229.98 634.614 230.567 634.743C287.267 647.251 343.003 640.487 386.947 615.047C430.868 589.621 463.098 545.49 472.753 483.058C472.844 482.464 473.4 482.057 473.994 482.149Z" fill="black"/>
<path d="M326.477 544.046C306.585 566.515 181.729 565.611 174.16 529.239C166.591 492.867 227.828 447.966 254.514 452.834C281.199 457.703 346.369 521.577 326.477 544.046Z" fill="#FAD5C2"/>
<path fill-rule="evenodd" clip-rule="evenodd" d="M206.719 595.224C207.093 594.753 207.777 594.675 208.248 595.048C219.77 604.197 228.915 609.323 238.845 609.841C248.78 610.359 259.74 606.274 274.902 596.374C275.406 596.045 276.08 596.187 276.408 596.69C276.737 597.193 276.595 597.867 276.092 598.195C260.818 608.169 249.372 612.568 238.732 612.014C228.087 611.459 218.487 605.956 206.895 596.752C206.424 596.379 206.346 595.694 206.719 595.224Z" fill="black"/>
<path d="M289.923 538.569C330.368 525.607 280.977 491.141 262.204 478.837C262.204 478.837 249.477 551.53 289.923 538.569Z" fill="#E88894"/>
<path fill-rule="evenodd" clip-rule="evenodd" d="M261.417 477.021L262.8 477.928C272.171 484.069 289.352 495.845 299.112 507.767C303.962 513.693 307.206 519.922 306.371 525.655C305.516 531.524 300.506 536.32 290.255 539.605C285.07 541.267 280.648 541.584 276.893 540.788C273.126 539.989 270.107 538.083 267.72 535.432C262.991 530.179 260.759 522.021 259.815 513.686C258.867 505.309 259.199 496.548 259.763 489.901C260.046 486.573 260.387 483.765 260.658 481.788C260.794 480.799 260.912 480.017 260.996 479.481C261.038 479.214 261.072 479.007 261.095 478.867C261.107 478.797 261.116 478.743 261.122 478.707L261.13 478.665L261.132 478.651C261.132 478.65 261.132 478.65 262.204 478.837L261.132 478.65L261.417 477.021ZM263.015 480.674C262.955 481.077 262.887 481.549 262.814 482.083C262.547 484.031 262.21 486.801 261.931 490.085C261.373 496.663 261.051 505.265 261.977 513.441C262.907 521.66 265.077 529.245 269.337 533.976C271.445 536.317 274.067 537.964 277.345 538.66C280.636 539.358 284.664 539.112 289.591 537.533C299.562 534.338 303.545 529.965 304.218 525.341C304.911 520.582 302.217 514.995 297.428 509.145C288.368 498.078 272.618 487.026 263.015 480.674Z" fill="black"/>
<path d="M199.743 531.087C161.466 512.684 215.129 485.34 235.416 475.736C235.416 475.736 238.021 549.489 199.743 531.087Z" fill="#E88894"/>
<path fill-rule="evenodd" clip-rule="evenodd" d="M236.445 474.046L234.951 474.753C224.824 479.547 206.186 488.847 194.879 499.314C189.259 504.515 185.19 510.239 185.228 516.032C185.267 521.963 189.57 527.403 199.272 532.067C204.179 534.426 208.515 535.349 212.343 535.077C216.185 534.804 219.438 533.331 222.166 531.034C227.573 526.481 230.907 518.708 232.988 510.582C235.08 502.416 235.956 493.692 236.312 487.031C236.49 483.696 236.538 480.868 236.541 478.872C236.543 477.873 236.534 477.083 236.524 476.54C236.519 476.269 236.514 476.06 236.51 475.918C236.508 475.847 236.507 475.793 236.505 475.756L236.504 475.714L236.504 475.699C236.504 475.699 236.503 475.698 235.416 475.736L236.503 475.698L236.445 474.046ZM234.36 477.444C234.364 477.852 234.367 478.329 234.366 478.868C234.362 480.833 234.315 483.623 234.139 486.915C233.787 493.507 232.922 502.071 230.88 510.043C228.828 518.055 225.635 525.269 220.765 529.37C218.355 531.399 215.531 532.669 212.189 532.907C208.833 533.146 204.877 532.348 200.215 530.106C190.777 525.569 187.434 520.69 187.404 516.018C187.372 511.208 190.81 506.045 196.357 500.91C206.853 491.194 223.974 482.414 234.36 477.444Z" fill="black"/>
<path fill-rule="evenodd" clip-rule="evenodd" d="M413.48 698.836C413.655 699.411 413.332 700.019 412.757 700.194C408.013 701.644 404.668 703.759 402.297 706.481C399.921 709.207 398.454 712.62 397.596 716.779C396.095 724.052 396.493 733.348 396.983 744.777C397.058 746.546 397.136 748.366 397.21 750.238C397.233 750.839 396.766 751.344 396.165 751.368C395.565 751.392 395.059 750.924 395.036 750.324C394.963 748.471 394.885 746.659 394.809 744.89C394.319 733.511 393.905 723.899 395.465 716.339C396.374 711.932 397.967 708.138 400.656 705.051C403.35 701.96 407.075 699.656 412.122 698.114C412.696 697.938 413.304 698.262 413.48 698.836Z" fill="black"/>
<path fill-rule="evenodd" clip-rule="evenodd" d="M567.381 379.581C567.31 379.052 567.683 378.567 568.216 378.499C576.957 377.386 581.684 377.791 589.795 379.505C590.321 379.616 590.659 380.13 590.551 380.652C590.442 381.175 589.927 381.508 589.402 381.397C581.471 379.721 576.966 379.337 568.473 380.418C567.941 380.486 567.452 380.111 567.381 379.581Z" fill="black"/>
<path fill-rule="evenodd" clip-rule="evenodd" d="M577.762 389.413C577.691 388.883 578.065 388.399 578.597 388.331C587.338 387.218 592.066 387.622 600.177 389.337C600.703 389.448 601.041 389.961 600.932 390.484C600.823 391.006 600.309 391.34 599.783 391.229C591.853 389.553 587.347 389.168 578.855 390.25C578.323 390.318 577.834 389.943 577.762 389.413Z" fill="black"/>
<path fill-rule="evenodd" clip-rule="evenodd" d="M596.429 380.155C596.358 379.625 596.732 379.14 597.264 379.073C606.005 377.959 610.732 378.364 618.843 380.078C619.369 380.189 619.707 380.703 619.599 381.225C619.49 381.748 618.975 382.081 618.45 381.97C610.519 380.294 606.014 379.91 597.521 380.991C596.989 381.059 596.5 380.685 596.429 380.155Z" fill="black"/>
<path fill-rule="evenodd" clip-rule="evenodd" d="M617.578 385.475C617.567 384.94 617.992 384.501 618.529 384.493C627.34 384.366 631.992 385.297 639.86 387.909C640.37 388.078 640.649 388.627 640.482 389.134C640.315 389.641 639.767 389.915 639.257 389.745C631.564 387.192 627.13 386.305 618.57 386.429C618.033 386.436 617.589 386.009 617.578 385.475Z" fill="black"/>
<path fill-rule="evenodd" clip-rule="evenodd" d="M626.793 396.407C626.782 395.873 627.207 395.433 627.744 395.426C636.555 395.298 641.207 396.23 649.075 398.842C649.585 399.011 649.864 399.56 649.697 400.067C649.531 400.574 648.982 400.847 648.472 400.678C640.779 398.124 636.345 397.238 627.785 397.361C627.248 397.369 626.804 396.942 626.793 396.407Z" fill="black"/>
<path fill-rule="evenodd" clip-rule="evenodd" d="M646.379 389.298C646.368 388.763 646.794 388.324 647.33 388.316C656.141 388.189 660.793 389.121 668.661 391.732C669.171 391.902 669.45 392.45 669.283 392.957C669.117 393.464 668.568 393.738 668.058 393.568C660.365 391.015 655.931 390.128 647.371 390.252C646.835 390.259 646.391 389.832 646.379 389.298Z" fill="black"/>
<path fill-rule="evenodd" clip-rule="evenodd" d="M853.062 561.538C853.594 561.489 854.062 561.884 854.107 562.419C854.839 571.2 854.228 575.905 852.163 583.934C852.029 584.455 851.501 584.77 850.984 584.639C850.467 584.507 850.156 583.979 850.29 583.458C852.309 575.608 852.889 571.124 852.178 562.593C852.134 562.058 852.529 561.586 853.062 561.538Z" fill="black"/>
<path fill-rule="evenodd" clip-rule="evenodd" d="M842.788 571.482C843.32 571.434 843.788 571.828 843.832 572.363C844.564 581.144 843.954 585.85 841.889 593.878C841.755 594.399 841.227 594.714 840.71 594.583C840.193 594.452 839.882 593.923 840.016 593.403C842.035 585.552 842.615 581.068 841.904 572.537C841.86 572.002 842.255 571.53 842.788 571.482Z" fill="black"/>
<path fill-rule="evenodd" clip-rule="evenodd" d="M851.225 590.533C851.758 590.485 852.226 590.88 852.27 591.414C853.002 600.196 852.392 604.901 850.327 612.93C850.193 613.45 849.665 613.766 849.148 613.635C848.63 613.503 848.32 612.975 848.454 612.454C850.473 604.604 851.053 600.12 850.342 591.588C850.297 591.054 850.693 590.581 851.225 590.533Z" fill="black"/>
<path fill-rule="evenodd" clip-rule="evenodd" d="M859.413 517.827C859.934 517.709 860.45 518.037 860.566 518.561C862.458 527.168 862.479 531.912 861.498 540.144C861.435 540.678 860.954 541.061 860.424 540.999C859.893 540.938 859.515 540.456 859.579 539.922C860.537 531.873 860.516 527.351 858.678 518.99C858.562 518.466 858.892 517.945 859.413 517.827Z" fill="black"/>
<path fill-rule="evenodd" clip-rule="evenodd" d="M850.551 529.048C851.073 528.93 851.589 529.259 851.704 529.783C853.596 538.389 853.617 543.133 852.637 551.366C852.573 551.899 852.092 552.282 851.562 552.221C851.032 552.159 850.654 551.677 850.717 551.143C851.675 543.094 851.655 538.572 849.816 530.211C849.701 529.687 850.03 529.166 850.551 529.048Z" fill="black"/>
<path fill-rule="evenodd" clip-rule="evenodd" d="M861.446 546.81C861.967 546.691 862.483 547.02 862.598 547.544C864.491 556.15 864.511 560.895 863.531 569.127C863.468 569.661 862.986 570.044 862.456 569.982C861.926 569.921 861.548 569.438 861.611 568.905C862.57 560.856 862.549 556.334 860.71 547.973C860.595 547.449 860.924 546.928 861.446 546.81Z" fill="black"/>
<path fill-rule="evenodd" clip-rule="evenodd" d="M226.835 442.97C226.743 443.497 227.096 443.996 227.625 444.086C236.313 445.557 241.054 445.346 249.228 443.966C249.758 443.877 250.117 443.378 250.03 442.851C249.942 442.325 249.442 441.97 248.912 442.06C240.92 443.409 236.402 443.608 227.961 442.179C227.432 442.09 226.928 442.444 226.835 442.97Z" fill="black"/>
<path fill-rule="evenodd" clip-rule="evenodd" d="M237.612 433.573C237.519 434.099 237.873 434.599 238.402 434.688C247.09 436.159 251.83 435.949 260.004 434.569C260.534 434.48 260.893 433.98 260.806 433.454C260.719 432.927 260.219 432.573 259.689 432.662C251.696 434.011 247.179 434.211 238.738 432.782C238.209 432.692 237.705 433.046 237.612 433.573Z" fill="black"/>
<path fill-rule="evenodd" clip-rule="evenodd" d="M255.883 443.589C255.79 444.116 256.144 444.615 256.673 444.705C265.361 446.176 270.101 445.965 278.275 444.586C278.805 444.496 279.164 443.997 279.077 443.47C278.99 442.944 278.49 442.589 277.96 442.679C269.967 444.028 265.45 444.227 257.009 442.798C256.48 442.709 255.976 443.063 255.883 443.589Z" fill="black"/>
<path fill-rule="evenodd" clip-rule="evenodd" d="M227.814 654.583C227.334 654.819 227.139 655.399 227.379 655.879C231.32 663.76 234.288 667.463 240.226 673.247C240.611 673.622 241.226 673.617 241.6 673.236C241.973 672.855 241.964 672.242 241.579 671.867C235.772 666.211 232.945 662.682 229.117 655.025C228.877 654.545 228.293 654.347 227.814 654.583Z" fill="black"/>
<path fill-rule="evenodd" clip-rule="evenodd" d="M241.76 657.735C241.28 657.971 241.086 658.551 241.326 659.031C245.266 666.913 248.234 670.615 254.173 676.399C254.558 676.774 255.173 676.769 255.546 676.388C255.92 676.007 255.91 675.394 255.525 675.019C249.719 669.363 246.892 665.834 243.063 658.177C242.823 657.697 242.24 657.499 241.76 657.735Z" fill="black"/>
<path fill-rule="evenodd" clip-rule="evenodd" d="M244.458 678.396C243.979 678.632 243.784 679.212 244.024 679.692C247.965 687.574 250.932 691.276 256.871 697.06C257.256 697.435 257.871 697.43 258.245 697.049C258.618 696.668 258.609 696.055 258.224 695.68C252.417 690.024 249.59 686.496 245.762 678.838C245.522 678.358 244.938 678.161 244.458 678.396Z" fill="black"/>
<path fill-rule="evenodd" clip-rule="evenodd" d="M665.56 381.083C665.608 380.551 666.08 380.161 666.614 380.213C675.384 381.065 679.904 382.508 687.433 385.978C687.921 386.203 688.137 386.778 687.915 387.264C687.694 387.749 687.118 387.96 686.63 387.735C679.268 384.343 674.96 382.969 666.439 382.141C665.905 382.089 665.511 381.615 665.56 381.083Z" fill="black"/>
<path fill-rule="evenodd" clip-rule="evenodd" d="M673.503 392.972C673.551 392.439 674.023 392.05 674.557 392.102C683.328 392.954 687.848 394.397 695.377 397.866C695.865 398.091 696.081 398.667 695.859 399.152C695.637 399.638 695.062 399.849 694.573 399.624C687.212 396.232 682.904 394.858 674.383 394.03C673.849 393.978 673.455 393.504 673.503 392.972Z" fill="black"/>
<path fill-rule="evenodd" clip-rule="evenodd" d="M693.758 388.082C693.806 387.549 694.278 387.16 694.812 387.212C703.582 388.064 708.103 389.507 715.632 392.977C716.12 393.201 716.336 393.777 716.114 394.263C715.892 394.748 715.316 394.959 714.828 394.734C707.467 391.342 703.159 389.968 694.638 389.14C694.104 389.088 693.71 388.614 693.758 388.082Z" fill="black"/>
<path fill-rule="evenodd" clip-rule="evenodd" d="M393.402 402.669C393.402 402.669 393.402 402.67 392.163 402.713L393.402 402.67C393.426 403.354 392.89 403.928 392.206 403.952C391.522 403.975 390.948 403.44 390.924 402.756L390.924 402.749L390.923 402.722L390.918 402.613C390.914 402.515 390.907 402.368 390.896 402.176C390.875 401.791 390.84 401.222 390.783 400.498C390.67 399.05 390.471 396.979 390.131 394.503C389.45 389.543 388.205 382.986 385.956 376.543C383.701 370.085 380.471 363.838 375.873 359.408C371.316 355.016 365.389 352.376 357.564 353.114C349.754 353.851 344.248 357.697 340.33 363.116C336.383 368.575 334.047 375.639 332.707 382.719C331.371 389.784 331.044 396.771 331.053 402.003C331.058 404.616 331.147 406.785 331.234 408.297C331.277 409.053 331.321 409.644 331.353 410.045C331.369 410.246 331.382 410.398 331.391 410.5L331.402 410.614L331.405 410.641L331.405 410.647C331.405 410.647 331.405 410.647 331.405 410.647C331.473 411.328 330.976 411.937 330.295 412.005C329.614 412.073 329.006 411.576 328.938 410.895L330.172 410.772C328.938 410.895 328.938 410.894 328.938 410.894L328.938 410.891L328.937 410.882L328.934 410.849L328.922 410.723C328.912 410.613 328.898 410.452 328.881 410.243C328.848 409.825 328.803 409.215 328.758 408.44C328.669 406.889 328.578 404.674 328.573 402.008C328.564 396.682 328.895 389.528 330.271 382.258C331.644 375.001 334.073 367.537 338.32 361.663C342.597 355.749 348.714 351.458 357.331 350.645C365.935 349.834 372.561 352.773 377.593 357.622C382.585 362.432 385.979 369.087 388.297 375.725C390.619 382.377 391.893 389.11 392.588 394.166C392.935 396.697 393.139 398.816 393.255 400.305C393.314 401.049 393.35 401.637 393.372 402.04C393.383 402.242 393.391 402.397 393.396 402.503L393.401 402.625L393.402 402.657L393.402 402.666L393.402 402.669Z" fill="black"/>
<path fill-rule="evenodd" clip-rule="evenodd" d="M393.402 402.669C393.402 402.669 393.402 402.67 392.163 402.713L393.402 402.67C393.426 403.354 392.89 403.928 392.206 403.952C391.522 403.975 390.948 403.44 390.924 402.756L390.924 402.749L390.923 402.722L390.918 402.613C390.914 402.515 390.907 402.368 390.896 402.176C390.875 401.791 390.84 401.222 390.783 400.498C390.67 399.05 390.471 396.979 390.131 394.503C389.45 389.543 388.205 382.986 385.956 376.543C383.701 370.085 380.471 363.838 375.873 359.408C371.316 355.016 365.389 352.376 357.564 353.114C349.754 353.851 344.248 357.697 340.33 363.116C336.383 368.575 334.047 375.639 332.707 382.719C331.371 389.784 331.044 396.771 331.053 402.003C331.058 404.616 331.147 406.785 331.234 408.297C331.277 409.053 331.321 409.644 331.353 410.045C331.369 410.246 331.382 410.398 331.391 410.5L331.402 410.614L331.405 410.641L331.405 410.647C331.405 410.647 331.405 410.647 331.405 410.647C331.473 411.328 330.976 411.937 330.295 412.005C329.614 412.073 329.006 411.576 328.938 410.895L330.172 410.772C328.938 410.895 328.938 410.894 328.938 410.894L328.938 410.891L328.937 410.882L328.934 410.849L328.922 410.723C328.912 410.613 328.898 410.452 328.881 410.243C328.848 409.825 328.803 409.215 328.758 408.44C328.669 406.889 328.578 404.674 328.573 402.008C328.564 396.682 328.895 389.528 330.271 382.258C331.644 375.001 334.073 367.537 338.32 361.663C342.597 355.749 348.714 351.458 357.331 350.645C365.935 349.834 372.561 352.773 377.593 357.622C382.585 362.432 385.979 369.087 388.297 375.725C390.619 382.377 391.893 389.11 392.588 394.166C392.935 396.697 393.139 398.816 393.255 400.305C393.314 401.049 393.35 401.637 393.372 402.04C393.383 402.242 393.391 402.397 393.396 402.503L393.401 402.625L393.402 402.657L393.402 402.666L393.402 402.669Z" fill="black"/>
<path fill-rule="evenodd" clip-rule="evenodd" d="M194.982 402.669C194.982 402.669 194.982 402.67 193.743 402.713L194.982 402.67C195.006 403.354 194.47 403.928 193.786 403.952C193.101 403.975 192.528 403.44 192.504 402.756L192.504 402.749L192.503 402.722L192.498 402.613C192.494 402.515 192.487 402.368 192.476 402.176C192.455 401.791 192.42 401.222 192.363 400.498C192.25 399.05 192.051 396.979 191.711 394.503C191.03 389.543 189.785 382.986 187.536 376.543C185.281 370.085 182.05 363.838 177.453 359.408C172.896 355.016 166.968 352.376 159.144 353.114C151.334 353.851 145.828 357.697 141.91 363.116C137.962 368.575 135.626 375.639 134.287 382.719C132.95 389.784 132.623 396.771 132.633 402.003C132.638 404.616 132.726 406.785 132.814 408.297C132.857 409.053 132.901 409.644 132.933 410.045C132.949 410.246 132.962 410.398 132.971 410.5L132.982 410.614L132.984 410.641L132.985 410.647C132.985 410.647 132.985 410.647 132.985 410.647C133.053 411.328 132.556 411.937 131.875 412.005C131.194 412.073 130.586 411.576 130.518 410.895L131.751 410.772C130.518 410.895 130.518 410.894 130.518 410.894L130.517 410.891L130.517 410.882L130.513 410.849L130.502 410.723C130.492 410.613 130.478 410.452 130.461 410.243C130.427 409.825 130.383 409.215 130.338 408.44C130.249 406.889 130.158 404.674 130.153 402.008C130.144 396.682 130.475 389.528 131.851 382.258C133.223 375.001 135.653 367.537 139.9 361.663C144.176 355.749 150.294 351.458 158.911 350.645C167.515 349.834 174.141 352.773 179.173 357.622C184.165 362.432 187.559 369.087 189.877 375.725C192.199 382.377 193.473 389.11 194.167 394.166C194.515 396.697 194.718 398.816 194.835 400.305C194.893 401.049 194.93 401.637 194.952 402.04C194.963 402.242 194.971 402.397 194.975 402.503L194.98 402.625L194.982 402.657L194.982 402.666L194.982 402.669Z" fill="black"/>
<path fill-rule="evenodd" clip-rule="evenodd" d="M194.982 402.669C194.982 402.669 194.982 402.67 193.743 402.713L194.982 402.67C195.006 403.354 194.47 403.928 193.786 403.952C193.101 403.975 192.528 403.44 192.504 402.756L192.504 402.749L192.503 402.722L192.498 402.613C192.494 402.515 192.487 402.368 192.476 402.176C192.455 401.791 192.42 401.222 192.363 400.498C192.25 399.05 192.051 396.979 191.711 394.503C191.03 389.543 189.785 382.986 187.536 376.543C185.281 370.085 182.05 363.838 177.453 359.408C172.896 355.016 166.968 352.376 159.144 353.114C151.334 353.851 145.828 357.697 141.91 363.116C137.962 368.575 135.626 375.639 134.287 382.719C132.95 389.784 132.623 396.771 132.633 402.003C132.638 404.616 132.726 406.785 132.814 408.297C132.857 409.053 132.901 409.644 132.933 410.045C132.949 410.246 132.962 410.398 132.971 410.5L132.982 410.614L132.984 410.641L132.985 410.647C132.985 410.647 132.985 410.647 132.985 410.647C133.053 411.328 132.556 411.937 131.875 412.005C131.194 412.073 130.586 411.576 130.518 410.895L131.751 410.772C130.518 410.895 130.518 410.894 130.518 410.894L130.517 410.891L130.517 410.882L130.513 410.849L130.502 410.723C130.492 410.613 130.478 410.452 130.461 410.243C130.427 409.825 130.383 409.215 130.338 408.44C130.249 406.889 130.158 404.674 130.153 402.008C130.144 396.682 130.475 389.528 131.851 382.258C133.223 375.001 135.653 367.537 139.9 361.663C144.176 355.749 150.294 351.458 158.911 350.645C167.515 349.834 174.141 352.773 179.173 357.622C184.165 362.432 187.559 369.087 189.877 375.725C192.199 382.377 193.473 389.11 194.167 394.166C194.515 396.697 194.718 398.816 194.835 400.305C194.893 401.049 194.93 401.637 194.952 402.04C194.963 402.242 194.971 402.397 194.975 402.503L194.98 402.625L194.982 402.657L194.982 402.666L194.982 402.669Z" fill="black"/>
</svg>
