<svg width="1024" height="1024" viewBox="0 0 1024 1024" fill="none" xmlns="http://www.w3.org/2000/svg">
<path d="M875 909C875 945.451 700.167 975 484.5 975C268.833 975 94 945.451 94 909C94 872.549 268.833 843 484.5 843C700.167 843 875 872.549 875 909Z" fill="black" fill-opacity="0.05"/>
<path d="M626.979 803.025C619.443 840.194 616.176 860.829 594.11 901.103C613.725 897.392 642.883 908.525 647.124 911.175C651.366 913.826 588.278 912.766 564.951 919.128C541.625 925.489 512.997 961.539 508.756 959.949C507.51 950.723 509.22 942.366 512.533 935.109C495.806 943.804 478.616 951.102 472.176 955.708C462.762 941.467 472.25 929.974 485.379 921.678C470.379 927.325 455.573 931.888 451.5 929.731C450.44 905.344 510.342 887.319 564.951 901.103C572.369 900.042 596.595 840.897 600.471 803.025H626.979Z" fill="#FDD05E"/>
<path d="M511.817 934.385C521.344 913.039 546.524 908.357 546.926 911.175C547.18 912.95 529.852 923.817 511.817 934.385C492.137 945.916 471.615 957.091 472.176 955.708C464.005 943.346 469.995 932.641 480.261 924.377C495.972 911.73 521.697 904.801 522.01 906.404C522.32 907.997 500.043 917.824 480.261 924.377C469.995 932.641 464.005 943.346 472.176 955.708C471.615 957.091 492.137 945.916 511.817 934.385Z" fill="#FDD05E"/>
<path fill-rule="evenodd" clip-rule="evenodd" d="M599.472 803.025C599.472 802.473 599.919 802.025 600.472 802.025H626.979C627.531 802.025 627.979 802.473 627.979 803.025C627.979 803.578 627.531 804.025 626.979 804.025H600.472C599.919 804.025 599.472 803.578 599.472 803.025ZM452.486 929.053C452.503 923.64 455.756 918.443 461.713 913.821C467.894 909.025 476.853 904.963 487.61 902.068C509.117 896.28 537.571 895.223 564.707 902.072C565.242 902.207 565.786 901.883 565.921 901.347C566.056 900.812 565.732 900.268 565.196 900.133C537.723 893.199 508.922 894.262 487.09 900.137C476.178 903.074 466.947 907.229 460.487 912.241C454.037 917.246 450.216 923.222 450.501 929.774L450.526 930.346L451.032 930.614C452.178 931.221 453.832 931.382 455.703 931.308C457.616 931.232 459.926 930.901 462.502 930.379C466.454 929.579 471.099 928.318 476.017 926.791C472.507 930.212 469.751 934.023 468.356 938.188C466.511 943.699 467.088 949.713 471.207 956.053C471.263 956.249 471.378 956.431 471.546 956.571C471.741 956.733 471.946 956.786 472.066 956.807C472.192 956.828 472.304 956.826 472.382 956.821C472.658 956.801 472.976 956.701 473.248 956.603C473.846 956.389 474.719 956.001 475.799 955.483C477.973 954.439 481.118 952.802 484.881 950.769C491.771 947.047 500.776 941.976 509.798 936.722C507.479 943.151 506.522 950.879 507.765 960.083L507.845 960.675L508.405 960.885C509.029 961.12 509.688 960.955 510.199 960.752C510.747 960.534 511.354 960.178 511.997 959.737C513.288 958.853 514.885 957.513 516.712 955.882C518.519 954.267 520.626 952.297 522.936 950.137C525.243 947.979 527.753 945.631 530.368 943.261C535.658 938.467 541.521 933.446 547.503 929.231C553.493 925.009 559.546 921.638 565.215 920.092C576.748 916.947 598.225 915.622 616.423 914.759C619.237 914.625 621.971 914.503 624.574 914.386C630.356 914.127 635.493 913.897 639.42 913.639C642.259 913.453 644.516 913.25 645.939 913.002C646.299 912.94 646.621 912.872 646.896 912.796C647.156 912.724 647.435 912.63 647.667 912.492C647.832 912.394 648.365 912.041 648.327 911.357C648.308 911.035 648.161 910.796 648.035 910.648C647.912 910.503 647.77 910.4 647.654 910.327C646.501 909.606 643.798 908.384 640.16 907.025C636.493 905.655 631.804 904.12 626.632 902.785C616.322 900.124 603.954 898.223 593.924 900.12C593.381 900.223 593.025 900.746 593.127 901.289C593.23 901.831 593.753 902.188 594.296 902.085C603.881 900.272 615.899 902.081 626.133 904.722C631.232 906.038 635.854 907.551 639.46 908.898C641.748 909.753 643.599 910.53 644.898 911.14C643.576 911.323 641.673 911.487 639.289 911.644C635.384 911.9 630.281 912.129 624.512 912.387C621.904 912.504 619.16 912.627 616.328 912.761C598.212 913.621 576.481 914.947 564.688 918.163C558.694 919.798 552.42 923.319 546.35 927.596C540.271 931.88 534.338 936.965 529.025 941.779C526.332 944.22 523.833 946.558 521.547 948.698C519.274 950.824 517.212 952.754 515.379 954.39C513.561 956.015 512.044 957.28 510.866 958.088C510.361 958.434 509.948 958.675 509.621 958.824C508.48 949.214 509.849 941.392 512.601 935.084C521.528 929.85 530.269 924.549 536.775 920.321C540.058 918.187 542.79 916.316 544.692 914.858C545.639 914.133 546.407 913.489 546.94 912.954C547.203 912.689 547.439 912.421 547.609 912.159C547.748 911.946 547.987 911.53 547.916 911.034C547.831 910.438 547.424 910.066 547.054 909.862C546.692 909.662 546.258 909.555 545.826 909.497C544.95 909.379 543.793 909.427 542.465 909.621C539.792 910.013 536.217 911.033 532.374 912.811C524.756 916.335 515.953 922.903 511.036 933.683C501.292 939.388 491.369 944.991 483.931 949.009C480.174 951.038 477.064 952.657 474.933 953.68C473.946 954.153 473.196 954.486 472.698 954.674C469.055 948.916 468.644 943.629 470.253 938.823C471.911 933.872 475.755 929.315 480.748 925.269C490.619 921.992 501.086 917.914 509.068 914.448C513.08 912.706 516.481 911.112 518.867 909.847C520.056 909.217 521.021 908.653 521.691 908.183C522.02 907.952 522.319 907.715 522.539 907.48C522.648 907.363 522.771 907.214 522.863 907.034C522.952 906.861 523.06 906.566 522.991 906.213C522.909 905.789 522.624 905.538 522.405 905.412C522.199 905.293 521.984 905.242 521.823 905.216C521.494 905.162 521.099 905.168 520.691 905.201C519.856 905.267 518.709 905.468 517.34 905.783C514.589 906.416 510.811 907.541 506.563 909.109C498.129 912.221 487.732 917.121 479.775 923.484C473.288 925.629 467.104 927.407 462.105 928.419C459.582 928.93 457.388 929.24 455.624 929.31C454.22 929.365 453.184 929.263 452.486 929.053ZM486.346 921.228C494.19 918.438 502.005 915.335 508.272 912.613C512.263 910.881 515.61 909.31 517.931 908.079C518.344 907.86 518.722 907.654 519.062 907.46C518.674 907.536 518.249 907.626 517.788 907.732C515.137 908.342 511.442 909.44 507.256 910.985C500.727 913.394 493.069 916.868 486.346 921.228ZM521.519 907.193C521.52 907.194 521.518 907.193 521.513 907.192C521.517 907.193 521.519 907.193 521.519 907.193ZM514.223 931.809C522.204 927.098 529.855 922.433 535.685 918.644C538.956 916.518 541.636 914.68 543.476 913.271C544.399 912.563 545.084 911.984 545.521 911.544C545.542 911.523 545.562 911.502 545.582 911.482C545.575 911.481 545.567 911.48 545.56 911.479C544.945 911.396 543.994 911.419 542.756 911.6C540.297 911.961 536.906 912.918 533.213 914.626C526.562 917.703 519.041 923.165 514.223 931.809ZM545.97 911.003C545.971 911.003 545.968 911.01 545.961 911.023C545.966 911.01 545.97 911.004 545.97 911.003Z" fill="#D9B049"/>
<path d="M479.598 763.794C472.063 800.963 468.795 821.598 446.729 861.872C466.345 858.161 495.503 869.294 499.744 871.944C503.985 874.595 440.897 873.535 417.571 879.897C394.244 886.258 365.616 922.308 361.375 920.718C360.13 911.492 361.839 903.135 365.153 895.878C348.425 904.573 331.235 911.871 324.795 916.477C315.382 902.236 324.869 890.743 337.999 882.447C322.999 888.094 308.193 892.657 304.119 890.5C303.06 866.113 362.962 848.088 417.571 861.872C424.989 860.811 449.214 801.666 453.091 763.794H479.598Z" fill="#FDD05E"/>
<path d="M364.436 895.154C373.963 873.808 399.143 869.126 399.546 871.944C399.799 873.719 382.471 884.586 364.436 895.154C344.756 906.685 324.235 917.86 324.795 916.477C316.624 904.115 322.614 893.41 332.88 885.146C348.591 872.499 374.317 865.57 374.629 867.173C374.939 868.766 352.662 878.593 332.88 885.146C322.614 893.41 316.624 904.115 324.795 916.477C324.235 917.86 344.756 906.685 364.436 895.154Z" fill="#FDD05E"/>
<path fill-rule="evenodd" clip-rule="evenodd" d="M452.091 763.794C452.091 763.242 452.539 762.794 453.091 762.794H479.598C480.151 762.794 480.598 763.242 480.598 763.794C480.598 764.347 480.151 764.794 479.598 764.794H453.091C452.539 764.794 452.091 764.347 452.091 763.794ZM305.106 889.822C305.123 884.409 308.375 879.212 314.333 874.59C320.513 869.795 329.472 865.732 340.229 862.837C361.736 857.049 390.19 855.992 417.326 862.841C417.862 862.976 418.405 862.652 418.54 862.116C418.676 861.581 418.351 861.037 417.816 860.902C390.342 853.968 361.541 855.031 339.709 860.906C328.797 863.843 319.566 867.998 313.107 873.01C306.656 878.015 302.836 883.991 303.12 890.543L303.145 891.115L303.651 891.383C304.797 891.99 306.451 892.151 308.322 892.077C310.236 892.002 312.545 891.67 315.121 891.148C319.073 890.348 323.718 889.087 328.636 887.56C325.126 890.981 322.37 894.792 320.975 898.957C319.13 904.468 319.707 910.482 323.826 916.822C323.883 917.018 323.997 917.2 324.165 917.34C324.36 917.502 324.566 917.555 324.685 917.576C324.811 917.597 324.923 917.595 325.001 917.59C325.278 917.57 325.595 917.47 325.868 917.372C326.466 917.158 327.338 916.77 328.418 916.252C330.593 915.208 333.737 913.571 337.501 911.538C344.391 907.816 353.395 902.745 362.417 897.491C360.098 903.92 359.142 911.648 360.384 920.852L360.464 921.444L361.024 921.654C361.649 921.889 362.307 921.724 362.818 921.521C363.367 921.303 363.973 920.947 364.616 920.506C365.907 919.622 367.505 918.282 369.331 916.651C371.139 915.036 373.246 913.066 375.555 910.906C377.863 908.748 380.372 906.4 382.988 904.03C388.278 899.236 394.141 894.215 400.122 890C406.113 885.778 412.165 882.407 417.834 880.861C429.367 877.716 450.844 876.391 469.043 875.528C471.856 875.394 474.59 875.272 477.193 875.155C482.976 874.896 488.113 874.666 492.039 874.409C494.878 874.222 497.135 874.019 498.559 873.772C498.918 873.709 499.241 873.641 499.516 873.565C499.776 873.494 500.054 873.399 500.287 873.261C500.452 873.163 500.985 872.81 500.946 872.126C500.928 871.804 500.781 871.565 500.655 871.417C500.531 871.272 500.389 871.169 500.274 871.096C499.12 870.375 496.418 869.153 492.779 867.794C489.113 866.424 484.424 864.889 479.252 863.554C468.942 860.893 456.573 858.992 446.543 860.889C446.001 860.992 445.644 861.515 445.747 862.058C445.849 862.6 446.372 862.957 446.915 862.854C456.501 861.041 468.519 862.85 478.752 865.491C483.851 866.807 488.473 868.32 492.08 869.667C494.367 870.522 496.218 871.299 497.517 871.909C496.195 872.092 494.293 872.256 491.908 872.413C488.003 872.669 482.9 872.898 477.131 873.156C474.523 873.273 471.779 873.396 468.948 873.53C450.831 874.39 429.101 875.716 417.308 878.932C411.313 880.567 405.04 884.088 398.97 888.365C392.89 892.649 386.957 897.734 381.645 902.548C378.952 904.989 376.452 907.328 374.166 909.467C371.893 911.593 369.831 913.523 367.999 915.159C366.18 916.784 364.663 918.049 363.486 918.857C362.981 919.203 362.567 919.444 362.241 919.593C361.099 909.984 362.468 902.161 365.221 895.853C374.147 890.619 382.888 885.318 389.394 881.09C392.678 878.956 395.41 877.085 397.311 875.627C398.258 874.902 399.027 874.258 399.559 873.723C399.823 873.458 400.058 873.19 400.229 872.928C400.368 872.715 400.607 872.299 400.536 871.803C400.451 871.207 400.043 870.835 399.673 870.631C399.311 870.431 398.878 870.324 398.445 870.266C397.569 870.148 396.412 870.196 395.085 870.391C392.412 870.782 388.836 871.802 384.993 873.58C377.376 877.104 368.572 883.672 363.656 894.452C353.911 900.158 343.988 905.76 336.55 909.778C332.794 911.807 329.683 913.426 327.552 914.449C326.566 914.922 325.816 915.255 325.318 915.443C321.675 909.685 321.263 904.398 322.872 899.592C324.53 894.641 328.374 890.084 333.367 886.038C343.238 882.761 353.705 878.683 361.687 875.217C365.7 873.475 369.1 871.881 371.487 870.616C372.675 869.986 373.641 869.422 374.31 868.952C374.64 868.721 374.938 868.484 375.158 868.249C375.268 868.132 375.39 867.983 375.482 867.803C375.571 867.63 375.679 867.335 375.611 866.982C375.528 866.558 375.244 866.307 375.025 866.181C374.819 866.062 374.603 866.011 374.443 865.985C374.114 865.931 373.718 865.937 373.311 865.97C372.475 866.036 371.328 866.237 369.959 866.552C367.208 867.185 363.431 868.31 359.183 869.878C350.749 872.99 340.351 877.89 332.395 884.253C325.907 886.398 319.723 888.176 314.724 889.188C312.201 889.699 310.007 890.009 308.243 890.079C306.84 890.134 305.804 890.032 305.106 889.822ZM338.966 881.997C346.809 879.207 354.624 876.104 360.891 873.383C364.882 871.65 368.229 870.079 370.55 868.848C370.964 868.629 371.341 868.423 371.682 868.229C371.294 868.305 370.868 868.395 370.408 868.501C367.756 869.111 364.062 870.209 359.875 871.754C353.347 874.163 345.689 877.637 338.966 881.997ZM374.139 867.962C374.139 867.963 374.137 867.962 374.133 867.961C374.136 867.962 374.138 867.962 374.139 867.962ZM366.842 892.578C374.823 887.867 382.475 883.202 388.304 879.413C391.575 877.287 394.255 875.449 396.095 874.04C397.019 873.332 397.703 872.753 398.141 872.313C398.162 872.292 398.182 872.271 398.201 872.251C398.194 872.25 398.187 872.249 398.179 872.248C397.564 872.165 396.614 872.188 395.375 872.369C392.916 872.73 389.525 873.687 385.833 875.395C379.181 878.472 371.66 883.934 366.842 892.578ZM398.59 871.772C398.59 871.772 398.588 871.779 398.58 871.792C398.585 871.779 398.589 871.773 398.59 871.772Z" fill="#D9B049"/>
<path d="M469.511 757.433C223.976 716.766 201.326 654.659 192.244 533.18L400.592 384.739C578.499 343.546 571.83 326.423 682.631 337.556L721.862 306.807L899.991 438.284C890.359 556.517 869.547 615.071 779.117 692.755C673.039 835.38 604.072 840.197 469.511 757.433Z" fill="white"/>
<path d="M314.25 92.0417C356.662 104.235 305.768 180.576 317.961 198.601C330.155 216.626 138.772 180.046 138.772 180.046C138.772 180.046 68.2621 178.456 83.6364 138.695C99.0106 98.9336 155.206 107.416 159.978 104.235C164.749 101.054 171.641 69.7756 210.342 64.4741C249.042 59.1726 265.477 99.9939 271.839 104.235C278.2 108.476 300.467 88.0789 314.25 92.0417Z" fill="#DA6666"/>
<path d="M122 400.113C127.302 348.159 170.986 308.08 173.955 302.566L192.51 435.103C192.51 435.103 116.699 452.068 122 400.113Z" fill="#DA6666"/>
<path d="M225.114 533.71C167.327 549.815 179.521 454.718 179.521 454.718L147.182 181.162C157.978 154.401 164.745 139.671 199.136 129.208C249.403 116.194 275.632 126.7 316.829 196.006C316.829 196.006 349.698 263.865 386.278 306.807C418.259 338.024 457.208 354.731 461.029 356.641C469.511 360.882 483.295 376.256 461.029 401.173C446.575 417.349 418.046 420.789 402.562 417.877C403.559 429.08 399.876 445.716 386.808 454.718C372.975 464.248 350.941 465.222 338.073 461.67C335.542 476.16 327.174 496.346 316.829 501.371C304.464 507.377 273.973 503.495 259.71 496.472C255.331 509.843 243.211 528.667 225.114 533.71Z" fill="#D7998E"/>
<path fill-rule="evenodd" clip-rule="evenodd" d="M227.494 391.931C227.303 392.592 226.613 392.974 225.952 392.784C221.694 391.557 218.102 390.255 215.824 386.891C213.581 383.576 212.781 378.514 213.184 370.278C213.218 369.591 213.802 369.061 214.489 369.095C215.176 369.128 215.706 369.713 215.672 370.4C215.272 378.571 216.133 382.903 217.887 385.495C219.608 388.037 222.352 389.155 226.641 390.39C227.302 390.58 227.684 391.27 227.494 391.931Z" fill="black"/>
<path fill-rule="evenodd" clip-rule="evenodd" d="M207.375 379.152C207.184 379.813 206.494 380.194 205.833 380.004C201.575 378.778 197.983 377.476 195.705 374.111C193.462 370.796 192.662 365.734 193.065 357.498C193.099 356.811 193.683 356.282 194.37 356.315C195.057 356.349 195.587 356.933 195.553 357.62C195.154 365.792 196.014 370.123 197.768 372.715C199.489 375.257 202.233 376.375 206.522 377.61C207.183 377.801 207.565 378.491 207.375 379.152Z" fill="black"/>
<path fill-rule="evenodd" clip-rule="evenodd" d="M212.517 360.844C212.327 361.505 211.637 361.886 210.976 361.696C206.717 360.47 203.125 359.168 200.848 355.803C198.604 352.488 197.805 347.426 198.208 339.19C198.241 338.503 198.825 337.974 199.513 338.007C200.2 338.041 200.729 338.625 200.696 339.312C200.296 347.484 201.157 351.815 202.911 354.407C204.632 356.949 207.375 358.067 211.665 359.302C212.326 359.492 212.707 360.183 212.517 360.844Z" fill="black"/>
<path fill-rule="evenodd" clip-rule="evenodd" d="M408.494 363.605C409.181 363.633 409.761 363.099 409.79 362.412C409.971 357.984 409.869 354.164 407.396 350.941C404.959 347.766 400.408 345.409 392.466 343.191C391.804 343.006 391.117 343.393 390.932 344.056C390.747 344.718 391.134 345.405 391.796 345.59C399.676 347.791 403.514 349.975 405.42 352.458C407.289 354.893 407.483 357.85 407.301 362.31C407.272 362.997 407.807 363.577 408.494 363.605Z" fill="black"/>
<path fill-rule="evenodd" clip-rule="evenodd" d="M402.72 340.48C403.408 340.509 403.988 339.974 404.016 339.287C404.197 334.859 404.096 331.04 401.622 327.817C399.185 324.641 394.635 322.284 386.693 320.066C386.03 319.881 385.343 320.268 385.158 320.931C384.973 321.593 385.36 322.281 386.023 322.466C393.903 324.666 397.741 326.851 399.646 329.333C401.515 331.769 401.709 334.725 401.527 339.185C401.499 339.872 402.033 340.452 402.72 340.48Z" fill="black"/>
<path fill-rule="evenodd" clip-rule="evenodd" d="M383.725 339.58C384.412 339.608 384.992 339.073 385.021 338.386C385.202 333.958 385.1 330.139 382.627 326.916C380.19 323.74 375.639 321.383 367.697 319.165C367.035 318.98 366.348 319.368 366.163 320.03C365.978 320.693 366.365 321.38 367.027 321.565C374.907 323.765 378.745 325.95 380.651 328.432C382.52 330.868 382.714 333.824 382.532 338.284C382.503 338.971 383.038 339.551 383.725 339.58Z" fill="black"/>
<path fill-rule="evenodd" clip-rule="evenodd" d="M334.367 272.731C335.048 272.833 335.682 272.364 335.784 271.684C336.439 267.301 336.749 263.493 334.636 260.023C332.554 256.604 328.283 253.772 320.626 250.713C319.987 250.458 319.262 250.769 319.007 251.408C318.752 252.047 319.063 252.772 319.702 253.027C327.3 256.061 330.881 258.645 332.508 261.318C334.105 263.94 333.981 266.9 333.32 271.315C333.218 271.995 333.687 272.629 334.367 272.731Z" fill="black"/>
<path fill-rule="evenodd" clip-rule="evenodd" d="M331.112 249.12C331.792 249.222 332.426 248.753 332.528 248.073C333.184 243.69 333.493 239.882 331.38 236.412C329.298 232.992 325.027 230.161 317.37 227.102C316.731 226.847 316.006 227.158 315.751 227.797C315.496 228.436 315.807 229.161 316.446 229.416C324.044 232.45 327.625 235.034 329.253 237.707C330.849 240.329 330.725 243.289 330.064 247.704C329.962 248.384 330.431 249.018 331.112 249.12Z" fill="black"/>
<path fill-rule="evenodd" clip-rule="evenodd" d="M312.323 246.184C313.003 246.286 313.637 245.817 313.739 245.136C314.395 240.754 314.704 236.945 312.591 233.475C310.51 230.056 306.239 227.224 298.581 224.166C297.942 223.911 297.217 224.222 296.962 224.861C296.707 225.499 297.018 226.224 297.657 226.479C305.255 229.514 308.836 232.098 310.464 234.771C312.06 237.393 311.936 240.353 311.275 244.768C311.173 245.448 311.642 246.082 312.323 246.184Z" fill="black"/>
<path fill-rule="evenodd" clip-rule="evenodd" d="M545.004 373.835C545.311 373.219 545.06 372.471 544.445 372.164C540.478 370.188 536.951 368.719 532.998 369.658C529.104 370.583 525.092 373.772 519.82 380.113C519.381 380.641 519.453 381.427 519.982 381.867C520.511 382.306 521.296 382.234 521.736 381.705C526.967 375.414 530.53 372.805 533.574 372.082C536.561 371.372 539.338 372.404 543.334 374.394C543.949 374.701 544.697 374.45 545.004 373.835Z" fill="black"/>
<path fill-rule="evenodd" clip-rule="evenodd" d="M521.54 369.647C521.847 369.031 521.597 368.283 520.981 367.976C517.014 366 513.487 364.531 509.535 365.47C505.64 366.395 501.629 369.584 496.357 375.925C495.917 376.454 495.989 377.239 496.518 377.679C497.047 378.119 497.832 378.046 498.272 377.517C503.503 371.226 507.066 368.617 510.111 367.894C513.097 367.184 515.875 368.216 519.87 370.206C520.486 370.513 521.234 370.262 521.54 369.647Z" fill="black"/>
<path fill-rule="evenodd" clip-rule="evenodd" d="M512.95 386.612C513.257 385.997 513.006 385.249 512.391 384.942C508.424 382.966 504.897 381.497 500.944 382.436C497.05 383.361 493.038 386.55 487.766 392.89C487.327 393.419 487.399 394.205 487.928 394.644C488.457 395.084 489.242 395.012 489.682 394.483C494.913 388.192 498.476 385.583 501.52 384.859C504.507 384.15 507.284 385.181 511.28 387.172C511.895 387.479 512.643 387.228 512.95 386.612Z" fill="black"/>
<path fill-rule="evenodd" clip-rule="evenodd" d="M716.772 343.086C717.079 342.47 716.828 341.723 716.212 341.416C712.246 339.44 708.719 337.97 704.766 338.91C700.872 339.835 696.86 343.024 691.588 349.364C691.148 349.893 691.221 350.678 691.75 351.118C692.278 351.558 693.064 351.486 693.504 350.957C698.734 344.666 702.297 342.057 705.342 341.333C708.329 340.624 711.106 341.655 715.102 343.646C715.717 343.952 716.465 343.702 716.772 343.086Z" fill="black"/>
<path fill-rule="evenodd" clip-rule="evenodd" d="M693.308 338.898C693.615 338.282 693.364 337.535 692.748 337.228C688.782 335.252 685.255 333.782 681.302 334.722C677.408 335.647 673.396 338.836 668.124 345.176C667.684 345.705 667.757 346.49 668.286 346.93C668.815 347.37 669.6 347.298 670.04 346.769C675.27 340.478 678.833 337.869 681.878 337.145C684.865 336.436 687.642 337.467 691.638 339.458C692.253 339.764 693.001 339.514 693.308 338.898Z" fill="black"/>
<path fill-rule="evenodd" clip-rule="evenodd" d="M684.718 355.864C685.025 355.248 684.774 354.501 684.158 354.194C680.192 352.218 676.665 350.748 672.712 351.687C668.818 352.613 664.806 355.802 659.534 362.142C659.094 362.671 659.167 363.456 659.696 363.896C660.225 364.336 661.01 364.264 661.45 363.735C666.68 357.444 670.243 354.834 673.288 354.111C676.275 353.401 679.052 354.433 683.048 356.423C683.663 356.73 684.411 356.48 684.718 355.864Z" fill="black"/>
<path fill-rule="evenodd" clip-rule="evenodd" d="M580.321 776.128C579.799 776.576 579.739 777.363 580.188 777.884C583.075 781.246 585.754 783.97 589.762 784.64C593.71 785.3 598.645 783.92 605.966 780.125C606.576 779.808 606.815 779.056 606.498 778.446C606.182 777.835 605.43 777.597 604.819 777.913C597.556 781.678 593.259 782.699 590.172 782.183C587.144 781.677 584.986 779.647 582.077 776.261C581.629 775.739 580.843 775.68 580.321 776.128Z" fill="black"/>
<path fill-rule="evenodd" clip-rule="evenodd" d="M600.315 789.101C599.794 789.549 599.734 790.335 600.182 790.857C603.07 794.219 605.749 796.943 609.756 797.613C613.704 798.273 618.64 796.892 625.96 793.098C626.571 792.781 626.809 792.029 626.493 791.418C626.176 790.808 625.425 790.569 624.814 790.886C617.55 794.651 613.254 795.672 610.167 795.156C607.139 794.649 604.98 792.62 602.072 789.234C601.624 788.712 600.837 788.653 600.315 789.101Z" fill="black"/>
<path fill-rule="evenodd" clip-rule="evenodd" d="M614.821 776.804C614.299 777.252 614.24 778.039 614.688 778.56C617.575 781.922 620.255 784.646 624.262 785.316C628.21 785.976 633.145 784.596 640.466 780.801C641.077 780.484 641.315 779.732 640.998 779.122C640.682 778.511 639.93 778.272 639.319 778.589C632.056 782.354 627.759 783.375 624.673 782.859C621.645 782.353 619.486 780.323 616.578 776.937C616.129 776.415 615.343 776.356 614.821 776.804Z" fill="black"/>
<path fill-rule="evenodd" clip-rule="evenodd" d="M220.175 559.281C219.534 559.032 218.813 559.35 218.564 559.991C216.96 564.123 215.821 567.77 217.119 571.619C218.398 575.413 221.942 579.114 228.74 583.782C229.307 584.171 230.082 584.027 230.472 583.46C230.861 582.893 230.717 582.117 230.15 581.728C223.405 577.097 220.479 573.789 219.48 570.823C218.499 567.915 219.271 565.054 220.886 560.893C221.135 560.252 220.817 559.53 220.175 559.281Z" fill="black"/>
<path fill-rule="evenodd" clip-rule="evenodd" d="M218.16 583.03C217.519 582.781 216.797 583.099 216.548 583.741C214.945 587.872 213.806 591.519 215.104 595.369C216.383 599.162 219.927 602.864 226.724 607.531C227.291 607.92 228.067 607.776 228.456 607.209C228.845 606.642 228.701 605.867 228.134 605.477C221.39 600.846 218.464 597.538 217.464 594.573C216.483 591.664 217.255 588.803 218.871 584.642C219.119 584.001 218.801 583.279 218.16 583.03Z" fill="black"/>
<path fill-rule="evenodd" clip-rule="evenodd" d="M235.843 590.026C235.202 589.777 234.48 590.095 234.231 590.736C232.628 594.868 231.488 598.515 232.786 602.364C234.066 606.158 237.609 609.859 244.407 614.527C244.974 614.916 245.75 614.772 246.139 614.205C246.528 613.638 246.384 612.862 245.817 612.473C239.072 607.842 236.147 604.534 235.147 601.568C234.166 598.659 234.938 595.799 236.553 591.638C236.802 590.996 236.484 590.275 235.843 590.026Z" fill="black"/>
<path fill-rule="evenodd" clip-rule="evenodd" d="M243.608 622.74C242.92 622.751 242.371 623.317 242.381 624.004C242.448 628.436 242.764 632.243 245.413 635.323C248.025 638.357 252.7 640.455 260.754 642.225C261.425 642.373 262.09 641.948 262.237 641.276C262.385 640.604 261.96 639.94 261.288 639.792C253.297 638.036 249.343 636.07 247.302 633.698C245.299 631.371 244.94 628.43 244.872 623.967C244.862 623.279 244.296 622.73 243.608 622.74Z" fill="black"/>
<path fill-rule="evenodd" clip-rule="evenodd" d="M250.667 645.505C249.979 645.516 249.43 646.082 249.441 646.769C249.508 651.201 249.823 655.008 252.473 658.088C255.084 661.122 259.759 663.22 267.813 664.99C268.485 665.138 269.149 664.713 269.297 664.041C269.444 663.369 269.019 662.705 268.348 662.557C260.357 660.801 256.402 658.835 254.361 656.463C252.359 654.136 251.999 651.195 251.932 646.732C251.921 646.044 251.355 645.495 250.667 645.505Z" fill="black"/>
<path fill-rule="evenodd" clip-rule="evenodd" d="M269.683 645.341C268.995 645.352 268.446 645.918 268.456 646.606C268.523 651.037 268.838 654.844 271.488 657.924C274.1 660.958 278.775 663.056 286.829 664.826C287.5 664.974 288.165 664.549 288.312 663.877C288.46 663.205 288.035 662.541 287.363 662.393C279.372 660.637 275.418 658.671 273.377 656.299C271.374 653.972 271.015 651.031 270.947 646.568C270.937 645.88 270.371 645.331 269.683 645.341Z" fill="black"/>
<path fill-rule="evenodd" clip-rule="evenodd" d="M460.134 356.194C460.381 355.7 460.982 355.5 461.476 355.747C465.907 357.962 471.727 363.076 473.534 370.93C475.354 378.838 473.042 389.231 461.775 401.84C450.371 414.601 430.55 419.534 414.99 419.801C410.876 419.871 407.016 419.617 403.651 419.081C403.685 419.68 403.705 420.29 403.713 420.909C403.848 432.104 399.676 447.068 387.376 455.542C375.168 463.951 356.858 465.803 343.72 463.859C342.013 463.606 340.386 463.289 338.863 462.91C338.637 464.099 338.375 465.315 338.08 466.548C336.406 473.545 333.627 481.266 330.084 487.823C326.563 494.339 322.196 499.876 317.266 502.271C312.406 504.631 305.018 505.487 297.051 505.312C289.046 505.136 280.307 503.916 272.651 502.01C268.049 500.865 263.786 499.459 260.296 497.857C259.904 498.976 259.462 500.125 258.971 501.294C253.552 514.206 241.98 530.048 225.382 534.674C210.663 538.776 200.206 535.824 192.921 528.886C185.713 522.021 181.767 511.395 179.665 500.442C177.559 489.462 177.278 477.998 177.519 469.298C177.64 464.943 177.891 461.272 178.113 458.688C178.224 457.395 178.328 456.374 178.404 455.674C178.442 455.325 178.473 455.055 178.494 454.873C178.505 454.781 178.514 454.712 178.52 454.665L178.526 454.611L178.529 454.593C178.529 454.592 178.529 454.591 179.519 454.718L178.529 454.591C178.599 454.043 179.1 453.656 179.648 453.726C180.196 453.797 180.583 454.298 180.513 454.846L179.521 454.718C180.513 454.846 180.513 454.845 180.513 454.846L180.511 454.861L180.505 454.91C180.499 454.954 180.491 455.02 180.481 455.109C180.46 455.285 180.429 455.548 180.392 455.89C180.318 456.576 180.216 457.582 180.106 458.859C179.887 461.412 179.638 465.044 179.518 469.353C179.279 477.98 179.561 489.284 181.629 500.065C183.703 510.873 187.543 521.002 194.301 527.438C200.982 533.801 210.671 536.697 224.845 532.747C240.586 528.36 251.81 513.188 257.127 500.52C257.636 499.307 258.089 498.12 258.486 496.972C256.967 496.179 255.64 495.344 254.55 494.474C252.66 492.964 251.317 491.214 251.143 489.246C250.965 487.218 252.052 485.326 254.177 483.626C255.218 482.793 256.183 482.193 257.072 481.836C257.96 481.48 258.832 481.343 259.641 481.527C261.365 481.92 262.148 483.551 262.41 485.33C262.679 487.159 262.482 489.552 261.902 492.249C261.651 493.418 261.325 494.656 260.926 495.946C264.268 497.5 268.468 498.908 273.134 500.07C280.654 501.941 289.245 503.14 297.095 503.312C304.982 503.485 311.974 502.618 316.392 500.472C320.739 498.36 324.855 493.294 328.325 486.872C331.773 480.49 334.495 472.936 336.134 466.083C336.438 464.815 336.703 463.577 336.928 462.38C336.22 462.167 335.541 461.939 334.893 461.697C332.382 460.759 330.284 459.59 328.853 458.192C327.407 456.778 326.586 455.062 326.847 453.128C327.101 451.243 328.355 449.39 330.5 447.59C332.593 445.835 334.536 444.94 336.233 445.333C338.013 445.745 338.958 447.413 339.421 449.322C340.099 452.116 339.964 456.241 339.21 460.936C340.699 461.311 342.309 461.628 344.013 461.88C356.852 463.78 374.592 461.92 386.241 453.895C397.797 445.934 401.843 431.74 401.713 420.934C401.704 420.171 401.674 419.429 401.624 418.711C399.465 418.265 397.562 417.689 395.99 417C393.843 416.057 392.135 414.82 391.378 413.229C390.562 411.516 390.971 409.687 392.399 407.959C393.744 406.331 395.22 405.388 396.776 405.403C398.35 405.417 399.634 406.403 400.598 407.771C402.05 409.831 403.053 413.122 403.482 417.026C406.796 417.591 410.705 417.874 414.955 417.801C430.276 417.538 449.42 412.663 460.283 400.507C471.282 388.199 473.211 378.446 471.585 371.378C469.946 364.255 464.633 359.561 460.582 357.536C460.088 357.289 459.887 356.688 460.134 356.194ZM401.42 416.622C400.981 413.218 400.088 410.519 398.963 408.923C398.187 407.822 397.425 407.409 396.758 407.402C396.074 407.396 395.115 407.812 393.941 409.232C392.851 410.552 392.796 411.557 393.183 412.369C393.629 413.305 394.792 414.289 396.794 415.168C398.081 415.733 399.639 416.223 401.42 416.622ZM337.271 460.394C337.969 455.942 338.06 452.197 337.477 449.793C337.062 448.082 336.408 447.427 335.782 447.282C335.073 447.118 333.801 447.432 331.785 449.123C329.822 450.769 328.988 452.213 328.829 453.395C328.676 454.528 329.114 455.65 330.251 456.762C331.405 457.89 333.217 458.937 335.593 459.823C336.127 460.023 336.687 460.213 337.271 460.394ZM259.111 495.041C259.45 493.918 259.729 492.842 259.947 491.829C260.503 489.239 260.65 487.113 260.431 485.621C260.204 484.077 259.665 483.584 259.197 483.478C258.909 483.412 258.466 483.432 257.817 483.693C257.169 483.953 256.374 484.43 255.426 485.187C253.576 486.668 253.039 487.974 253.136 489.07C253.238 490.228 254.069 491.53 255.798 492.911C256.71 493.639 257.825 494.352 259.111 495.041Z" fill="black"/>
<path d="M77.7324 285.602C60.9638 281.882 125.976 180.103 147.712 184.874C169.448 189.645 171.062 216.152 175.822 225.165C180.581 234.177 195.425 253.263 195.425 253.263C211.57 281.985 182.702 315.82 161.496 315.29C140.29 314.76 94.5009 289.322 77.7324 285.602Z" fill="#FDD05E"/>
<path fill-rule="evenodd" clip-rule="evenodd" d="M171.333 272.313C171.645 272.768 171.529 273.391 171.074 273.703C163.494 278.899 152.369 279.666 142.529 279.012C132.635 278.354 123.782 276.238 120.568 275.439C117.631 274.709 112.642 275.117 105.953 276.933C99.3099 278.738 91.13 281.891 81.8896 286.497C81.3953 286.743 80.7949 286.542 80.5486 286.048C80.3022 285.553 80.5032 284.953 80.9975 284.707C90.3253 280.058 98.6298 276.85 105.428 275.003C112.181 273.169 117.591 272.638 121.05 273.498C124.233 274.289 132.948 276.37 142.662 277.016C152.432 277.665 162.957 276.842 169.943 272.053C170.398 271.741 171.021 271.857 171.333 272.313Z" fill="black"/>
<path d="M945.053 335.966C965.199 359.822 899.461 439.344 899.461 439.344L717.09 310.519C719.383 311.204 792.455 237.718 812.516 214.032C832.578 190.346 880.559 213.365 878.255 243.72C877.631 251.932 875.987 259.426 873.794 265.926C878.169 263.967 883.059 262.611 888.327 262.275C913.244 260.685 933.39 270.227 933.39 298.855C933.39 307.977 928.923 319.951 922.612 331.742C931.146 328.694 939.292 329.143 945.053 335.966Z" fill="white"/>
<path fill-rule="evenodd" clip-rule="evenodd" d="M853.973 208.124C868.512 214.575 880.448 228.033 879.252 243.796C878.688 251.228 877.296 258.083 875.415 264.162C879.356 262.62 883.667 261.571 888.264 261.277C900.84 260.475 912.368 262.467 920.78 268.417C929.246 274.405 934.39 284.283 934.39 298.855C934.39 306.229 931.569 315.3 927.316 324.546C926.476 326.372 925.579 328.208 924.633 330.044C924.945 329.956 925.256 329.872 925.566 329.794C933.164 327.875 940.463 328.98 945.817 335.321L945.888 335.405L945.94 335.503C949.118 341.583 949.606 348.707 948.62 355.883C947.634 363.063 945.163 370.379 942.326 376.92C939.487 383.466 936.267 389.272 933.758 393.439C932.503 395.524 931.425 397.201 930.659 398.358C930.276 398.937 929.971 399.386 929.761 399.691C929.657 399.844 929.575 399.961 929.52 400.04L929.457 400.13L929.44 400.154L929.436 400.16L929.435 400.162C929.434 400.162 929.434 400.163 928.619 399.583L929.434 400.163C929.114 400.613 928.49 400.718 928.04 400.398C927.589 400.079 927.484 399.454 927.804 399.004L927.861 399.045C927.804 399.004 927.804 399.004 927.804 399.004L927.804 399.003L927.808 398.998L927.822 398.978L927.881 398.894C927.933 398.819 928.011 398.707 928.113 398.559C928.317 398.263 928.615 397.823 928.991 397.255C929.743 396.118 930.806 394.465 932.045 392.408C934.523 388.291 937.697 382.566 940.491 376.124C943.287 369.677 945.686 362.546 946.639 355.611C947.586 348.712 947.091 342.089 944.218 336.527C939.506 331.012 933.117 329.95 926.055 331.733C925.148 331.962 924.232 332.238 923.31 332.557C919.736 339.196 915.592 345.761 911.342 351.722C905.386 360.073 899.19 367.279 894.018 371.846C891.443 374.119 889.056 375.798 887.033 376.607C886.019 377.012 885.022 377.229 884.1 377.134C883.14 377.034 882.308 376.598 881.702 375.804C880.52 374.258 880.682 371.987 881.426 369.642C882.193 367.224 883.687 364.378 885.697 361.356C889.724 355.303 895.938 348.374 902.995 342.487C908.913 337.551 915.483 333.298 921.911 330.933C923.193 328.522 924.397 326.106 925.499 323.711C929.711 314.551 932.39 305.796 932.39 298.855C932.39 284.8 927.462 275.593 919.625 270.05C911.735 264.469 900.732 262.485 888.391 263.273C883.411 263.591 878.773 264.844 874.6 266.664C872.744 272.07 870.514 276.791 868.174 280.669C865.564 284.997 862.791 288.32 860.214 290.371C858.926 291.396 857.647 292.135 856.427 292.5C855.199 292.867 853.974 292.87 852.891 292.328C851.731 291.748 851.14 290.681 850.999 289.445C850.863 288.252 851.135 286.863 851.681 285.408C852.778 282.484 855.107 278.975 858.382 275.565C862.082 271.712 867.057 267.917 872.984 265.195C875.082 258.87 876.654 251.601 877.258 243.644C878.365 229.052 867.278 216.216 853.162 209.952C839.051 203.69 822.459 204.233 812.751 215.737C812.394 216.159 811.763 216.213 811.341 215.856C810.919 215.5 810.866 214.869 811.222 214.447C821.734 201.991 839.429 201.67 853.973 208.124ZM872.044 267.876C867.152 270.387 863.003 273.641 859.824 276.951C856.671 280.234 854.527 283.517 853.553 286.111C853.064 287.414 852.901 288.464 852.986 289.219C853.067 289.933 853.354 290.324 853.785 290.539C854.292 290.792 854.966 290.849 855.854 290.583C856.749 290.315 857.802 289.734 858.968 288.806C861.299 286.952 863.926 283.84 866.462 279.636C868.456 276.329 870.378 272.374 872.044 267.876ZM920.409 333.69C914.97 336.048 909.413 339.738 904.276 344.023C897.351 349.8 891.271 356.588 887.363 362.464C885.405 365.406 884.021 368.077 883.332 370.247C882.62 372.492 882.749 373.882 883.29 374.589C883.545 374.922 883.865 375.099 884.306 375.144C884.786 375.194 885.441 375.089 886.29 374.75C887.993 374.069 890.174 372.571 892.694 370.347C897.71 365.917 903.807 358.843 909.713 350.561C913.477 345.283 917.151 339.533 920.409 333.69Z" fill="black"/>
<path fill-rule="evenodd" clip-rule="evenodd" d="M881.259 471.619C881.705 472.143 882.492 472.206 883.015 471.76C886.389 468.886 889.124 466.218 889.811 462.214C890.488 458.269 889.128 453.328 885.364 445.991C885.05 445.379 884.299 445.138 883.687 445.452C883.075 445.766 882.833 446.516 883.147 447.128C886.882 454.408 887.885 458.709 887.356 461.793C886.837 464.819 884.798 466.969 881.4 469.863C880.876 470.309 880.813 471.095 881.259 471.619Z" fill="black"/>
<path fill-rule="evenodd" clip-rule="evenodd" d="M894.316 451.679C894.762 452.203 895.548 452.266 896.072 451.82C899.446 448.946 902.181 446.278 902.868 442.274C903.545 438.329 902.185 433.388 898.421 426.051C898.107 425.439 897.356 425.197 896.744 425.511C896.132 425.825 895.89 426.576 896.204 427.188C899.939 434.468 900.942 438.769 900.413 441.853C899.894 444.879 897.855 447.029 894.457 449.923C893.933 450.369 893.87 451.155 894.316 451.679Z" fill="black"/>
<path fill-rule="evenodd" clip-rule="evenodd" d="M882.08 437.122C882.526 437.645 883.312 437.708 883.836 437.262C887.21 434.389 889.945 431.721 890.632 427.717C891.308 423.771 889.949 418.83 886.185 411.494C885.871 410.882 885.12 410.64 884.508 410.954C883.896 411.268 883.654 412.019 883.968 412.631C887.703 419.91 888.705 424.211 888.176 427.296C887.658 430.322 885.619 432.472 882.221 435.366C881.697 435.812 881.634 436.598 882.08 437.122Z" fill="black"/>
<path fill-rule="evenodd" clip-rule="evenodd" d="M599.24 393.955C526.384 401.888 441.443 431.365 379.101 507.972C378.752 508.4 378.122 508.465 377.694 508.116C377.265 507.767 377.201 507.138 377.549 506.709C440.322 429.573 525.823 399.937 599.023 391.967C635.625 387.981 669.173 389.408 695.308 393.031C708.376 394.842 719.601 397.203 728.436 399.715C737.218 402.213 743.727 404.884 747.32 407.362C755.461 412.256 761.944 420.243 765.657 429.019C769.372 437.8 770.357 447.479 767.332 455.73C766.602 457.719 765.109 460.139 763.078 462.798C761.035 465.47 758.406 468.438 755.353 471.526C749.722 477.221 742.614 483.359 735.006 488.854C741.702 490.101 748.066 491.556 753.436 493.046C759.378 494.696 764.192 496.414 766.873 497.981C776.745 503.024 784.367 510.74 787.608 519.39C790.875 528.107 789.654 537.685 781.979 546.181C775.337 553.535 760.14 565.068 745.021 573.662C754.123 577.605 762.455 582.216 766.983 585.525C770.449 588.058 774.94 591.575 779.038 595.791C783.129 599.999 786.883 604.958 788.806 610.385C790.743 615.848 790.818 621.781 787.55 627.812C784.304 633.803 777.818 639.787 766.857 645.534C755.891 651.285 733.801 659.235 705.4 667.292C676.974 675.355 642.159 683.544 605.703 689.756C569.25 695.966 531.136 700.203 496.119 700.355C461.12 700.506 429.129 696.576 404.974 686.391C404.465 686.177 404.226 685.59 404.441 685.081C404.656 684.572 405.242 684.334 405.751 684.548C429.542 694.58 461.218 698.505 496.11 698.355C530.984 698.204 568.983 693.983 605.367 687.784C641.748 681.586 676.494 673.413 704.854 665.368C733.238 657.316 755.158 649.411 765.928 643.763C776.704 638.112 782.808 632.366 785.792 626.86C788.753 621.394 788.696 616.06 786.921 611.053C785.134 606.01 781.598 601.293 777.604 597.185C773.618 593.084 769.229 589.643 765.803 587.14C761.205 583.78 752.381 578.927 742.816 574.895C733.689 579.909 724.627 583.788 717.579 584.851C714.007 585.39 710.806 585.23 708.362 583.981C705.842 582.693 704.292 580.336 703.902 576.903C703.442 572.85 704.48 569.879 706.844 567.999C709.134 566.176 712.467 565.549 716.233 565.646C723.666 565.836 733.508 568.872 742.694 572.676C758.145 564.073 773.855 552.192 780.495 544.841C787.664 536.903 788.742 528.114 785.736 520.092C782.707 512.012 775.495 504.625 765.938 499.749L765.912 499.735L765.887 499.72C763.455 498.293 758.852 496.626 752.901 494.973C747.087 493.359 740.073 491.783 732.725 490.471C723.237 497.072 713.066 502.581 704.061 504.876C694.967 507.194 686.724 506.295 681.816 499.44C680.376 497.428 679.567 495.577 679.437 493.88C679.304 492.135 679.9 490.648 681.065 489.453C682.2 488.291 683.842 487.435 685.794 486.802C687.757 486.166 690.107 485.734 692.731 485.467C703.098 484.413 718.249 485.902 732.258 488.357C740.369 482.649 747.991 476.127 753.931 470.12C756.941 467.075 759.51 464.172 761.489 461.583C763.478 458.98 764.828 456.749 765.454 455.042C768.26 447.389 767.39 438.248 763.815 429.798C760.243 421.355 754.013 413.71 746.263 409.06L746.235 409.044L746.208 409.025C742.903 406.737 736.649 404.13 727.889 401.639C719.158 399.156 708.026 396.812 695.034 395.012C669.049 391.41 635.666 389.988 599.24 393.955ZM729.901 489.983C716.534 487.747 702.537 486.48 692.933 487.457C690.394 487.715 688.195 488.127 686.411 488.705C684.616 489.286 683.315 490.012 682.497 490.85C681.71 491.656 681.345 492.588 681.432 493.728C681.522 494.918 682.113 496.419 683.443 498.276C687.629 504.123 694.774 505.179 703.567 502.938C711.722 500.86 721.003 495.997 729.901 489.983ZM740.431 573.913C731.76 570.431 722.849 567.816 716.182 567.645C712.588 567.553 709.831 568.177 708.089 569.564C706.419 570.893 705.482 573.088 705.889 576.677C706.217 579.563 707.448 581.268 709.272 582.2C711.172 583.171 713.879 583.387 717.281 582.874C723.619 581.917 731.862 578.511 740.431 573.913Z" fill="black"/>
<path fill-rule="evenodd" clip-rule="evenodd" d="M247.908 197.033C247.908 197.033 247.908 197.034 246.996 197.065L247.908 197.034C247.926 197.541 247.531 197.966 247.028 197.984C246.524 198.001 246.102 197.604 246.084 197.097L246.084 197.092L246.083 197.072L246.08 196.991C246.077 196.919 246.072 196.81 246.064 196.667C246.048 196.382 246.022 195.96 245.981 195.424C245.897 194.35 245.751 192.815 245.501 190.979C244.999 187.302 244.083 182.441 242.428 177.664C240.769 172.877 238.391 168.246 235.007 164.961C231.653 161.706 227.291 159.749 221.532 160.296C215.784 160.842 211.732 163.693 208.848 167.71C205.943 171.757 204.224 176.994 203.238 182.243C202.254 187.481 202.014 192.661 202.021 196.539C202.024 198.477 202.089 200.084 202.154 201.205C202.186 201.765 202.218 202.204 202.241 202.501C202.253 202.65 202.263 202.763 202.27 202.838L202.277 202.923L202.279 202.943L202.28 202.947C202.28 202.947 202.28 202.947 202.28 202.947C202.33 203.452 201.964 203.904 201.463 203.954C200.961 204.005 200.514 203.636 200.464 203.131L201.372 203.04C200.464 203.131 200.464 203.131 200.464 203.13L200.464 203.128L200.463 203.121L200.461 203.097L200.452 203.004C200.445 202.922 200.435 202.803 200.422 202.648C200.398 202.338 200.365 201.886 200.332 201.311C200.266 200.161 200.199 198.519 200.196 196.543C200.189 192.595 200.433 187.291 201.445 181.901C202.455 176.522 204.243 170.988 207.369 166.633C210.516 162.249 215.019 159.068 221.361 158.466C227.693 157.864 232.569 160.043 236.273 163.638C239.947 167.204 242.445 172.137 244.151 177.058C245.86 181.99 246.798 186.981 247.309 190.729C247.564 192.605 247.714 194.176 247.8 195.28C247.843 195.832 247.87 196.268 247.886 196.566C247.894 196.716 247.9 196.831 247.903 196.91L247.907 197L247.908 197.024L247.908 197.031L247.908 197.033Z" fill="black"/>
<path fill-rule="evenodd" clip-rule="evenodd" d="M247.908 197.033C247.908 197.033 247.908 197.034 246.996 197.065L247.908 197.034C247.926 197.541 247.531 197.966 247.028 197.984C246.524 198.001 246.102 197.604 246.084 197.097L246.084 197.092L246.083 197.072L246.08 196.991C246.077 196.919 246.072 196.81 246.064 196.667C246.048 196.382 246.022 195.96 245.981 195.424C245.897 194.35 245.751 192.815 245.501 190.979C244.999 187.302 244.083 182.441 242.428 177.664C240.769 172.877 238.391 168.246 235.007 164.961C231.653 161.706 227.291 159.749 221.532 160.296C215.784 160.842 211.732 163.693 208.848 167.71C205.943 171.757 204.224 176.994 203.238 182.243C202.254 187.481 202.014 192.661 202.021 196.539C202.024 198.477 202.089 200.084 202.154 201.205C202.186 201.765 202.218 202.204 202.241 202.501C202.253 202.65 202.263 202.763 202.27 202.838L202.277 202.923L202.279 202.943L202.28 202.947C202.28 202.947 202.28 202.947 202.28 202.947C202.33 203.452 201.964 203.904 201.463 203.954C200.961 204.005 200.514 203.636 200.464 203.131L201.372 203.04C200.464 203.131 200.464 203.131 200.464 203.13L200.464 203.128L200.463 203.121L200.461 203.097L200.452 203.004C200.445 202.922 200.435 202.803 200.422 202.648C200.398 202.338 200.365 201.886 200.332 201.311C200.266 200.161 200.199 198.519 200.196 196.543C200.189 192.595 200.433 187.291 201.445 181.901C202.455 176.522 204.243 170.988 207.369 166.633C210.516 162.249 215.019 159.068 221.361 158.466C227.693 157.864 232.569 160.043 236.273 163.638C239.947 167.204 242.445 172.137 244.151 177.058C245.86 181.99 246.798 186.981 247.309 190.729C247.564 192.605 247.714 194.176 247.8 195.28C247.843 195.832 247.87 196.268 247.886 196.566C247.894 196.716 247.9 196.831 247.903 196.91L247.907 197L247.908 197.024L247.908 197.031L247.908 197.033Z" fill="black"/>
<path d="M202.28 202.947C202.28 202.947 202.28 202.947 202.28 202.947ZM202.28 202.947C202.33 203.452 201.964 203.904 201.463 203.954C200.961 204.005 200.514 203.636 200.464 203.131L201.372 203.04C200.464 203.131 200.464 203.131 200.464 203.13L200.464 203.128L200.463 203.121L200.461 203.097L200.452 203.004C200.445 202.922 200.435 202.803 200.422 202.648C200.398 202.338 200.365 201.886 200.332 201.311C200.266 200.161 200.199 198.519 200.196 196.543C200.189 192.595 200.433 187.291 201.445 181.901C202.455 176.522 204.243 170.988 207.369 166.633C210.516 162.249 215.019 159.068 221.361 158.466C227.693 157.864 232.569 160.043 236.273 163.638C239.947 167.204 242.445 172.137 244.151 177.058C245.86 181.99 246.798 186.981 247.309 190.729C247.564 192.605 247.714 194.176 247.8 195.28C247.843 195.832 247.87 196.268 247.886 196.566C247.894 196.716 247.9 196.831 247.903 196.91L247.907 197L247.908 197.024L247.908 197.031L247.908 197.033C247.908 197.033 247.908 197.034 246.996 197.065L247.908 197.034C247.926 197.541 247.531 197.966 247.028 197.984C246.524 198.001 246.102 197.604 246.084 197.097L246.084 197.092L246.083 197.072L246.08 196.991C246.077 196.919 246.072 196.81 246.064 196.667C246.048 196.382 246.022 195.96 245.981 195.424C245.897 194.35 245.751 192.815 245.501 190.979C244.999 187.302 244.083 182.441 242.428 177.664C240.769 172.877 238.391 168.246 235.007 164.961C231.653 161.706 227.291 159.749 221.532 160.296C215.784 160.842 211.732 163.693 208.848 167.71C205.943 171.757 204.224 176.994 203.238 182.243C202.254 187.481 202.014 192.661 202.021 196.539C202.024 198.477 202.089 200.084 202.154 201.205C202.186 201.765 202.218 202.204 202.241 202.501C202.253 202.65 202.263 202.763 202.27 202.838L202.277 202.923L202.279 202.943L202.28 202.947Z" stroke="black" stroke-width="0.33" stroke-linecap="round"/>
<path d="M505.03 776.518C462.39 788.935 445.207 777.897 418.616 747.36L479.583 728.805L505.03 776.518Z" fill="white"/>
<path fill-rule="evenodd" clip-rule="evenodd" d="M435.248 738.833C434.641 739.155 434.41 739.909 434.732 740.517C436.809 744.432 438.824 747.678 442.585 749.213C446.291 750.726 451.409 750.465 459.386 748.374C460.051 748.199 460.449 747.518 460.275 746.853C460.1 746.188 459.419 745.79 458.754 745.964C450.84 748.039 446.424 748.089 443.526 746.907C440.684 745.747 439.025 743.292 436.933 739.349C436.61 738.742 435.856 738.511 435.248 738.833Z" fill="black"/>
<path fill-rule="evenodd" clip-rule="evenodd" d="M451.899 755.887C451.291 756.209 451.06 756.963 451.383 757.571C453.46 761.485 455.474 764.732 459.236 766.267C462.942 767.78 468.06 767.519 476.036 765.428C476.702 765.253 477.1 764.572 476.925 763.907C476.751 763.241 476.07 762.843 475.404 763.018C467.49 765.093 463.074 765.143 460.177 763.961C457.335 762.801 455.676 760.346 453.583 756.403C453.261 755.795 452.507 755.564 451.899 755.887Z" fill="black"/>
<path fill-rule="evenodd" clip-rule="evenodd" d="M468.755 747.082C468.147 747.405 467.916 748.159 468.238 748.766C470.316 752.681 472.33 755.928 476.091 757.463C479.798 758.975 484.916 758.715 492.892 756.623C493.557 756.449 493.955 755.768 493.781 755.102C493.606 754.437 492.926 754.039 492.26 754.214C484.346 756.289 479.93 756.339 477.033 755.156C474.19 753.996 472.531 751.542 470.439 747.599C470.116 746.991 469.362 746.76 468.755 747.082Z" fill="black"/>
<path fill-rule="evenodd" clip-rule="evenodd" d="M148.928 222.318C149.33 222.697 149.347 223.33 148.968 223.731C145.766 227.115 143.678 229.724 142.827 232.91C141.98 236.081 142.319 239.993 144.415 246.043C144.596 246.565 144.319 247.135 143.797 247.316C143.275 247.496 142.706 247.22 142.525 246.698C140.376 240.496 139.897 236.13 140.895 232.394C141.889 228.673 144.31 225.744 147.515 222.357C147.894 221.956 148.527 221.938 148.928 222.318Z" fill="black"/>
</svg>
