<svg width="1024" height="1024" viewBox="0 0 1024 1024" fill="none" xmlns="http://www.w3.org/2000/svg">
<ellipse cx="453.165" cy="815.787" rx="395.165" ry="57.7011" fill="black" fill-opacity="0.05"/>
<path d="M624.255 798.118C611.235 798.006 606.443 800.048 604.271 794.422C577.557 725.241 608.872 654.483 570.35 585.299L652.18 590.545C641.637 663.972 624.549 772.733 637.446 784.903C650.342 797.074 637.275 798.23 624.255 798.118Z" fill="#CBAA99"/>
<path d="M624.255 798.118C611.235 798.006 606.443 800.048 604.271 794.422C602.069 788.72 600.262 783.008 598.777 777.286C614.577 780.131 622.191 779.937 634.174 777.286C634.918 780.928 635.991 783.53 637.446 784.903C650.342 797.074 637.275 798.23 624.255 798.118Z" fill="black"/>
<path d="M603.938 833.471C590.918 833.359 586.127 835.401 583.954 829.775C557.24 760.594 588.555 689.837 550.033 620.652L631.864 625.898C621.32 699.326 604.233 808.086 617.129 820.256C630.026 832.427 616.958 833.583 603.938 833.471Z" fill="#F9D9C8"/>
<path d="M603.938 833.471C590.918 833.359 586.127 835.401 583.954 829.775C581.753 824.073 579.945 818.361 578.46 812.639C594.26 815.484 601.874 815.29 613.857 812.639C614.601 816.281 615.674 818.883 617.129 820.256C630.026 832.427 616.958 833.583 603.938 833.471Z" fill="black"/>
<path d="M259.197 798.118C246.177 798.006 241.386 800.048 239.213 794.422C212.499 725.241 243.815 654.483 205.292 585.299L287.123 590.545C276.579 663.972 259.492 772.733 272.388 784.903C285.285 797.074 272.217 798.23 259.197 798.118Z" fill="#CBAA99"/>
<path d="M259.197 798.118C246.177 798.006 241.386 800.048 239.213 794.422C237.012 788.72 235.204 783.008 233.719 777.286C249.519 780.131 257.133 779.937 269.116 777.286C269.86 780.928 270.933 783.53 272.388 784.903C285.285 797.074 272.217 798.23 259.197 798.118Z" fill="black"/>
<path d="M238.881 833.471C225.861 833.359 221.069 835.401 218.897 829.775C192.183 760.594 223.498 689.837 184.976 620.652L266.807 625.898C256.263 699.326 239.175 808.086 252.072 820.256C264.968 832.427 251.901 833.583 238.881 833.471Z" fill="#F9D9C8"/>
<path d="M238.881 833.471C225.861 833.359 221.069 835.401 218.897 829.775C216.695 824.073 214.888 818.361 213.403 812.639C229.203 815.484 236.817 815.29 248.799 812.639C249.543 816.281 250.617 818.883 252.072 820.256C264.968 832.427 251.901 833.583 238.881 833.471Z" fill="black"/>
<path d="M79.1646 610.029C99.2646 617.505 142.628 564 157.846 561.686C173.064 559.372 131.26 507.698 131.26 507.698C131.26 507.698 59.0646 602.553 79.1646 610.029Z" fill="black"/>
<path d="M567.868 207.652C656.343 132.466 707.4 226.886 707.4 226.886L742.021 505.95C742.021 505.95 750.763 560.853 725.934 604.916C719.375 616.556 709.765 620.436 699.709 619.694C703.583 635.906 704.202 652.269 700.406 661.218C690.614 684.298 645.152 718.919 604.237 696.888C601.308 695.311 598.692 693.834 596.363 692.449C594.182 697.007 590.961 702.208 586.402 708.078C560.874 740.951 500.375 742.349 474.497 718.919C463.524 708.984 453.306 690.624 445.548 672.689C446.02 682.219 445.557 692.312 443.601 702.133C436.124 739.674 365.926 746.35 342.187 711.226C341.183 709.739 340.25 708.321 339.384 706.967C336 714.381 330.403 722.292 321.677 729.41C295.099 751.092 257.681 750.742 233.202 696.888C229.43 688.589 226.961 681.213 225.516 674.691C223.543 675.311 221.444 675.837 219.213 676.255C185.642 682.55 134.935 630.444 125.493 592.676C122.778 581.815 126.858 570.116 133.868 559.524C126.55 559.481 119.405 557.914 113.253 554.558C90.1728 541.969 77.2335 496.508 95.4182 466.083C100.266 457.972 107.55 451.303 115.394 446.333C103.24 437.414 92.5398 424.653 90.1726 415.027C84.927 393.695 95.4182 345.086 141.579 338.092C155.841 335.931 168.701 339.378 179.664 345.473C178.756 335.431 179.06 323.609 181.096 309.766C193.335 226.536 266.423 228.984 300.345 248.917C313.012 256.361 327.436 271.559 339.116 288.411C342.475 275.307 347.278 261.729 353.5 248.917C380.077 194.189 450.717 177.228 498.277 183.522C528.96 187.583 536.937 211.439 536.105 239.502C544.147 229.655 554.554 218.966 567.868 207.652Z" fill="white"/>
<path fill-rule="evenodd" clip-rule="evenodd" d="M514.093 329.114C509.878 324.085 502.035 320.694 488.9 321.855C467.865 323.715 452.006 335.893 441.367 347.694C436.053 353.589 432.061 359.369 429.398 363.675C428.066 365.828 427.069 367.61 426.405 368.851C426.073 369.471 425.825 369.956 425.661 370.285C425.578 370.449 425.517 370.574 425.477 370.657C425.456 370.699 425.441 370.73 425.432 370.75L425.421 370.772L425.419 370.777L425.418 370.778C425.198 371.247 424.639 371.448 424.171 371.227C423.702 371.006 423.501 370.448 423.722 369.979L424.57 370.379C423.722 369.979 423.723 369.978 423.723 369.978L423.727 369.968L423.74 369.941C423.751 369.918 423.768 369.883 423.79 369.838C423.834 369.748 423.898 369.616 423.984 369.445C424.156 369.102 424.412 368.602 424.752 367.966C425.432 366.695 426.449 364.878 427.803 362.689C430.51 358.312 434.568 352.436 439.975 346.439C450.777 334.456 467.042 321.905 488.734 319.987C502.236 318.794 510.787 322.249 515.53 327.909C520.063 333.32 520.941 340.537 519.588 347.035C530.497 351.25 537.269 361.358 541.313 370.331C543.392 374.943 544.772 379.303 545.633 382.51C546.064 384.114 546.366 385.432 546.56 386.351C546.657 386.811 546.727 387.172 546.774 387.418C546.797 387.542 546.814 387.637 546.825 387.702L546.838 387.776L546.842 387.796L546.843 387.802L546.843 387.804C546.843 387.804 546.843 387.804 545.918 387.958L546.843 387.804C546.928 388.315 546.583 388.798 546.072 388.883C545.562 388.968 545.079 388.623 544.994 388.113L544.993 388.109L544.99 388.093L544.979 388.028C544.969 387.969 544.953 387.881 544.931 387.764C544.887 387.53 544.819 387.184 544.725 386.739C544.537 385.849 544.244 384.564 543.823 382.996C542.98 379.858 541.63 375.598 539.604 371.101C535.657 362.345 529.225 352.875 519.14 348.873C518.119 352.54 516.386 355.938 514.17 358.6C511.752 361.503 508.706 363.589 505.328 364.094C501.049 364.733 497.004 363.999 493.844 362.503C490.714 361.021 488.319 358.721 487.574 356.128C487.195 354.81 487.251 353.432 487.852 352.117C488.447 350.813 489.546 349.637 491.141 348.641C494.308 346.663 499.58 345.3 507.461 345.047C511.231 344.926 514.67 345.427 517.801 346.41C519.001 340.375 518.104 333.9 514.093 329.114ZM517.37 348.24C514.407 347.294 511.136 346.805 507.522 346.921C499.768 347.17 494.888 348.511 492.134 350.231C490.768 351.084 489.964 352.006 489.557 352.896C489.156 353.775 489.111 354.69 489.376 355.61C489.917 357.493 491.787 359.454 494.646 360.808C497.475 362.147 501.144 362.823 505.051 362.239C507.839 361.822 510.505 360.071 512.729 357.4C514.786 354.93 516.418 351.726 517.37 348.24ZM297.791 348.424C298.136 348.037 298.728 348.002 299.115 348.347L298.492 349.047C299.115 348.347 299.116 348.348 299.116 348.348L299.125 348.356L299.15 348.378C299.172 348.398 299.203 348.426 299.243 348.463C299.323 348.537 299.441 348.645 299.59 348.787C299.89 349.072 300.321 349.49 300.852 350.032C301.914 351.116 303.379 352.697 304.999 354.692C308.235 358.677 312.112 364.344 314.62 371.033C317.13 377.728 318.281 385.483 316.003 393.595C313.723 401.713 308.041 410.075 297.094 418.037C283.338 428.042 272.613 431.528 264.557 431.271C263.214 440.704 257.76 452.377 245.168 465.675C235.929 475.433 227.806 479.894 220.759 480.953C213.681 482.017 207.845 479.627 203.254 476.027C198.682 472.442 195.316 467.637 193.102 463.764C191.991 461.822 191.163 460.101 190.611 458.863C190.335 458.244 190.128 457.745 189.989 457.399C189.919 457.226 189.867 457.091 189.832 456.998C189.814 456.951 189.8 456.915 189.791 456.891L189.78 456.862L189.778 456.854L189.777 456.851C189.777 456.851 189.776 456.85 190.657 456.529L189.776 456.85C189.599 456.364 189.85 455.825 190.336 455.648C190.823 455.471 191.36 455.722 191.538 456.208M191.538 456.208L191.54 456.214L191.548 456.236C191.556 456.256 191.567 456.287 191.583 456.329C191.615 456.412 191.664 456.538 191.729 456.701C191.86 457.027 192.058 457.504 192.324 458.1C192.855 459.292 193.656 460.955 194.73 462.833C196.884 466.6 200.106 471.176 204.411 474.552C208.699 477.914 214.029 480.068 220.48 479.099C226.961 478.124 234.727 473.975 243.807 464.386C256.156 451.344 261.375 440.06 262.682 431.14C254.85 430.282 249.941 425.727 247.59 420.787C246.371 418.227 245.831 415.549 245.932 413.213C246.032 410.903 246.77 408.78 248.284 407.534C249.78 406.302 251.781 406.142 253.755 406.744C255.729 407.347 257.769 408.728 259.546 410.753C262.976 414.664 265.509 421.062 264.773 429.402C272.233 429.59 282.498 426.335 295.992 416.521C306.677 408.749 312.056 400.715 314.197 393.088C316.341 385.457 315.275 378.12 312.864 371.691C310.451 365.256 306.703 359.766 303.544 355.874C301.966 353.931 300.541 352.394 299.513 351.344C298.999 350.82 298.585 350.418 298.3 350.148C298.158 350.013 298.048 349.911 297.975 349.844C297.939 349.811 297.911 349.786 297.893 349.77L297.874 349.752L297.869 349.748L297.868 349.747C297.482 349.403 297.447 348.811 297.791 348.424M262.902 429.278C263.608 421.384 261.206 415.489 258.136 411.99C256.537 410.167 254.779 409.017 253.208 408.538C251.636 408.058 250.345 408.265 249.476 408.981C248.535 409.756 247.893 411.262 247.805 413.293C247.719 415.298 248.184 417.673 249.283 419.981C251.381 424.39 255.761 428.501 262.902 429.278ZM635.859 422.37L635.858 422.37C635.346 422.447 634.868 422.094 634.792 421.582C634.715 421.07 635.068 420.592 635.58 420.516L635.599 420.638C635.581 420.516 635.581 420.516 635.581 420.516L635.584 420.515L635.592 420.514L635.621 420.51C635.646 420.506 635.683 420.501 635.731 420.494C635.827 420.481 635.968 420.462 636.151 420.439C636.516 420.394 637.049 420.332 637.724 420.267C639.073 420.136 640.994 419.992 643.29 419.934C647.873 419.818 653.981 420.046 660.02 421.441C666.051 422.834 672.097 425.409 676.457 430.052C680.847 434.725 683.437 441.394 682.712 450.761C681.826 462.222 678.246 469.526 673.591 473.893C679.259 478.6 684.122 486.41 686.136 498.615C687.646 507.769 686.104 514.162 682.76 518.532C679.43 522.885 674.438 525.064 669.387 526.069C664.332 527.074 659.116 526.923 655.188 526.531C653.218 526.334 651.561 526.074 650.394 525.864C649.81 525.759 649.348 525.666 649.03 525.599C648.872 525.565 648.749 525.538 648.665 525.519C648.623 525.509 648.591 525.502 648.568 525.497L648.543 525.491L648.535 525.489L648.533 525.489C648.533 525.489 648.532 525.488 648.75 524.576L648.532 525.488C648.028 525.368 647.718 524.862 647.838 524.358C647.958 523.855 648.464 523.544 648.968 523.665L648.973 523.666L648.993 523.67C649.011 523.675 649.04 523.681 649.078 523.69C649.115 523.698 649.162 523.709 649.218 523.721C649.276 523.734 649.343 523.748 649.419 523.764C649.719 523.828 650.162 523.917 650.726 524.019C651.854 524.222 653.462 524.474 655.374 524.665C659.208 525.048 664.22 525.184 669.021 524.23C673.827 523.274 678.321 521.248 681.271 517.392C684.208 513.554 685.74 507.736 684.286 498.92C682.303 486.9 677.513 479.48 672.144 475.131C667.079 479.078 661.155 479.854 656.444 479.1C653.999 478.709 651.836 477.9 650.258 476.867C648.736 475.87 647.526 474.5 647.524 472.925C647.522 471.355 648.717 470.137 650.206 469.337C651.739 468.513 653.836 467.978 656.223 467.848C660.832 467.598 666.7 468.847 672.087 472.729C676.412 468.796 679.966 461.946 680.843 450.617C681.532 441.702 679.072 435.574 675.091 431.335C671.081 427.067 665.435 424.616 659.598 423.268C653.768 421.921 647.832 421.694 643.337 421.808C641.093 421.865 639.217 422.006 637.904 422.133C637.248 422.196 636.733 422.256 636.384 422.3C636.209 422.322 636.076 422.34 635.987 422.352C635.943 422.358 635.909 422.363 635.888 422.366L635.864 422.369L635.859 422.37ZM670.583 473.962C665.679 470.573 660.42 469.498 656.324 469.721C654.133 469.84 652.322 470.328 651.093 470.989C649.82 471.673 649.398 472.399 649.399 472.923C649.399 473.519 649.913 474.4 651.286 475.298C652.602 476.161 654.504 476.891 656.74 477.249C660.909 477.916 666.091 477.264 670.583 473.962ZM308.402 516.391C308.663 516.838 308.512 517.412 308.065 517.673L308.064 517.673L308.059 517.676L308.038 517.689C308.018 517.7 307.989 517.718 307.949 517.742C307.87 517.789 307.75 517.861 307.594 517.957C307.281 518.15 306.82 518.44 306.231 518.825C305.052 519.594 303.365 520.744 301.337 522.258C297.281 525.288 291.872 529.771 286.465 535.581C275.64 547.211 264.896 564.076 264.884 585.192C264.877 598.379 268.941 605.895 274.32 609.653C279.439 613.23 285.967 613.557 291.874 611.834C290.621 608.8 289.821 605.418 289.611 601.653C289.173 593.78 290.07 588.409 291.763 585.081C292.616 583.405 293.691 582.207 294.938 581.5C296.196 580.787 297.563 580.61 298.91 580.872C301.558 581.387 304.058 583.572 305.808 586.56C307.576 589.578 308.661 593.543 308.398 597.861C308.191 601.27 306.379 604.488 303.699 607.149C301.242 609.59 298.008 611.614 294.445 612.952C299.314 622.648 309.31 628.227 318.379 631.392C323.035 633.018 327.397 633.989 330.597 634.554C332.195 634.836 333.501 635.016 334.404 635.126C334.856 635.18 335.207 635.217 335.443 635.241C335.562 635.252 335.651 635.26 335.711 635.266L335.777 635.271L335.792 635.272L335.796 635.273C336.312 635.313 336.698 635.764 336.658 636.28C336.618 636.796 336.167 637.182 335.651 637.142L335.724 636.207C335.651 637.142 335.651 637.142 335.651 637.142L335.648 637.142L335.623 637.14L335.547 637.133C335.481 637.128 335.385 637.119 335.26 637.107C335.01 637.082 334.645 637.044 334.179 636.987C333.246 636.874 331.907 636.689 330.271 636.4C327.001 635.823 322.537 634.829 317.761 633.162C308.468 629.919 297.806 624.057 292.652 613.559C286.298 615.476 279.032 615.233 273.246 611.19C267.192 606.961 263.001 598.745 263.009 585.191C263.021 563.413 274.1 546.113 285.092 534.303C290.594 528.393 296.092 523.836 300.215 520.756C302.277 519.216 303.998 518.044 305.205 517.255C305.809 516.86 306.285 516.562 306.611 516.361C306.774 516.26 306.9 516.184 306.985 516.133C307.006 516.121 307.024 516.11 307.04 516.1C307.058 516.09 307.072 516.081 307.084 516.074L307.11 516.059L307.117 516.055L307.119 516.054C307.119 516.054 307.12 516.053 307.592 516.863L307.12 516.053C307.567 515.792 308.141 515.944 308.402 516.391ZM293.659 611.244C297.048 609.991 300.098 608.084 302.378 605.819C304.844 603.37 306.355 600.561 306.527 597.747C306.767 593.804 305.772 590.208 304.19 587.508C302.592 584.778 300.475 583.087 298.551 582.712C297.612 582.529 296.704 582.654 295.863 583.131C295.012 583.614 294.165 584.495 293.434 585.931C291.962 588.825 291.053 593.803 291.484 601.549C291.684 605.159 292.457 608.376 293.659 611.244ZM626.636 554.985C627.104 554.763 627.663 554.963 627.884 555.431L627.037 555.832C627.884 555.431 627.885 555.433 627.885 555.433L627.886 555.435L627.89 555.443L627.903 555.471C627.91 555.486 627.919 555.506 627.93 555.529L627.95 555.575C627.991 555.665 628.05 555.797 628.124 555.968C628.271 556.31 628.479 556.81 628.723 557.447C629.211 558.722 629.848 560.552 630.446 562.785C631.64 567.243 632.691 573.343 632.076 579.848C631.461 586.365 629.173 593.303 623.681 599.379C618.192 605.452 609.57 610.591 596.418 613.633C579.852 617.465 568.788 616.804 561.702 613.872C556.489 621.387 546.646 629.412 529.715 636.414C517.318 641.541 508.181 642.577 501.448 641.112C494.671 639.638 490.446 635.655 487.856 631.036C485.283 626.448 484.322 621.239 483.995 617.219C483.83 615.202 483.824 613.467 483.859 612.234C483.877 611.617 483.904 611.124 483.928 610.784C483.94 610.614 483.951 610.482 483.959 610.391C483.963 610.345 483.966 610.31 483.968 610.285L483.971 610.257L483.972 610.246C483.972 610.246 483.973 610.245 484.905 610.342L483.973 610.245C484.026 609.73 484.488 609.356 485.002 609.41C485.517 609.464 485.891 609.925 485.837 610.44L485.837 610.445L485.835 610.465C485.834 610.477 485.832 610.493 485.83 610.513L485.827 610.555C485.82 610.635 485.81 610.756 485.799 610.914C485.777 611.231 485.75 611.698 485.733 612.287C485.7 613.466 485.706 615.131 485.864 617.067C486.18 620.954 487.104 625.862 489.492 630.119C491.862 634.346 495.674 637.937 501.846 639.28C508.062 640.633 516.786 639.732 528.998 634.681C545.51 627.853 554.978 620.126 559.972 613.073C553.424 609.702 550.975 604.208 550.981 599.219C550.984 596.624 551.65 594.167 552.741 592.223C553.822 590.295 555.38 588.774 557.224 588.242C559.042 587.716 560.896 588.231 562.432 589.424C563.963 590.612 565.214 592.491 565.947 594.825C567.354 599.305 566.884 605.534 562.747 612.272C569.336 614.879 579.866 615.537 595.995 611.806C608.872 608.828 617.118 603.844 622.29 598.122C627.459 592.403 629.624 585.872 630.21 579.672C630.796 573.461 629.794 567.597 628.635 563.27C628.056 561.11 627.441 559.343 626.972 558.118C626.738 557.506 626.54 557.03 626.402 556.71C626.36 556.612 626.323 556.529 626.293 556.461C626.273 556.417 626.256 556.379 626.242 556.348C626.224 556.308 626.21 556.278 626.202 556.259L626.192 556.238L626.19 556.234C625.969 555.766 626.168 555.206 626.636 554.985ZM561.019 611.502C565.04 605.067 565.391 599.312 564.158 595.387C563.517 593.345 562.456 591.816 561.282 590.905C560.113 589.997 558.869 589.718 557.744 590.043C556.535 590.392 555.313 591.469 554.376 593.14C553.448 594.794 552.858 596.934 552.856 599.221C552.85 603.578 554.974 608.471 561.019 611.502Z" fill="black"/>
<path fill-rule="evenodd" clip-rule="evenodd" d="M297.791 348.424C298.136 348.037 298.728 348.002 299.115 348.347L298.492 349.047C299.115 348.347 299.116 348.348 299.116 348.348L299.125 348.356L299.15 348.378C299.172 348.397 299.203 348.426 299.243 348.463C299.323 348.537 299.441 348.645 299.59 348.787C299.89 349.072 300.321 349.49 300.852 350.032C301.914 351.116 303.379 352.697 304.999 354.692C308.235 358.677 312.112 364.344 314.62 371.033C317.13 377.728 318.281 385.483 316.003 393.595C313.723 401.713 308.041 410.075 297.094 418.037C283.338 428.042 272.613 431.528 264.557 431.271C263.214 440.704 257.76 452.377 245.168 465.675C235.929 475.433 227.806 479.893 220.759 480.953C213.681 482.016 207.845 479.627 203.254 476.027C198.682 472.442 195.316 467.636 193.102 463.764C191.991 461.822 191.163 460.101 190.611 458.863C190.335 458.244 190.128 457.745 189.989 457.399C189.919 457.225 189.867 457.09 189.832 456.998C189.814 456.951 189.8 456.915 189.791 456.891L189.78 456.862L189.778 456.854L189.777 456.851C189.777 456.851 189.776 456.85 190.657 456.529L189.776 456.85C189.599 456.363 189.85 455.825 190.336 455.648C190.823 455.471 191.36 455.722 191.538 456.208M191.538 456.208L191.54 456.213L191.548 456.236C191.556 456.256 191.567 456.287 191.583 456.329C191.615 456.412 191.664 456.538 191.729 456.701C191.86 457.027 192.058 457.504 192.324 458.1C192.855 459.292 193.656 460.955 194.73 462.833C196.884 466.6 200.106 471.175 204.411 474.552C208.699 477.914 214.029 480.068 220.48 479.099C226.961 478.124 234.727 473.975 243.807 464.386C256.156 451.344 261.375 440.06 262.682 431.14C254.85 430.282 249.941 425.727 247.59 420.787C246.371 418.227 245.831 415.549 245.932 413.212C246.032 410.903 246.77 408.78 248.284 407.534C249.78 406.302 251.781 406.142 253.755 406.744C255.729 407.347 257.769 408.728 259.546 410.753C262.976 414.664 265.509 421.062 264.773 429.402C272.233 429.59 282.498 426.335 295.992 416.521C306.677 408.749 312.056 400.714 314.197 393.088C316.341 385.457 315.275 378.12 312.864 371.691C310.451 365.256 306.703 359.766 303.544 355.874C301.966 353.931 300.541 352.394 299.513 351.344C298.999 350.82 298.585 350.417 298.3 350.148C298.158 350.013 298.048 349.911 297.975 349.844C297.939 349.811 297.911 349.786 297.893 349.769L297.874 349.752L297.869 349.748L297.868 349.747C297.482 349.403 297.447 348.811 297.791 348.424M262.902 429.278C263.608 421.384 261.206 415.489 258.136 411.99C256.537 410.167 254.779 409.017 253.208 408.537C251.636 408.058 250.345 408.265 249.476 408.981C248.535 409.756 247.893 411.262 247.805 413.293C247.719 415.298 248.184 417.673 249.283 419.981C251.381 424.39 255.761 428.5 262.902 429.278Z" fill="black"/>
<path fill-rule="evenodd" clip-rule="evenodd" d="M520.416 450.38C520.886 450.163 521.444 450.368 521.661 450.838L520.81 451.231C521.661 450.838 521.661 450.839 521.661 450.839L521.666 450.85L521.68 450.88C521.692 450.907 521.709 450.945 521.732 450.995C521.776 451.095 521.84 451.241 521.921 451.431C522.082 451.812 522.31 452.367 522.58 453.077C523.121 454.494 523.833 456.529 524.522 459.005C525.897 463.95 527.188 470.694 526.817 477.828C526.445 484.969 524.403 492.538 519.075 499.066C513.744 505.598 505.196 510.995 491.98 513.924C475.373 517.604 464.149 516.518 456.865 513.065C451.867 521.177 442.206 529.702 425.351 536.865C412.984 542.122 403.756 542.968 396.872 541.125C389.958 539.274 385.561 534.753 382.79 529.62C380.03 524.507 378.863 518.757 378.379 514.323C378.136 512.099 378.064 510.19 378.052 508.835C378.047 508.157 378.056 507.617 378.067 507.244C378.072 507.057 378.078 506.913 378.083 506.813C378.085 506.764 378.087 506.726 378.088 506.699L378.09 506.668L378.091 506.66L378.091 506.657C378.091 506.657 378.091 506.656 379.027 506.713L378.091 506.656C378.123 506.139 378.567 505.746 379.084 505.778C379.601 505.809 379.994 506.254 379.962 506.771M379.962 506.771L379.962 506.776L379.961 506.8C379.959 506.822 379.958 506.855 379.956 506.9C379.952 506.989 379.946 507.123 379.941 507.299C379.931 507.65 379.922 508.166 379.927 508.819C379.939 510.124 380.008 511.969 380.243 514.119C380.714 518.433 381.841 523.914 384.44 528.729C387.028 533.523 391.056 537.627 397.357 539.314C403.688 541.009 412.464 540.305 424.618 535.14C441.148 528.114 450.438 519.853 455.198 512.196C448.36 508.282 445.679 502.146 445.495 496.678C445.4 493.845 445.975 491.174 447 489.072C448.014 486.994 449.539 485.342 451.424 484.804C453.287 484.272 455.187 484.925 456.755 486.265C458.325 487.606 459.643 489.687 460.463 492.253C462.047 497.208 461.814 504.085 457.81 511.438C464.574 514.589 475.285 515.703 491.575 512.093C504.475 509.235 512.614 504.017 517.623 497.88C522.635 491.739 524.587 484.587 524.944 477.731C525.302 470.867 524.058 464.337 522.715 459.507C522.045 457.096 521.352 455.118 520.829 453.745C520.567 453.059 520.347 452.524 520.194 452.164C520.118 451.983 520.058 451.846 520.018 451.756C519.998 451.71 519.982 451.676 519.972 451.654L519.961 451.63L519.959 451.625L519.959 451.624C519.742 451.154 519.946 450.597 520.416 450.38M456.144 510.577C459.943 503.622 460.094 497.258 458.677 492.824C457.939 490.513 456.787 488.758 455.538 487.691C454.288 486.623 453.022 486.298 451.939 486.607C450.767 486.942 449.577 488.066 448.685 489.894C447.806 491.697 447.284 494.06 447.369 496.615C447.533 501.495 449.907 507.013 456.144 510.577Z" fill="black"/>
<path d="M547.32 345.18C578.651 385.997 628.381 305.31 628.381 305.31L608.08 249.45C608.08 249.45 515.989 304.363 547.32 345.18Z" fill="black"/>
<path d="M943.16 347.015C913.683 389.191 860.399 310.805 860.399 310.805L878.185 254.094C878.185 254.094 972.636 304.84 943.16 347.015Z" fill="black"/>
<path d="M746.668 533.716C593.479 533.238 608.679 360.583 629.868 287.107C651.056 213.63 842.329 192.212 874.417 278.875C908.489 370.896 899.857 534.194 746.668 533.716Z" fill="#F9D9C8"/>
<path d="M780.938 473.823C780.938 473.823 772.107 501.745 755.159 502.473C738.211 503.201 725.857 472.761 725.857 472.761" stroke="black" stroke-width="2" stroke-linecap="round"/>
<path d="M754.897 502.446L752.916 533.018" stroke="black" stroke-width="2" stroke-linecap="round"/>
<path d="M682.641 176.094C690.811 153.81 716.746 131.629 748.631 134.89C775.495 137.636 800.693 156.672 812.242 173.013C826.193 152.263 855.471 129.643 874.026 156.5C889.09 178.303 884.991 200.751 876.805 215.205C902.848 215.596 941.174 231.835 926.706 266.993C914.443 296.792 877.999 293.975 855.096 286.087C850.49 302.118 823.328 325.089 787.188 321.626C759.979 319.019 742.086 307.955 734.159 296.916C720.79 309.748 700.393 322.422 683.216 320.838C668.165 319.449 660.439 308.125 657.438 296.376C646.845 307.871 628.8 314.171 610.447 293.36C594.868 275.693 598.755 262.236 607.786 253.739C588.451 253.329 569.822 244.372 586.999 213.275C602.691 184.865 620.607 186.472 633.852 195.541C629.959 182.058 631.4 166.878 648.503 158.398C664.16 150.635 675.711 162.122 682.641 176.094Z" fill="white"/>
<path d="M683.858 204.548C668.115 179.737 702.014 130.123 748.631 134.89C795.248 139.656 836.85 193.475 810.814 197.141C784.777 200.806 843.711 112.623 874.026 156.5C904.341 200.377 857.052 246.864 855.012 225.564C852.972 204.264 948.222 214.706 926.706 266.993C905.189 319.279 809.222 271.15 842.592 271.399C875.961 271.647 841.842 326.863 787.188 321.626C732.533 316.389 715.466 277.031 741.261 272.286C767.056 267.542 718.389 324.083 683.216 320.838C648.044 317.593 652.869 260.084 664.54 269.714C676.21 279.344 643.838 331.224 610.447 293.36C577.057 255.496 633.087 236.97 637.522 245.157C641.958 253.344 555.939 269.507 586.999 213.275C618.059 157.043 657.834 218.409 652.849 222.469C647.864 226.529 611.473 176.758 648.503 158.398C685.533 140.038 699.6 229.359 683.858 204.548Z" stroke="black" stroke-width="2"/>
<path fill-rule="evenodd" clip-rule="evenodd" d="M710.15 395.519C710.15 395.52 710.15 395.52 709.33 395.465L710.15 395.52C710.119 395.973 709.727 396.315 709.275 396.284C708.822 396.254 708.48 395.862 708.51 395.409L708.511 395.405L708.512 395.387L708.516 395.315C708.52 395.25 708.525 395.153 708.531 395.025C708.543 394.77 708.558 394.393 708.57 393.912C708.592 392.949 708.601 391.571 708.544 389.915C708.429 386.6 708.051 382.193 707.002 377.794C705.951 373.385 704.242 369.049 701.51 365.818C698.802 362.616 695.072 360.476 689.864 360.435C684.666 360.394 680.777 362.558 677.828 365.867C674.858 369.199 672.842 373.699 671.482 378.276C670.125 382.843 669.438 387.428 669.092 390.878C668.919 392.601 668.831 394.036 668.786 395.039C668.764 395.54 668.753 395.933 668.747 396.199C668.744 396.332 668.743 396.434 668.742 396.502L668.741 396.577L668.741 396.596L668.741 396.6C668.741 396.6 668.741 396.6 668.741 396.6C668.74 397.053 668.371 397.421 667.918 397.42C667.464 397.419 667.097 397.051 667.098 396.597L667.919 396.599C667.098 396.597 667.098 396.596 667.098 396.596L667.098 396.594L667.098 396.588L667.098 396.566L667.099 396.482C667.1 396.409 667.101 396.302 667.104 396.163C667.11 395.886 667.122 395.48 667.145 394.966C667.19 393.937 667.28 392.471 667.457 390.713C667.809 387.202 668.51 382.508 669.907 377.808C671.301 373.117 673.406 368.359 676.602 364.773C679.819 361.163 684.141 358.747 689.877 358.792C695.604 358.837 699.774 361.221 702.765 364.757C705.731 368.264 707.52 372.88 708.6 377.413C709.683 381.955 710.069 386.479 710.186 389.859C710.245 391.551 710.236 392.961 710.212 393.951C710.201 394.445 710.185 394.835 710.173 395.103C710.166 395.236 710.161 395.339 710.157 395.41L710.152 395.49L710.15 395.511L710.15 395.517L710.15 395.519Z" fill="black"/>
<path fill-rule="evenodd" clip-rule="evenodd" d="M710.15 395.519C710.15 395.52 710.15 395.52 709.33 395.465L710.15 395.52C710.119 395.973 709.727 396.315 709.275 396.284C708.822 396.254 708.48 395.862 708.51 395.409L708.511 395.405L708.512 395.387L708.516 395.315C708.52 395.25 708.525 395.153 708.531 395.025C708.543 394.77 708.558 394.393 708.57 393.912C708.592 392.949 708.601 391.571 708.544 389.915C708.429 386.6 708.051 382.193 707.002 377.794C705.951 373.385 704.242 369.049 701.51 365.818C698.802 362.616 695.072 360.476 689.864 360.435C684.666 360.394 680.777 362.558 677.828 365.867C674.858 369.199 672.842 373.699 671.482 378.276C670.125 382.843 669.438 387.428 669.092 390.878C668.919 392.601 668.831 394.036 668.786 395.039C668.764 395.54 668.753 395.933 668.747 396.199C668.744 396.332 668.743 396.434 668.742 396.502L668.741 396.577L668.741 396.596L668.741 396.6C668.741 396.6 668.741 396.6 668.741 396.6C668.74 397.053 668.371 397.421 667.918 397.42C667.464 397.419 667.097 397.051 667.098 396.597L667.919 396.599C667.098 396.597 667.098 396.596 667.098 396.596L667.098 396.594L667.098 396.588L667.098 396.566L667.099 396.482C667.1 396.409 667.101 396.302 667.104 396.163C667.11 395.886 667.122 395.48 667.145 394.966C667.19 393.937 667.28 392.471 667.457 390.713C667.809 387.202 668.51 382.508 669.907 377.808C671.301 373.117 673.406 368.359 676.602 364.773C679.819 361.163 684.141 358.747 689.877 358.792C695.604 358.837 699.774 361.221 702.765 364.757C705.731 368.264 707.52 372.88 708.6 377.413C709.683 381.955 710.069 386.479 710.186 389.859C710.245 391.551 710.236 392.961 710.212 393.951C710.201 394.445 710.185 394.835 710.173 395.103C710.166 395.236 710.161 395.339 710.157 395.41L710.152 395.49L710.15 395.511L710.15 395.517L710.15 395.519Z" fill="black"/>
<path fill-rule="evenodd" clip-rule="evenodd" d="M838.402 399.493C838.402 399.494 838.402 399.494 837.583 399.439L838.402 399.494C838.372 399.947 837.98 400.289 837.527 400.259C837.075 400.228 836.732 399.836 836.763 399.384L836.763 399.379L836.764 399.362L836.769 399.289C836.772 399.225 836.778 399.127 836.784 399C836.796 398.744 836.811 398.367 836.822 397.886C836.845 396.923 836.854 395.545 836.796 393.89C836.682 390.574 836.303 386.167 835.255 381.768C834.204 377.359 832.495 373.023 829.762 369.792C827.054 366.59 823.325 364.45 818.117 364.409C812.919 364.368 809.03 366.533 806.081 369.841C803.111 373.174 801.095 377.673 799.735 382.25C798.377 386.818 797.69 391.402 797.344 394.852C797.171 396.575 797.083 398.01 797.039 399.013C797.017 399.514 797.005 399.907 797 400.174C796.997 400.307 796.995 400.408 796.994 400.476L796.994 400.552L796.994 400.57L796.994 400.574C796.994 400.574 796.994 400.574 796.994 400.574C796.993 401.028 796.624 401.396 796.17 401.395C795.716 401.394 795.349 401.025 795.35 400.571L796.172 400.573C795.35 400.571 795.35 400.571 795.35 400.57L795.35 400.568L795.35 400.562L795.351 400.54L795.351 400.457C795.352 400.384 795.354 400.277 795.357 400.138C795.363 399.86 795.375 399.455 795.397 398.94C795.443 397.912 795.533 396.446 795.709 394.688C796.062 391.176 796.763 386.482 798.159 381.782C799.554 377.091 801.658 372.334 804.854 368.748C808.072 365.137 812.394 362.721 818.13 362.766C823.856 362.811 828.026 365.195 831.017 368.731C833.983 372.239 835.773 376.855 836.853 381.387C837.936 385.929 838.322 390.453 838.439 393.833C838.497 395.525 838.488 396.936 838.465 397.925C838.453 398.42 838.438 398.81 838.425 399.077C838.419 399.211 838.413 399.314 838.409 399.384L838.404 399.464L838.403 399.486L838.403 399.492L838.402 399.493Z" fill="black"/>
<path fill-rule="evenodd" clip-rule="evenodd" d="M838.402 399.493C838.402 399.494 838.402 399.494 837.583 399.439L838.402 399.494C838.372 399.947 837.98 400.289 837.527 400.259C837.075 400.228 836.732 399.836 836.763 399.384L836.763 399.379L836.764 399.362L836.769 399.289C836.772 399.225 836.778 399.127 836.784 399C836.796 398.744 836.811 398.367 836.822 397.886C836.845 396.923 836.854 395.545 836.796 393.89C836.682 390.574 836.303 386.167 835.255 381.768C834.204 377.359 832.495 373.023 829.762 369.792C827.054 366.59 823.325 364.45 818.117 364.409C812.919 364.368 809.03 366.533 806.081 369.841C803.111 373.174 801.095 377.673 799.735 382.25C798.377 386.818 797.69 391.402 797.344 394.852C797.171 396.575 797.083 398.01 797.039 399.013C797.017 399.514 797.005 399.907 797 400.174C796.997 400.307 796.995 400.408 796.994 400.476L796.994 400.552L796.994 400.57L796.994 400.574C796.994 400.574 796.994 400.574 796.994 400.574C796.993 401.028 796.624 401.396 796.17 401.395C795.716 401.394 795.349 401.025 795.35 400.571L796.172 400.573C795.35 400.571 795.35 400.571 795.35 400.57L795.35 400.568L795.35 400.562L795.351 400.54L795.351 400.457C795.352 400.384 795.354 400.277 795.357 400.138C795.363 399.86 795.375 399.455 795.397 398.94C795.443 397.912 795.533 396.446 795.709 394.688C796.062 391.176 796.763 386.482 798.159 381.782C799.554 377.091 801.658 372.334 804.854 368.748C808.072 365.137 812.394 362.721 818.13 362.766C823.856 362.811 828.026 365.195 831.017 368.731C833.983 372.239 835.773 376.855 836.853 381.387C837.936 385.929 838.322 390.453 838.439 393.833C838.497 395.525 838.488 396.936 838.465 397.925C838.453 398.42 838.438 398.81 838.425 399.077C838.419 399.211 838.413 399.314 838.409 399.384L838.404 399.464L838.403 399.486L838.403 399.492L838.402 399.493Z" fill="black"/>
<ellipse rx="12.9306" ry="14.9798" transform="matrix(0.993014 0.118001 -0.0876467 0.996152 832.728 460.547)" fill="#E92222" fill-opacity="0.34"/>
<ellipse rx="12.9306" ry="14.9798" transform="matrix(0.993014 0.118001 -0.0876467 0.996152 667.153 458.448)" fill="#E92222" fill-opacity="0.34"/>
</svg>
