<svg width="1024" height="1024" viewBox="0 0 1024 1024" fill="none" xmlns="http://www.w3.org/2000/svg">
<path d="M928 764.5C928 802.332 736.602 833 500.5 833C264.398 833 73 802.332 73 764.5C73 726.668 264.398 696 500.5 696C736.602 696 928 726.668 928 764.5Z" fill="black" fill-opacity="0.05"/>
<path d="M920.154 343.993C898.343 286.974 794.935 343.996 786.476 354.146C745.864 422.678 682.261 564.062 500.507 610.503C346.765 665.198 99.4736 684.956 94.398 699.339C89.3223 713.722 134.164 743.334 151.084 742.488C168.005 741.642 187.466 739.95 195.925 747.565C204.385 755.179 220.463 768.717 245.843 776.331C271.223 783.946 429.44 801.713 463.281 789.022C497.122 776.331 557.092 803.434 612.186 789.022C671.938 773.392 680.267 739.115 701.87 723.029C723.474 706.942 875.263 591.344 895.618 467.518C897.309 449.752 903.231 453.982 908.308 441.291C923.079 403.498 941.965 401.013 920.154 343.993Z" fill="#CEA38F"/>
<mask id="mask0_553_1855" style="mask-type:alpha" maskUnits="userSpaceOnUse" x="94" y="319" width="837" height="475">
<path d="M920.154 343.993C898.343 286.974 794.935 343.996 786.476 354.146C745.864 422.678 682.261 564.062 500.507 610.503C346.765 665.198 99.4736 684.956 94.398 699.339C89.3223 713.722 134.164 743.334 151.084 742.488C168.005 741.642 187.466 739.95 195.925 747.565C204.385 755.179 220.463 768.717 245.843 776.331C271.223 783.946 429.44 801.713 463.281 789.022C497.122 776.331 557.092 803.434 612.186 789.022C671.938 773.392 680.267 739.115 701.87 723.029C723.474 706.942 875.263 591.344 895.618 467.518C897.309 449.752 903.231 453.982 908.308 441.291C923.079 403.498 941.965 401.013 920.154 343.993Z" fill="#A8B2BC"/>
</mask>
<g mask="url(#mask0_553_1855)">
<path d="M79.6036 699.859C66.8702 669.891 412.108 774.469 561.013 718.472C630.39 688.861 665.489 676.165 705.69 620.33C789.446 503.999 750.531 337.746 926.512 391.048C1102.49 444.35 757.299 821.692 757.299 821.692C559.885 821.974 162.687 821.184 153.211 815.769C143.735 810.354 92.3371 729.826 79.6036 699.859Z" fill="#B5C5D5"/>
<path d="M79.6036 699.859C66.8702 669.891 412.108 774.469 561.013 718.472C630.39 688.861 665.489 676.165 705.69 620.33C789.446 503.999 750.531 337.746 926.512 391.048C1102.49 444.35 757.299 821.692 757.299 821.692C559.885 821.974 162.687 821.184 153.211 815.769C143.735 810.354 92.3371 729.826 79.6036 699.859Z" fill="#FAD9C9"/>
</g>
<path d="M294.058 261.081C525.071 222.388 655.318 487.825 610.485 582.584C591.788 622.104 473.023 664.946 440.027 664.946C407.03 664.946 410.888 671.996 338.499 651.634C321.46 682.675 254.739 693.091 208.606 694.264C74.5635 704.593 63.0454 299.774 294.058 261.081Z" fill="#A1726E"/>
<path d="M981.506 416.429C954.983 415.047 939.94 410.411 913.821 418.121L910.437 387.663C910.437 387.663 997.581 405.43 1000.97 414.737C1004.35 424.044 981.506 416.429 981.506 416.429Z" fill="#FAD9C9"/>
<path fill-rule="evenodd" clip-rule="evenodd" d="M908.779 387.325C908.966 386.409 909.859 385.818 910.775 386.005L910.437 387.663L910.099 389.321C909.183 389.134 908.592 388.241 908.779 387.325ZM982.041 414.824L982.054 414.828L982.098 414.843C982.124 414.851 982.157 414.862 982.199 414.876C982.223 414.883 982.25 414.892 982.28 414.901C982.44 414.953 982.677 415.028 982.979 415.121C983.582 415.306 984.443 415.562 985.467 415.841C987.524 416.401 990.196 417.041 992.74 417.397C995.373 417.766 997.543 417.777 998.784 417.334C999.351 417.131 999.502 416.914 999.553 416.8C999.612 416.665 999.716 416.253 999.375 415.315C999.329 415.188 999.099 414.816 998.352 414.235C997.646 413.685 996.641 413.073 995.337 412.41C992.734 411.086 989.137 409.658 984.842 408.181C976.265 405.23 965.109 402.15 954.018 399.351C942.936 396.554 931.955 394.046 923.742 392.237C919.637 391.333 916.224 390.604 913.839 390.1C912.646 389.849 911.711 389.654 911.073 389.522C910.755 389.456 910.511 389.406 910.347 389.372L910.099 389.321C910.098 389.321 910.099 389.321 910.437 387.663C910.775 386.005 910.774 386.005 910.775 386.005L911.028 386.057C911.194 386.091 911.439 386.142 911.76 386.208C912.401 386.341 913.341 386.537 914.537 386.789C916.931 387.294 920.353 388.025 924.47 388.932C932.703 390.745 943.719 393.261 954.846 396.069C965.965 398.875 977.23 401.983 985.943 404.98C990.294 406.477 994.061 407.964 996.871 409.393C998.274 410.107 999.488 410.831 1000.43 411.564C1001.33 412.266 1002.18 413.123 1002.56 414.159C1003.06 415.548 1003.19 416.933 1002.65 418.164C1002.1 419.415 1001.02 420.129 999.922 420.521C997.832 421.268 994.925 421.121 992.27 420.749C989.526 420.365 986.699 419.684 984.578 419.106C983.513 418.816 982.616 418.55 981.984 418.356C981.668 418.258 981.417 418.179 981.244 418.123C981.158 418.096 981.091 418.074 981.045 418.059L980.992 418.041L980.977 418.037L980.973 418.035C980.973 418.035 980.971 418.035 981.506 416.429L980.971 418.035C980.085 417.739 979.605 416.781 979.901 415.894C980.196 415.008 981.155 414.529 982.041 414.824C982.041 414.824 982.041 414.824 982.041 414.824Z" fill="black"/>
<path d="M763.992 448.879C787.823 437.156 799.821 426.966 826.865 423.758L817.972 394.432C817.972 394.432 744.883 445.105 745.44 454.993C745.998 464.88 763.992 448.879 763.992 448.879Z" fill="#FAD9C9"/>
<path fill-rule="evenodd" clip-rule="evenodd" d="M819.362 393.467C818.83 392.699 817.775 392.509 817.007 393.041L817.971 394.432L818.936 395.822C819.704 395.29 819.894 394.235 819.362 393.467ZM762.867 447.614L762.857 447.623L762.822 447.654C762.802 447.672 762.775 447.695 762.742 447.724C762.723 447.74 762.702 447.759 762.679 447.779C762.552 447.89 762.363 448.052 762.123 448.256C761.641 448.665 760.95 449.239 760.119 449.899C758.45 451.224 756.246 452.866 754.049 454.196C751.774 455.572 749.784 456.438 748.469 456.52C747.867 456.557 747.643 456.416 747.552 456.331C747.444 456.231 747.186 455.894 747.13 454.897C747.122 454.762 747.187 454.329 747.644 453.501C748.076 452.718 748.759 451.759 749.696 450.636C751.567 448.393 754.309 445.663 757.674 442.612C764.395 436.52 773.434 429.293 782.524 422.349C791.607 415.411 800.711 408.779 807.546 403.879C810.963 401.43 813.812 399.415 815.805 398.012C816.802 397.311 817.586 396.763 818.119 396.391C818.386 396.204 818.59 396.062 818.728 395.966L818.936 395.822C818.936 395.822 818.936 395.822 817.971 394.432C817.007 393.041 817.008 393.041 817.007 393.041L816.796 393.188C816.657 393.285 816.451 393.428 816.182 393.616C815.645 393.99 814.859 394.541 813.858 395.244C811.858 396.652 809.001 398.673 805.574 401.129C798.723 406.04 789.589 412.694 780.47 419.66C771.357 426.62 762.228 433.916 755.401 440.105C751.993 443.195 749.117 446.047 747.097 448.468C746.089 449.676 745.259 450.82 744.681 451.865C744.129 452.866 743.689 453.987 743.751 455.088C743.834 456.563 744.26 457.889 745.243 458.806C746.242 459.738 747.515 459.97 748.679 459.897C750.894 459.76 753.508 458.479 755.801 457.091C758.172 455.656 760.501 453.916 762.223 452.55C763.088 451.864 763.807 451.265 764.312 450.837C764.564 450.623 764.763 450.452 764.9 450.332C764.968 450.273 765.021 450.227 765.058 450.195L765.1 450.158L765.111 450.147L765.114 450.145C765.115 450.144 765.116 450.143 763.991 448.879L765.116 450.143C765.814 449.522 765.877 448.453 765.256 447.754C764.635 447.056 763.565 446.993 762.867 447.614C762.867 447.614 762.867 447.614 762.867 447.614Z" fill="black"/>
<path d="M831.316 339.766L783.936 359.225C782.14 296.515 751.786 221.317 739.095 188.321C734.518 176.42 735.003 163.749 736.344 152.808C724.512 140.618 713.672 129.84 728.096 124.866C743.783 119.457 738.72 133.414 736.344 152.808C744.637 161.354 753.418 170.593 754.324 179.014C756.524 199.448 822.452 339.949 831.316 339.766Z" fill="#CEA38F"/>
<path d="M728.096 124.866C743.783 119.457 738.72 133.414 736.344 152.808C724.512 140.618 713.672 129.84 728.096 124.866Z" fill="#FAD9C9"/>
<path d="M912.293 374.562L861.085 375.651C881.995 316.503 880.761 235.419 880.806 200.066C880.822 187.316 885.838 175.67 891.029 165.946C884.382 150.313 878.151 136.354 893.399 136.909C909.981 137.512 900.231 148.709 891.029 165.946C895.689 176.905 900.552 188.687 898.365 196.869C893.057 216.724 903.958 371.541 912.293 374.562Z" fill="#CEA38F"/>
<path d="M891.029 165.946C884.382 150.313 878.151 136.354 893.399 136.909C909.981 137.512 900.231 148.709 891.029 165.946Z" fill="#FAD9C9"/>
<mask id="mask1_553_1855" style="mask-type:alpha" maskUnits="userSpaceOnUse" x="113" y="257" width="507" height="438">
<path d="M294.058 261.081C525.071 222.388 655.318 487.825 610.485 582.584C591.788 622.104 473.023 664.946 440.027 664.946C407.03 664.946 410.888 671.996 338.499 651.634C321.46 682.675 254.739 693.091 208.606 694.264C74.5635 704.593 63.0454 299.774 294.058 261.081Z" fill="white"/>
</mask>
<g mask="url(#mask1_553_1855)">
<path fill-rule="evenodd" clip-rule="evenodd" d="M253.079 328.084C253.637 328.833 253.481 329.893 252.731 330.451C175.477 387.918 135.309 459.231 132.23 517.212C130.692 546.176 138.401 571.754 155.267 590.731C172.13 609.705 198.314 622.268 234.085 624.88C269.787 627.488 294.28 617.171 309.771 600.442C325.305 583.668 332.006 560.212 331.612 536.176C331.217 512.141 323.726 487.708 311.107 469.152C298.487 450.592 280.874 438.082 260.238 437.404C218.189 436.023 194.202 456.334 186.576 480.147C178.909 504.086 187.628 531.837 211.647 545.848C223.905 552.998 233.056 555.647 239.733 555.459C246.281 555.274 250.552 552.363 253.261 547.962C256.03 543.46 257.22 537.291 257.198 530.65C257.177 524.037 255.953 517.131 254.068 511.3C252.22 505.585 249.625 502.416 246.944 500.727C244.259 499.036 241.267 498.69 238.363 499.043C235.445 499.398 232.703 500.45 230.662 501.441C229.648 501.933 228.824 502.402 228.258 502.744C227.975 502.915 227.757 503.055 227.613 503.149C227.542 503.196 227.488 503.232 227.454 503.254L227.419 503.279L227.413 503.283L227.412 503.283C226.647 503.818 225.592 503.632 225.057 502.867C224.521 502.101 224.707 501.046 225.472 500.51L226.443 501.896C225.472 500.51 225.473 500.51 225.474 500.509L225.476 500.508L225.481 500.504L225.498 500.492L225.555 500.453C225.603 500.421 225.671 500.375 225.759 500.318C225.934 500.203 226.186 500.042 226.506 499.849C227.145 499.462 228.061 498.942 229.184 498.397C231.415 497.314 234.531 496.1 237.955 495.684C241.392 495.266 245.226 495.645 248.747 497.864C252.273 500.084 255.267 504.009 257.288 510.259C259.271 516.395 260.56 523.648 260.583 530.639C260.606 537.604 259.373 544.486 256.143 549.735C252.851 555.085 247.545 558.624 239.828 558.842C232.239 559.056 222.436 556.06 209.941 548.771C184.455 533.905 175.237 504.456 183.353 479.115C191.509 453.648 217.025 432.599 260.349 434.022C282.399 434.746 300.892 448.111 313.905 467.249C326.92 486.388 334.591 511.472 334.995 536.12C335.4 560.766 328.538 585.158 312.254 602.742C295.929 620.371 270.351 630.923 233.838 628.256C197.393 625.593 170.309 612.75 152.737 592.979C135.168 573.211 127.275 546.703 128.85 517.033C131.999 457.747 172.926 385.598 250.711 327.736C251.461 327.178 252.521 327.334 253.079 328.084Z" fill="black"/>
</g>
<path fill-rule="evenodd" clip-rule="evenodd" d="M554.919 770.855C554.705 769.962 555.274 768.995 556.19 768.696C571.237 763.784 579.547 762.87 593.979 763.067C594.915 763.08 595.592 763.854 595.491 764.795C595.391 765.737 594.551 766.49 593.616 766.477C579.505 766.284 571.586 767.157 556.966 771.93C556.05 772.229 555.134 771.747 554.919 770.855Z" fill="black"/>
<path fill-rule="evenodd" clip-rule="evenodd" d="M574.695 784.328C574.481 783.435 575.049 782.469 575.966 782.17C591.013 777.257 599.323 776.344 613.755 776.541C614.69 776.554 615.368 777.327 615.267 778.269C615.167 779.21 614.327 779.963 613.391 779.95C599.281 779.758 591.361 780.631 576.742 785.403C575.826 785.702 574.909 785.221 574.695 784.328Z" fill="black"/>
<path fill-rule="evenodd" clip-rule="evenodd" d="M605.654 761.927C605.439 761.034 606.008 760.067 606.924 759.768C621.971 754.856 630.282 753.942 644.713 754.14C645.649 754.152 646.326 754.926 646.226 755.868C646.125 756.809 645.286 757.562 644.35 757.549C630.239 757.356 622.32 758.229 607.701 763.002C606.785 763.301 605.868 762.82 605.654 761.927Z" fill="black"/>
<path fill-rule="evenodd" clip-rule="evenodd" d="M695.129 704.535C694.441 703.926 694.354 702.808 694.933 702.038C704.449 689.389 710.736 683.878 722.675 675.768C723.449 675.243 724.448 675.489 724.905 676.318C725.363 677.147 725.106 678.245 724.332 678.771C712.658 686.7 706.668 691.954 697.423 704.243C696.843 705.013 695.816 705.144 695.129 704.535Z" fill="black"/>
<path fill-rule="evenodd" clip-rule="evenodd" d="M719.056 704.243C718.369 703.634 718.281 702.516 718.86 701.746C728.377 689.097 734.663 683.586 746.603 675.476C747.377 674.951 748.375 675.197 748.832 676.026C749.29 676.855 749.033 677.953 748.259 678.479C736.585 686.408 730.595 691.662 721.35 703.951C720.771 704.721 719.744 704.852 719.056 704.243Z" fill="black"/>
<path fill-rule="evenodd" clip-rule="evenodd" d="M731.589 668.143C730.901 667.534 730.814 666.416 731.393 665.646C740.909 652.997 747.196 647.486 759.135 639.377C759.909 638.851 760.908 639.097 761.365 639.926C761.822 640.755 761.566 641.853 760.792 642.379C749.118 650.308 743.128 655.562 733.883 667.851C733.303 668.621 732.276 668.752 731.589 668.143Z" fill="black"/>
<path fill-rule="evenodd" clip-rule="evenodd" d="M805.36 588.242C804.554 587.803 804.217 586.734 804.609 585.853C811.04 571.39 815.928 564.607 825.741 554.023C826.377 553.337 827.405 553.352 828.037 554.057C828.669 554.762 828.665 555.89 828.029 556.577C818.435 566.925 813.778 573.39 807.53 587.442C807.138 588.323 806.167 588.681 805.36 588.242Z" fill="black"/>
<path fill-rule="evenodd" clip-rule="evenodd" d="M828.611 582.582C827.804 582.144 827.468 581.074 827.859 580.193C834.291 565.73 839.178 558.947 848.991 548.363C849.627 547.677 850.655 547.692 851.287 548.398C851.919 549.103 851.916 550.231 851.28 550.917C841.685 561.266 837.029 567.731 830.781 581.782C830.389 582.663 829.418 583.021 828.611 582.582Z" fill="black"/>
<path fill-rule="evenodd" clip-rule="evenodd" d="M832.714 544.59C831.907 544.151 831.571 543.082 831.962 542.201C838.394 527.738 843.281 520.955 853.094 510.371C853.73 509.685 854.758 509.7 855.39 510.405C856.022 511.11 856.019 512.238 855.383 512.924C845.788 523.273 841.132 529.738 834.884 543.79C834.492 544.671 833.521 545.029 832.714 544.59Z" fill="black"/>
<path fill-rule="evenodd" clip-rule="evenodd" d="M379.299 771.194C379.201 770.281 379.89 769.396 380.837 769.218C396.392 766.287 404.751 766.452 419.037 768.508C419.963 768.642 420.534 769.496 420.313 770.417C420.093 771.338 419.163 771.976 418.237 771.843C404.268 769.832 396.303 769.677 381.19 772.525C380.243 772.703 379.396 772.108 379.299 771.194Z" fill="black"/>
<path fill-rule="evenodd" clip-rule="evenodd" d="M397.172 787.105C397.075 786.192 397.763 785.307 398.71 785.129C414.266 782.198 422.624 782.363 436.91 784.419C437.836 784.552 438.408 785.407 438.187 786.328C437.966 787.248 437.036 787.887 436.11 787.754C422.142 785.743 414.176 785.588 399.064 788.435C398.117 788.614 397.27 788.018 397.172 787.105Z" fill="black"/>
<path fill-rule="evenodd" clip-rule="evenodd" d="M430.761 768.883C430.663 767.969 431.352 767.085 432.299 766.906C447.854 763.975 456.213 764.14 470.498 766.196C471.425 766.33 471.996 767.184 471.775 768.105C471.554 769.026 470.625 769.664 469.698 769.531C455.73 767.52 447.765 767.365 432.652 770.213C431.705 770.391 430.858 769.796 430.761 768.883Z" fill="black"/>
<path fill-rule="evenodd" clip-rule="evenodd" d="M107.643 701.756C107.854 700.862 108.797 700.256 109.75 700.401C125.397 702.791 133.229 705.717 146.026 712.391C146.855 712.824 147.112 713.82 146.598 714.615C146.085 715.411 144.996 715.705 144.166 715.272C131.654 708.746 124.189 705.96 108.987 703.638C108.035 703.492 107.433 702.65 107.643 701.756Z" fill="black"/>
<path fill-rule="evenodd" clip-rule="evenodd" d="M119.234 722.691C119.444 721.797 120.387 721.191 121.34 721.336C136.988 723.726 144.819 726.652 157.616 733.326C158.446 733.759 158.702 734.755 158.188 735.55C157.675 736.346 156.586 736.64 155.756 736.207C143.244 729.681 135.78 726.895 120.578 724.573C119.625 724.428 119.023 723.585 119.234 722.691Z" fill="black"/>
<path fill-rule="evenodd" clip-rule="evenodd" d="M156.963 716.63C157.174 715.736 158.117 715.129 159.07 715.275C174.717 717.664 182.549 720.59 195.346 727.265C196.175 727.698 196.432 728.693 195.918 729.489C195.404 730.284 194.315 730.578 193.486 730.146C180.973 723.62 173.509 720.833 158.307 718.512C157.354 718.366 156.753 717.524 156.963 716.63Z" fill="black"/>
<path fill-rule="evenodd" clip-rule="evenodd" d="M227.551 748.389C227.659 747.477 228.526 746.767 229.489 746.803C245.307 747.392 253.421 749.406 266.896 754.577C267.77 754.912 268.138 755.872 267.719 756.721C267.299 757.57 266.251 757.986 265.377 757.651C252.202 752.595 244.469 750.678 229.101 750.106C228.138 750.07 227.444 749.301 227.551 748.389Z" fill="black"/>
<path fill-rule="evenodd" clip-rule="evenodd" d="M241.454 767.866C241.561 766.954 242.429 766.243 243.392 766.279C259.21 766.868 267.324 768.882 280.799 774.053C281.673 774.388 282.041 775.348 281.621 776.197C281.202 777.046 280.154 777.463 279.28 777.127C266.105 772.071 258.372 770.154 243.004 769.582C242.041 769.546 241.347 768.778 241.454 767.866Z" fill="black"/>
<path fill-rule="evenodd" clip-rule="evenodd" d="M278.246 757.54C278.353 756.628 279.221 755.918 280.184 755.954C296.002 756.543 304.116 758.556 317.591 763.727C318.465 764.063 318.833 765.022 318.413 765.871C317.994 766.72 316.946 767.137 316.072 766.802C302.897 761.745 295.164 759.829 279.796 759.256C278.833 759.22 278.139 758.452 278.246 757.54Z" fill="black"/>
<path fill-rule="evenodd" clip-rule="evenodd" d="M339.43 650.221C340.211 650.735 340.427 651.784 339.914 652.565C336.146 658.292 332.752 662.555 328.483 666.2C324.218 669.841 319.156 672.799 312.131 676.017C311.281 676.406 310.277 676.033 309.888 675.183C309.498 674.334 309.872 673.329 310.721 672.94C317.601 669.789 322.352 666.984 326.286 663.626C330.216 660.271 333.407 656.298 337.086 650.705C337.6 649.924 338.649 649.708 339.43 650.221Z" fill="black"/>
<path fill-rule="evenodd" clip-rule="evenodd" d="M617.71 539.108C618.645 539.107 619.403 539.864 619.404 540.799C619.427 561.888 617.793 578.662 605.16 594.496C592.619 610.215 569.405 624.796 526.979 642.201L526.955 642.211L526.931 642.22C489.986 656.054 460.584 666.456 425.632 667.306C390.671 668.157 350.315 659.455 291.34 635.434C290.474 635.082 290.059 634.094 290.411 633.229C290.764 632.363 291.751 631.948 292.617 632.3C351.384 656.236 391.247 664.758 425.55 663.923C459.853 663.088 488.755 652.901 525.719 639.06C568.066 621.685 590.556 607.374 602.514 592.386C614.383 577.51 616.042 561.759 616.02 540.802C616.019 539.868 616.776 539.109 617.71 539.108Z" fill="black"/>
<path fill-rule="evenodd" clip-rule="evenodd" d="M492.044 603.673C479.919 618.191 462.525 627.552 439.332 629.466C438.401 629.542 437.583 628.85 437.507 627.918C437.43 626.987 438.122 626.17 439.054 626.093C461.413 624.248 477.945 615.275 489.446 601.503C500.979 587.694 507.559 568.927 509.712 547.357C514.02 504.195 500.545 450.277 474.426 404.033C448.302 357.777 409.716 319.522 364.079 307.271C318.595 295.061 265.617 308.56 210.291 366.831C209.648 367.509 208.577 367.537 207.899 366.893C207.221 366.25 207.194 365.179 207.837 364.501C263.769 305.592 317.961 291.387 364.957 304.003C411.8 316.578 451.004 355.68 477.373 402.368C503.749 449.068 517.472 503.681 513.079 547.693C510.882 569.711 504.137 589.192 492.044 603.673Z" fill="black"/>
<path fill-rule="evenodd" clip-rule="evenodd" d="M890.214 424.119C890.7 424.789 890.551 425.727 889.881 426.214C877.747 435.02 867.582 439.351 856.658 440.494C845.791 441.631 834.316 439.594 819.639 435.956C818.835 435.757 818.345 434.943 818.544 434.139C818.743 433.335 819.557 432.845 820.361 433.044C835.006 436.674 846.04 438.589 856.346 437.511C866.596 436.438 876.27 432.385 888.119 423.786C888.789 423.299 889.727 423.448 890.214 424.119Z" fill="black"/>
<path d="M751.073 140.873C754.58 153.463 749.875 165.772 740.564 168.365C731.253 170.958 720.863 162.853 717.356 150.263C713.85 137.672 718.555 125.363 727.866 122.77C737.176 120.177 747.567 128.282 751.073 140.873Z" fill="#FAD9C9"/>
<path d="M906.353 154.191C904.541 165.698 896.88 174.051 889.241 172.849C881.602 171.646 876.878 161.343 878.69 149.836C880.501 138.328 888.162 129.975 895.801 131.177C903.44 132.38 908.165 142.683 906.353 154.191Z" fill="#FAD9C9"/>
<path fill-rule="evenodd" clip-rule="evenodd" d="M902.757 153.801C902.757 153.801 902.757 153.801 902.394 153.776L902.757 153.801C902.742 154.001 902.569 154.152 902.369 154.138C902.168 154.123 902.018 153.95 902.032 153.75L902.032 153.748L902.033 153.74L902.035 153.708C902.036 153.68 902.039 153.637 902.042 153.58C902.047 153.467 902.055 153.301 902.06 153.088C902.072 152.663 902.078 152.055 902.055 151.323C902.01 149.859 901.849 147.912 901.393 145.967C900.935 144.018 900.186 142.1 898.983 140.668C897.79 139.249 896.144 138.298 893.841 138.271C891.542 138.244 889.819 139.193 888.51 140.649C887.191 142.116 886.292 144.1 885.683 146.119C885.076 148.134 884.765 150.158 884.606 151.681C884.527 152.442 884.486 153.076 884.465 153.518C884.454 153.74 884.448 153.913 884.445 154.031C884.444 154.09 884.443 154.135 884.443 154.164L884.442 154.198L884.442 154.206L884.442 154.208C884.442 154.208 884.442 154.208 884.442 154.208C884.441 154.408 884.277 154.57 884.077 154.569C883.876 154.568 883.714 154.404 883.715 154.204L884.079 154.206C883.715 154.204 883.715 154.204 883.715 154.203L883.715 154.203L883.715 154.2L883.715 154.19L883.716 154.153C883.716 154.121 883.717 154.074 883.719 154.012C883.722 153.89 883.728 153.711 883.739 153.483C883.761 153.029 883.802 152.382 883.883 151.606C884.045 150.055 884.362 147.983 884.987 145.91C885.611 143.84 886.55 141.743 887.969 140.164C889.398 138.575 891.313 137.516 893.849 137.545C896.382 137.575 898.222 138.635 899.539 140.202C900.846 141.756 901.63 143.798 902.1 145.801C902.572 147.809 902.735 149.808 902.782 151.301C902.805 152.049 902.799 152.672 902.787 153.108C902.781 153.327 902.773 153.499 902.767 153.617C902.764 153.676 902.762 153.722 902.76 153.753L902.758 153.788L902.757 153.798L902.757 153.8L902.757 153.801Z" fill="black"/>
<path fill-rule="evenodd" clip-rule="evenodd" d="M902.757 153.801C902.757 153.801 902.757 153.801 902.394 153.776L902.757 153.801C902.742 154.001 902.569 154.152 902.369 154.138C902.168 154.123 902.018 153.95 902.032 153.75L902.032 153.748L902.033 153.74L902.035 153.708C902.036 153.68 902.039 153.637 902.042 153.58C902.047 153.467 902.055 153.301 902.06 153.088C902.072 152.663 902.078 152.055 902.055 151.323C902.01 149.859 901.849 147.912 901.393 145.967C900.935 144.018 900.186 142.1 898.983 140.668C897.79 139.249 896.144 138.298 893.841 138.271C891.542 138.244 889.819 139.193 888.51 140.649C887.191 142.116 886.292 144.1 885.683 146.119C885.076 148.134 884.765 150.158 884.606 151.681C884.527 152.442 884.486 153.076 884.465 153.518C884.454 153.74 884.448 153.913 884.445 154.031C884.444 154.09 884.443 154.135 884.443 154.164L884.442 154.198L884.442 154.206L884.442 154.208C884.442 154.208 884.442 154.208 884.442 154.208C884.441 154.408 884.277 154.57 884.077 154.569C883.876 154.568 883.714 154.404 883.715 154.204L884.079 154.206C883.715 154.204 883.715 154.204 883.715 154.203L883.715 154.203L883.715 154.2L883.715 154.19L883.716 154.153C883.716 154.121 883.717 154.074 883.719 154.012C883.722 153.89 883.728 153.711 883.739 153.483C883.761 153.029 883.802 152.382 883.883 151.606C884.045 150.055 884.362 147.983 884.987 145.91C885.611 143.84 886.55 141.743 887.969 140.164C889.398 138.575 891.313 137.516 893.849 137.545C896.382 137.575 898.222 138.635 899.539 140.202C900.846 141.756 901.63 143.798 902.1 145.801C902.572 147.809 902.735 149.808 902.782 151.301C902.805 152.049 902.799 152.672 902.787 153.108C902.781 153.327 902.773 153.499 902.767 153.617C902.764 153.676 902.762 153.722 902.76 153.753L902.758 153.788L902.757 153.798L902.757 153.8L902.757 153.801Z" fill="black"/>
<path d="M884.442 154.208C884.442 154.208 884.442 154.208 884.442 154.208ZM884.442 154.208C884.441 154.408 884.277 154.57 884.077 154.569C883.876 154.568 883.714 154.404 883.715 154.204L884.079 154.206C883.715 154.204 883.715 154.204 883.715 154.203L883.715 154.203L883.715 154.2L883.715 154.19L883.716 154.153C883.716 154.121 883.717 154.074 883.719 154.012C883.722 153.89 883.728 153.711 883.739 153.483C883.761 153.029 883.802 152.382 883.883 151.606C884.045 150.055 884.362 147.983 884.987 145.91C885.611 143.84 886.55 141.743 887.969 140.164C889.398 138.575 891.313 137.516 893.849 137.545C896.382 137.575 898.222 138.635 899.539 140.202C900.846 141.756 901.63 143.798 902.1 145.801C902.572 147.809 902.735 149.808 902.782 151.301C902.805 152.049 902.799 152.672 902.787 153.108C902.781 153.327 902.773 153.499 902.767 153.617C902.764 153.676 902.762 153.722 902.76 153.753L902.758 153.788L902.757 153.798L902.757 153.8L902.757 153.801C902.757 153.801 902.757 153.801 902.394 153.776L902.757 153.801C902.742 154.001 902.569 154.152 902.369 154.138C902.168 154.123 902.018 153.95 902.032 153.75L902.032 153.748L902.033 153.74L902.035 153.708C902.036 153.68 902.039 153.637 902.042 153.58C902.047 153.467 902.055 153.301 902.06 153.088C902.072 152.663 902.078 152.055 902.055 151.323C902.01 149.859 901.849 147.912 901.393 145.967C900.935 144.018 900.186 142.1 898.983 140.668C897.79 139.249 896.144 138.298 893.841 138.271C891.542 138.244 889.819 139.193 888.51 140.649C887.191 142.116 886.292 144.1 885.683 146.119C885.076 148.134 884.765 150.158 884.606 151.681C884.527 152.442 884.486 153.076 884.465 153.518C884.454 153.74 884.448 153.913 884.445 154.031C884.444 154.09 884.443 154.135 884.443 154.164L884.442 154.198L884.442 154.206L884.442 154.208Z" stroke="black" stroke-width="1.6" stroke-linecap="round"/>
<path fill-rule="evenodd" clip-rule="evenodd" d="M744.284 143.131C744.284 143.131 744.284 143.131 743.89 143.238L744.284 143.131C744.342 143.344 744.212 143.564 743.995 143.623C743.777 143.682 743.554 143.557 743.496 143.344L743.495 143.342L743.493 143.334L743.484 143.3C743.475 143.269 743.462 143.224 743.444 143.164C743.409 143.045 743.356 142.869 743.285 142.646C743.142 142.2 742.926 141.565 742.635 140.814C742.052 139.308 741.171 137.344 739.977 135.491C738.779 133.633 737.285 131.916 735.485 130.87C733.701 129.834 731.607 129.451 729.153 130.27C726.703 131.087 725.22 132.708 724.362 134.702C723.498 136.712 723.268 139.104 723.359 141.427C723.449 143.744 723.858 145.962 724.246 147.603C724.439 148.422 724.627 149.096 724.766 149.564C724.836 149.798 724.893 149.981 724.933 150.104C724.953 150.166 724.968 150.213 724.978 150.244L724.99 150.279L724.993 150.287L724.994 150.289C724.994 150.289 724.994 150.289 724.994 150.289C725.066 150.498 724.951 150.726 724.738 150.799C724.524 150.871 724.293 150.761 724.221 150.552L724.607 150.421C724.221 150.552 724.221 150.552 724.221 150.552L724.22 150.551L724.22 150.548L724.216 150.538L724.203 150.499C724.192 150.466 724.176 150.416 724.155 150.352C724.113 150.223 724.054 150.035 723.983 149.795C723.84 149.315 723.648 148.627 723.451 147.79C723.056 146.12 722.637 143.85 722.544 141.465C722.451 139.085 722.681 136.56 723.611 134.397C724.547 132.22 726.193 130.415 728.896 129.513C731.595 128.612 733.935 129.037 735.905 130.181C737.859 131.316 739.436 133.149 740.667 135.058C741.901 136.972 742.804 138.989 743.398 140.523C743.695 141.292 743.916 141.941 744.063 142.4C744.137 142.629 744.192 142.811 744.228 142.936C744.247 142.998 744.26 143.046 744.27 143.079L744.28 143.117L744.283 143.127L744.284 143.13L744.284 143.131Z" fill="black"/>
<path fill-rule="evenodd" clip-rule="evenodd" d="M744.284 143.131C744.284 143.131 744.284 143.131 743.89 143.238L744.284 143.131C744.342 143.344 744.212 143.564 743.995 143.623C743.777 143.682 743.554 143.557 743.496 143.344L743.495 143.342L743.493 143.334L743.484 143.3C743.475 143.269 743.462 143.224 743.444 143.164C743.409 143.045 743.356 142.869 743.285 142.646C743.142 142.2 742.926 141.565 742.635 140.814C742.052 139.308 741.171 137.344 739.977 135.491C738.779 133.633 737.285 131.916 735.485 130.87C733.701 129.834 731.607 129.451 729.153 130.27C726.703 131.087 725.22 132.708 724.362 134.702C723.498 136.712 723.268 139.104 723.359 141.427C723.449 143.744 723.858 145.962 724.246 147.603C724.439 148.422 724.627 149.096 724.766 149.564C724.836 149.798 724.893 149.981 724.933 150.104C724.953 150.166 724.968 150.213 724.978 150.244L724.99 150.279L724.993 150.287L724.994 150.289C724.994 150.289 724.994 150.289 724.994 150.289C725.066 150.498 724.951 150.726 724.738 150.799C724.524 150.871 724.293 150.761 724.221 150.552L724.607 150.421C724.221 150.552 724.221 150.552 724.221 150.552L724.22 150.551L724.22 150.548L724.216 150.538L724.203 150.499C724.192 150.466 724.176 150.416 724.155 150.352C724.113 150.223 724.054 150.035 723.983 149.795C723.84 149.315 723.648 148.627 723.451 147.79C723.056 146.12 722.637 143.85 722.544 141.465C722.451 139.085 722.681 136.56 723.611 134.397C724.547 132.22 726.193 130.415 728.896 129.513C731.595 128.612 733.935 129.037 735.905 130.181C737.859 131.316 739.436 133.149 740.667 135.058C741.901 136.972 742.804 138.989 743.398 140.523C743.695 141.292 743.916 141.941 744.063 142.4C744.137 142.629 744.192 142.811 744.228 142.936C744.247 142.998 744.26 143.046 744.27 143.079L744.28 143.117L744.283 143.127L744.284 143.13L744.284 143.131Z" fill="black"/>
<path d="M724.994 150.289C724.994 150.289 724.994 150.289 724.994 150.289ZM724.994 150.289C725.066 150.498 724.951 150.726 724.738 150.799C724.524 150.871 724.293 150.761 724.221 150.552L724.607 150.421C724.221 150.552 724.221 150.552 724.221 150.552L724.22 150.551L724.22 150.548L724.216 150.538L724.203 150.499C724.192 150.466 724.176 150.416 724.155 150.352C724.113 150.223 724.054 150.035 723.983 149.795C723.84 149.315 723.648 148.627 723.451 147.79C723.056 146.12 722.637 143.85 722.544 141.465C722.451 139.085 722.681 136.56 723.611 134.397C724.547 132.22 726.193 130.415 728.896 129.513C731.595 128.612 733.935 129.037 735.905 130.181C737.859 131.316 739.436 133.149 740.667 135.058C741.901 136.972 742.804 138.989 743.398 140.523C743.695 141.292 743.916 141.941 744.063 142.4C744.137 142.629 744.192 142.811 744.228 142.936C744.247 142.998 744.26 143.046 744.27 143.079L744.28 143.117L744.283 143.127L744.284 143.13L744.284 143.131C744.284 143.131 744.284 143.131 743.89 143.238L744.284 143.131C744.342 143.344 744.212 143.564 743.995 143.623C743.777 143.682 743.554 143.557 743.496 143.344L743.495 143.342L743.493 143.334L743.484 143.3C743.475 143.269 743.462 143.224 743.444 143.164C743.409 143.045 743.356 142.869 743.285 142.646C743.142 142.2 742.926 141.565 742.635 140.814C742.052 139.308 741.171 137.344 739.977 135.491C738.779 133.633 737.285 131.916 735.485 130.87C733.701 129.834 731.607 129.451 729.153 130.27C726.703 131.087 725.22 132.708 724.362 134.702C723.498 136.712 723.268 139.104 723.359 141.427C723.449 143.744 723.858 145.962 724.246 147.603C724.439 148.422 724.627 149.096 724.766 149.564C724.836 149.798 724.893 149.981 724.933 150.104C724.953 150.166 724.968 150.213 724.978 150.244L724.99 150.279L724.993 150.287L724.994 150.289Z" stroke="black" stroke-width="1.6" stroke-linecap="round"/>
</svg>
