<svg width="1024" height="1024" viewBox="0 0 1024 1024" fill="none" xmlns="http://www.w3.org/2000/svg">
<path d="M972 893.5C972 931.332 780.602 962 544.5 962C308.398 962 117 931.332 117 893.5C117 855.668 308.398 825 544.5 825C780.602 825 972 855.668 972 893.5Z" fill="black" fill-opacity="0.05"/>
<path d="M725.839 542.243C855.83 656.702 756 914 608 888.5L437.357 411.282C430.451 419.598 451.298 246.035 619.458 242.95C700.41 241.465 723.225 258.593 769.334 293.581C815.443 328.569 831.508 364.952 899.804 403.132C968.101 441.312 825.441 405.88 771.945 399.917C701.541 392.071 640.344 402.875 629.088 424.135C609.277 461.548 725.839 542.243 725.839 542.243Z" fill="#AB5E37"/>
<path d="M328.493 737.624C324.862 647.265 478.992 662.456 478.992 662.456L476.332 757.471C476.332 757.471 495.735 822.256 490.833 873.233C485.701 880.288 435.23 890.717 392.603 898.014L392.302 898.066C361.731 903.299 333.117 908.197 330.212 895.343C323.249 864.53 427.679 872.516 420.824 862.596C413.97 852.676 332.124 827.982 328.493 737.624Z" fill="#AB5E37"/>
<path d="M261.929 585.53C377.513 600.897 416.896 581.983 403.571 475.068L289.322 509.142C236.416 532.792 179.751 576.845 167.057 588.648C154.362 600.452 158.148 618.268 161.934 620.941C165.72 623.613 169.283 605.797 170.397 606.242C171.51 606.688 164.829 628.958 173.737 628.958C183.759 630.294 185.541 606.019 186.654 606.688C187.768 607.356 179.305 632.076 189.995 630.963C198.235 629.626 198.235 616.487 213.824 603.792C226.622 592.235 239.881 583.971 261.929 585.53Z" fill="#AB5E37"/>
<path d="M645.81 882.621C825.721 736.592 653.16 583.749 411.523 354.361L218.213 404.47C218.067 473.166 212.418 513.346 272.33 596.888C318.207 734.298 447.199 917.794 499.492 887.075C503.625 884.647 517.753 882.621 566.749 882.621C609.508 893.534 631 892 645.81 882.621Z" fill="#DE8E67"/>
<path d="M418.448 87.7563C411.894 154.308 428.665 194.459 356.008 212.11C356.008 212.11 301.29 157.118 311.361 138.039C321.432 118.959 386.754 68.9703 406.638 58.2664C417.248 52.5546 425.533 46.7838 433.427 40.968C447.915 18.7839 465.599 18.1193 454.518 25.6251C446.926 30.7675 440.326 35.885 433.427 40.968C426.632 51.372 420.54 66.5091 418.448 87.7563Z" fill="#AB5E37"/>
<path d="M454.518 25.6252C446.926 30.7676 440.326 35.885 433.427 40.9681C447.915 18.7839 465.599 18.1193 454.518 25.6252Z" fill="#AB5E37"/>
<path d="M422 49.0285C433.602 41.3083 442.897 33.496 454.518 25.6252C468.164 16.3817 438.186 19.5295 424.275 60.0003" stroke="black" stroke-width="2" stroke-linecap="round"/>
<path d="M169.44 140.117C140.52 136.64 93.7201 147.466 87.0384 167.732C61.6105 244.859 162.31 374.669 219.994 412.042C255.811 415.684 428.225 412.042 417.758 357.479C407.291 302.915 431.566 276.636 435.797 258.597C440.029 240.558 429.116 190.226 429.116 190.226C336.247 115.842 266.48 122.274 169.44 140.117Z" fill="#DE8E67"/>
<mask id="mask0_574_1925" style="mask-type:alpha" maskUnits="userSpaceOnUse" x="83" y="128" width="638" height="763">
<path d="M645.81 882.621C825.721 736.592 653.16 583.749 411.523 354.361L218.213 404.47C218.067 473.166 212.418 513.346 272.33 596.888C318.207 734.298 447.199 917.794 499.492 887.075C503.625 884.647 517.753 882.621 566.749 882.621C609.508 893.534 631 892 645.81 882.621Z" fill="#CEA38F"/>
<path d="M169.44 140.117C140.52 136.64 93.7201 147.466 87.0384 167.732C61.6105 244.859 162.31 374.669 219.994 412.042C255.811 415.684 428.225 412.042 417.758 357.479C407.291 302.915 431.566 276.636 435.797 258.597C440.029 240.558 429.116 190.226 429.116 190.226C336.247 115.842 266.48 122.274 169.44 140.117Z" fill="#CEA38F"/>
</mask>
<g mask="url(#mask0_574_1925)">
<path d="M327 642C313 614.5 262 466.5 245 418C245 377 239.5 418 149 293C58.4997 168 25.8963 325.969 8.5004 316.5C-30.9996 295 418 958.5 418 958.5C418 958.5 748 1070.5 543.5 901.5C339 732.5 341 669.5 327 642Z" fill="#FCDFB8"/>
</g>
<path d="M296.604 629.849C412.188 645.216 451.571 626.302 438.246 519.386L323.997 553.461C271.091 577.11 214.426 621.163 201.731 632.967C189.037 644.77 192.822 662.587 196.609 665.259C200.395 667.932 203.958 650.115 205.071 650.561C206.185 651.006 199.504 673.277 208.412 673.277C218.434 674.613 220.215 650.338 221.329 651.006C222.442 651.674 213.98 676.395 224.67 675.281C232.91 673.945 232.91 660.805 248.499 648.111C261.297 636.554 274.556 628.29 296.604 629.849Z" fill="#DE8E67"/>
<path d="M438.246 519.386C445.916 616.193 406.77 635.469 296.604 629.849C274.556 628.29 261.297 636.554 248.499 648.111C232.91 660.805 232.91 673.945 224.67 675.281C213.98 676.395 222.442 651.674 221.329 651.006C220.215 650.338 218.434 674.613 208.412 673.277C199.504 673.277 206.185 651.006 205.071 650.561C203.958 650.115 200.395 667.932 196.609 665.259C192.822 662.587 189.037 644.77 201.731 632.967C214.426 621.163 271.091 577.11 323.997 553.461" stroke="black" stroke-width="2" stroke-linecap="round"/>
<path d="M430.014 744.458C422.221 627.537 590.808 673.192 590.808 673.192L583.461 772.297C583.461 772.297 600.609 840.89 593.037 893.895C587.338 901.017 534.125 909.481 489.256 915.052L488.94 915.091C456.76 919.086 426.639 922.826 424.224 909.261C418.433 876.746 527.114 890.109 520.433 879.418C513.751 868.728 438.165 817.283 430.014 744.458Z" fill="#DE8E67"/>
<path d="M518.433 636C518.433 636 422.224 648.026 428.014 744.458C436.165 817.283 511.751 868.728 518.433 879.418C520.5 882 520.348 883.5 501.5 884.5M581.461 772.297C581.461 772.297 599.963 872.606 592 893.5C585.963 898.606 564.5 903 564.5 903" stroke="black" stroke-width="2" stroke-linecap="round"/>
<mask id="mask1_574_1925" style="mask-type:alpha" maskUnits="userSpaceOnUse" x="82" y="128" width="356" height="286">
<path d="M169.44 140.117C140.52 136.64 93.7201 147.466 87.0384 167.733C61.6105 244.859 162.31 374.669 219.994 412.042C255.811 415.684 428.225 412.042 417.758 357.479C407.291 302.915 431.566 276.636 435.797 258.597C440.029 240.558 429.116 190.226 429.116 190.226C336.247 115.842 266.48 122.274 169.44 140.117Z" fill="#CEA38F" stroke="black"/>
</mask>
<g mask="url(#mask1_574_1925)">
<path d="M121.558 182.654C130.244 161.051 112.873 144.348 112.873 144.348L67.6631 153.702L81.0255 198.912C81.0255 198.912 112.873 204.256 121.558 182.654Z" fill="black" stroke="black" stroke-width="2"/>
</g>
<path fill-rule="evenodd" clip-rule="evenodd" d="M272.78 222.885C272.779 222.885 272.779 222.886 271.957 222.435L272.779 222.886C272.531 223.339 271.961 223.504 271.507 223.255C271.053 223.006 270.886 222.437 271.134 221.984L271.136 221.979L271.146 221.962L271.185 221.889C271.22 221.824 271.272 221.726 271.339 221.597C271.474 221.339 271.67 220.956 271.912 220.465C272.396 219.481 273.064 218.061 273.797 216.322C275.264 212.841 276.98 208.105 277.998 203.055C279.019 197.993 279.323 192.692 278.038 188.041C276.765 183.431 273.925 179.429 268.55 176.886C263.184 174.348 258.121 174.717 253.484 176.72C248.813 178.738 244.572 182.421 240.973 186.497C237.382 190.566 234.478 194.974 232.469 198.373C231.465 200.071 230.688 201.512 230.162 202.527C229.899 203.035 229.699 203.435 229.566 203.708C229.499 203.844 229.449 203.948 229.416 204.018L229.379 204.096L229.37 204.114L229.368 204.119C229.368 204.119 229.368 204.119 229.368 204.119C229.15 204.587 228.592 204.79 228.123 204.571C227.653 204.352 227.449 203.795 227.667 203.327L228.518 203.723C227.667 203.327 227.668 203.326 227.668 203.326L227.669 203.324L227.672 203.318L227.682 203.295L227.723 203.209C227.759 203.134 227.812 203.024 227.881 202.882C228.021 202.598 228.227 202.185 228.496 201.664C229.036 200.623 229.83 199.151 230.853 197.419C232.899 193.959 235.87 189.444 239.566 185.257C243.254 181.079 247.71 177.173 252.736 175.001C257.796 172.815 263.429 172.393 269.349 175.194C275.26 177.99 278.439 182.456 279.845 187.547C281.24 192.596 280.885 198.225 279.836 203.428C278.785 208.642 277.021 213.503 275.525 217.052C274.776 218.829 274.092 220.282 273.595 221.294C273.346 221.799 273.143 222.195 273.002 222.465C272.932 222.6 272.877 222.704 272.839 222.775L272.795 222.856L272.784 222.877L272.781 222.883L272.78 222.885Z" fill="black"/>
<path fill-rule="evenodd" clip-rule="evenodd" d="M272.78 222.885C272.779 222.885 272.779 222.886 271.957 222.435L272.779 222.886C272.531 223.339 271.961 223.504 271.507 223.255C271.053 223.006 270.886 222.437 271.134 221.984L271.136 221.979L271.146 221.962L271.185 221.889C271.22 221.824 271.272 221.726 271.339 221.597C271.474 221.339 271.67 220.956 271.912 220.465C272.396 219.481 273.064 218.061 273.797 216.322C275.264 212.841 276.98 208.105 277.998 203.055C279.019 197.993 279.323 192.692 278.038 188.041C276.765 183.431 273.925 179.429 268.55 176.886C263.184 174.348 258.121 174.717 253.484 176.72C248.813 178.738 244.572 182.421 240.973 186.497C237.382 190.566 234.478 194.974 232.469 198.373C231.465 200.071 230.688 201.512 230.162 202.527C229.899 203.035 229.699 203.435 229.566 203.708C229.499 203.844 229.449 203.948 229.416 204.018L229.379 204.096L229.37 204.114L229.368 204.119C229.368 204.119 229.368 204.119 229.368 204.119C229.15 204.587 228.592 204.79 228.123 204.571C227.653 204.352 227.449 203.795 227.667 203.327L228.518 203.723C227.667 203.327 227.668 203.326 227.668 203.326L227.669 203.324L227.672 203.318L227.682 203.295L227.723 203.209C227.759 203.134 227.812 203.024 227.881 202.882C228.021 202.598 228.227 202.185 228.496 201.664C229.036 200.623 229.83 199.151 230.853 197.419C232.899 193.959 235.87 189.444 239.566 185.257C243.254 181.079 247.71 177.173 252.736 175.001C257.796 172.815 263.429 172.393 269.349 175.194C275.26 177.99 278.439 182.456 279.845 187.547C281.24 192.596 280.885 198.225 279.836 203.428C278.785 208.642 277.021 213.503 275.525 217.052C274.776 218.829 274.092 220.282 273.595 221.294C273.346 221.799 273.143 222.195 273.002 222.465C272.932 222.6 272.877 222.704 272.839 222.775L272.795 222.856L272.784 222.877L272.781 222.883L272.78 222.885Z" fill="black"/>
<path d="M93.165 245.234C117.996 256.498 133.86 260.072 164.431 263.274" stroke="black" stroke-width="2" stroke-linecap="round"/>
<path d="M505.059 137.89C482.478 202.448 490.791 245.96 409.741 247.462C409.741 247.462 364.755 180.872 379.899 164.169C395.043 147.466 475.931 112.279 499.492 106.043C512.065 102.715 522.19 98.8171 531.911 94.7881C552.461 75.9787 571.334 79.2146 557.841 84.2176C548.596 87.6452 540.408 91.2666 531.911 94.7881C522.274 103.609 512.268 117.279 505.059 137.89Z" fill="#DE8E67"/>
<path d="M531.911 94.7881C552.461 75.9787 571.334 79.2146 557.841 84.2176C548.596 87.6452 540.408 91.2666 531.911 94.7881Z" fill="#DE8E67"/>
<path d="M499.492 106.043C507.27 103.984 514.111 101.707 520.5 99.3161C533.464 94.4637 544.563 89.1408 557.841 84.2176C572.733 78.6959 548.199 75.3267 525.5 101.372" stroke="black" stroke-width="2" stroke-linecap="round"/>
<path d="M482.789 181.318C481.007 189.781 475.44 211.16 416.868 212.719C416.868 212.719 420 200.5 416.868 193.5C413.735 186.5 403.728 177.309 403.728 177.309C453.32 130.885 482.547 125.192 495.467 124.915C497.443 121.04 499.549 119.602 501.719 122.3C505.202 126.633 503.435 124.744 495.467 124.915C489.13 137.347 484.147 174.866 482.789 181.318Z" fill="#AB5E37"/>
<path d="M416.868 212.719C475.44 211.16 481.007 189.781 482.789 181.318C484.57 172.855 492.588 110.942 501.719 122.3C510.849 133.658 483.902 102.257 403.728 177.309" stroke="black" stroke-width="2" stroke-linecap="round"/>
<path d="M201 355C245.289 409.217 281.813 411.475 352.5 376.5" stroke="black" stroke-width="2" stroke-linecap="round"/>
<path fill-rule="evenodd" clip-rule="evenodd" d="M393.694 456.733C394.078 456.296 394.786 456.238 395.276 456.603C403.315 462.599 406.824 466.568 411.993 474.111C412.328 474.6 412.175 475.234 411.651 475.526C411.127 475.818 410.43 475.658 410.095 475.169C405.041 467.793 401.696 464.012 393.885 458.186C393.396 457.821 393.31 457.17 393.694 456.733Z" fill="black"/>
<path fill-rule="evenodd" clip-rule="evenodd" d="M393.942 471.893C394.326 471.456 395.034 471.398 395.524 471.763C403.563 477.759 407.072 481.727 412.241 489.271C412.576 489.76 412.423 490.393 411.899 490.685C411.375 490.977 410.678 490.818 410.343 490.329C405.289 482.953 401.944 479.171 394.133 473.346C393.644 472.981 393.558 472.33 393.942 471.893Z" fill="black"/>
<path fill-rule="evenodd" clip-rule="evenodd" d="M416.848 479.739C417.232 479.302 417.94 479.243 418.43 479.608C426.469 485.605 429.978 489.573 435.147 497.117C435.483 497.606 435.329 498.239 434.805 498.531C434.281 498.823 433.584 498.664 433.249 498.174C428.195 490.798 424.85 487.017 417.039 481.192C416.55 480.827 416.464 480.176 416.848 479.739Z" fill="black"/>
<path fill-rule="evenodd" clip-rule="evenodd" d="M405.411 325.258C405.955 325.463 406.608 325.181 406.868 324.628C411.137 315.553 412.364 310.4 413.373 301.311C413.438 300.722 413.005 300.235 412.405 300.224C411.805 300.214 411.266 300.682 411.201 301.272C410.214 310.159 409.044 315.069 404.896 323.886C404.636 324.439 404.866 325.053 405.411 325.258Z" fill="black"/>
<path fill-rule="evenodd" clip-rule="evenodd" d="M398.492 311.767C399.037 311.971 399.689 311.69 399.949 311.137C404.219 302.062 405.446 296.909 406.454 287.82C406.52 287.23 406.087 286.744 405.487 286.733C404.887 286.722 404.348 287.191 404.282 287.78C403.296 296.667 402.125 301.578 397.977 310.395C397.717 310.947 397.948 311.562 398.492 311.767Z" fill="black"/>
<path fill-rule="evenodd" clip-rule="evenodd" d="M415.007 294.06C415.551 294.265 416.203 293.983 416.463 293.431C420.733 284.356 421.96 279.202 422.969 270.113C423.034 269.524 422.601 269.038 422.001 269.027C421.401 269.016 420.862 269.485 420.796 270.074C419.81 278.961 418.639 283.872 414.491 292.689C414.231 293.241 414.462 293.855 415.007 294.06Z" fill="black"/>
<path fill-rule="evenodd" clip-rule="evenodd" d="M705.166 794.387C705.732 794.684 705.977 795.426 705.714 796.043C701.384 806.183 698.049 810.957 691.324 818.43C690.888 818.915 690.172 818.915 689.724 818.43C689.277 817.945 689.268 817.16 689.704 816.675C696.28 809.369 699.456 804.818 703.663 794.966C703.927 794.349 704.599 794.089 705.166 794.387Z" fill="black"/>
<path fill-rule="evenodd" clip-rule="evenodd" d="M689.03 798.568C689.596 798.866 689.842 799.607 689.578 800.225C685.248 810.364 681.914 815.139 675.188 822.612C674.752 823.096 674.036 823.096 673.589 822.612C673.141 822.127 673.132 821.341 673.568 820.857C680.144 813.55 683.32 808.999 687.527 799.148C687.791 798.531 688.464 798.271 689.03 798.568Z" fill="black"/>
<path fill-rule="evenodd" clip-rule="evenodd" d="M686.565 825.072C687.131 825.369 687.376 826.111 687.113 826.728C682.783 836.868 679.448 841.643 672.723 849.115C672.287 849.6 671.571 849.6 671.123 849.115C670.676 848.63 670.667 847.845 671.103 847.36C677.678 840.054 680.855 835.503 685.062 825.651C685.325 825.034 685.998 824.775 686.565 825.072Z" fill="black"/>
<path fill-rule="evenodd" clip-rule="evenodd" d="M440.315 744.352C439.676 744.331 439.131 743.771 439.1 743.1C438.575 732.087 439.494 726.337 442.288 716.679C442.469 716.053 443.113 715.741 443.727 715.982C444.341 716.223 444.692 716.926 444.511 717.552C441.779 726.995 440.905 732.475 441.415 743.175C441.447 743.846 440.954 744.373 440.315 744.352Z" fill="black"/>
<path fill-rule="evenodd" clip-rule="evenodd" d="M452.267 735.405C451.64 735.276 451.199 734.631 451.282 733.965C452.637 723.023 454.52 717.512 458.915 708.47C459.2 707.884 459.888 707.686 460.453 708.028C461.017 708.37 461.243 709.122 460.958 709.708C456.66 718.549 454.867 723.801 453.55 734.432C453.468 735.098 452.893 735.534 452.267 735.405Z" fill="black"/>
<path fill-rule="evenodd" clip-rule="evenodd" d="M446.468 707.542C445.863 707.334 445.508 706.638 445.674 705.988C448.413 695.308 450.982 690.082 456.493 681.673C456.85 681.128 457.558 681.019 458.074 681.43C458.59 681.841 458.719 682.616 458.361 683.161C452.973 691.383 450.526 696.364 447.865 706.74C447.699 707.391 447.073 707.749 446.468 707.542Z" fill="black"/>
<path fill-rule="evenodd" clip-rule="evenodd" d="M250.159 534.29C249.568 534.535 248.841 534.248 248.536 533.651C243.522 523.831 241.991 518.212 240.559 508.261C240.466 507.616 240.925 507.066 241.584 507.033C242.242 507 242.852 507.496 242.945 508.141C244.344 517.871 245.805 523.225 250.676 532.765C250.982 533.363 250.75 534.046 250.159 534.29Z" fill="black"/>
<path fill-rule="evenodd" clip-rule="evenodd" d="M257.281 519.22C256.69 519.465 255.964 519.179 255.658 518.581C250.644 508.761 249.113 503.142 247.682 493.191C247.589 492.546 248.048 491.996 248.706 491.963C249.365 491.93 249.974 492.426 250.067 493.071C251.467 502.801 252.928 508.155 257.799 517.695C258.104 518.293 257.872 518.976 257.281 519.22Z" fill="black"/>
<path fill-rule="evenodd" clip-rule="evenodd" d="M238.506 500.352C237.915 500.597 237.188 500.31 236.883 499.712C231.869 489.893 230.338 484.274 228.906 474.323C228.813 473.678 229.272 473.128 229.931 473.095C230.59 473.061 231.199 473.557 231.292 474.203C232.691 483.932 234.152 489.286 239.023 498.827C239.329 499.425 239.097 500.108 238.506 500.352Z" fill="black"/>
<path fill-rule="evenodd" clip-rule="evenodd" d="M785.474 321.247C785.874 320.748 786.649 320.649 787.204 321.026C796.329 327.216 800.377 331.402 806.426 339.432C806.818 339.953 806.681 340.656 806.119 341.002C805.558 341.349 804.785 341.207 804.393 340.687C798.479 332.835 794.62 328.847 785.755 322.833C785.2 322.456 785.074 321.746 785.474 321.247Z" fill="black"/>
<path fill-rule="evenodd" clip-rule="evenodd" d="M786.492 337.884C786.892 337.385 787.667 337.286 788.222 337.663C797.347 343.853 801.395 348.039 807.444 356.07C807.836 356.59 807.699 357.293 807.137 357.64C806.576 357.986 805.803 357.845 805.411 357.324C799.497 349.472 795.638 345.484 786.773 339.47C786.218 339.093 786.092 338.383 786.492 337.884Z" fill="black"/>
<path fill-rule="evenodd" clip-rule="evenodd" d="M812.035 345.374C812.435 344.875 813.21 344.776 813.765 345.153C822.89 351.343 826.938 355.529 832.987 363.559C833.379 364.08 833.242 364.783 832.68 365.129C832.119 365.476 831.346 365.334 830.954 364.814C825.04 356.962 821.181 352.974 812.316 346.96C811.761 346.583 811.635 345.873 812.035 345.374Z" fill="black"/>
<path fill-rule="evenodd" clip-rule="evenodd" d="M840.149 373.243C840.466 372.687 841.216 372.468 841.824 372.753C851.805 377.436 856.46 380.936 863.693 387.919C864.161 388.372 864.136 389.087 863.636 389.518C863.136 389.948 862.351 389.929 861.882 389.477C854.81 382.649 850.373 379.315 840.676 374.765C840.068 374.48 839.832 373.798 840.149 373.243Z" fill="black"/>
<path fill-rule="evenodd" clip-rule="evenodd" d="M843.762 389.515C844.079 388.959 844.829 388.74 845.437 389.025C855.419 393.708 860.073 397.208 867.306 404.191C867.775 404.644 867.749 405.359 867.249 405.79C866.749 406.22 865.964 406.201 865.495 405.749C858.423 398.921 853.987 395.587 844.289 391.037C843.681 390.752 843.445 390.07 843.762 389.515Z" fill="black"/>
<path fill-rule="evenodd" clip-rule="evenodd" d="M870.163 392.908C870.48 392.353 871.23 392.133 871.838 392.418C881.82 397.102 886.474 400.601 893.707 407.584C894.176 408.037 894.15 408.753 893.65 409.183C893.15 409.613 892.365 409.595 891.896 409.142C884.824 402.314 880.388 398.98 870.69 394.43C870.082 394.145 869.846 393.464 870.163 392.908Z" fill="black"/>
<path fill-rule="evenodd" clip-rule="evenodd" d="M578.753 255.27C578.657 254.638 579.109 254 579.762 253.847C590.495 251.323 596.317 251.178 606.322 252.165C606.971 252.229 607.395 252.806 607.27 253.453C607.145 254.101 606.518 254.574 605.869 254.51C596.086 253.546 590.539 253.685 580.111 256.137C579.457 256.29 578.849 255.902 578.753 255.27Z" fill="black"/>
<path fill-rule="evenodd" clip-rule="evenodd" d="M591.686 265.786C591.589 265.154 592.041 264.516 592.695 264.363C603.428 261.839 609.25 261.694 619.255 262.681C619.903 262.745 620.328 263.322 620.203 263.969C620.078 264.617 619.45 265.09 618.802 265.026C609.019 264.062 603.471 264.201 593.043 266.653C592.39 266.806 591.782 266.418 591.686 265.786Z" fill="black"/>
<path fill-rule="evenodd" clip-rule="evenodd" d="M614.492 252.061C614.396 251.428 614.847 250.791 615.501 250.638C626.234 248.114 632.056 247.969 642.061 248.956C642.709 249.02 643.134 249.597 643.009 250.244C642.884 250.892 642.256 251.365 641.608 251.301C631.825 250.336 626.277 250.476 615.85 252.928C615.196 253.081 614.588 252.693 614.492 252.061Z" fill="black"/>
<path fill-rule="evenodd" clip-rule="evenodd" d="M510.883 288.341C510.539 287.802 510.693 287.036 511.228 286.631C520.013 279.969 525.275 277.473 534.82 274.315C535.438 274.11 536.06 274.465 536.209 275.108C536.357 275.75 535.976 276.437 535.357 276.642C526.025 279.73 521.011 282.11 512.476 288.582C511.941 288.988 511.228 288.88 510.883 288.341Z" fill="black"/>
<path fill-rule="evenodd" clip-rule="evenodd" d="M526.971 292.704C526.626 292.165 526.78 291.399 527.315 290.993C536.101 284.331 541.363 281.836 550.907 278.678C551.526 278.473 552.148 278.828 552.296 279.47C552.445 280.113 552.064 280.8 551.445 281.005C542.113 284.093 537.099 286.472 528.563 292.945C528.028 293.35 527.315 293.242 526.971 292.704Z" fill="black"/>
<path fill-rule="evenodd" clip-rule="evenodd" d="M542.245 270.904C541.9 270.365 542.055 269.599 542.59 269.194C551.375 262.532 556.637 260.037 566.182 256.878C566.8 256.673 567.422 257.028 567.571 257.671C567.719 258.313 567.338 259 566.719 259.205C557.387 262.294 552.373 264.673 543.838 271.145C543.303 271.551 542.59 271.443 542.245 270.904Z" fill="black"/>
<path d="M442.5 917.5C437.597 907.395 439.655 906.793 453 905.5" stroke="black" stroke-width="2" stroke-linecap="round"/>
<path d="M432.101 915C429.14 905.452 429.874 901.78 441.601 900" stroke="black" stroke-width="2" stroke-linecap="round"/>
</svg>
