<svg width="1024" height="1024" viewBox="0 0 1024 1024" fill="none" xmlns="http://www.w3.org/2000/svg">
<path d="M791 738C791 765.062 616.167 787 400.5 787C184.833 787 10 765.062 10 738C10 710.938 184.833 689 400.5 689C616.167 689 791 710.938 791 738Z" fill="black" fill-opacity="0.05"/>
<path d="M534.307 636.146C449.138 696.339 349.61 694.863 261.066 662.122V636.147L523.317 618.164C523.317 618.164 619.476 575.954 534.307 636.146Z" fill="#DCCA8B"/>
<path d="M743.858 411.859C753.5 443.502 692.157 441.581 692.157 441.581C692.157 441.581 596.748 565.464 599.745 578.202C602.742 590.939 685.663 555.223 685.663 555.223C706.332 547.549 718.815 546.601 743.858 555.223C799.661 582.198 829.357 585.319 879.729 570.958C879.729 570.958 996.868 550.478 981.383 405.615C965.897 260.753 860.248 260.503 860.248 260.503C718.62 250.949 734.216 380.217 743.858 411.859Z" fill="#AECC8E"/>
<path d="M669.928 749.039C710.14 739.298 604.241 577.952 604.241 577.952L521.319 619.662C521.319 619.662 552.54 745.043 566.277 749.039C580.014 753.035 620.975 754.034 669.928 749.039Z" fill="#AECC8E"/>
<path d="M270.929 752.482C304.359 745.533 232.076 577.498 232.076 577.498C232.076 577.498 172.617 606.23 161.318 613.374C150.019 620.518 137.926 743.364 143.425 749.074C148.923 754.784 237.499 759.43 270.929 752.482Z" fill="#AECC8E"/>
<path d="M42.524 684.6C34.2161 674.984 127.104 652.852 150.671 615.166H162.66V684.6C132.698 695.582 47.4287 690.277 42.524 684.6Z" fill="#AECC8E"/>
<path fill-rule="evenodd" clip-rule="evenodd" d="M119.307 642.91C119.633 643.356 119.537 643.981 119.091 644.308C113.379 648.497 105.582 652.5 97.1947 656.304C90.8076 659.201 84.0356 662.001 77.536 664.689C75.4948 665.533 73.4805 666.365 71.5133 667.187C63.2563 670.634 55.8506 673.869 50.6704 676.891C48.0748 678.406 46.1061 679.828 44.8724 681.15C43.7612 682.341 43.3799 683.299 43.4509 684.087C43.4516 684.087 43.4523 684.088 43.4531 684.088C43.5665 684.164 43.726 684.253 43.9394 684.354C44.3671 684.557 44.955 684.781 45.7041 685.018C47.1994 685.493 49.2523 685.998 51.766 686.506C56.7882 687.519 63.5733 688.524 71.2526 689.301C86.621 690.858 105.479 691.496 120.872 689.51C121.42 689.439 121.921 689.826 121.992 690.374C122.063 690.921 121.676 691.423 121.128 691.493C105.522 693.507 86.4943 692.855 71.0511 691.291C63.3247 690.509 56.4724 689.496 51.3704 688.466C48.8221 687.952 46.6911 687.43 45.0991 686.925C44.3045 686.672 43.6228 686.418 43.0823 686.161C42.577 685.922 42.0677 685.623 41.7489 685.232L41.6044 685.055L41.5514 684.832C41.12 683.021 41.9902 681.308 43.41 679.786C44.8436 678.25 47.0116 676.71 49.6626 675.164C54.9756 672.064 62.5029 668.781 70.7428 665.341C72.7241 664.514 74.7477 663.677 76.7947 662.831C83.2878 660.146 90.0153 657.365 96.3686 654.483C104.73 650.69 112.371 646.756 117.909 642.695C118.354 642.369 118.98 642.465 119.307 642.91Z" fill="black"/>
<path d="M345.736 333.184C475.863 295.22 667.181 415.356 667.181 415.356C524.388 635.353 408.789 701.452 123.947 569.709C123.947 569.709 215.61 371.148 345.736 333.184Z" fill="#AECC8E"/>
<path d="M345.736 333.184C475.863 295.22 667.181 415.356 667.181 415.356C524.388 635.353 408.789 701.452 123.947 569.709C123.947 569.709 215.61 371.148 345.736 333.184Z" fill="#4B672E" fill-opacity="0.75"/>
<path fill-rule="evenodd" clip-rule="evenodd" d="M258.187 388.019C258.73 388.123 259.086 388.646 258.983 389.189C254.313 413.708 254.576 426.243 258.875 446.799C263.861 449.072 268.176 451.75 272.107 454.382C273.468 455.292 274.774 456.191 276.043 457.065C278.583 458.814 280.976 460.461 283.365 461.899C286.924 464.041 290.362 465.645 294.027 466.313C297.674 466.977 301.603 466.724 306.157 465.062C306.676 464.873 307.25 465.14 307.44 465.659C307.629 466.177 307.362 466.752 306.843 466.941C301.977 468.717 297.688 469.013 293.668 468.28C289.666 467.551 285.99 465.813 282.333 463.612C279.894 462.144 277.414 460.437 274.842 458.667C273.584 457.801 272.303 456.92 270.995 456.044C267.088 453.429 262.858 450.807 257.991 448.594C254.053 450.334 250.483 453.148 247.029 456.369C245.247 458.032 243.51 459.789 241.772 461.551L241.592 461.734C239.92 463.43 238.245 465.129 236.551 466.721C233.05 470.014 229.389 472.934 225.318 474.533C221.204 476.149 216.716 476.398 211.64 474.434C211.124 474.235 210.868 473.656 211.068 473.141C211.267 472.626 211.846 472.37 212.361 472.569C216.955 474.346 220.924 474.11 224.587 472.671C228.293 471.216 231.729 468.512 235.181 465.265C236.847 463.698 238.498 462.023 240.178 460.319L240.348 460.146C242.082 458.388 243.847 456.602 245.665 454.907C249.086 451.716 252.745 448.794 256.855 446.912C252.559 426.257 252.324 413.461 257.018 388.814C257.121 388.272 257.645 387.916 258.187 388.019Z" fill="black"/>
<path fill-rule="evenodd" clip-rule="evenodd" d="M316.603 475.74C317.155 475.767 317.58 476.236 317.553 476.788C316.335 501.718 318.337 514.095 325.449 533.855C330.702 535.413 335.348 537.465 339.607 539.525C341.081 540.238 342.499 540.947 343.878 541.636C346.636 543.015 349.235 544.314 351.8 545.406C355.622 547.033 359.25 548.144 362.972 548.296C366.676 548.447 370.531 547.651 374.811 545.372C375.298 545.113 375.904 545.297 376.163 545.785C376.423 546.272 376.238 546.878 375.751 547.137C371.179 549.572 366.972 550.461 362.89 550.294C358.825 550.128 354.943 548.917 351.016 547.246C348.396 546.131 345.703 544.785 342.91 543.389C341.544 542.706 340.154 542.012 338.736 541.326C334.504 539.279 329.951 537.271 324.824 535.755C321.165 538.025 318.021 541.307 315.048 544.978C313.514 546.872 312.038 548.853 310.562 550.839L310.409 551.046C308.988 552.958 307.566 554.872 306.11 556.685C303.1 560.432 299.88 563.833 296.071 565.981C292.221 568.153 287.811 569.023 282.511 567.784C281.973 567.658 281.639 567.12 281.765 566.582C281.891 566.045 282.429 565.711 282.966 565.836C287.763 566.958 291.661 566.173 295.088 564.239C298.556 562.283 301.583 559.128 304.55 555.433C305.982 553.65 307.385 551.762 308.812 549.841L308.957 549.646C310.43 547.664 311.93 545.65 313.494 543.719C316.439 540.084 319.656 536.682 323.465 534.247C316.341 514.389 314.331 501.749 315.555 476.69C315.582 476.139 316.051 475.713 316.603 475.74Z" fill="black"/>
<path fill-rule="evenodd" clip-rule="evenodd" d="M428.438 437.55C428.985 437.474 429.49 437.856 429.566 438.403C432.998 463.126 437.264 474.916 447.922 493.011C453.373 493.567 458.32 494.721 462.887 495.954C464.467 496.381 465.993 496.814 467.475 497.235C470.441 498.078 473.236 498.872 475.959 499.468C480.017 500.357 483.788 500.775 487.473 500.233C491.141 499.694 494.782 498.196 498.564 495.162C498.995 494.816 499.624 494.886 499.97 495.316C500.315 495.747 500.246 496.377 499.815 496.722C495.775 499.964 491.807 501.618 487.764 502.212C483.739 502.804 479.7 502.335 475.531 501.422C472.75 500.813 469.854 499.99 466.85 499.137C465.381 498.72 463.885 498.296 462.365 497.885C457.827 496.66 452.98 495.532 447.66 494.995C444.487 497.905 442.007 501.714 439.767 505.873C438.612 508.018 437.529 510.239 436.448 512.465L436.335 512.696C435.295 514.839 434.253 516.984 433.159 519.036C430.897 523.277 428.364 527.216 425.02 530.035C421.641 532.884 417.47 534.557 412.032 534.324C411.48 534.3 411.052 533.834 411.075 533.282C411.099 532.73 411.565 532.302 412.117 532.326C417.038 532.537 420.723 531.042 423.731 528.506C426.776 525.939 429.164 522.277 431.394 518.095C432.47 516.077 433.497 513.962 434.543 511.809L434.649 511.591C435.728 509.369 436.828 507.112 438.007 504.924C440.225 500.805 442.755 496.865 446.045 493.766C435.358 475.576 431.035 463.529 427.585 438.678C427.509 438.131 427.891 437.626 428.438 437.55Z" fill="black"/>
<path fill-rule="evenodd" clip-rule="evenodd" d="M198.817 479.034C199.297 479.307 199.464 479.918 199.191 480.398C186.83 502.082 183.019 514.026 180.426 534.867C184.407 538.632 187.623 542.564 190.489 546.327C191.481 547.63 192.426 548.903 193.344 550.141C195.18 552.618 196.911 554.952 198.705 557.086C201.378 560.265 204.111 562.897 207.362 564.716C210.597 566.526 214.396 567.559 219.243 567.462C219.796 567.451 220.252 567.89 220.263 568.442C220.274 568.994 219.836 569.451 219.283 569.462C214.105 569.566 209.951 568.456 206.385 566.461C202.835 564.475 199.92 561.639 197.174 558.373C195.341 556.193 193.548 553.775 191.688 551.267C190.778 550.04 189.853 548.792 188.898 547.539C186.05 543.8 182.897 539.95 179.01 536.28C171.676 536.933 167.318 541.252 163.303 545.231C162.669 545.859 162.043 546.48 161.415 547.076C159.132 549.243 156.728 551.166 153.758 551.541C150.739 551.923 147.422 550.683 143.357 547.267C142.934 546.912 142.88 546.281 143.235 545.858C143.59 545.435 144.221 545.381 144.644 545.736C148.517 548.991 151.286 549.838 153.507 549.557C155.776 549.27 157.766 547.782 160.038 545.626C160.621 545.072 161.216 544.479 161.833 543.864C165.772 539.942 170.58 535.154 178.479 534.322C181.106 513.387 185.028 501.205 197.453 479.408C197.727 478.928 198.338 478.76 198.817 479.034Z" fill="black"/>
<path fill-rule="evenodd" clip-rule="evenodd" d="M543.827 377.55C544.327 377.316 544.923 377.531 545.157 378.031C555.76 400.626 563.328 410.623 578.869 424.748C584.24 423.663 589.306 423.3 594.033 423.125C595.669 423.064 597.255 423.026 598.795 422.989C601.878 422.915 604.783 422.845 607.56 422.608C611.699 422.255 615.425 421.536 618.784 419.927C622.127 418.326 625.161 415.816 627.874 411.798C628.183 411.34 628.804 411.219 629.262 411.529C629.72 411.838 629.84 412.459 629.531 412.917C626.633 417.21 623.333 419.966 619.648 421.731C615.979 423.488 611.982 424.238 607.73 424.601C604.893 424.843 601.884 424.916 598.762 424.991C597.235 425.028 595.681 425.065 594.108 425.124C589.41 425.298 584.446 425.657 579.207 426.72C577.038 430.44 575.798 434.812 574.891 439.448C574.423 441.84 574.047 444.282 573.674 446.728L573.635 446.982C573.276 449.337 572.916 451.695 572.479 453.978C571.576 458.699 570.324 463.212 567.965 466.895C565.581 470.617 562.093 473.451 556.83 474.839C556.296 474.98 555.749 474.662 555.608 474.128C555.467 473.594 555.786 473.046 556.32 472.906C561.083 471.649 564.159 469.13 566.281 465.816C568.428 462.463 569.624 458.257 570.515 453.602C570.945 451.357 571.299 449.032 571.66 446.666L571.697 446.426C572.069 443.985 572.451 441.503 572.928 439.064C573.826 434.473 575.076 429.96 577.3 426.025C561.703 411.818 554.005 401.593 543.347 378.88C543.112 378.38 543.327 377.785 543.827 377.55Z" fill="black"/>
<path fill-rule="evenodd" clip-rule="evenodd" d="M342.162 339.814C342.713 339.766 343.198 340.173 343.246 340.723C346.138 373.866 350.222 390.206 360.723 416.189C366.302 418.024 371.342 420.546 375.986 423.092C377.586 423.969 379.13 424.844 380.631 425.695C383.635 427.397 386.466 429.001 389.228 430.332C393.352 432.319 397.165 433.616 400.893 433.655C404.581 433.693 408.278 432.5 412.183 429.326C412.611 428.977 413.241 429.042 413.589 429.471C413.938 429.9 413.873 430.529 413.444 430.878C409.215 434.315 405.074 435.698 400.872 435.655C396.709 435.611 392.58 434.167 388.36 432.134C385.539 430.774 382.608 429.114 379.567 427.391C378.079 426.548 376.565 425.691 375.024 424.846C370.457 422.342 365.582 419.905 360.224 418.131C356.965 421.276 354.362 425.715 351.987 430.666C350.752 433.239 349.591 435.924 348.432 438.612L348.313 438.891C347.197 441.479 346.082 444.067 344.917 446.522C342.513 451.584 339.835 456.217 336.342 459.232C332.779 462.308 328.4 463.671 322.796 462.248C322.261 462.112 321.937 461.568 322.073 461.032C322.209 460.497 322.753 460.173 323.289 460.309C328.237 461.566 331.948 460.383 335.035 457.718C338.19 454.994 340.722 450.694 343.11 445.664C344.259 443.243 345.362 440.685 346.482 438.086L346.596 437.821C347.752 435.137 348.929 432.416 350.183 429.801C352.571 424.824 355.283 420.138 358.787 416.738C348.268 390.676 344.154 374.141 341.253 340.897C341.205 340.347 341.612 339.862 342.162 339.814Z" fill="black"/>
<path fill-rule="evenodd" clip-rule="evenodd" d="M459.979 337.897C459.979 337.897 459.979 337.897 459.98 337.898L459.98 337.9L459.983 337.921C459.986 337.941 459.991 337.972 459.999 338.016C460.014 338.103 460.038 338.238 460.073 338.42C460.145 338.786 460.263 339.342 460.448 340.091C460.817 341.587 461.452 343.851 462.508 346.886C464.595 352.885 468.329 361.896 474.917 373.954C481.509 374.965 487.502 376.741 493.041 378.602C494.943 379.241 496.781 379.886 498.57 380.514C502.153 381.772 505.536 382.959 508.824 383.884C513.728 385.263 518.283 386.013 522.712 385.503C527.119 384.995 531.471 383.233 535.958 379.471C536.382 379.116 537.012 379.171 537.367 379.595C537.722 380.018 537.666 380.649 537.243 381.003C532.479 384.997 527.766 386.934 522.941 387.49C518.139 388.042 513.296 387.219 508.283 385.809C504.935 384.867 501.449 383.644 497.827 382.373C496.052 381.75 494.245 381.116 492.404 380.498C486.91 378.652 481.04 376.916 474.612 375.93C470.832 379.573 467.918 384.437 465.309 389.763C463.966 392.502 462.714 395.342 461.466 398.183L461.337 398.477C460.135 401.213 458.934 403.948 457.668 406.558C455.054 411.95 452.115 416.92 448.185 420.394C444.211 423.906 439.26 425.856 432.753 425.263C432.203 425.212 431.798 424.726 431.848 424.176C431.898 423.626 432.385 423.221 432.935 423.271C438.875 423.812 443.285 422.055 446.86 418.895C450.48 415.695 453.279 411.026 455.869 405.686C457.117 403.111 458.305 400.406 459.512 397.659L459.635 397.378C460.881 394.542 462.149 391.665 463.513 388.883C466.112 383.578 469.094 378.54 473.033 374.676C466.476 362.648 462.731 353.614 460.619 347.543C459.543 344.451 458.891 342.128 458.506 340.57C458.314 339.79 458.189 339.202 458.111 338.805C458.072 338.606 458.045 338.455 458.027 338.352C458.018 338.3 458.012 338.26 458.008 338.232L458.002 338.199L458.001 338.19L458 338.186L458 338.185C458 338.185 458 338.184 458.99 338.041L458 338.184C457.921 337.638 458.3 337.13 458.846 337.051C459.393 336.972 459.9 337.351 459.979 337.897Z" fill="black"/>
<path fill-rule="evenodd" clip-rule="evenodd" d="M532.014 492.803C532.014 492.803 532.014 492.804 532.014 492.804L532.014 492.807L532.019 492.831C532.023 492.854 532.029 492.89 532.039 492.941C532.058 493.042 532.089 493.198 532.135 493.41C532.225 493.833 532.372 494.479 532.596 495.348C533.044 497.087 533.798 499.721 535.018 503.262C537.43 510.26 541.661 520.803 548.939 534.987C555.684 536.47 561.858 538.803 567.575 541.212C569.537 542.039 571.436 542.87 573.283 543.679C576.984 545.299 580.478 546.829 583.863 548.052C588.911 549.876 593.574 550.959 598.049 550.588C602.5 550.219 606.835 548.404 611.21 544.297C611.623 543.909 612.266 544.004 612.647 544.507C613.028 545.011 613.003 545.734 612.59 546.121C607.945 550.482 603.252 552.48 598.378 552.884C593.527 553.286 588.567 552.104 583.406 550.239C579.96 548.994 576.36 547.418 572.619 545.781C570.786 544.978 568.919 544.161 567.02 543.361C561.349 540.971 555.302 538.69 548.725 537.245C545.062 541.249 542.339 546.701 539.947 552.697C538.717 555.781 537.583 558.986 536.453 562.192L536.337 562.523C535.249 565.611 534.161 568.698 533.003 571.637C530.609 577.71 527.865 583.281 524.042 587.084C520.176 590.93 515.242 592.931 508.603 591.933C508.042 591.848 507.607 591.269 507.631 590.639C507.655 590.009 508.13 589.567 508.691 589.652C514.752 590.563 519.146 588.757 522.624 585.297C526.145 581.794 528.761 576.561 531.132 570.547C532.275 567.646 533.351 564.595 534.443 561.495L534.554 561.178C535.682 557.977 536.831 554.731 538.08 551.598C540.463 545.625 543.247 539.977 547.06 535.726C539.815 521.578 535.572 511.009 533.132 503.926C531.889 500.318 531.113 497.616 530.647 495.805C530.414 494.899 530.258 494.217 530.16 493.756C530.111 493.526 530.076 493.351 530.053 493.231C530.041 493.171 530.033 493.125 530.027 493.093L530.02 493.055L530.018 493.044L530.018 493.04L530.017 493.039C530.017 493.038 530.017 493.037 531.016 492.921L530.017 493.037C529.91 492.405 530.27 491.84 530.822 491.776C531.373 491.711 531.906 492.171 532.014 492.803Z" fill="black"/>
<path fill-rule="evenodd" clip-rule="evenodd" d="M398.041 545.886C398.041 545.886 398.041 545.887 398.041 545.887L398.041 545.89L398.046 545.916C398.051 545.94 398.058 545.979 398.069 546.032C398.09 546.139 398.124 546.305 398.174 546.53C398.273 546.98 398.433 547.666 398.675 548.59C399.158 550.438 399.966 553.238 401.26 557.008C403.818 564.457 408.273 575.691 415.862 590.833C422.677 592.529 428.932 595.114 434.729 597.77C436.719 598.682 438.645 599.597 440.518 600.487C444.273 602.271 447.816 603.955 451.245 605.312C456.358 607.337 461.07 608.571 465.565 608.262C470.037 607.955 474.364 606.117 478.689 601.853C479.096 601.451 479.745 601.563 480.138 602.104C480.531 602.644 480.519 603.408 480.111 603.81C475.52 608.336 470.835 610.361 465.939 610.697C461.066 611.032 456.054 609.688 450.827 607.618C447.336 606.236 443.684 604.501 439.889 602.698C438.03 601.815 436.137 600.915 434.211 600.033C428.461 597.398 422.334 594.871 415.689 593.218C412.08 597.386 409.443 603.102 407.149 609.401C405.969 612.641 404.888 616.009 403.812 619.38L403.701 619.729C402.664 622.975 401.628 626.221 400.518 629.308C398.224 635.688 395.568 641.531 391.793 645.482C387.976 649.478 383.049 651.502 376.351 650.322C375.785 650.222 375.337 649.601 375.349 648.935C375.362 648.269 375.831 647.81 376.397 647.91C382.511 648.988 386.898 647.16 390.332 643.565C393.81 639.925 396.343 634.438 398.616 628.119C399.711 625.073 400.736 621.864 401.776 618.605L401.882 618.272C402.957 614.906 404.051 611.494 405.25 608.203C407.535 601.929 410.229 596.006 413.986 591.58C406.431 576.475 401.963 565.214 399.375 557.674C398.056 553.835 397.225 550.961 396.722 549.036C396.471 548.074 396.301 547.349 396.193 546.86C396.139 546.615 396.101 546.429 396.076 546.302C396.063 546.239 396.054 546.19 396.047 546.155L396.04 546.115L396.038 546.103L396.037 546.099L396.037 546.098C396.036 546.097 396.036 546.096 397.039 545.992L396.036 546.096C395.917 545.426 396.269 544.835 396.822 544.777C397.375 544.719 397.921 545.216 398.041 545.886Z" fill="black"/>
<path fill-rule="evenodd" clip-rule="evenodd" d="M251.269 567.586C251.269 567.586 251.269 567.586 251.269 567.587L251.268 567.589L251.263 567.61C251.259 567.629 251.252 567.66 251.243 567.704C251.224 567.79 251.197 567.924 251.163 568.107C251.094 568.473 250.998 569.034 250.893 569.797C250.682 571.324 250.434 573.662 250.293 576.873C250.014 583.218 250.15 592.972 251.812 606.611C257.563 609.988 262.474 613.855 266.932 617.633C268.462 618.929 269.932 620.209 271.361 621.453C274.225 623.947 276.929 626.302 279.642 628.377C283.688 631.472 287.643 633.853 291.947 635.018C296.229 636.176 300.924 636.148 306.484 634.312C307.009 634.139 307.574 634.424 307.747 634.949C307.921 635.473 307.636 636.039 307.111 636.212C301.208 638.16 296.113 638.217 291.425 636.948C286.759 635.686 282.563 633.13 278.427 629.965C275.665 627.852 272.878 625.427 269.983 622.906C268.565 621.671 267.12 620.413 265.639 619.158C261.216 615.411 256.404 611.627 250.796 608.333C245.905 610.302 241.615 613.145 237.576 616.194C235.935 617.433 234.312 618.725 232.704 620.005C230.295 621.925 227.919 623.816 225.569 625.459C221.603 628.23 217.497 630.456 212.907 631.23C208.291 632.009 203.285 631.305 197.548 628.393C197.055 628.143 196.859 627.541 197.109 627.049C197.359 626.556 197.961 626.36 198.453 626.61C203.862 629.356 208.437 629.957 212.574 629.258C216.738 628.555 220.557 626.52 224.423 623.819C226.746 622.196 229.012 620.39 231.366 618.514C232.978 617.229 234.631 615.911 236.371 614.598C240.4 611.556 244.772 608.641 249.794 606.582C248.15 592.983 248.012 583.206 248.295 576.785C248.439 573.514 248.692 571.115 248.911 569.524C249.021 568.729 249.122 568.136 249.197 567.738C249.234 567.539 249.265 567.389 249.287 567.286C249.298 567.235 249.306 567.196 249.313 567.168L249.32 567.136L249.322 567.126L249.323 567.123L249.323 567.122C249.324 567.121 249.324 567.121 250.296 567.354L249.324 567.121C249.452 566.584 249.992 566.253 250.529 566.381C251.066 566.51 251.397 567.049 251.269 567.586Z" fill="black"/>
<path d="M481.353 570.958C618.161 513.796 665.673 376.393 690.904 403.867C716.135 431.341 643.153 603.062 481.353 649.384C331.073 692.408 94.224 627.405 101.718 570.958C104.877 547.158 143.176 583.864 189.635 593.937C253.36 607.753 398.603 605.534 481.353 570.958Z" fill="#4B672E"/>
<path fill-rule="evenodd" clip-rule="evenodd" d="M902.425 407.418C902.425 407.419 902.425 407.42 901.251 407.46L902.425 407.42C902.447 408.068 901.94 408.612 901.291 408.634C900.643 408.657 900.099 408.149 900.077 407.501L900.076 407.494L900.075 407.469L900.071 407.366C900.067 407.273 900.06 407.134 900.05 406.951C900.03 406.586 899.997 406.048 899.943 405.362C899.836 403.99 899.647 402.028 899.325 399.682C898.68 394.982 897.501 388.769 895.369 382.664C893.233 376.546 890.172 370.627 885.816 366.429C881.498 362.269 875.882 359.767 868.469 360.466C861.069 361.164 855.852 364.808 852.139 369.943C848.399 375.115 846.186 381.808 844.917 388.516C843.65 395.21 843.341 401.831 843.35 406.788C843.354 409.264 843.438 411.318 843.521 412.751C843.562 413.467 843.603 414.028 843.634 414.408C843.649 414.597 843.662 414.742 843.67 414.838L843.68 414.946L843.683 414.972L843.683 414.978C843.683 414.978 843.683 414.978 843.683 414.978C843.748 415.623 843.277 416.2 842.631 416.265C841.986 416.329 841.41 415.858 841.346 415.213L842.514 415.096C841.346 415.213 841.346 415.212 841.345 415.212L841.345 415.209L841.344 415.2L841.341 415.169L841.33 415.05C841.321 414.946 841.308 414.793 841.292 414.595C841.26 414.199 841.218 413.621 841.175 412.886C841.091 411.417 841.005 409.318 841 406.792C840.991 401.746 841.305 394.968 842.608 388.079C843.909 381.204 846.211 374.131 850.235 368.566C854.287 362.963 860.083 358.897 868.248 358.127C876.4 357.358 882.678 360.143 887.446 364.737C892.175 369.295 895.392 375.6 897.587 381.89C899.788 388.193 900.995 394.571 901.653 399.362C901.982 401.76 902.175 403.768 902.285 405.179C902.341 405.884 902.375 406.441 902.396 406.823C902.407 407.014 902.414 407.161 902.418 407.262L902.423 407.377L902.424 407.408L902.425 407.416L902.425 407.418Z" fill="black"/>
<path fill-rule="evenodd" clip-rule="evenodd" d="M902.425 407.418C902.425 407.419 902.425 407.42 901.251 407.46L902.425 407.42C902.447 408.068 901.94 408.612 901.291 408.634C900.643 408.657 900.099 408.149 900.077 407.501L900.076 407.494L900.075 407.469L900.071 407.366C900.067 407.273 900.06 407.134 900.05 406.951C900.03 406.586 899.997 406.048 899.943 405.362C899.836 403.99 899.647 402.028 899.325 399.682C898.68 394.982 897.501 388.769 895.369 382.664C893.233 376.546 890.172 370.627 885.816 366.429C881.498 362.269 875.882 359.767 868.469 360.466C861.069 361.164 855.852 364.808 852.139 369.943C848.399 375.115 846.186 381.808 844.917 388.516C843.65 395.21 843.341 401.831 843.35 406.788C843.354 409.264 843.438 411.318 843.521 412.751C843.562 413.467 843.603 414.028 843.634 414.408C843.649 414.597 843.662 414.742 843.67 414.838L843.68 414.946L843.683 414.972L843.683 414.978C843.683 414.978 843.683 414.978 843.683 414.978C843.748 415.623 843.277 416.2 842.631 416.265C841.986 416.329 841.41 415.858 841.346 415.213L842.514 415.096C841.346 415.213 841.346 415.212 841.345 415.212L841.345 415.209L841.344 415.2L841.341 415.169L841.33 415.05C841.321 414.946 841.308 414.793 841.292 414.595C841.26 414.199 841.218 413.621 841.175 412.886C841.091 411.417 841.005 409.318 841 406.792C840.991 401.746 841.305 394.968 842.608 388.079C843.909 381.204 846.211 374.131 850.235 368.566C854.287 362.963 860.083 358.897 868.248 358.127C876.4 357.358 882.678 360.143 887.446 364.737C892.175 369.295 895.392 375.6 897.587 381.89C899.788 388.193 900.995 394.571 901.653 399.362C901.982 401.76 902.175 403.768 902.285 405.179C902.341 405.884 902.375 406.441 902.396 406.823C902.407 407.014 902.414 407.161 902.418 407.262L902.423 407.377L902.424 407.408L902.425 407.416L902.425 407.418Z" fill="black"/>
<mask id="mask0_546_1594" style="mask-type:alpha" maskUnits="userSpaceOnUse" x="599" y="260" width="384" height="321">
<path d="M743.858 411.858C755.847 430.84 692.157 441.58 692.157 441.58C692.157 441.58 596.748 565.462 599.745 578.2C602.742 590.938 685.663 555.222 685.663 555.222C706.332 547.548 718.815 546.6 743.858 555.222C799.661 582.196 829.357 585.318 879.729 570.957C879.729 570.957 996.868 550.476 981.383 405.614C965.897 260.751 860.248 260.502 860.248 260.502C718.62 250.947 724.235 380.647 743.858 411.858Z" fill="#97BE54"/>
</mask>
<g mask="url(#mask0_546_1594)">
<path fill-rule="evenodd" clip-rule="evenodd" d="M947.446 552.324C947.493 552.875 947.084 553.359 946.534 553.405C930.646 554.744 919.553 553.893 910.266 550.507C900.972 547.119 893.596 541.228 885.084 532.707C884.693 532.316 884.694 531.683 885.084 531.293C885.475 530.902 886.108 530.903 886.499 531.293C894.939 539.742 902.067 545.389 910.952 548.628C919.844 551.871 930.603 552.74 946.366 551.412C946.916 551.366 947.4 551.774 947.446 552.324Z" fill="black"/>
</g>
<path fill-rule="evenodd" clip-rule="evenodd" d="M678.671 726.771C678.861 726.253 679.435 725.986 679.953 726.175L679.61 727.114L679.267 728.054C678.749 727.864 678.482 727.29 678.671 726.771ZM678.791 741.751L678.776 740.751L678.79 740.751L678.832 740.75C678.87 740.75 678.927 740.748 679.001 740.747C679.149 740.744 679.367 740.738 679.645 740.73C680.2 740.714 680.993 740.685 681.94 740.639C683.836 740.545 686.337 740.378 688.781 740.084C691.244 739.787 693.575 739.369 695.166 738.797C695.976 738.506 696.479 738.214 696.727 737.966C696.841 737.853 696.863 737.786 696.867 737.771C696.867 737.771 696.867 737.771 696.867 737.771C696.869 737.766 696.877 737.739 696.847 737.662C696.722 737.348 696.411 736.922 695.846 736.401C695.294 735.892 694.565 735.351 693.702 734.794C691.977 733.681 689.804 732.56 687.653 731.555C685.507 730.552 683.409 729.676 681.846 729.05C681.065 728.737 680.418 728.488 679.968 728.316C679.743 728.231 679.567 728.165 679.447 728.12L679.312 728.07L679.278 728.058L679.267 728.054L679.61 727.114C679.953 726.175 679.953 726.175 679.953 726.175L679.967 726.18L680.004 726.194L680.145 726.246C680.269 726.292 680.449 726.36 680.679 726.447C681.139 726.622 681.796 726.876 682.589 727.193C684.175 727.828 686.309 728.72 688.5 729.743C690.685 730.764 692.951 731.929 694.786 733.113C695.703 733.705 696.535 734.316 697.201 734.93C697.854 735.532 698.419 736.201 698.706 736.924C698.879 737.361 698.922 737.824 698.801 738.281C698.684 738.726 698.432 739.091 698.139 739.383C697.574 739.946 696.735 740.358 695.842 740.679C694.028 741.332 691.51 741.769 689.02 742.069C686.512 742.371 683.959 742.541 682.038 742.636C681.077 742.684 680.271 742.712 679.704 742.729C679.421 742.738 679.198 742.743 679.045 742.746C678.968 742.748 678.909 742.749 678.869 742.75L678.823 742.751L678.808 742.751C678.808 742.751 678.807 742.751 678.791 741.751ZM678.791 741.751L678.776 740.751C678.224 740.76 677.783 741.214 677.792 741.766C677.8 742.319 678.254 742.759 678.807 742.751L678.791 741.751Z" fill="black"/>
<path d="M698.457 742.682C696.65 738.128 679 732.5 679 732.5L670.53 748.285C670.53 748.285 700.265 747.236 698.457 742.682Z" fill="#B5D395"/>
<path fill-rule="evenodd" clip-rule="evenodd" d="M677.561 731.157C677.75 730.638 678.324 730.371 678.843 730.561L678.5 731.5C678.843 730.561 678.843 730.561 678.843 730.561L678.858 730.566L678.898 730.581C678.933 730.594 678.986 730.613 679.053 730.638C679.189 730.689 679.387 730.763 679.639 730.859C680.143 731.051 680.865 731.33 681.736 731.679C683.477 732.375 685.82 733.354 688.224 734.477C690.623 735.599 693.107 736.876 695.118 738.173C696.123 738.822 697.032 739.489 697.758 740.159C698.471 740.816 699.079 741.539 699.387 742.313C699.599 742.848 699.584 743.404 699.35 743.913C699.133 744.385 698.759 744.752 698.363 745.04C697.579 745.609 696.429 746.062 695.136 746.439C692.517 747.202 688.9 747.768 685.286 748.185C681.658 748.603 677.978 748.878 675.209 749.048C673.823 749.133 672.664 749.192 671.85 749.23C671.443 749.249 671.123 749.263 670.904 749.271C670.794 749.276 670.71 749.279 670.653 749.281L670.565 749.285C670.565 749.285 670.565 749.285 670.53 748.285C670.494 747.286 670.494 747.286 670.494 747.286L670.577 747.283C670.632 747.281 670.715 747.277 670.823 747.273C671.038 747.264 671.355 747.251 671.757 747.232C672.563 747.195 673.712 747.136 675.086 747.052C677.836 746.883 681.477 746.611 685.057 746.198C688.65 745.783 692.128 745.233 694.576 744.519C695.816 744.157 696.693 743.781 697.189 743.421C697.433 743.243 697.513 743.121 697.533 743.078C697.533 743.076 697.534 743.076 697.535 743.076C697.537 743.075 697.537 743.075 697.528 743.051C697.383 742.686 697.029 742.206 696.403 741.629C695.791 741.065 694.985 740.467 694.034 739.854C692.134 738.628 689.742 737.394 687.377 736.289C685.018 735.187 682.711 734.223 680.992 733.535C680.134 733.191 679.423 732.917 678.928 732.728C678.68 732.634 678.487 732.562 678.355 732.513C678.29 732.488 678.24 732.47 678.206 732.457L678.169 732.444L678.158 732.44C677.639 732.25 677.371 731.676 677.561 731.157ZM669.53 748.32C669.511 747.768 669.943 747.305 670.494 747.286L670.53 748.285L670.565 749.285C670.013 749.304 669.55 748.872 669.53 748.32Z" fill="black"/>
<path fill-rule="evenodd" clip-rule="evenodd" d="M279.369 729.511C279.558 728.992 280.133 728.725 280.651 728.914L280.308 729.854C280.651 728.914 280.651 728.914 280.651 728.914L280.664 728.919L280.698 728.931L280.828 728.98C280.941 729.022 281.107 729.084 281.317 729.164C281.739 729.324 282.342 729.557 283.069 729.848C284.523 730.431 286.481 731.248 288.49 732.187C290.493 733.123 292.573 734.193 294.26 735.281C295.103 735.824 295.869 736.387 296.484 736.954C297.086 737.509 297.614 738.132 297.884 738.812C298.049 739.227 298.09 739.67 297.975 740.108C297.862 740.533 297.622 740.88 297.346 741.155C296.815 741.684 296.032 742.067 295.211 742.362C293.539 742.964 291.223 743.366 288.941 743.641C286.64 743.918 284.299 744.074 282.537 744.161C281.656 744.204 280.916 744.23 280.397 744.246C280.137 744.254 279.932 744.259 279.792 744.262C279.722 744.263 279.667 744.264 279.631 744.265L279.588 744.266L279.574 744.266C279.574 744.266 279.573 744.266 279.558 743.266L279.543 742.266L279.555 742.266L279.594 742.265C279.628 742.265 279.68 742.264 279.748 742.262C279.884 742.259 280.083 742.254 280.338 742.247C280.846 742.232 281.572 742.206 282.439 742.163C284.175 742.077 286.465 741.924 288.702 741.655C290.958 741.383 293.086 741.001 294.534 740.48C295.273 740.215 295.72 739.952 295.934 739.738C295.982 739.691 296.009 739.654 296.024 739.63C296.032 739.618 296.036 739.61 296.038 739.605L296.04 739.6C296.039 739.594 296.036 739.578 296.025 739.55C295.918 739.279 295.644 738.899 295.129 738.425C294.628 737.963 293.964 737.47 293.176 736.961C291.599 735.944 289.612 734.919 287.643 733.999C285.679 733.081 283.758 732.278 282.326 731.705C281.61 731.419 281.019 731.19 280.606 731.033C280.4 730.955 280.239 730.894 280.13 730.854L280.006 730.808L279.975 730.796L279.966 730.793C279.447 730.604 279.18 730.029 279.369 729.511ZM278.558 743.281C278.55 742.729 278.991 742.275 279.543 742.266L279.558 743.266L279.573 744.266C279.021 744.274 278.566 743.833 278.558 743.281Z" fill="black"/>
<path d="M298.857 746.683C297.049 742.129 279.399 736.501 279.399 736.501L270.929 752.286C270.929 752.286 300.664 751.237 298.857 746.683Z" fill="#B5D395"/>
<path fill-rule="evenodd" clip-rule="evenodd" d="M277.96 735.158C278.15 734.639 278.724 734.372 279.243 734.562L278.9 735.501C279.243 734.562 279.242 734.562 279.243 734.562L279.257 734.567L279.298 734.582C279.333 734.595 279.385 734.614 279.453 734.64C279.588 734.69 279.786 734.764 280.038 734.86C280.543 735.052 281.264 735.331 282.135 735.68C283.876 736.377 286.22 737.355 288.624 738.479C291.022 739.6 293.507 740.877 295.518 742.175C296.523 742.823 297.431 743.49 298.158 744.16C298.87 744.817 299.479 745.541 299.786 746.314C299.998 746.85 299.983 747.405 299.749 747.914C299.532 748.386 299.158 748.754 298.763 749.041C297.978 749.61 296.828 750.063 295.535 750.44C292.917 751.203 289.299 751.769 285.685 752.186C282.057 752.604 278.377 752.879 275.608 753.049C274.223 753.134 273.063 753.194 272.25 753.231C271.843 753.25 271.522 753.264 271.303 753.273C271.193 753.277 271.109 753.28 271.052 753.283L270.965 753.286C270.964 753.286 270.964 753.286 270.929 752.286C270.894 751.287 270.894 751.287 270.894 751.287L270.976 751.284C271.032 751.282 271.114 751.279 271.222 751.274C271.438 751.266 271.754 751.252 272.157 751.233C272.962 751.196 274.112 751.138 275.486 751.053C278.235 750.884 281.876 750.612 285.456 750.199C289.05 749.784 292.527 749.234 294.975 748.52C296.216 748.158 297.092 747.782 297.588 747.422C297.833 747.245 297.912 747.122 297.932 747.079C297.933 747.077 297.934 747.077 297.935 747.077C297.937 747.077 297.937 747.077 297.927 747.052C297.782 746.688 297.428 746.208 296.802 745.631C296.19 745.066 295.384 744.469 294.433 743.855C292.533 742.629 290.141 741.396 287.777 740.291C285.417 739.188 283.111 738.225 281.392 737.536C280.533 737.193 279.823 736.918 279.327 736.73C279.08 736.635 278.886 736.563 278.755 736.514C278.689 736.49 278.639 736.471 278.606 736.459L278.568 736.445L278.557 736.441C278.038 736.251 277.771 735.677 277.96 735.158ZM269.93 752.322C269.91 751.77 270.342 751.306 270.894 751.287L270.929 752.286L270.965 753.286C270.413 753.305 269.949 752.874 269.93 752.322Z" fill="black"/>
<path fill-rule="evenodd" clip-rule="evenodd" d="M485.5 651C486.052 651 486.5 651.448 486.5 652C486.5 652.788 486.427 653.549 486.362 654.226C486.35 654.352 486.338 654.474 486.327 654.593C486.254 655.386 486.216 656.038 486.292 656.626C486.364 657.189 486.541 657.677 486.903 658.135C487.275 658.605 487.889 659.102 488.929 659.597C489.428 659.834 489.64 660.43 489.403 660.929C489.166 661.428 488.57 661.64 488.071 661.403C486.844 660.82 485.95 660.154 485.334 659.375C484.709 658.585 484.419 657.739 484.308 656.883C484.201 656.053 484.263 655.203 484.336 654.41C484.348 654.277 484.361 654.145 484.373 654.013C484.438 653.336 484.5 652.684 484.5 652C484.5 651.448 484.948 651 485.5 651Z" fill="black"/>
<path fill-rule="evenodd" clip-rule="evenodd" d="M502.231 644C502.783 644 503.231 644.448 503.231 645C503.231 645.664 503.162 646.308 503.102 646.865C503.091 646.967 503.08 647.067 503.07 647.163C503.003 647.816 502.971 648.323 503.036 648.772C503.096 649.189 503.24 649.55 503.55 649.9C503.875 650.267 504.429 650.672 505.391 651.079C505.899 651.295 506.137 651.882 505.921 652.39C505.705 652.899 505.118 653.136 504.61 652.921C503.479 652.441 502.64 651.888 502.054 651.226C501.452 650.548 501.165 649.81 501.056 649.059C500.952 648.34 501.013 647.61 501.08 646.958C501.092 646.846 501.104 646.735 501.115 646.626C501.175 646.069 501.231 645.548 501.231 645C501.231 644.448 501.679 644 502.231 644Z" fill="black"/>
<path fill-rule="evenodd" clip-rule="evenodd" d="M519.231 637C519.783 637 520.231 637.448 520.231 638C520.231 638.449 520.147 638.889 520.087 639.203C520.077 639.258 520.067 639.309 520.059 639.355C519.992 639.729 519.989 639.889 520.015 639.992L520.016 639.993C520.029 640.048 520.149 640.523 522.236 641.028C522.772 641.158 523.102 641.699 522.972 642.235C522.842 642.772 522.301 643.102 521.765 642.972C519.677 642.466 518.402 641.767 518.077 640.483C517.934 639.918 518.024 639.371 518.091 639C518.104 638.925 518.117 638.856 518.13 638.79C518.188 638.474 518.231 638.246 518.231 638C518.231 637.448 518.678 637 519.231 637Z" fill="black"/>
<path fill-rule="evenodd" clip-rule="evenodd" d="M467.231 656C467.783 656 468.231 656.448 468.231 657C468.231 657.906 468.165 658.781 468.105 659.578C468.094 659.726 468.083 659.872 468.073 660.015C468.005 660.948 467.966 661.754 468.041 662.493C468.114 663.216 468.295 663.845 468.652 664.42C469.009 664.996 469.579 665.576 470.518 666.145C470.991 666.431 471.142 667.046 470.856 667.518C470.57 667.99 469.955 668.141 469.482 667.855C468.329 667.157 467.507 666.368 466.952 665.474C466.397 664.58 466.147 663.639 466.051 662.694C465.957 661.765 466.01 660.804 466.078 659.871C466.089 659.717 466.1 659.564 466.112 659.41C466.172 658.613 466.231 657.825 466.231 657C466.231 656.448 466.679 656 467.231 656Z" fill="black"/>
<path fill-rule="evenodd" clip-rule="evenodd" d="M449.231 659C449.783 659 450.231 659.448 450.231 660C450.231 661.157 450.167 662.271 450.107 663.307C450.095 663.501 450.084 663.693 450.074 663.882C450.006 665.094 449.964 666.183 450.043 667.194C450.196 669.154 450.795 670.778 452.619 672.214C453.053 672.556 453.128 673.185 452.786 673.619C452.444 674.053 451.816 674.127 451.382 673.786C449.02 671.927 448.235 669.727 448.049 667.349C447.959 666.192 448.009 664.983 448.077 663.771C448.088 663.573 448.099 663.376 448.111 663.178C448.17 662.142 448.231 661.094 448.231 660C448.231 659.448 448.679 659 449.231 659Z" fill="black"/>
<path fill-rule="evenodd" clip-rule="evenodd" d="M431.231 661C431.783 661 432.231 661.448 432.231 662C432.231 663.41 432.167 664.768 432.107 666.043C432.096 666.283 432.085 666.52 432.074 666.754C432.007 668.246 431.963 669.612 432.044 670.887C432.204 673.404 432.841 675.484 434.696 677.282C435.093 677.666 435.103 678.299 434.719 678.696C434.334 679.093 433.701 679.102 433.305 678.718C430.974 676.46 430.227 673.835 430.048 671.013C429.96 669.619 430.009 668.156 430.076 666.664C430.087 666.423 430.099 666.181 430.11 665.938C430.17 664.663 430.231 663.359 430.231 662C430.231 661.448 430.679 661 431.231 661Z" fill="black"/>
<path fill-rule="evenodd" clip-rule="evenodd" d="M413.231 663C413.783 663 414.231 663.448 414.231 664C414.231 665.41 414.167 666.768 414.107 668.043C414.096 668.283 414.085 668.52 414.074 668.754C414.007 670.246 413.963 671.612 414.044 672.887C414.204 675.404 414.841 677.484 416.696 679.282C417.093 679.666 417.103 680.299 416.719 680.696C416.334 681.093 415.701 681.102 415.305 680.718C412.974 678.46 412.227 675.835 412.048 673.013C411.96 671.619 412.009 670.156 412.076 668.664C412.087 668.423 412.099 668.181 412.11 667.938C412.17 666.663 412.231 665.359 412.231 664C412.231 663.448 412.679 663 413.231 663Z" fill="black"/>
<path fill-rule="evenodd" clip-rule="evenodd" d="M395.231 665C395.783 665 396.231 665.448 396.231 666C396.231 667.41 396.167 668.768 396.107 670.043C396.096 670.283 396.085 670.52 396.074 670.754C396.007 672.246 395.963 673.612 396.044 674.887C396.204 677.404 396.841 679.484 398.696 681.282C399.093 681.666 399.103 682.299 398.719 682.696C398.334 683.093 397.701 683.102 397.305 682.718C394.974 680.46 394.227 677.835 394.048 675.013C393.96 673.619 394.009 672.156 394.076 670.664C394.087 670.423 394.099 670.181 394.11 669.938C394.17 668.663 394.231 667.359 394.231 666C394.231 665.448 394.679 665 395.231 665Z" fill="black"/>
<path fill-rule="evenodd" clip-rule="evenodd" d="M377.231 665C377.783 665 378.231 665.448 378.231 666C378.231 667.41 378.167 668.768 378.107 670.043C378.096 670.283 378.085 670.52 378.074 670.754C378.007 672.246 377.963 673.612 378.044 674.887C378.204 677.404 378.841 679.484 380.696 681.282C381.093 681.666 381.103 682.299 380.719 682.696C380.334 683.093 379.701 683.102 379.305 682.718C376.974 680.46 376.227 677.835 376.048 675.013C375.96 673.619 376.009 672.156 376.076 670.664C376.087 670.423 376.099 670.181 376.11 669.938C376.17 668.663 376.231 667.359 376.231 666C376.231 665.448 376.679 665 377.231 665Z" fill="black"/>
<path fill-rule="evenodd" clip-rule="evenodd" d="M359.231 665C359.783 665 360.231 665.448 360.231 666C360.231 667.41 360.167 668.768 360.107 670.043C360.096 670.283 360.085 670.52 360.074 670.754C360.007 672.246 359.963 673.612 360.044 674.887C360.204 677.404 360.841 679.484 362.696 681.282C363.093 681.666 363.103 682.299 362.719 682.696C362.334 683.093 361.701 683.102 361.305 682.718C358.974 680.46 358.227 677.835 358.048 675.013C357.96 673.619 358.009 672.156 358.076 670.664C358.087 670.423 358.099 670.181 358.11 669.938C358.17 668.663 358.231 667.359 358.231 666C358.231 665.448 358.679 665 359.231 665Z" fill="black"/>
<path fill-rule="evenodd" clip-rule="evenodd" d="M341.231 665C341.783 665 342.231 665.448 342.231 666C342.231 667.241 342.167 668.436 342.107 669.551C342.096 669.761 342.084 669.968 342.074 670.172C342.007 671.477 341.964 672.659 342.044 673.759C342.199 675.908 342.814 677.683 344.647 679.237C345.068 679.594 345.12 680.225 344.763 680.647C344.406 681.068 343.775 681.12 343.354 680.763C341.002 678.769 340.232 676.426 340.049 673.903C339.959 672.667 340.009 671.375 340.077 670.069C340.088 669.857 340.099 669.645 340.11 669.432C340.17 668.316 340.231 667.182 340.231 666C340.231 665.448 340.679 665 341.231 665Z" fill="black"/>
<path fill-rule="evenodd" clip-rule="evenodd" d="M323.231 664C323.783 664 324.231 664.448 324.231 665C324.231 665.989 324.166 666.943 324.106 667.819C324.095 667.983 324.083 668.145 324.073 668.303C324.006 669.329 323.965 670.23 324.042 671.061C324.117 671.88 324.304 672.597 324.673 673.251C325.04 673.902 325.619 674.544 326.555 675.168C327.014 675.474 327.139 676.095 326.833 676.554C326.526 677.014 325.906 677.138 325.446 676.832C324.289 676.062 323.475 675.198 322.931 674.233C322.388 673.271 322.144 672.262 322.05 671.245C321.958 670.24 322.01 669.198 322.077 668.172C322.088 668.004 322.1 667.835 322.111 667.667C322.171 666.791 322.231 665.915 322.231 665C322.231 664.448 322.679 664 323.231 664Z" fill="black"/>
<path fill-rule="evenodd" clip-rule="evenodd" d="M305.231 662C305.783 662 306.231 662.448 306.231 663C306.231 663.989 306.166 664.943 306.106 665.819C306.095 665.983 306.083 666.145 306.073 666.303C306.006 667.329 305.965 668.23 306.042 669.061C306.117 669.88 306.304 670.597 306.673 671.251C307.04 671.902 307.619 672.544 308.555 673.168C309.014 673.474 309.139 674.095 308.833 674.554C308.526 675.014 307.906 675.138 307.446 674.832C306.289 674.062 305.475 673.198 304.931 672.233C304.388 671.271 304.144 670.262 304.05 669.245C303.958 668.24 304.01 667.198 304.077 666.172C304.088 666.004 304.1 665.835 304.111 665.667C304.171 664.791 304.231 663.915 304.231 663C304.231 662.448 304.679 662 305.231 662Z" fill="black"/>
<path fill-rule="evenodd" clip-rule="evenodd" d="M288.231 659C288.783 659 289.231 659.448 289.231 660C289.231 660.824 289.164 661.62 289.104 662.337C289.093 662.471 289.082 662.601 289.072 662.729C289.005 663.568 288.967 664.277 289.04 664.922C289.11 665.548 289.283 666.088 289.625 666.585C289.972 667.087 290.535 667.607 291.479 668.122C291.964 668.386 292.143 668.994 291.878 669.479C291.614 669.963 291.007 670.142 290.522 669.878C289.373 669.252 288.544 668.54 287.979 667.72C287.41 666.895 287.151 666.022 287.052 665.146C286.956 664.29 287.011 663.408 287.078 662.569C287.09 662.429 287.101 662.29 287.113 662.152C287.173 661.434 287.231 660.734 287.231 660C287.231 659.448 287.679 659 288.231 659Z" fill="black"/>
<path fill-rule="evenodd" clip-rule="evenodd" d="M271.231 656C271.783 656 272.231 656.448 272.231 657C272.231 657.664 272.162 658.308 272.102 658.865C272.091 658.967 272.08 659.067 272.07 659.163C272.003 659.816 271.971 660.323 272.036 660.772C272.096 661.189 272.24 661.55 272.55 661.9C272.875 662.267 273.429 662.672 274.391 663.079C274.899 663.295 275.137 663.882 274.921 664.39C274.705 664.899 274.118 665.136 273.61 664.921C272.479 664.441 271.64 663.888 271.054 663.226C270.452 662.548 270.165 661.81 270.056 661.059C269.952 660.34 270.013 659.61 270.08 658.958C270.092 658.846 270.104 658.735 270.115 658.626C270.175 658.069 270.231 657.548 270.231 657C270.231 656.448 270.679 656 271.231 656Z" fill="black"/>
<path fill-rule="evenodd" clip-rule="evenodd" d="M602.085 591.187C602.527 590.859 603.15 590.955 603.475 591.401C608.823 598.725 610.808 603.186 613.294 611.347C613.456 611.876 613.161 612.436 612.636 612.598C612.111 612.76 611.555 612.462 611.394 611.933C608.962 603.953 607.07 599.702 601.874 592.587C601.549 592.141 601.643 591.514 602.085 591.187Z" fill="black"/>
<path fill-rule="evenodd" clip-rule="evenodd" d="M598.385 605.428C598.827 605.101 599.449 605.197 599.775 605.643C605.123 612.967 607.108 617.428 609.594 625.589C609.755 626.118 609.461 626.678 608.936 626.84C608.411 627.002 607.855 626.704 607.693 626.175C605.262 618.195 603.369 613.944 598.174 606.829C597.848 606.383 597.943 605.756 598.385 605.428Z" fill="black"/>
<path fill-rule="evenodd" clip-rule="evenodd" d="M616.006 617.648C616.448 617.321 617.07 617.417 617.396 617.863C622.743 625.186 624.728 629.648 627.215 637.809C627.376 638.338 627.081 638.898 626.556 639.06C626.031 639.222 625.475 638.924 625.314 638.395C622.883 630.415 620.99 626.164 615.795 619.049C615.469 618.603 615.563 617.976 616.006 617.648Z" fill="black"/>
<path fill-rule="evenodd" clip-rule="evenodd" d="M635.738 554.53C635.463 554.053 635.629 553.446 636.109 553.173C643.995 548.695 648.653 547.232 657.045 545.691C657.589 545.592 658.111 545.948 658.212 546.488C658.313 547.028 657.954 547.547 657.41 547.647C649.205 549.153 644.766 550.549 637.105 554.899C636.625 555.172 636.013 555.007 635.738 554.53Z" fill="black"/>
<path fill-rule="evenodd" clip-rule="evenodd" d="M649.465 559.829C649.19 559.353 649.357 558.745 649.837 558.472C657.722 553.994 662.381 552.531 670.772 550.991C671.316 550.891 671.839 551.247 671.94 551.787C672.041 552.327 671.681 552.846 671.137 552.946C662.933 554.452 658.494 555.848 650.832 560.198C650.352 560.471 649.74 560.306 649.465 559.829Z" fill="black"/>
<path fill-rule="evenodd" clip-rule="evenodd" d="M663.614 543.716C663.339 543.239 663.505 542.632 663.985 542.359C671.871 537.881 676.529 536.418 684.921 534.877C685.465 534.777 685.987 535.134 686.088 535.674C686.189 536.214 685.83 536.733 685.286 536.832C677.081 538.338 672.642 539.734 664.981 544.085C664.501 544.358 663.889 544.192 663.614 543.716Z" fill="black"/>
<path fill-rule="evenodd" clip-rule="evenodd" d="M791.592 278.258C791.372 277.754 791.605 277.169 792.113 276.952C800.45 273.384 805.243 272.451 813.754 271.859C814.306 271.821 814.785 272.234 814.825 272.781C814.865 273.329 814.45 273.804 813.898 273.843C805.576 274.421 801.009 275.312 792.909 278.778C792.402 278.995 791.812 278.763 791.592 278.258Z" fill="black"/>
<path fill-rule="evenodd" clip-rule="evenodd" d="M804.64 285.06C804.42 284.556 804.654 283.971 805.161 283.753C813.498 280.186 818.291 279.253 826.802 278.661C827.354 278.622 827.834 279.035 827.873 279.583C827.913 280.131 827.498 280.606 826.946 280.644C818.625 281.223 814.057 282.114 805.958 285.58C805.45 285.797 804.86 285.564 804.64 285.06Z" fill="black"/>
<path fill-rule="evenodd" clip-rule="evenodd" d="M820.503 270.631C820.283 270.126 820.516 269.541 821.024 269.324C829.361 265.756 834.154 264.823 842.665 264.232C843.216 264.193 843.696 264.606 843.736 265.154C843.775 265.702 843.36 266.177 842.809 266.215C834.487 266.794 829.92 267.684 821.82 271.151C821.312 271.368 820.722 271.135 820.503 270.631Z" fill="black"/>
<path fill-rule="evenodd" clip-rule="evenodd" d="M758.485 416.335C759.009 416.501 759.296 417.062 759.126 417.587C756.328 426.213 753.877 430.436 748.723 437.235C748.389 437.676 747.763 437.765 747.324 437.435C746.885 437.105 746.8 436.479 747.135 436.039C752.174 429.391 754.508 425.365 757.227 416.985C757.397 416.46 757.96 416.169 758.485 416.335Z" fill="black"/>
<path fill-rule="evenodd" clip-rule="evenodd" d="M747.24 425.102C747.675 425.439 747.751 426.064 747.409 426.498C741.805 433.628 738.047 436.746 730.863 441.347C730.397 441.645 729.778 441.513 729.48 441.051C729.183 440.59 729.319 439.974 729.785 439.675C736.809 435.176 740.39 432.204 745.835 425.278C746.176 424.844 746.805 424.765 747.24 425.102Z" fill="black"/>
<path fill-rule="evenodd" clip-rule="evenodd" d="M751.668 397.243C752.217 397.219 752.679 397.646 752.7 398.198C753.037 407.26 752.187 412.069 749.684 420.225C749.522 420.754 748.964 421.053 748.438 420.893C747.913 420.734 747.618 420.176 747.781 419.647C750.228 411.672 751.037 407.09 750.709 398.286C750.689 397.734 751.118 397.267 751.668 397.243Z" fill="black"/>
<path fill-rule="evenodd" clip-rule="evenodd" d="M656.164 678.991C656.644 678.722 657.25 678.896 657.516 679.379C661.896 687.32 663.301 691.997 664.736 700.407C664.829 700.952 664.466 701.47 663.925 701.564C663.384 701.658 662.87 701.292 662.777 700.747C661.373 692.524 660.033 688.068 655.778 680.353C655.512 679.87 655.684 679.26 656.164 678.991Z" fill="black"/>
<path fill-rule="evenodd" clip-rule="evenodd" d="M650.695 692.651C651.175 692.382 651.78 692.556 652.047 693.04C656.426 700.98 657.831 705.657 659.267 714.067C659.36 714.612 658.996 715.13 658.455 715.224C657.914 715.318 657.4 714.953 657.307 714.407C655.904 706.184 654.563 701.728 650.308 694.014C650.042 693.53 650.215 692.92 650.695 692.651Z" fill="black"/>
<path fill-rule="evenodd" clip-rule="evenodd" d="M666.63 706.999C667.11 706.731 667.715 706.904 667.982 707.388C672.361 715.329 673.767 720.005 675.202 728.415C675.295 728.96 674.932 729.479 674.391 729.573C673.85 729.667 673.336 729.301 673.243 728.756C671.839 720.533 670.499 716.077 666.244 708.362C665.977 707.878 666.15 707.268 666.63 706.999Z" fill="black"/>
<path fill-rule="evenodd" clip-rule="evenodd" d="M547.274 687.774C546.775 688.006 546.185 687.788 545.954 687.287C542.171 679.045 541.114 674.278 540.301 665.785C540.248 665.235 540.649 664.745 541.195 664.691C541.742 664.637 542.228 665.039 542.28 665.59C543.075 673.894 544.084 678.436 547.759 686.443C547.99 686.945 547.772 687.541 547.274 687.774Z" fill="black"/>
<path fill-rule="evenodd" clip-rule="evenodd" d="M553.734 674.553C553.235 674.786 552.645 674.568 552.414 674.066C548.631 665.825 547.574 661.057 546.761 652.565C546.708 652.014 547.109 651.524 547.655 651.47C548.202 651.416 548.688 651.819 548.74 652.369C549.535 660.673 550.544 665.216 554.219 673.223C554.45 673.724 554.232 674.32 553.734 674.553Z" fill="black"/>
<path fill-rule="evenodd" clip-rule="evenodd" d="M538.897 659.071C538.399 659.304 537.808 659.086 537.578 658.584C533.795 650.343 532.737 645.575 531.924 637.083C531.872 636.532 532.272 636.042 532.819 635.988C533.365 635.934 533.851 636.336 533.904 636.887C534.698 645.191 535.707 649.734 539.383 657.741C539.613 658.242 539.396 658.838 538.897 659.071Z" fill="black"/>
<path fill-rule="evenodd" clip-rule="evenodd" d="M152.918 684.372C152.376 684.461 151.866 684.092 151.779 683.546C150.364 674.589 150.634 669.714 152.146 661.317C152.244 660.773 152.761 660.409 153.302 660.505C153.843 660.6 154.202 661.119 154.104 661.664C152.626 669.873 152.37 674.52 153.745 683.222C153.831 683.767 153.461 684.282 152.918 684.372Z" fill="black"/>
<path fill-rule="evenodd" clip-rule="evenodd" d="M162.71 673.388C162.167 673.478 161.657 673.108 161.571 672.563C160.155 663.606 160.425 658.73 161.937 650.334C162.035 649.789 162.553 649.426 163.094 649.521C163.635 649.617 163.994 650.136 163.896 650.68C162.417 658.89 162.161 663.536 163.537 672.238C163.623 672.784 163.253 673.299 162.71 673.388Z" fill="black"/>
<path fill-rule="evenodd" clip-rule="evenodd" d="M152.608 654.473C152.066 654.563 151.556 654.193 151.469 653.648C150.054 644.691 150.324 639.815 151.836 631.419C151.934 630.875 152.451 630.511 152.992 630.606C153.533 630.702 153.892 631.221 153.794 631.765C152.316 639.975 152.06 644.621 153.435 653.324C153.521 653.869 153.151 654.384 152.608 654.473Z" fill="black"/>
<path fill-rule="evenodd" clip-rule="evenodd" d="M149.82 747.417C149.277 747.507 148.767 747.137 148.681 746.592C147.265 737.635 147.535 732.759 149.047 724.363C149.145 723.818 149.663 723.455 150.204 723.55C150.745 723.646 151.103 724.165 151.005 724.709C149.527 732.919 149.271 737.565 150.647 746.268C150.733 746.813 150.363 747.328 149.82 747.417Z" fill="black"/>
<path fill-rule="evenodd" clip-rule="evenodd" d="M159.611 736.434C159.068 736.523 158.559 736.154 158.472 735.608C157.056 726.651 157.326 721.776 158.838 713.379C158.936 712.835 159.454 712.471 159.995 712.567C160.536 712.663 160.895 713.181 160.797 713.726C159.319 721.936 159.063 726.582 160.438 735.284C160.524 735.829 160.154 736.344 159.611 736.434Z" fill="black"/>
<path fill-rule="evenodd" clip-rule="evenodd" d="M149.51 717.519C148.967 717.609 148.457 717.239 148.371 716.694C146.955 707.737 147.225 702.861 148.737 694.465C148.835 693.92 149.353 693.556 149.894 693.652C150.434 693.748 150.793 694.267 150.695 694.811C149.217 703.021 148.961 707.667 150.337 716.369C150.423 716.915 150.053 717.429 149.51 717.519Z" fill="black"/>
<path fill-rule="evenodd" clip-rule="evenodd" d="M261.762 676.542C262.26 676.308 262.851 676.525 263.083 677.026C266.886 685.258 267.954 690.023 268.787 698.514C268.841 699.064 268.442 699.555 267.896 699.611C267.349 699.666 266.863 699.265 266.809 698.714C265.994 690.412 264.974 685.872 261.28 677.874C261.048 677.373 261.264 676.776 261.762 676.542Z" fill="black"/>
<path fill-rule="evenodd" clip-rule="evenodd" d="M255.333 689.778C255.831 689.544 256.423 689.761 256.654 690.262C260.457 698.494 261.526 703.259 262.359 711.75C262.413 712.3 262.014 712.791 261.467 712.847C260.921 712.902 260.434 712.501 260.38 711.95C259.565 703.648 258.546 699.108 254.851 691.11C254.619 690.609 254.835 690.012 255.333 689.778Z" fill="black"/>
<path fill-rule="evenodd" clip-rule="evenodd" d="M270.207 705.225C270.705 704.991 271.296 705.207 271.528 705.709C275.33 713.941 276.399 718.706 277.232 727.196C277.286 727.747 276.887 728.238 276.341 728.293C275.794 728.349 275.307 727.947 275.253 727.397C274.439 719.095 273.419 714.555 269.725 706.556C269.493 706.055 269.709 705.459 270.207 705.225Z" fill="black"/>
</svg>
